G04 #@! TF.GenerationSoftware,KiCad,Pcbnew,5.0.1-33cea8e~68~ubuntu16.04.1*
G04 #@! TF.CreationDate,2018-11-23T16:55:50+09:00*
G04 #@! TF.ProjectId,BS2103F_photo,425332313033465F70686F746F2E6B69,rev?*
G04 #@! TF.SameCoordinates,Original*
G04 #@! TF.FileFunction,Soldermask,Bot*
G04 #@! TF.FilePolarity,Negative*
%FSLAX46Y46*%
G04 Gerber Fmt 4.6, Leading zero omitted, Abs format (unit mm)*
G04 Created by KiCad (PCBNEW 5.0.1-33cea8e~68~ubuntu16.04.1) date 2018年11月23日 16時55分50秒*
%MOMM*%
%LPD*%
G01*
G04 APERTURE LIST*
%ADD10C,0.100000*%
G04 APERTURE END LIST*
D10*
G36*
X152648228Y-117291703D02*
X152803100Y-117355853D01*
X152942481Y-117448985D01*
X153061015Y-117567519D01*
X153154147Y-117706900D01*
X153218297Y-117861772D01*
X153251000Y-118026184D01*
X153251000Y-118193816D01*
X153218297Y-118358228D01*
X153154147Y-118513100D01*
X153061015Y-118652481D01*
X152942481Y-118771015D01*
X152803100Y-118864147D01*
X152648228Y-118928297D01*
X152483816Y-118961000D01*
X152316184Y-118961000D01*
X152151772Y-118928297D01*
X151996900Y-118864147D01*
X151857519Y-118771015D01*
X151738985Y-118652481D01*
X151645853Y-118513100D01*
X151581703Y-118358228D01*
X151549000Y-118193816D01*
X151549000Y-118026184D01*
X151581703Y-117861772D01*
X151645853Y-117706900D01*
X151738985Y-117567519D01*
X151857519Y-117448985D01*
X151996900Y-117355853D01*
X152151772Y-117291703D01*
X152316184Y-117259000D01*
X152483816Y-117259000D01*
X152648228Y-117291703D01*
X152648228Y-117291703D01*
G37*
G36*
X147648228Y-117291703D02*
X147803100Y-117355853D01*
X147942481Y-117448985D01*
X148061015Y-117567519D01*
X148154147Y-117706900D01*
X148218297Y-117861772D01*
X148251000Y-118026184D01*
X148251000Y-118193816D01*
X148218297Y-118358228D01*
X148154147Y-118513100D01*
X148061015Y-118652481D01*
X147942481Y-118771015D01*
X147803100Y-118864147D01*
X147648228Y-118928297D01*
X147483816Y-118961000D01*
X147316184Y-118961000D01*
X147151772Y-118928297D01*
X146996900Y-118864147D01*
X146857519Y-118771015D01*
X146738985Y-118652481D01*
X146645853Y-118513100D01*
X146581703Y-118358228D01*
X146549000Y-118193816D01*
X146549000Y-118026184D01*
X146581703Y-117861772D01*
X146645853Y-117706900D01*
X146738985Y-117567519D01*
X146857519Y-117448985D01*
X146996900Y-117355853D01*
X147151772Y-117291703D01*
X147316184Y-117259000D01*
X147483816Y-117259000D01*
X147648228Y-117291703D01*
X147648228Y-117291703D01*
G37*
G36*
X128505442Y-113245518D02*
X128571627Y-113252037D01*
X128684853Y-113286384D01*
X128741467Y-113303557D01*
X128880087Y-113377652D01*
X128897991Y-113387222D01*
X128933729Y-113416552D01*
X129035186Y-113499814D01*
X129118448Y-113601271D01*
X129147778Y-113637009D01*
X129147779Y-113637011D01*
X129231443Y-113793533D01*
X129231443Y-113793534D01*
X129282963Y-113963373D01*
X129300359Y-114140000D01*
X129282963Y-114316627D01*
X129248616Y-114429853D01*
X129231443Y-114486467D01*
X129157348Y-114625087D01*
X129147778Y-114642991D01*
X129118448Y-114678729D01*
X129035186Y-114780186D01*
X128933729Y-114863448D01*
X128897991Y-114892778D01*
X128897989Y-114892779D01*
X128741467Y-114976443D01*
X128684853Y-114993616D01*
X128571627Y-115027963D01*
X128505443Y-115034481D01*
X128439260Y-115041000D01*
X128100740Y-115041000D01*
X128034557Y-115034481D01*
X127968373Y-115027963D01*
X127855147Y-114993616D01*
X127798533Y-114976443D01*
X127642011Y-114892779D01*
X127642009Y-114892778D01*
X127606271Y-114863448D01*
X127504814Y-114780186D01*
X127421552Y-114678729D01*
X127392222Y-114642991D01*
X127382652Y-114625087D01*
X127308557Y-114486467D01*
X127291384Y-114429853D01*
X127257037Y-114316627D01*
X127239641Y-114140000D01*
X127257037Y-113963373D01*
X127308557Y-113793534D01*
X127308557Y-113793533D01*
X127392221Y-113637011D01*
X127392222Y-113637009D01*
X127421552Y-113601271D01*
X127504814Y-113499814D01*
X127606271Y-113416552D01*
X127642009Y-113387222D01*
X127659913Y-113377652D01*
X127798533Y-113303557D01*
X127855147Y-113286384D01*
X127968373Y-113252037D01*
X128034558Y-113245518D01*
X128100740Y-113239000D01*
X128439260Y-113239000D01*
X128505442Y-113245518D01*
X128505442Y-113245518D01*
G37*
G36*
X128505442Y-110745518D02*
X128571627Y-110752037D01*
X128684853Y-110786384D01*
X128741467Y-110803557D01*
X128880087Y-110877652D01*
X128897991Y-110887222D01*
X128933729Y-110916552D01*
X129035186Y-110999814D01*
X129118448Y-111101271D01*
X129147778Y-111137009D01*
X129147779Y-111137011D01*
X129231443Y-111293533D01*
X129231443Y-111293534D01*
X129282963Y-111463373D01*
X129300359Y-111640000D01*
X129282963Y-111816627D01*
X129248616Y-111929853D01*
X129231443Y-111986467D01*
X129157348Y-112125087D01*
X129147778Y-112142991D01*
X129118448Y-112178729D01*
X129035186Y-112280186D01*
X128933729Y-112363448D01*
X128897991Y-112392778D01*
X128897989Y-112392779D01*
X128741467Y-112476443D01*
X128684853Y-112493616D01*
X128571627Y-112527963D01*
X128505442Y-112534482D01*
X128439260Y-112541000D01*
X128100740Y-112541000D01*
X128034558Y-112534482D01*
X127968373Y-112527963D01*
X127855147Y-112493616D01*
X127798533Y-112476443D01*
X127642011Y-112392779D01*
X127642009Y-112392778D01*
X127606271Y-112363448D01*
X127504814Y-112280186D01*
X127421552Y-112178729D01*
X127392222Y-112142991D01*
X127382652Y-112125087D01*
X127308557Y-111986467D01*
X127291384Y-111929853D01*
X127257037Y-111816627D01*
X127239641Y-111640000D01*
X127257037Y-111463373D01*
X127308557Y-111293534D01*
X127308557Y-111293533D01*
X127392221Y-111137011D01*
X127392222Y-111137009D01*
X127421552Y-111101271D01*
X127504814Y-110999814D01*
X127606271Y-110916552D01*
X127642009Y-110887222D01*
X127659913Y-110877652D01*
X127798533Y-110803557D01*
X127855147Y-110786384D01*
X127968373Y-110752037D01*
X128034558Y-110745518D01*
X128100740Y-110739000D01*
X128439260Y-110739000D01*
X128505442Y-110745518D01*
X128505442Y-110745518D01*
G37*
G36*
X128505443Y-108245519D02*
X128571627Y-108252037D01*
X128684853Y-108286384D01*
X128741467Y-108303557D01*
X128880087Y-108377652D01*
X128897991Y-108387222D01*
X128933729Y-108416552D01*
X129035186Y-108499814D01*
X129118448Y-108601271D01*
X129147778Y-108637009D01*
X129147779Y-108637011D01*
X129231443Y-108793533D01*
X129231443Y-108793534D01*
X129282963Y-108963373D01*
X129300359Y-109140000D01*
X129282963Y-109316627D01*
X129248616Y-109429853D01*
X129231443Y-109486467D01*
X129157348Y-109625087D01*
X129147778Y-109642991D01*
X129118448Y-109678729D01*
X129035186Y-109780186D01*
X128933729Y-109863448D01*
X128897991Y-109892778D01*
X128897989Y-109892779D01*
X128741467Y-109976443D01*
X128684853Y-109993616D01*
X128571627Y-110027963D01*
X128505442Y-110034482D01*
X128439260Y-110041000D01*
X128100740Y-110041000D01*
X128034558Y-110034482D01*
X127968373Y-110027963D01*
X127855147Y-109993616D01*
X127798533Y-109976443D01*
X127642011Y-109892779D01*
X127642009Y-109892778D01*
X127606271Y-109863448D01*
X127504814Y-109780186D01*
X127421552Y-109678729D01*
X127392222Y-109642991D01*
X127382652Y-109625087D01*
X127308557Y-109486467D01*
X127291384Y-109429853D01*
X127257037Y-109316627D01*
X127239641Y-109140000D01*
X127257037Y-108963373D01*
X127308557Y-108793534D01*
X127308557Y-108793533D01*
X127392221Y-108637011D01*
X127392222Y-108637009D01*
X127421552Y-108601271D01*
X127504814Y-108499814D01*
X127606271Y-108416552D01*
X127642009Y-108387222D01*
X127659913Y-108377652D01*
X127798533Y-108303557D01*
X127855147Y-108286384D01*
X127968373Y-108252037D01*
X128034557Y-108245519D01*
X128100740Y-108239000D01*
X128439260Y-108239000D01*
X128505443Y-108245519D01*
X128505443Y-108245519D01*
G37*
G36*
X128505442Y-105745518D02*
X128571627Y-105752037D01*
X128684853Y-105786384D01*
X128741467Y-105803557D01*
X128759320Y-105813100D01*
X128897991Y-105887222D01*
X128933729Y-105916552D01*
X129035186Y-105999814D01*
X129093617Y-106071014D01*
X129147778Y-106137009D01*
X129147779Y-106137011D01*
X129231443Y-106293533D01*
X129231443Y-106293534D01*
X129282963Y-106463373D01*
X129300359Y-106640000D01*
X129282963Y-106816627D01*
X129248616Y-106929853D01*
X129231443Y-106986467D01*
X129157348Y-107125087D01*
X129147778Y-107142991D01*
X129118448Y-107178729D01*
X129035186Y-107280186D01*
X128933729Y-107363448D01*
X128897991Y-107392778D01*
X128897989Y-107392779D01*
X128741467Y-107476443D01*
X128684853Y-107493616D01*
X128571627Y-107527963D01*
X128505442Y-107534482D01*
X128439260Y-107541000D01*
X128100740Y-107541000D01*
X128034558Y-107534482D01*
X127968373Y-107527963D01*
X127855147Y-107493616D01*
X127798533Y-107476443D01*
X127642011Y-107392779D01*
X127642009Y-107392778D01*
X127606271Y-107363448D01*
X127504814Y-107280186D01*
X127421552Y-107178729D01*
X127392222Y-107142991D01*
X127382652Y-107125087D01*
X127308557Y-106986467D01*
X127291384Y-106929853D01*
X127257037Y-106816627D01*
X127239641Y-106640000D01*
X127257037Y-106463373D01*
X127308557Y-106293534D01*
X127308557Y-106293533D01*
X127392221Y-106137011D01*
X127392222Y-106137009D01*
X127446383Y-106071014D01*
X127504814Y-105999814D01*
X127606271Y-105916552D01*
X127642009Y-105887222D01*
X127780680Y-105813100D01*
X127798533Y-105803557D01*
X127855147Y-105786384D01*
X127968373Y-105752037D01*
X128034558Y-105745518D01*
X128100740Y-105739000D01*
X128439260Y-105739000D01*
X128505442Y-105745518D01*
X128505442Y-105745518D01*
G37*
G36*
X152568228Y-104591703D02*
X152723100Y-104655853D01*
X152862481Y-104748985D01*
X152981015Y-104867519D01*
X153074147Y-105006900D01*
X153138297Y-105161772D01*
X153171000Y-105326184D01*
X153171000Y-105493816D01*
X153138297Y-105658228D01*
X153074147Y-105813100D01*
X152981015Y-105952481D01*
X152862481Y-106071015D01*
X152723100Y-106164147D01*
X152568228Y-106228297D01*
X152403816Y-106261000D01*
X152236184Y-106261000D01*
X152071772Y-106228297D01*
X151916900Y-106164147D01*
X151777519Y-106071015D01*
X151658985Y-105952481D01*
X151565853Y-105813100D01*
X151501703Y-105658228D01*
X151469000Y-105493816D01*
X151469000Y-105326184D01*
X151501703Y-105161772D01*
X151565853Y-105006900D01*
X151658985Y-104867519D01*
X151777519Y-104748985D01*
X151916900Y-104655853D01*
X152071772Y-104591703D01*
X152236184Y-104559000D01*
X152403816Y-104559000D01*
X152568228Y-104591703D01*
X152568228Y-104591703D01*
G37*
G36*
X147568228Y-104591703D02*
X147723100Y-104655853D01*
X147862481Y-104748985D01*
X147981015Y-104867519D01*
X148074147Y-105006900D01*
X148138297Y-105161772D01*
X148171000Y-105326184D01*
X148171000Y-105493816D01*
X148138297Y-105658228D01*
X148074147Y-105813100D01*
X147981015Y-105952481D01*
X147862481Y-106071015D01*
X147723100Y-106164147D01*
X147568228Y-106228297D01*
X147403816Y-106261000D01*
X147236184Y-106261000D01*
X147071772Y-106228297D01*
X146916900Y-106164147D01*
X146777519Y-106071015D01*
X146658985Y-105952481D01*
X146565853Y-105813100D01*
X146501703Y-105658228D01*
X146469000Y-105493816D01*
X146469000Y-105326184D01*
X146501703Y-105161772D01*
X146565853Y-105006900D01*
X146658985Y-104867519D01*
X146777519Y-104748985D01*
X146916900Y-104655853D01*
X147071772Y-104591703D01*
X147236184Y-104559000D01*
X147403816Y-104559000D01*
X147568228Y-104591703D01*
X147568228Y-104591703D01*
G37*
G36*
X129153600Y-103242989D02*
X129186649Y-103253014D01*
X129217106Y-103269294D01*
X129243799Y-103291201D01*
X129265706Y-103317894D01*
X129281986Y-103348351D01*
X129292011Y-103381400D01*
X129296000Y-103421904D01*
X129296000Y-104858096D01*
X129292011Y-104898600D01*
X129281986Y-104931649D01*
X129265706Y-104962106D01*
X129243799Y-104988799D01*
X129217106Y-105010706D01*
X129186649Y-105026986D01*
X129153600Y-105037011D01*
X129113096Y-105041000D01*
X127426904Y-105041000D01*
X127386400Y-105037011D01*
X127353351Y-105026986D01*
X127322894Y-105010706D01*
X127296201Y-104988799D01*
X127274294Y-104962106D01*
X127258014Y-104931649D01*
X127247989Y-104898600D01*
X127244000Y-104858096D01*
X127244000Y-103421904D01*
X127247989Y-103381400D01*
X127258014Y-103348351D01*
X127274294Y-103317894D01*
X127296201Y-103291201D01*
X127322894Y-103269294D01*
X127353351Y-103253014D01*
X127386400Y-103242989D01*
X127426904Y-103239000D01*
X129113096Y-103239000D01*
X129153600Y-103242989D01*
X129153600Y-103242989D01*
G37*
G36*
X140543228Y-102686703D02*
X140698100Y-102750853D01*
X140837481Y-102843985D01*
X140956015Y-102962519D01*
X141049147Y-103101900D01*
X141113297Y-103256772D01*
X141146000Y-103421184D01*
X141146000Y-103588816D01*
X141113297Y-103753228D01*
X141049147Y-103908100D01*
X140956015Y-104047481D01*
X140837481Y-104166015D01*
X140698100Y-104259147D01*
X140543228Y-104323297D01*
X140378816Y-104356000D01*
X140211184Y-104356000D01*
X140046772Y-104323297D01*
X139891900Y-104259147D01*
X139752519Y-104166015D01*
X139633985Y-104047481D01*
X139540853Y-103908100D01*
X139476703Y-103753228D01*
X139444000Y-103588816D01*
X139444000Y-103421184D01*
X139476703Y-103256772D01*
X139540853Y-103101900D01*
X139633985Y-102962519D01*
X139752519Y-102843985D01*
X139891900Y-102750853D01*
X140046772Y-102686703D01*
X140211184Y-102654000D01*
X140378816Y-102654000D01*
X140543228Y-102686703D01*
X140543228Y-102686703D01*
G37*
G36*
X138646000Y-104356000D02*
X136944000Y-104356000D01*
X136944000Y-102654000D01*
X138646000Y-102654000D01*
X138646000Y-104356000D01*
X138646000Y-104356000D01*
G37*
G36*
X141773228Y-97606703D02*
X141928100Y-97670853D01*
X142067481Y-97763985D01*
X142186015Y-97882519D01*
X142279147Y-98021900D01*
X142343297Y-98176772D01*
X142376000Y-98341184D01*
X142376000Y-98508816D01*
X142343297Y-98673228D01*
X142279147Y-98828100D01*
X142186015Y-98967481D01*
X142067481Y-99086015D01*
X141928100Y-99179147D01*
X141773228Y-99243297D01*
X141608816Y-99276000D01*
X141441184Y-99276000D01*
X141276772Y-99243297D01*
X141121900Y-99179147D01*
X140982519Y-99086015D01*
X140863985Y-98967481D01*
X140770853Y-98828100D01*
X140706703Y-98673228D01*
X140674000Y-98508816D01*
X140674000Y-98341184D01*
X140706703Y-98176772D01*
X140770853Y-98021900D01*
X140863985Y-97882519D01*
X140982519Y-97763985D01*
X141121900Y-97670853D01*
X141276772Y-97606703D01*
X141441184Y-97574000D01*
X141608816Y-97574000D01*
X141773228Y-97606703D01*
X141773228Y-97606703D01*
G37*
G36*
X136773228Y-97606703D02*
X136928100Y-97670853D01*
X137067481Y-97763985D01*
X137186015Y-97882519D01*
X137279147Y-98021900D01*
X137343297Y-98176772D01*
X137376000Y-98341184D01*
X137376000Y-98508816D01*
X137343297Y-98673228D01*
X137279147Y-98828100D01*
X137186015Y-98967481D01*
X137067481Y-99086015D01*
X136928100Y-99179147D01*
X136773228Y-99243297D01*
X136608816Y-99276000D01*
X136441184Y-99276000D01*
X136276772Y-99243297D01*
X136121900Y-99179147D01*
X135982519Y-99086015D01*
X135863985Y-98967481D01*
X135770853Y-98828100D01*
X135706703Y-98673228D01*
X135674000Y-98508816D01*
X135674000Y-98341184D01*
X135706703Y-98176772D01*
X135770853Y-98021900D01*
X135863985Y-97882519D01*
X135982519Y-97763985D01*
X136121900Y-97670853D01*
X136276772Y-97606703D01*
X136441184Y-97574000D01*
X136608816Y-97574000D01*
X136773228Y-97606703D01*
X136773228Y-97606703D01*
G37*
G36*
X129257527Y-93738736D02*
X129357410Y-93758604D01*
X129639674Y-93875521D01*
X129893705Y-94045259D01*
X130109741Y-94261295D01*
X130279479Y-94515326D01*
X130396396Y-94797590D01*
X130456000Y-95097240D01*
X130456000Y-95402760D01*
X130396396Y-95702410D01*
X130279479Y-95984674D01*
X130109741Y-96238705D01*
X129893705Y-96454741D01*
X129639674Y-96624479D01*
X129357410Y-96741396D01*
X129257527Y-96761264D01*
X129057762Y-96801000D01*
X128752238Y-96801000D01*
X128552473Y-96761264D01*
X128452590Y-96741396D01*
X128170326Y-96624479D01*
X127916295Y-96454741D01*
X127700259Y-96238705D01*
X127530521Y-95984674D01*
X127413604Y-95702410D01*
X127354000Y-95402760D01*
X127354000Y-95097240D01*
X127413604Y-94797590D01*
X127530521Y-94515326D01*
X127700259Y-94261295D01*
X127916295Y-94045259D01*
X128170326Y-93875521D01*
X128452590Y-93758604D01*
X128552473Y-93738736D01*
X128752238Y-93699000D01*
X129057762Y-93699000D01*
X129257527Y-93738736D01*
X129257527Y-93738736D01*
G37*
G36*
X130456000Y-91721000D02*
X127354000Y-91721000D01*
X127354000Y-88619000D01*
X130456000Y-88619000D01*
X130456000Y-91721000D01*
X130456000Y-91721000D01*
G37*
G36*
X152648228Y-89351703D02*
X152803100Y-89415853D01*
X152942481Y-89508985D01*
X153061015Y-89627519D01*
X153154147Y-89766900D01*
X153218297Y-89921772D01*
X153251000Y-90086184D01*
X153251000Y-90253816D01*
X153218297Y-90418228D01*
X153154147Y-90573100D01*
X153061015Y-90712481D01*
X152942481Y-90831015D01*
X152803100Y-90924147D01*
X152648228Y-90988297D01*
X152483816Y-91021000D01*
X152316184Y-91021000D01*
X152151772Y-90988297D01*
X151996900Y-90924147D01*
X151857519Y-90831015D01*
X151738985Y-90712481D01*
X151645853Y-90573100D01*
X151581703Y-90418228D01*
X151549000Y-90253816D01*
X151549000Y-90086184D01*
X151581703Y-89921772D01*
X151645853Y-89766900D01*
X151738985Y-89627519D01*
X151857519Y-89508985D01*
X151996900Y-89415853D01*
X152151772Y-89351703D01*
X152316184Y-89319000D01*
X152483816Y-89319000D01*
X152648228Y-89351703D01*
X152648228Y-89351703D01*
G37*
G36*
X147648228Y-89351703D02*
X147803100Y-89415853D01*
X147942481Y-89508985D01*
X148061015Y-89627519D01*
X148154147Y-89766900D01*
X148218297Y-89921772D01*
X148251000Y-90086184D01*
X148251000Y-90253816D01*
X148218297Y-90418228D01*
X148154147Y-90573100D01*
X148061015Y-90712481D01*
X147942481Y-90831015D01*
X147803100Y-90924147D01*
X147648228Y-90988297D01*
X147483816Y-91021000D01*
X147316184Y-91021000D01*
X147151772Y-90988297D01*
X146996900Y-90924147D01*
X146857519Y-90831015D01*
X146738985Y-90712481D01*
X146645853Y-90573100D01*
X146581703Y-90418228D01*
X146549000Y-90253816D01*
X146549000Y-90086184D01*
X146581703Y-89921772D01*
X146645853Y-89766900D01*
X146738985Y-89627519D01*
X146857519Y-89508985D01*
X146996900Y-89415853D01*
X147151772Y-89351703D01*
X147316184Y-89319000D01*
X147483816Y-89319000D01*
X147648228Y-89351703D01*
X147648228Y-89351703D01*
G37*
G36*
X136773228Y-87446703D02*
X136928100Y-87510853D01*
X137067481Y-87603985D01*
X137186015Y-87722519D01*
X137279147Y-87861900D01*
X137343297Y-88016772D01*
X137376000Y-88181184D01*
X137376000Y-88348816D01*
X137343297Y-88513228D01*
X137279147Y-88668100D01*
X137186015Y-88807481D01*
X137067481Y-88926015D01*
X136928100Y-89019147D01*
X136773228Y-89083297D01*
X136608816Y-89116000D01*
X136441184Y-89116000D01*
X136276772Y-89083297D01*
X136121900Y-89019147D01*
X135982519Y-88926015D01*
X135863985Y-88807481D01*
X135770853Y-88668100D01*
X135706703Y-88513228D01*
X135674000Y-88348816D01*
X135674000Y-88181184D01*
X135706703Y-88016772D01*
X135770853Y-87861900D01*
X135863985Y-87722519D01*
X135982519Y-87603985D01*
X136121900Y-87510853D01*
X136276772Y-87446703D01*
X136441184Y-87414000D01*
X136608816Y-87414000D01*
X136773228Y-87446703D01*
X136773228Y-87446703D01*
G37*
G36*
X141773228Y-87446703D02*
X141928100Y-87510853D01*
X142067481Y-87603985D01*
X142186015Y-87722519D01*
X142279147Y-87861900D01*
X142343297Y-88016772D01*
X142376000Y-88181184D01*
X142376000Y-88348816D01*
X142343297Y-88513228D01*
X142279147Y-88668100D01*
X142186015Y-88807481D01*
X142067481Y-88926015D01*
X141928100Y-89019147D01*
X141773228Y-89083297D01*
X141608816Y-89116000D01*
X141441184Y-89116000D01*
X141276772Y-89083297D01*
X141121900Y-89019147D01*
X140982519Y-88926015D01*
X140863985Y-88807481D01*
X140770853Y-88668100D01*
X140706703Y-88513228D01*
X140674000Y-88348816D01*
X140674000Y-88181184D01*
X140706703Y-88016772D01*
X140770853Y-87861900D01*
X140863985Y-87722519D01*
X140982519Y-87603985D01*
X141121900Y-87510853D01*
X141276772Y-87446703D01*
X141441184Y-87414000D01*
X141608816Y-87414000D01*
X141773228Y-87446703D01*
X141773228Y-87446703D01*
G37*
G36*
X129257527Y-83578736D02*
X129357410Y-83598604D01*
X129639674Y-83715521D01*
X129893705Y-83885259D01*
X130109741Y-84101295D01*
X130279479Y-84355326D01*
X130396396Y-84637590D01*
X130456000Y-84937240D01*
X130456000Y-85242760D01*
X130396396Y-85542410D01*
X130279479Y-85824674D01*
X130109741Y-86078705D01*
X129893705Y-86294741D01*
X129639674Y-86464479D01*
X129357410Y-86581396D01*
X129257527Y-86601264D01*
X129057762Y-86641000D01*
X128752238Y-86641000D01*
X128552473Y-86601264D01*
X128452590Y-86581396D01*
X128170326Y-86464479D01*
X127916295Y-86294741D01*
X127700259Y-86078705D01*
X127530521Y-85824674D01*
X127413604Y-85542410D01*
X127354000Y-85242760D01*
X127354000Y-84937240D01*
X127413604Y-84637590D01*
X127530521Y-84355326D01*
X127700259Y-84101295D01*
X127916295Y-83885259D01*
X128170326Y-83715521D01*
X128452590Y-83598604D01*
X128552473Y-83578736D01*
X128752238Y-83539000D01*
X129057762Y-83539000D01*
X129257527Y-83578736D01*
X129257527Y-83578736D01*
G37*
G36*
X138646000Y-84036000D02*
X136944000Y-84036000D01*
X136944000Y-82334000D01*
X138646000Y-82334000D01*
X138646000Y-84036000D01*
X138646000Y-84036000D01*
G37*
G36*
X140543228Y-82366703D02*
X140698100Y-82430853D01*
X140837481Y-82523985D01*
X140956015Y-82642519D01*
X141049147Y-82781900D01*
X141113297Y-82936772D01*
X141146000Y-83101184D01*
X141146000Y-83268816D01*
X141113297Y-83433228D01*
X141049147Y-83588100D01*
X140956015Y-83727481D01*
X140837481Y-83846015D01*
X140698100Y-83939147D01*
X140543228Y-84003297D01*
X140378816Y-84036000D01*
X140211184Y-84036000D01*
X140046772Y-84003297D01*
X139891900Y-83939147D01*
X139752519Y-83846015D01*
X139633985Y-83727481D01*
X139540853Y-83588100D01*
X139476703Y-83433228D01*
X139444000Y-83268816D01*
X139444000Y-83101184D01*
X139476703Y-82936772D01*
X139540853Y-82781900D01*
X139633985Y-82642519D01*
X139752519Y-82523985D01*
X139891900Y-82430853D01*
X140046772Y-82366703D01*
X140211184Y-82334000D01*
X140378816Y-82334000D01*
X140543228Y-82366703D01*
X140543228Y-82366703D01*
G37*
G36*
X130456000Y-81561000D02*
X127354000Y-81561000D01*
X127354000Y-78459000D01*
X130456000Y-78459000D01*
X130456000Y-81561000D01*
X130456000Y-81561000D01*
G37*
G36*
X147568228Y-76651703D02*
X147723100Y-76715853D01*
X147862481Y-76808985D01*
X147981015Y-76927519D01*
X148074147Y-77066900D01*
X148138297Y-77221772D01*
X148171000Y-77386184D01*
X148171000Y-77553816D01*
X148138297Y-77718228D01*
X148074147Y-77873100D01*
X147981015Y-78012481D01*
X147862481Y-78131015D01*
X147723100Y-78224147D01*
X147568228Y-78288297D01*
X147403816Y-78321000D01*
X147236184Y-78321000D01*
X147071772Y-78288297D01*
X146916900Y-78224147D01*
X146777519Y-78131015D01*
X146658985Y-78012481D01*
X146565853Y-77873100D01*
X146501703Y-77718228D01*
X146469000Y-77553816D01*
X146469000Y-77386184D01*
X146501703Y-77221772D01*
X146565853Y-77066900D01*
X146658985Y-76927519D01*
X146777519Y-76808985D01*
X146916900Y-76715853D01*
X147071772Y-76651703D01*
X147236184Y-76619000D01*
X147403816Y-76619000D01*
X147568228Y-76651703D01*
X147568228Y-76651703D01*
G37*
G36*
X152568228Y-76651703D02*
X152723100Y-76715853D01*
X152862481Y-76808985D01*
X152981015Y-76927519D01*
X153074147Y-77066900D01*
X153138297Y-77221772D01*
X153171000Y-77386184D01*
X153171000Y-77553816D01*
X153138297Y-77718228D01*
X153074147Y-77873100D01*
X152981015Y-78012481D01*
X152862481Y-78131015D01*
X152723100Y-78224147D01*
X152568228Y-78288297D01*
X152403816Y-78321000D01*
X152236184Y-78321000D01*
X152071772Y-78288297D01*
X151916900Y-78224147D01*
X151777519Y-78131015D01*
X151658985Y-78012481D01*
X151565853Y-77873100D01*
X151501703Y-77718228D01*
X151469000Y-77553816D01*
X151469000Y-77386184D01*
X151501703Y-77221772D01*
X151565853Y-77066900D01*
X151658985Y-76927519D01*
X151777519Y-76808985D01*
X151916900Y-76715853D01*
X152071772Y-76651703D01*
X152236184Y-76619000D01*
X152403816Y-76619000D01*
X152568228Y-76651703D01*
X152568228Y-76651703D01*
G37*
G36*
X141708636Y-71151019D02*
X141889903Y-71187075D01*
X142117571Y-71281378D01*
X142321542Y-71417668D01*
X142322469Y-71418287D01*
X142496713Y-71592531D01*
X142496715Y-71592534D01*
X142633622Y-71797429D01*
X142727925Y-72025097D01*
X142776000Y-72266787D01*
X142776000Y-72513213D01*
X142727925Y-72754903D01*
X142633622Y-72982571D01*
X142497332Y-73186542D01*
X142496713Y-73187469D01*
X142322469Y-73361713D01*
X142322466Y-73361715D01*
X142117571Y-73498622D01*
X141889903Y-73592925D01*
X141708636Y-73628981D01*
X141648214Y-73641000D01*
X141401786Y-73641000D01*
X141341364Y-73628981D01*
X141160097Y-73592925D01*
X140932429Y-73498622D01*
X140727534Y-73361715D01*
X140727531Y-73361713D01*
X140553287Y-73187469D01*
X140552668Y-73186542D01*
X140416378Y-72982571D01*
X140322075Y-72754903D01*
X140274000Y-72513213D01*
X140274000Y-72266787D01*
X140322075Y-72025097D01*
X140416378Y-71797429D01*
X140553285Y-71592534D01*
X140553287Y-71592531D01*
X140727531Y-71418287D01*
X140728458Y-71417668D01*
X140932429Y-71281378D01*
X141160097Y-71187075D01*
X141341364Y-71151019D01*
X141401786Y-71139000D01*
X141648214Y-71139000D01*
X141708636Y-71151019D01*
X141708636Y-71151019D01*
G37*
G36*
X137776000Y-73641000D02*
X135274000Y-73641000D01*
X135274000Y-71139000D01*
X137776000Y-71139000D01*
X137776000Y-73641000D01*
X137776000Y-73641000D01*
G37*
M02*
