G04 #@! TF.GenerationSoftware,KiCad,Pcbnew,5.0.1-33cea8e~68~ubuntu16.04.1*
G04 #@! TF.CreationDate,2018-11-24T10:37:31+09:00*
G04 #@! TF.ProjectId,BS2103F_photo,425332313033465F70686F746F2E6B69,rev?*
G04 #@! TF.SameCoordinates,Original*
G04 #@! TF.FileFunction,Legend,Top*
G04 #@! TF.FilePolarity,Positive*
%FSLAX46Y46*%
G04 Gerber Fmt 4.6, Leading zero omitted, Abs format (unit mm)*
G04 Created by KiCad (PCBNEW 5.0.1-33cea8e~68~ubuntu16.04.1) date 2018年11月24日 10時37分31秒*
%MOMM*%
%LPD*%
G01*
G04 APERTURE LIST*
%ADD10C,0.300000*%
%ADD11C,0.120000*%
%ADD12C,0.150000*%
%ADD13C,0.100000*%
G04 APERTURE END LIST*
D10*
X146821428Y-90357142D02*
X146821428Y-91357142D01*
X145321428Y-90714285D01*
X146178571Y-92142857D02*
X146250000Y-91999999D01*
X146321428Y-91928571D01*
X146464285Y-91857142D01*
X146535714Y-91857142D01*
X146678571Y-91928571D01*
X146750000Y-91999999D01*
X146821428Y-92142857D01*
X146821428Y-92428571D01*
X146750000Y-92571428D01*
X146678571Y-92642857D01*
X146535714Y-92714285D01*
X146464285Y-92714285D01*
X146321428Y-92642857D01*
X146250000Y-92571428D01*
X146178571Y-92428571D01*
X146178571Y-92142857D01*
X146107142Y-91999999D01*
X146035714Y-91928571D01*
X145892857Y-91857142D01*
X145607142Y-91857142D01*
X145464285Y-91928571D01*
X145392857Y-91999999D01*
X145321428Y-92142857D01*
X145321428Y-92428571D01*
X145392857Y-92571428D01*
X145464285Y-92642857D01*
X145607142Y-92714285D01*
X145892857Y-92714285D01*
X146035714Y-92642857D01*
X146107142Y-92571428D01*
X146178571Y-92428571D01*
X145321428Y-94142857D02*
X145321428Y-93285714D01*
X145321428Y-93714285D02*
X146821428Y-93714285D01*
X146607142Y-93571428D01*
X146464285Y-93428571D01*
X146392857Y-93285714D01*
X146678571Y-94714285D02*
X146750000Y-94785714D01*
X146821428Y-94928571D01*
X146821428Y-95285714D01*
X146750000Y-95428571D01*
X146678571Y-95499999D01*
X146535714Y-95571428D01*
X146392857Y-95571428D01*
X146178571Y-95499999D01*
X145321428Y-94642857D01*
X145321428Y-95571428D01*
X133321428Y-79250000D02*
X134821428Y-79250000D01*
X133750000Y-79750000D01*
X134821428Y-80250000D01*
X133321428Y-80250000D01*
X133321428Y-81178571D02*
X133392857Y-81035714D01*
X133464285Y-80964285D01*
X133607142Y-80892857D01*
X134035714Y-80892857D01*
X134178571Y-80964285D01*
X134250000Y-81035714D01*
X134321428Y-81178571D01*
X134321428Y-81392857D01*
X134250000Y-81535714D01*
X134178571Y-81607142D01*
X134035714Y-81678571D01*
X133607142Y-81678571D01*
X133464285Y-81607142D01*
X133392857Y-81535714D01*
X133321428Y-81392857D01*
X133321428Y-81178571D01*
X134321428Y-82107142D02*
X134321428Y-82678571D01*
X134821428Y-82321428D02*
X133535714Y-82321428D01*
X133392857Y-82392857D01*
X133321428Y-82535714D01*
X133321428Y-82678571D01*
X133321428Y-83392857D02*
X133392857Y-83250000D01*
X133464285Y-83178571D01*
X133607142Y-83107142D01*
X134035714Y-83107142D01*
X134178571Y-83178571D01*
X134250000Y-83250000D01*
X134321428Y-83392857D01*
X134321428Y-83607142D01*
X134250000Y-83750000D01*
X134178571Y-83821428D01*
X134035714Y-83892857D01*
X133607142Y-83892857D01*
X133464285Y-83821428D01*
X133392857Y-83750000D01*
X133321428Y-83607142D01*
X133321428Y-83392857D01*
X133321428Y-84535714D02*
X134321428Y-84535714D01*
X134035714Y-84535714D02*
X134178571Y-84607142D01*
X134250000Y-84678571D01*
X134321428Y-84821428D01*
X134321428Y-84964285D01*
X136678571Y-107678571D02*
X135821428Y-107678571D01*
X136250000Y-107678571D02*
X136250000Y-106178571D01*
X136107142Y-106392857D01*
X135964285Y-106535714D01*
X135821428Y-106607142D01*
X137607142Y-106178571D02*
X137750000Y-106178571D01*
X137892857Y-106250000D01*
X137964285Y-106321428D01*
X138035714Y-106464285D01*
X138107142Y-106750000D01*
X138107142Y-107107142D01*
X138035714Y-107392857D01*
X137964285Y-107535714D01*
X137892857Y-107607142D01*
X137750000Y-107678571D01*
X137607142Y-107678571D01*
X137464285Y-107607142D01*
X137392857Y-107535714D01*
X137321428Y-107392857D01*
X137250000Y-107107142D01*
X137250000Y-106750000D01*
X137321428Y-106464285D01*
X137392857Y-106321428D01*
X137464285Y-106250000D01*
X137607142Y-106178571D01*
X139035714Y-106178571D02*
X139178571Y-106178571D01*
X139321428Y-106250000D01*
X139392857Y-106321428D01*
X139464285Y-106464285D01*
X139535714Y-106750000D01*
X139535714Y-107107142D01*
X139464285Y-107392857D01*
X139392857Y-107535714D01*
X139321428Y-107607142D01*
X139178571Y-107678571D01*
X139035714Y-107678571D01*
X138892857Y-107607142D01*
X138821428Y-107535714D01*
X138750000Y-107392857D01*
X138678571Y-107107142D01*
X138678571Y-106750000D01*
X138750000Y-106464285D01*
X138821428Y-106321428D01*
X138892857Y-106250000D01*
X139035714Y-106178571D01*
X140821428Y-106678571D02*
X140821428Y-107678571D01*
X140178571Y-106678571D02*
X140178571Y-107464285D01*
X140250000Y-107607142D01*
X140392857Y-107678571D01*
X140607142Y-107678571D01*
X140750000Y-107607142D01*
X140821428Y-107535714D01*
X142035714Y-106892857D02*
X141535714Y-106892857D01*
X141535714Y-107678571D02*
X141535714Y-106178571D01*
X142250000Y-106178571D01*
X136803571Y-80633571D02*
X135946428Y-80633571D01*
X136375000Y-80633571D02*
X136375000Y-79133571D01*
X136232142Y-79347857D01*
X136089285Y-79490714D01*
X135946428Y-79562142D01*
X137732142Y-79133571D02*
X137875000Y-79133571D01*
X138017857Y-79205000D01*
X138089285Y-79276428D01*
X138160714Y-79419285D01*
X138232142Y-79705000D01*
X138232142Y-80062142D01*
X138160714Y-80347857D01*
X138089285Y-80490714D01*
X138017857Y-80562142D01*
X137875000Y-80633571D01*
X137732142Y-80633571D01*
X137589285Y-80562142D01*
X137517857Y-80490714D01*
X137446428Y-80347857D01*
X137375000Y-80062142D01*
X137375000Y-79705000D01*
X137446428Y-79419285D01*
X137517857Y-79276428D01*
X137589285Y-79205000D01*
X137732142Y-79133571D01*
X139160714Y-79133571D02*
X139303571Y-79133571D01*
X139446428Y-79205000D01*
X139517857Y-79276428D01*
X139589285Y-79419285D01*
X139660714Y-79705000D01*
X139660714Y-80062142D01*
X139589285Y-80347857D01*
X139517857Y-80490714D01*
X139446428Y-80562142D01*
X139303571Y-80633571D01*
X139160714Y-80633571D01*
X139017857Y-80562142D01*
X138946428Y-80490714D01*
X138875000Y-80347857D01*
X138803571Y-80062142D01*
X138803571Y-79705000D01*
X138875000Y-79419285D01*
X138946428Y-79276428D01*
X139017857Y-79205000D01*
X139160714Y-79133571D01*
X140946428Y-79633571D02*
X140946428Y-80633571D01*
X140303571Y-79633571D02*
X140303571Y-80419285D01*
X140375000Y-80562142D01*
X140517857Y-80633571D01*
X140732142Y-80633571D01*
X140875000Y-80562142D01*
X140946428Y-80490714D01*
X142160714Y-79847857D02*
X141660714Y-79847857D01*
X141660714Y-80633571D02*
X141660714Y-79133571D01*
X142375000Y-79133571D01*
X125964285Y-126607142D02*
X126178571Y-126678571D01*
X126535714Y-126678571D01*
X126678571Y-126607142D01*
X126750000Y-126535714D01*
X126821428Y-126392857D01*
X126821428Y-126250000D01*
X126750000Y-126107142D01*
X126678571Y-126035714D01*
X126535714Y-125964285D01*
X126250000Y-125892857D01*
X126107142Y-125821428D01*
X126035714Y-125750000D01*
X125964285Y-125607142D01*
X125964285Y-125464285D01*
X126035714Y-125321428D01*
X126107142Y-125250000D01*
X126250000Y-125178571D01*
X126607142Y-125178571D01*
X126821428Y-125250000D01*
X127464285Y-126678571D02*
X127464285Y-125178571D01*
X128107142Y-126678571D02*
X128107142Y-125892857D01*
X128035714Y-125750000D01*
X127892857Y-125678571D01*
X127678571Y-125678571D01*
X127535714Y-125750000D01*
X127464285Y-125821428D01*
X129464285Y-125678571D02*
X129464285Y-126678571D01*
X128821428Y-125678571D02*
X128821428Y-126464285D01*
X128892857Y-126607142D01*
X129035714Y-126678571D01*
X129250000Y-126678571D01*
X129392857Y-126607142D01*
X129464285Y-126535714D01*
X129964285Y-125678571D02*
X130535714Y-125678571D01*
X130178571Y-125178571D02*
X130178571Y-126464285D01*
X130250000Y-126607142D01*
X130392857Y-126678571D01*
X130535714Y-126678571D01*
X131678571Y-126678571D02*
X131678571Y-125178571D01*
X131678571Y-126607142D02*
X131535714Y-126678571D01*
X131250000Y-126678571D01*
X131107142Y-126607142D01*
X131035714Y-126535714D01*
X130964285Y-126392857D01*
X130964285Y-125964285D01*
X131035714Y-125821428D01*
X131107142Y-125750000D01*
X131250000Y-125678571D01*
X131535714Y-125678571D01*
X131678571Y-125750000D01*
X132607142Y-126678571D02*
X132464285Y-126607142D01*
X132392857Y-126535714D01*
X132321428Y-126392857D01*
X132321428Y-125964285D01*
X132392857Y-125821428D01*
X132464285Y-125750000D01*
X132607142Y-125678571D01*
X132821428Y-125678571D01*
X132964285Y-125750000D01*
X133035714Y-125821428D01*
X133107142Y-125964285D01*
X133107142Y-126392857D01*
X133035714Y-126535714D01*
X132964285Y-126607142D01*
X132821428Y-126678571D01*
X132607142Y-126678571D01*
X133607142Y-125678571D02*
X133892857Y-126678571D01*
X134178571Y-125964285D01*
X134464285Y-126678571D01*
X134750000Y-125678571D01*
X135321428Y-125678571D02*
X135321428Y-126678571D01*
X135321428Y-125821428D02*
X135392857Y-125750000D01*
X135535714Y-125678571D01*
X135750000Y-125678571D01*
X135892857Y-125750000D01*
X135964285Y-125892857D01*
X135964285Y-126678571D01*
X126500000Y-124678571D02*
X126500000Y-123178571D01*
X127214285Y-124678571D02*
X127214285Y-123178571D01*
X128071428Y-124678571D01*
X128071428Y-123178571D01*
X128714285Y-123321428D02*
X128785714Y-123250000D01*
X128928571Y-123178571D01*
X129285714Y-123178571D01*
X129428571Y-123250000D01*
X129500000Y-123321428D01*
X129571428Y-123464285D01*
X129571428Y-123607142D01*
X129500000Y-123821428D01*
X128642857Y-124678571D01*
X129571428Y-124678571D01*
X126500000Y-122678571D02*
X126500000Y-121178571D01*
X127214285Y-122678571D02*
X127214285Y-121178571D01*
X128071428Y-122678571D01*
X128071428Y-121178571D01*
X129571428Y-122678571D02*
X128714285Y-122678571D01*
X129142857Y-122678571D02*
X129142857Y-121178571D01*
X129000000Y-121392857D01*
X128857142Y-121535714D01*
X128714285Y-121607142D01*
X127714285Y-117178571D02*
X127000000Y-117178571D01*
X126928571Y-117892857D01*
X127000000Y-117821428D01*
X127142857Y-117750000D01*
X127500000Y-117750000D01*
X127642857Y-117821428D01*
X127714285Y-117892857D01*
X127785714Y-118035714D01*
X127785714Y-118392857D01*
X127714285Y-118535714D01*
X127642857Y-118607142D01*
X127500000Y-118678571D01*
X127142857Y-118678571D01*
X127000000Y-118607142D01*
X126928571Y-118535714D01*
X128214285Y-117178571D02*
X128714285Y-118678571D01*
X129214285Y-117178571D01*
X126357142Y-119678571D02*
X126357142Y-121178571D01*
X126357142Y-119750000D02*
X126500000Y-119678571D01*
X126785714Y-119678571D01*
X126928571Y-119750000D01*
X127000000Y-119821428D01*
X127071428Y-119964285D01*
X127071428Y-120392857D01*
X127000000Y-120535714D01*
X126928571Y-120607142D01*
X126785714Y-120678571D01*
X126500000Y-120678571D01*
X126357142Y-120607142D01*
X127714285Y-120678571D02*
X127714285Y-119678571D01*
X127714285Y-119178571D02*
X127642857Y-119250000D01*
X127714285Y-119321428D01*
X127785714Y-119250000D01*
X127714285Y-119178571D01*
X127714285Y-119321428D01*
X128428571Y-119678571D02*
X128428571Y-120678571D01*
X128428571Y-119821428D02*
X128500000Y-119750000D01*
X128642857Y-119678571D01*
X128857142Y-119678571D01*
X129000000Y-119750000D01*
X129071428Y-119892857D01*
X129071428Y-120678571D01*
X130571428Y-119250000D02*
X130428571Y-119178571D01*
X130214285Y-119178571D01*
X130000000Y-119250000D01*
X129857142Y-119392857D01*
X129785714Y-119535714D01*
X129714285Y-119821428D01*
X129714285Y-120035714D01*
X129785714Y-120321428D01*
X129857142Y-120464285D01*
X130000000Y-120607142D01*
X130214285Y-120678571D01*
X130357142Y-120678571D01*
X130571428Y-120607142D01*
X130642857Y-120535714D01*
X130642857Y-120035714D01*
X130357142Y-120035714D01*
X131285714Y-120678571D02*
X131285714Y-119178571D01*
X132142857Y-120678571D01*
X132142857Y-119178571D01*
X132857142Y-120678571D02*
X132857142Y-119178571D01*
X133214285Y-119178571D01*
X133428571Y-119250000D01*
X133571428Y-119392857D01*
X133642857Y-119535714D01*
X133714285Y-119821428D01*
X133714285Y-120035714D01*
X133642857Y-120321428D01*
X133571428Y-120464285D01*
X133428571Y-120607142D01*
X133214285Y-120678571D01*
X132857142Y-120678571D01*
X132035714Y-130678571D02*
X131321428Y-130678571D01*
X131321428Y-129178571D01*
X132535714Y-129892857D02*
X133035714Y-129892857D01*
X133250000Y-130678571D02*
X132535714Y-130678571D01*
X132535714Y-129178571D01*
X133250000Y-129178571D01*
X133892857Y-130678571D02*
X133892857Y-129178571D01*
X134250000Y-129178571D01*
X134464285Y-129250000D01*
X134607142Y-129392857D01*
X134678571Y-129535714D01*
X134750000Y-129821428D01*
X134750000Y-130035714D01*
X134678571Y-130321428D01*
X134607142Y-130464285D01*
X134464285Y-130607142D01*
X134250000Y-130678571D01*
X133892857Y-130678571D01*
X132035714Y-112678571D02*
X131321428Y-112678571D01*
X131321428Y-111178571D01*
X132535714Y-111892857D02*
X133035714Y-111892857D01*
X133250000Y-112678571D02*
X132535714Y-112678571D01*
X132535714Y-111178571D01*
X133250000Y-111178571D01*
X133892857Y-112678571D02*
X133892857Y-111178571D01*
X134250000Y-111178571D01*
X134464285Y-111250000D01*
X134607142Y-111392857D01*
X134678571Y-111535714D01*
X134750000Y-111821428D01*
X134750000Y-112035714D01*
X134678571Y-112321428D01*
X134607142Y-112464285D01*
X134464285Y-112607142D01*
X134250000Y-112678571D01*
X133892857Y-112678571D01*
X132035714Y-121678571D02*
X131321428Y-121678571D01*
X131321428Y-120178571D01*
X132535714Y-120892857D02*
X133035714Y-120892857D01*
X133250000Y-121678571D02*
X132535714Y-121678571D01*
X132535714Y-120178571D01*
X133250000Y-120178571D01*
X133892857Y-121678571D02*
X133892857Y-120178571D01*
X134250000Y-120178571D01*
X134464285Y-120250000D01*
X134607142Y-120392857D01*
X134678571Y-120535714D01*
X134750000Y-120821428D01*
X134750000Y-121035714D01*
X134678571Y-121321428D01*
X134607142Y-121464285D01*
X134464285Y-121607142D01*
X134250000Y-121678571D01*
X133892857Y-121678571D01*
X142548409Y-127678571D02*
X141691267Y-127678571D01*
X142119838Y-127678571D02*
X142119838Y-126178571D01*
X141976981Y-126392857D01*
X141834124Y-126535714D01*
X141691267Y-126607142D01*
X143476981Y-126178571D02*
X143619838Y-126178571D01*
X143762695Y-126250000D01*
X143834124Y-126321428D01*
X143905552Y-126464285D01*
X143976981Y-126750000D01*
X143976981Y-127107142D01*
X143905552Y-127392857D01*
X143834124Y-127535714D01*
X143762695Y-127607142D01*
X143619838Y-127678571D01*
X143476981Y-127678571D01*
X143334124Y-127607142D01*
X143262695Y-127535714D01*
X143191267Y-127392857D01*
X143119838Y-127107142D01*
X143119838Y-126750000D01*
X143191267Y-126464285D01*
X143262695Y-126321428D01*
X143334124Y-126250000D01*
X143476981Y-126178571D01*
X144619838Y-127678571D02*
X144619838Y-126178571D01*
X144762695Y-127107142D02*
X145191267Y-127678571D01*
X145191267Y-126678571D02*
X144619838Y-127250000D01*
X142107142Y-118678571D02*
X141250000Y-118678571D01*
X141678571Y-118678571D02*
X141678571Y-117178571D01*
X141535714Y-117392857D01*
X141392857Y-117535714D01*
X141250000Y-117607142D01*
X143035714Y-117178571D02*
X143178571Y-117178571D01*
X143321428Y-117250000D01*
X143392857Y-117321428D01*
X143464285Y-117464285D01*
X143535714Y-117750000D01*
X143535714Y-118107142D01*
X143464285Y-118392857D01*
X143392857Y-118535714D01*
X143321428Y-118607142D01*
X143178571Y-118678571D01*
X143035714Y-118678571D01*
X142892857Y-118607142D01*
X142821428Y-118535714D01*
X142750000Y-118392857D01*
X142678571Y-118107142D01*
X142678571Y-117750000D01*
X142750000Y-117464285D01*
X142821428Y-117321428D01*
X142892857Y-117250000D01*
X143035714Y-117178571D01*
X144178571Y-118678571D02*
X144178571Y-117178571D01*
X144321428Y-118107142D02*
X144750000Y-118678571D01*
X144750000Y-117678571D02*
X144178571Y-118250000D01*
X142107142Y-109678571D02*
X141250000Y-109678571D01*
X141678571Y-109678571D02*
X141678571Y-108178571D01*
X141535714Y-108392857D01*
X141392857Y-108535714D01*
X141250000Y-108607142D01*
X143035714Y-108178571D02*
X143178571Y-108178571D01*
X143321428Y-108250000D01*
X143392857Y-108321428D01*
X143464285Y-108464285D01*
X143535714Y-108750000D01*
X143535714Y-109107142D01*
X143464285Y-109392857D01*
X143392857Y-109535714D01*
X143321428Y-109607142D01*
X143178571Y-109678571D01*
X143035714Y-109678571D01*
X142892857Y-109607142D01*
X142821428Y-109535714D01*
X142750000Y-109392857D01*
X142678571Y-109107142D01*
X142678571Y-108750000D01*
X142750000Y-108464285D01*
X142821428Y-108321428D01*
X142892857Y-108250000D01*
X143035714Y-108178571D01*
X144178571Y-109678571D02*
X144178571Y-108178571D01*
X144321428Y-109107142D02*
X144750000Y-109678571D01*
X144750000Y-108678571D02*
X144178571Y-109250000D01*
X147250000Y-81678571D02*
X147250000Y-80178571D01*
X147607142Y-80178571D01*
X147821428Y-80250000D01*
X147964285Y-80392857D01*
X148035714Y-80535714D01*
X148107142Y-80821428D01*
X148107142Y-81035714D01*
X148035714Y-81321428D01*
X147964285Y-81464285D01*
X147821428Y-81607142D01*
X147607142Y-81678571D01*
X147250000Y-81678571D01*
X148750000Y-81678571D02*
X148750000Y-80678571D01*
X148750000Y-80178571D02*
X148678571Y-80250000D01*
X148750000Y-80321428D01*
X148821428Y-80250000D01*
X148750000Y-80178571D01*
X148750000Y-80321428D01*
X149678571Y-81678571D02*
X149535714Y-81607142D01*
X149464285Y-81535714D01*
X149392857Y-81392857D01*
X149392857Y-80964285D01*
X149464285Y-80821428D01*
X149535714Y-80750000D01*
X149678571Y-80678571D01*
X149892857Y-80678571D01*
X150035714Y-80750000D01*
X150107142Y-80821428D01*
X150178571Y-80964285D01*
X150178571Y-81392857D01*
X150107142Y-81535714D01*
X150035714Y-81607142D01*
X149892857Y-81678571D01*
X149678571Y-81678571D01*
X151464285Y-81678571D02*
X151464285Y-80178571D01*
X151464285Y-81607142D02*
X151321428Y-81678571D01*
X151035714Y-81678571D01*
X150892857Y-81607142D01*
X150821428Y-81535714D01*
X150750000Y-81392857D01*
X150750000Y-80964285D01*
X150821428Y-80821428D01*
X150892857Y-80750000D01*
X151035714Y-80678571D01*
X151321428Y-80678571D01*
X151464285Y-80750000D01*
X152750000Y-81607142D02*
X152607142Y-81678571D01*
X152321428Y-81678571D01*
X152178571Y-81607142D01*
X152107142Y-81464285D01*
X152107142Y-80892857D01*
X152178571Y-80750000D01*
X152321428Y-80678571D01*
X152607142Y-80678571D01*
X152750000Y-80750000D01*
X152821428Y-80892857D01*
X152821428Y-81035714D01*
X152107142Y-81178571D01*
X147250000Y-109678571D02*
X147250000Y-108178571D01*
X147607142Y-108178571D01*
X147821428Y-108250000D01*
X147964285Y-108392857D01*
X148035714Y-108535714D01*
X148107142Y-108821428D01*
X148107142Y-109035714D01*
X148035714Y-109321428D01*
X147964285Y-109464285D01*
X147821428Y-109607142D01*
X147607142Y-109678571D01*
X147250000Y-109678571D01*
X148750000Y-109678571D02*
X148750000Y-108678571D01*
X148750000Y-108178571D02*
X148678571Y-108250000D01*
X148750000Y-108321428D01*
X148821428Y-108250000D01*
X148750000Y-108178571D01*
X148750000Y-108321428D01*
X149678571Y-109678571D02*
X149535714Y-109607142D01*
X149464285Y-109535714D01*
X149392857Y-109392857D01*
X149392857Y-108964285D01*
X149464285Y-108821428D01*
X149535714Y-108750000D01*
X149678571Y-108678571D01*
X149892857Y-108678571D01*
X150035714Y-108750000D01*
X150107142Y-108821428D01*
X150178571Y-108964285D01*
X150178571Y-109392857D01*
X150107142Y-109535714D01*
X150035714Y-109607142D01*
X149892857Y-109678571D01*
X149678571Y-109678571D01*
X151464285Y-109678571D02*
X151464285Y-108178571D01*
X151464285Y-109607142D02*
X151321428Y-109678571D01*
X151035714Y-109678571D01*
X150892857Y-109607142D01*
X150821428Y-109535714D01*
X150750000Y-109392857D01*
X150750000Y-108964285D01*
X150821428Y-108821428D01*
X150892857Y-108750000D01*
X151035714Y-108678571D01*
X151321428Y-108678571D01*
X151464285Y-108750000D01*
X152750000Y-109607142D02*
X152607142Y-109678571D01*
X152321428Y-109678571D01*
X152178571Y-109607142D01*
X152107142Y-109464285D01*
X152107142Y-108892857D01*
X152178571Y-108750000D01*
X152321428Y-108678571D01*
X152607142Y-108678571D01*
X152750000Y-108750000D01*
X152821428Y-108892857D01*
X152821428Y-109035714D01*
X152107142Y-109178571D01*
X155753018Y-116627571D02*
X154895875Y-116627571D01*
X155324447Y-116627571D02*
X155324447Y-115127571D01*
X155181590Y-115341857D01*
X155038733Y-115484714D01*
X154895875Y-115556142D01*
X156681590Y-115127571D02*
X156824447Y-115127571D01*
X156967304Y-115199000D01*
X157038733Y-115270428D01*
X157110161Y-115413285D01*
X157181590Y-115699000D01*
X157181590Y-116056142D01*
X157110161Y-116341857D01*
X157038733Y-116484714D01*
X156967304Y-116556142D01*
X156824447Y-116627571D01*
X156681590Y-116627571D01*
X156538733Y-116556142D01*
X156467304Y-116484714D01*
X156395875Y-116341857D01*
X156324447Y-116056142D01*
X156324447Y-115699000D01*
X156395875Y-115413285D01*
X156467304Y-115270428D01*
X156538733Y-115199000D01*
X156681590Y-115127571D01*
X155753018Y-111230571D02*
X154895875Y-111230571D01*
X155324447Y-111230571D02*
X155324447Y-109730571D01*
X155181590Y-109944857D01*
X155038733Y-110087714D01*
X154895875Y-110159142D01*
X156681590Y-109730571D02*
X156824447Y-109730571D01*
X156967304Y-109802000D01*
X157038733Y-109873428D01*
X157110161Y-110016285D01*
X157181590Y-110302000D01*
X157181590Y-110659142D01*
X157110161Y-110944857D01*
X157038733Y-111087714D01*
X156967304Y-111159142D01*
X156824447Y-111230571D01*
X156681590Y-111230571D01*
X156538733Y-111159142D01*
X156467304Y-111087714D01*
X156395875Y-110944857D01*
X156324447Y-110659142D01*
X156324447Y-110302000D01*
X156395875Y-110016285D01*
X156467304Y-109873428D01*
X156538733Y-109802000D01*
X156681590Y-109730571D01*
X155714285Y-88678571D02*
X154857142Y-88678571D01*
X155285714Y-88678571D02*
X155285714Y-87178571D01*
X155142857Y-87392857D01*
X155000000Y-87535714D01*
X154857142Y-87607142D01*
X156642857Y-87178571D02*
X156785714Y-87178571D01*
X156928571Y-87250000D01*
X157000000Y-87321428D01*
X157071428Y-87464285D01*
X157142857Y-87750000D01*
X157142857Y-88107142D01*
X157071428Y-88392857D01*
X157000000Y-88535714D01*
X156928571Y-88607142D01*
X156785714Y-88678571D01*
X156642857Y-88678571D01*
X156500000Y-88607142D01*
X156428571Y-88535714D01*
X156357142Y-88392857D01*
X156285714Y-88107142D01*
X156285714Y-87750000D01*
X156357142Y-87464285D01*
X156428571Y-87321428D01*
X156500000Y-87250000D01*
X156642857Y-87178571D01*
X155753018Y-83290071D02*
X154895875Y-83290071D01*
X155324447Y-83290071D02*
X155324447Y-81790071D01*
X155181590Y-82004357D01*
X155038733Y-82147214D01*
X154895875Y-82218642D01*
X156681590Y-81790071D02*
X156824447Y-81790071D01*
X156967304Y-81861500D01*
X157038733Y-81932928D01*
X157110161Y-82075785D01*
X157181590Y-82361500D01*
X157181590Y-82718642D01*
X157110161Y-83004357D01*
X157038733Y-83147214D01*
X156967304Y-83218642D01*
X156824447Y-83290071D01*
X156681590Y-83290071D01*
X156538733Y-83218642D01*
X156467304Y-83147214D01*
X156395875Y-83004357D01*
X156324447Y-82718642D01*
X156324447Y-82361500D01*
X156395875Y-82075785D01*
X156467304Y-81932928D01*
X156538733Y-81861500D01*
X156681590Y-81790071D01*
X155021428Y-119214124D02*
X155021428Y-118356981D01*
X155021428Y-118785552D02*
X156521428Y-118785552D01*
X156307142Y-118642695D01*
X156164285Y-118499838D01*
X156092857Y-118356981D01*
X156521428Y-120142695D02*
X156521428Y-120285552D01*
X156450000Y-120428409D01*
X156378571Y-120499838D01*
X156235714Y-120571267D01*
X155950000Y-120642695D01*
X155592857Y-120642695D01*
X155307142Y-120571267D01*
X155164285Y-120499838D01*
X155092857Y-120428409D01*
X155021428Y-120285552D01*
X155021428Y-120142695D01*
X155092857Y-119999838D01*
X155164285Y-119928409D01*
X155307142Y-119856981D01*
X155592857Y-119785552D01*
X155950000Y-119785552D01*
X156235714Y-119856981D01*
X156378571Y-119928409D01*
X156450000Y-119999838D01*
X156521428Y-120142695D01*
X156521428Y-121571267D02*
X156521428Y-121714124D01*
X156450000Y-121856981D01*
X156378571Y-121928409D01*
X156235714Y-121999838D01*
X155950000Y-122071267D01*
X155592857Y-122071267D01*
X155307142Y-121999838D01*
X155164285Y-121928409D01*
X155092857Y-121856981D01*
X155021428Y-121714124D01*
X155021428Y-121571267D01*
X155092857Y-121428409D01*
X155164285Y-121356981D01*
X155307142Y-121285552D01*
X155592857Y-121214124D01*
X155950000Y-121214124D01*
X156235714Y-121285552D01*
X156378571Y-121356981D01*
X156450000Y-121428409D01*
X156521428Y-121571267D01*
X155021428Y-122714124D02*
X156521428Y-122714124D01*
X155592857Y-122856981D02*
X155021428Y-123285552D01*
X156021428Y-123285552D02*
X155450000Y-122714124D01*
X155321428Y-104392857D02*
X155321428Y-103535714D01*
X155321428Y-103964285D02*
X156821428Y-103964285D01*
X156607142Y-103821428D01*
X156464285Y-103678571D01*
X156392857Y-103535714D01*
X156821428Y-105321428D02*
X156821428Y-105464285D01*
X156750000Y-105607142D01*
X156678571Y-105678571D01*
X156535714Y-105750000D01*
X156250000Y-105821428D01*
X155892857Y-105821428D01*
X155607142Y-105750000D01*
X155464285Y-105678571D01*
X155392857Y-105607142D01*
X155321428Y-105464285D01*
X155321428Y-105321428D01*
X155392857Y-105178571D01*
X155464285Y-105107142D01*
X155607142Y-105035714D01*
X155892857Y-104964285D01*
X156250000Y-104964285D01*
X156535714Y-105035714D01*
X156678571Y-105107142D01*
X156750000Y-105178571D01*
X156821428Y-105321428D01*
X156821428Y-106750000D02*
X156821428Y-106892857D01*
X156750000Y-107035714D01*
X156678571Y-107107142D01*
X156535714Y-107178571D01*
X156250000Y-107250000D01*
X155892857Y-107250000D01*
X155607142Y-107178571D01*
X155464285Y-107107142D01*
X155392857Y-107035714D01*
X155321428Y-106892857D01*
X155321428Y-106750000D01*
X155392857Y-106607142D01*
X155464285Y-106535714D01*
X155607142Y-106464285D01*
X155892857Y-106392857D01*
X156250000Y-106392857D01*
X156535714Y-106464285D01*
X156678571Y-106535714D01*
X156750000Y-106607142D01*
X156821428Y-106750000D01*
X155321428Y-107892857D02*
X156821428Y-107892857D01*
X155892857Y-108035714D02*
X155321428Y-108464285D01*
X156321428Y-108464285D02*
X155750000Y-107892857D01*
X155321428Y-76392857D02*
X155321428Y-75535714D01*
X155321428Y-75964285D02*
X156821428Y-75964285D01*
X156607142Y-75821428D01*
X156464285Y-75678571D01*
X156392857Y-75535714D01*
X156821428Y-77321428D02*
X156821428Y-77464285D01*
X156750000Y-77607142D01*
X156678571Y-77678571D01*
X156535714Y-77750000D01*
X156250000Y-77821428D01*
X155892857Y-77821428D01*
X155607142Y-77750000D01*
X155464285Y-77678571D01*
X155392857Y-77607142D01*
X155321428Y-77464285D01*
X155321428Y-77321428D01*
X155392857Y-77178571D01*
X155464285Y-77107142D01*
X155607142Y-77035714D01*
X155892857Y-76964285D01*
X156250000Y-76964285D01*
X156535714Y-77035714D01*
X156678571Y-77107142D01*
X156750000Y-77178571D01*
X156821428Y-77321428D01*
X156821428Y-78750000D02*
X156821428Y-78892857D01*
X156750000Y-79035714D01*
X156678571Y-79107142D01*
X156535714Y-79178571D01*
X156250000Y-79250000D01*
X155892857Y-79250000D01*
X155607142Y-79178571D01*
X155464285Y-79107142D01*
X155392857Y-79035714D01*
X155321428Y-78892857D01*
X155321428Y-78750000D01*
X155392857Y-78607142D01*
X155464285Y-78535714D01*
X155607142Y-78464285D01*
X155892857Y-78392857D01*
X156250000Y-78392857D01*
X156535714Y-78464285D01*
X156678571Y-78535714D01*
X156750000Y-78607142D01*
X156821428Y-78750000D01*
X155321428Y-79892857D02*
X156821428Y-79892857D01*
X155892857Y-80035714D02*
X155321428Y-80464285D01*
X156321428Y-80464285D02*
X155750000Y-79892857D01*
X155321428Y-91392857D02*
X155321428Y-90535714D01*
X155321428Y-90964285D02*
X156821428Y-90964285D01*
X156607142Y-90821428D01*
X156464285Y-90678571D01*
X156392857Y-90535714D01*
X156821428Y-92321428D02*
X156821428Y-92464285D01*
X156750000Y-92607142D01*
X156678571Y-92678571D01*
X156535714Y-92750000D01*
X156250000Y-92821428D01*
X155892857Y-92821428D01*
X155607142Y-92750000D01*
X155464285Y-92678571D01*
X155392857Y-92607142D01*
X155321428Y-92464285D01*
X155321428Y-92321428D01*
X155392857Y-92178571D01*
X155464285Y-92107142D01*
X155607142Y-92035714D01*
X155892857Y-91964285D01*
X156250000Y-91964285D01*
X156535714Y-92035714D01*
X156678571Y-92107142D01*
X156750000Y-92178571D01*
X156821428Y-92321428D01*
X156821428Y-93750000D02*
X156821428Y-93892857D01*
X156750000Y-94035714D01*
X156678571Y-94107142D01*
X156535714Y-94178571D01*
X156250000Y-94250000D01*
X155892857Y-94250000D01*
X155607142Y-94178571D01*
X155464285Y-94107142D01*
X155392857Y-94035714D01*
X155321428Y-93892857D01*
X155321428Y-93750000D01*
X155392857Y-93607142D01*
X155464285Y-93535714D01*
X155607142Y-93464285D01*
X155892857Y-93392857D01*
X156250000Y-93392857D01*
X156535714Y-93464285D01*
X156678571Y-93535714D01*
X156750000Y-93607142D01*
X156821428Y-93750000D01*
X155321428Y-94892857D02*
X156821428Y-94892857D01*
X155892857Y-95035714D02*
X155321428Y-95464285D01*
X156321428Y-95464285D02*
X155750000Y-94892857D01*
X146392857Y-113678571D02*
X146392857Y-112178571D01*
X147964285Y-113678571D02*
X147464285Y-112964285D01*
X147107142Y-113678571D02*
X147107142Y-112178571D01*
X147678571Y-112178571D01*
X147821428Y-112250000D01*
X147892857Y-112321428D01*
X147964285Y-112464285D01*
X147964285Y-112678571D01*
X147892857Y-112821428D01*
X147821428Y-112892857D01*
X147678571Y-112964285D01*
X147107142Y-112964285D01*
X148535714Y-112321428D02*
X148607142Y-112250000D01*
X148750000Y-112178571D01*
X149107142Y-112178571D01*
X149250000Y-112250000D01*
X149321428Y-112321428D01*
X149392857Y-112464285D01*
X149392857Y-112607142D01*
X149321428Y-112821428D01*
X148464285Y-113678571D01*
X149392857Y-113678571D01*
X150821428Y-113678571D02*
X149964285Y-113678571D01*
X150392857Y-113678571D02*
X150392857Y-112178571D01*
X150250000Y-112392857D01*
X150107142Y-112535714D01*
X149964285Y-112607142D01*
X151750000Y-112178571D02*
X151892857Y-112178571D01*
X152035714Y-112250000D01*
X152107142Y-112321428D01*
X152178571Y-112464285D01*
X152250000Y-112750000D01*
X152250000Y-113107142D01*
X152178571Y-113392857D01*
X152107142Y-113535714D01*
X152035714Y-113607142D01*
X151892857Y-113678571D01*
X151750000Y-113678571D01*
X151607142Y-113607142D01*
X151535714Y-113535714D01*
X151464285Y-113392857D01*
X151392857Y-113107142D01*
X151392857Y-112750000D01*
X151464285Y-112464285D01*
X151535714Y-112321428D01*
X151607142Y-112250000D01*
X151750000Y-112178571D01*
X153535714Y-112678571D02*
X153535714Y-113678571D01*
X153178571Y-112107142D02*
X152821428Y-113178571D01*
X153750000Y-113178571D01*
X146392857Y-85678571D02*
X146392857Y-84178571D01*
X147964285Y-85678571D02*
X147464285Y-84964285D01*
X147107142Y-85678571D02*
X147107142Y-84178571D01*
X147678571Y-84178571D01*
X147821428Y-84250000D01*
X147892857Y-84321428D01*
X147964285Y-84464285D01*
X147964285Y-84678571D01*
X147892857Y-84821428D01*
X147821428Y-84892857D01*
X147678571Y-84964285D01*
X147107142Y-84964285D01*
X148535714Y-84321428D02*
X148607142Y-84250000D01*
X148750000Y-84178571D01*
X149107142Y-84178571D01*
X149250000Y-84250000D01*
X149321428Y-84321428D01*
X149392857Y-84464285D01*
X149392857Y-84607142D01*
X149321428Y-84821428D01*
X148464285Y-85678571D01*
X149392857Y-85678571D01*
X150821428Y-85678571D02*
X149964285Y-85678571D01*
X150392857Y-85678571D02*
X150392857Y-84178571D01*
X150250000Y-84392857D01*
X150107142Y-84535714D01*
X149964285Y-84607142D01*
X151750000Y-84178571D02*
X151892857Y-84178571D01*
X152035714Y-84250000D01*
X152107142Y-84321428D01*
X152178571Y-84464285D01*
X152250000Y-84750000D01*
X152250000Y-85107142D01*
X152178571Y-85392857D01*
X152107142Y-85535714D01*
X152035714Y-85607142D01*
X151892857Y-85678571D01*
X151750000Y-85678571D01*
X151607142Y-85607142D01*
X151535714Y-85535714D01*
X151464285Y-85392857D01*
X151392857Y-85107142D01*
X151392857Y-84750000D01*
X151464285Y-84464285D01*
X151535714Y-84321428D01*
X151607142Y-84250000D01*
X151750000Y-84178571D01*
X153535714Y-84678571D02*
X153535714Y-85678571D01*
X153178571Y-84107142D02*
X152821428Y-85178571D01*
X153750000Y-85178571D01*
X137071428Y-131178571D02*
X137928571Y-131178571D01*
X137500000Y-132678571D02*
X137500000Y-131178571D01*
X139142857Y-132678571D02*
X138428571Y-132678571D01*
X138428571Y-131178571D01*
X139642857Y-132678571D02*
X139642857Y-131178571D01*
X140214285Y-131178571D01*
X140357142Y-131250000D01*
X140428571Y-131321428D01*
X140500000Y-131464285D01*
X140500000Y-131678571D01*
X140428571Y-131821428D01*
X140357142Y-131892857D01*
X140214285Y-131964285D01*
X139642857Y-131964285D01*
X141071428Y-131321428D02*
X141142857Y-131250000D01*
X141285714Y-131178571D01*
X141642857Y-131178571D01*
X141785714Y-131250000D01*
X141857142Y-131321428D01*
X141928571Y-131464285D01*
X141928571Y-131607142D01*
X141857142Y-131821428D01*
X141000000Y-132678571D01*
X141928571Y-132678571D01*
X142642857Y-132678571D02*
X142928571Y-132678571D01*
X143071428Y-132607142D01*
X143142857Y-132535714D01*
X143285714Y-132321428D01*
X143357142Y-132035714D01*
X143357142Y-131464285D01*
X143285714Y-131321428D01*
X143214285Y-131250000D01*
X143071428Y-131178571D01*
X142785714Y-131178571D01*
X142642857Y-131250000D01*
X142571428Y-131321428D01*
X142500000Y-131464285D01*
X142500000Y-131821428D01*
X142571428Y-131964285D01*
X142642857Y-132035714D01*
X142785714Y-132107142D01*
X143071428Y-132107142D01*
X143214285Y-132035714D01*
X143285714Y-131964285D01*
X143357142Y-131821428D01*
X144785714Y-132678571D02*
X143928571Y-132678571D01*
X144357142Y-132678571D02*
X144357142Y-131178571D01*
X144214285Y-131392857D01*
X144071428Y-131535714D01*
X143928571Y-131607142D01*
X137071428Y-122178571D02*
X137928571Y-122178571D01*
X137500000Y-123678571D02*
X137500000Y-122178571D01*
X139142857Y-123678571D02*
X138428571Y-123678571D01*
X138428571Y-122178571D01*
X139642857Y-123678571D02*
X139642857Y-122178571D01*
X140214285Y-122178571D01*
X140357142Y-122250000D01*
X140428571Y-122321428D01*
X140500000Y-122464285D01*
X140500000Y-122678571D01*
X140428571Y-122821428D01*
X140357142Y-122892857D01*
X140214285Y-122964285D01*
X139642857Y-122964285D01*
X141071428Y-122321428D02*
X141142857Y-122250000D01*
X141285714Y-122178571D01*
X141642857Y-122178571D01*
X141785714Y-122250000D01*
X141857142Y-122321428D01*
X141928571Y-122464285D01*
X141928571Y-122607142D01*
X141857142Y-122821428D01*
X141000000Y-123678571D01*
X141928571Y-123678571D01*
X142642857Y-123678571D02*
X142928571Y-123678571D01*
X143071428Y-123607142D01*
X143142857Y-123535714D01*
X143285714Y-123321428D01*
X143357142Y-123035714D01*
X143357142Y-122464285D01*
X143285714Y-122321428D01*
X143214285Y-122250000D01*
X143071428Y-122178571D01*
X142785714Y-122178571D01*
X142642857Y-122250000D01*
X142571428Y-122321428D01*
X142500000Y-122464285D01*
X142500000Y-122821428D01*
X142571428Y-122964285D01*
X142642857Y-123035714D01*
X142785714Y-123107142D01*
X143071428Y-123107142D01*
X143214285Y-123035714D01*
X143285714Y-122964285D01*
X143357142Y-122821428D01*
X144785714Y-123678571D02*
X143928571Y-123678571D01*
X144357142Y-123678571D02*
X144357142Y-122178571D01*
X144214285Y-122392857D01*
X144071428Y-122535714D01*
X143928571Y-122607142D01*
X137071428Y-113178571D02*
X137928571Y-113178571D01*
X137500000Y-114678571D02*
X137500000Y-113178571D01*
X139142857Y-114678571D02*
X138428571Y-114678571D01*
X138428571Y-113178571D01*
X139642857Y-114678571D02*
X139642857Y-113178571D01*
X140214285Y-113178571D01*
X140357142Y-113250000D01*
X140428571Y-113321428D01*
X140500000Y-113464285D01*
X140500000Y-113678571D01*
X140428571Y-113821428D01*
X140357142Y-113892857D01*
X140214285Y-113964285D01*
X139642857Y-113964285D01*
X141071428Y-113321428D02*
X141142857Y-113250000D01*
X141285714Y-113178571D01*
X141642857Y-113178571D01*
X141785714Y-113250000D01*
X141857142Y-113321428D01*
X141928571Y-113464285D01*
X141928571Y-113607142D01*
X141857142Y-113821428D01*
X141000000Y-114678571D01*
X141928571Y-114678571D01*
X142642857Y-114678571D02*
X142928571Y-114678571D01*
X143071428Y-114607142D01*
X143142857Y-114535714D01*
X143285714Y-114321428D01*
X143357142Y-114035714D01*
X143357142Y-113464285D01*
X143285714Y-113321428D01*
X143214285Y-113250000D01*
X143071428Y-113178571D01*
X142785714Y-113178571D01*
X142642857Y-113250000D01*
X142571428Y-113321428D01*
X142500000Y-113464285D01*
X142500000Y-113821428D01*
X142571428Y-113964285D01*
X142642857Y-114035714D01*
X142785714Y-114107142D01*
X143071428Y-114107142D01*
X143214285Y-114035714D01*
X143285714Y-113964285D01*
X143357142Y-113821428D01*
X144785714Y-114678571D02*
X143928571Y-114678571D01*
X144357142Y-114678571D02*
X144357142Y-113178571D01*
X144214285Y-113392857D01*
X144071428Y-113535714D01*
X143928571Y-113607142D01*
X147535714Y-74178571D02*
X147678571Y-74178571D01*
X147821428Y-74250000D01*
X147892857Y-74321428D01*
X147964285Y-74464285D01*
X148035714Y-74750000D01*
X148035714Y-75107142D01*
X147964285Y-75392857D01*
X147892857Y-75535714D01*
X147821428Y-75607142D01*
X147678571Y-75678571D01*
X147535714Y-75678571D01*
X147392857Y-75607142D01*
X147321428Y-75535714D01*
X147250000Y-75392857D01*
X147178571Y-75107142D01*
X147178571Y-74750000D01*
X147250000Y-74464285D01*
X147321428Y-74321428D01*
X147392857Y-74250000D01*
X147535714Y-74178571D01*
X148678571Y-75535714D02*
X148750000Y-75607142D01*
X148678571Y-75678571D01*
X148607142Y-75607142D01*
X148678571Y-75535714D01*
X148678571Y-75678571D01*
X150178571Y-75678571D02*
X149321428Y-75678571D01*
X149750000Y-75678571D02*
X149750000Y-74178571D01*
X149607142Y-74392857D01*
X149464285Y-74535714D01*
X149321428Y-74607142D01*
X151464285Y-74678571D02*
X151464285Y-75678571D01*
X150821428Y-74678571D02*
X150821428Y-75464285D01*
X150892857Y-75607142D01*
X151035714Y-75678571D01*
X151250000Y-75678571D01*
X151392857Y-75607142D01*
X151464285Y-75535714D01*
X152678571Y-74892857D02*
X152178571Y-74892857D01*
X152178571Y-75678571D02*
X152178571Y-74178571D01*
X152892857Y-74178571D01*
X136535714Y-87178571D02*
X136678571Y-87178571D01*
X136821428Y-87250000D01*
X136892857Y-87321428D01*
X136964285Y-87464285D01*
X137035714Y-87750000D01*
X137035714Y-88107142D01*
X136964285Y-88392857D01*
X136892857Y-88535714D01*
X136821428Y-88607142D01*
X136678571Y-88678571D01*
X136535714Y-88678571D01*
X136392857Y-88607142D01*
X136321428Y-88535714D01*
X136250000Y-88392857D01*
X136178571Y-88107142D01*
X136178571Y-87750000D01*
X136250000Y-87464285D01*
X136321428Y-87321428D01*
X136392857Y-87250000D01*
X136535714Y-87178571D01*
X137678571Y-88535714D02*
X137750000Y-88607142D01*
X137678571Y-88678571D01*
X137607142Y-88607142D01*
X137678571Y-88535714D01*
X137678571Y-88678571D01*
X139178571Y-88678571D02*
X138321428Y-88678571D01*
X138750000Y-88678571D02*
X138750000Y-87178571D01*
X138607142Y-87392857D01*
X138464285Y-87535714D01*
X138321428Y-87607142D01*
X140464285Y-87678571D02*
X140464285Y-88678571D01*
X139821428Y-87678571D02*
X139821428Y-88464285D01*
X139892857Y-88607142D01*
X140035714Y-88678571D01*
X140250000Y-88678571D01*
X140392857Y-88607142D01*
X140464285Y-88535714D01*
X141678571Y-87892857D02*
X141178571Y-87892857D01*
X141178571Y-88678571D02*
X141178571Y-87178571D01*
X141892857Y-87178571D01*
X147535714Y-92178571D02*
X147678571Y-92178571D01*
X147821428Y-92250000D01*
X147892857Y-92321428D01*
X147964285Y-92464285D01*
X148035714Y-92750000D01*
X148035714Y-93107142D01*
X147964285Y-93392857D01*
X147892857Y-93535714D01*
X147821428Y-93607142D01*
X147678571Y-93678571D01*
X147535714Y-93678571D01*
X147392857Y-93607142D01*
X147321428Y-93535714D01*
X147250000Y-93392857D01*
X147178571Y-93107142D01*
X147178571Y-92750000D01*
X147250000Y-92464285D01*
X147321428Y-92321428D01*
X147392857Y-92250000D01*
X147535714Y-92178571D01*
X148678571Y-93535714D02*
X148750000Y-93607142D01*
X148678571Y-93678571D01*
X148607142Y-93607142D01*
X148678571Y-93535714D01*
X148678571Y-93678571D01*
X150178571Y-93678571D02*
X149321428Y-93678571D01*
X149750000Y-93678571D02*
X149750000Y-92178571D01*
X149607142Y-92392857D01*
X149464285Y-92535714D01*
X149321428Y-92607142D01*
X151464285Y-92678571D02*
X151464285Y-93678571D01*
X150821428Y-92678571D02*
X150821428Y-93464285D01*
X150892857Y-93607142D01*
X151035714Y-93678571D01*
X151250000Y-93678571D01*
X151392857Y-93607142D01*
X151464285Y-93535714D01*
X152678571Y-92892857D02*
X152178571Y-92892857D01*
X152178571Y-93678571D02*
X152178571Y-92178571D01*
X152892857Y-92178571D01*
X136535714Y-97178571D02*
X136678571Y-97178571D01*
X136821428Y-97250000D01*
X136892857Y-97321428D01*
X136964285Y-97464285D01*
X137035714Y-97750000D01*
X137035714Y-98107142D01*
X136964285Y-98392857D01*
X136892857Y-98535714D01*
X136821428Y-98607142D01*
X136678571Y-98678571D01*
X136535714Y-98678571D01*
X136392857Y-98607142D01*
X136321428Y-98535714D01*
X136250000Y-98392857D01*
X136178571Y-98107142D01*
X136178571Y-97750000D01*
X136250000Y-97464285D01*
X136321428Y-97321428D01*
X136392857Y-97250000D01*
X136535714Y-97178571D01*
X137678571Y-98535714D02*
X137750000Y-98607142D01*
X137678571Y-98678571D01*
X137607142Y-98607142D01*
X137678571Y-98535714D01*
X137678571Y-98678571D01*
X139178571Y-98678571D02*
X138321428Y-98678571D01*
X138750000Y-98678571D02*
X138750000Y-97178571D01*
X138607142Y-97392857D01*
X138464285Y-97535714D01*
X138321428Y-97607142D01*
X140464285Y-97678571D02*
X140464285Y-98678571D01*
X139821428Y-97678571D02*
X139821428Y-98464285D01*
X139892857Y-98607142D01*
X140035714Y-98678571D01*
X140250000Y-98678571D01*
X140392857Y-98607142D01*
X140464285Y-98535714D01*
X141678571Y-97892857D02*
X141178571Y-97892857D01*
X141178571Y-98678571D02*
X141178571Y-97178571D01*
X141892857Y-97178571D01*
X147535714Y-102178571D02*
X147678571Y-102178571D01*
X147821428Y-102250000D01*
X147892857Y-102321428D01*
X147964285Y-102464285D01*
X148035714Y-102750000D01*
X148035714Y-103107142D01*
X147964285Y-103392857D01*
X147892857Y-103535714D01*
X147821428Y-103607142D01*
X147678571Y-103678571D01*
X147535714Y-103678571D01*
X147392857Y-103607142D01*
X147321428Y-103535714D01*
X147250000Y-103392857D01*
X147178571Y-103107142D01*
X147178571Y-102750000D01*
X147250000Y-102464285D01*
X147321428Y-102321428D01*
X147392857Y-102250000D01*
X147535714Y-102178571D01*
X148678571Y-103535714D02*
X148750000Y-103607142D01*
X148678571Y-103678571D01*
X148607142Y-103607142D01*
X148678571Y-103535714D01*
X148678571Y-103678571D01*
X150178571Y-103678571D02*
X149321428Y-103678571D01*
X149750000Y-103678571D02*
X149750000Y-102178571D01*
X149607142Y-102392857D01*
X149464285Y-102535714D01*
X149321428Y-102607142D01*
X151464285Y-102678571D02*
X151464285Y-103678571D01*
X150821428Y-102678571D02*
X150821428Y-103464285D01*
X150892857Y-103607142D01*
X151035714Y-103678571D01*
X151250000Y-103678571D01*
X151392857Y-103607142D01*
X151464285Y-103535714D01*
X152678571Y-102892857D02*
X152178571Y-102892857D01*
X152178571Y-103678571D02*
X152178571Y-102178571D01*
X152892857Y-102178571D01*
X147535714Y-120178571D02*
X147678571Y-120178571D01*
X147821428Y-120250000D01*
X147892857Y-120321428D01*
X147964285Y-120464285D01*
X148035714Y-120750000D01*
X148035714Y-121107142D01*
X147964285Y-121392857D01*
X147892857Y-121535714D01*
X147821428Y-121607142D01*
X147678571Y-121678571D01*
X147535714Y-121678571D01*
X147392857Y-121607142D01*
X147321428Y-121535714D01*
X147250000Y-121392857D01*
X147178571Y-121107142D01*
X147178571Y-120750000D01*
X147250000Y-120464285D01*
X147321428Y-120321428D01*
X147392857Y-120250000D01*
X147535714Y-120178571D01*
X148678571Y-121535714D02*
X148750000Y-121607142D01*
X148678571Y-121678571D01*
X148607142Y-121607142D01*
X148678571Y-121535714D01*
X148678571Y-121678571D01*
X150178571Y-121678571D02*
X149321428Y-121678571D01*
X149750000Y-121678571D02*
X149750000Y-120178571D01*
X149607142Y-120392857D01*
X149464285Y-120535714D01*
X149321428Y-120607142D01*
X151464285Y-120678571D02*
X151464285Y-121678571D01*
X150821428Y-120678571D02*
X150821428Y-121464285D01*
X150892857Y-121607142D01*
X151035714Y-121678571D01*
X151250000Y-121678571D01*
X151392857Y-121607142D01*
X151464285Y-121535714D01*
X152678571Y-120892857D02*
X152178571Y-120892857D01*
X152178571Y-121678571D02*
X152178571Y-120178571D01*
X152892857Y-120178571D01*
X132000000Y-133678571D02*
X131142857Y-133678571D01*
X131571428Y-133678571D02*
X131571428Y-132178571D01*
X131428571Y-132392857D01*
X131285714Y-132535714D01*
X131142857Y-132607142D01*
X132928571Y-132178571D02*
X133071428Y-132178571D01*
X133214285Y-132250000D01*
X133285714Y-132321428D01*
X133357142Y-132464285D01*
X133428571Y-132750000D01*
X133428571Y-133107142D01*
X133357142Y-133392857D01*
X133285714Y-133535714D01*
X133214285Y-133607142D01*
X133071428Y-133678571D01*
X132928571Y-133678571D01*
X132785714Y-133607142D01*
X132714285Y-133535714D01*
X132642857Y-133392857D01*
X132571428Y-133107142D01*
X132571428Y-132750000D01*
X132642857Y-132464285D01*
X132714285Y-132321428D01*
X132785714Y-132250000D01*
X132928571Y-132178571D01*
X134357142Y-132178571D02*
X134500000Y-132178571D01*
X134642857Y-132250000D01*
X134714285Y-132321428D01*
X134785714Y-132464285D01*
X134857142Y-132750000D01*
X134857142Y-133107142D01*
X134785714Y-133392857D01*
X134714285Y-133535714D01*
X134642857Y-133607142D01*
X134500000Y-133678571D01*
X134357142Y-133678571D01*
X134214285Y-133607142D01*
X134142857Y-133535714D01*
X134071428Y-133392857D01*
X134000000Y-133107142D01*
X134000000Y-132750000D01*
X134071428Y-132464285D01*
X134142857Y-132321428D01*
X134214285Y-132250000D01*
X134357142Y-132178571D01*
X132000000Y-124678571D02*
X131142857Y-124678571D01*
X131571428Y-124678571D02*
X131571428Y-123178571D01*
X131428571Y-123392857D01*
X131285714Y-123535714D01*
X131142857Y-123607142D01*
X132928571Y-123178571D02*
X133071428Y-123178571D01*
X133214285Y-123250000D01*
X133285714Y-123321428D01*
X133357142Y-123464285D01*
X133428571Y-123750000D01*
X133428571Y-124107142D01*
X133357142Y-124392857D01*
X133285714Y-124535714D01*
X133214285Y-124607142D01*
X133071428Y-124678571D01*
X132928571Y-124678571D01*
X132785714Y-124607142D01*
X132714285Y-124535714D01*
X132642857Y-124392857D01*
X132571428Y-124107142D01*
X132571428Y-123750000D01*
X132642857Y-123464285D01*
X132714285Y-123321428D01*
X132785714Y-123250000D01*
X132928571Y-123178571D01*
X134357142Y-123178571D02*
X134500000Y-123178571D01*
X134642857Y-123250000D01*
X134714285Y-123321428D01*
X134785714Y-123464285D01*
X134857142Y-123750000D01*
X134857142Y-124107142D01*
X134785714Y-124392857D01*
X134714285Y-124535714D01*
X134642857Y-124607142D01*
X134500000Y-124678571D01*
X134357142Y-124678571D01*
X134214285Y-124607142D01*
X134142857Y-124535714D01*
X134071428Y-124392857D01*
X134000000Y-124107142D01*
X134000000Y-123750000D01*
X134071428Y-123464285D01*
X134142857Y-123321428D01*
X134214285Y-123250000D01*
X134357142Y-123178571D01*
X132000000Y-115678571D02*
X131142857Y-115678571D01*
X131571428Y-115678571D02*
X131571428Y-114178571D01*
X131428571Y-114392857D01*
X131285714Y-114535714D01*
X131142857Y-114607142D01*
X132928571Y-114178571D02*
X133071428Y-114178571D01*
X133214285Y-114250000D01*
X133285714Y-114321428D01*
X133357142Y-114464285D01*
X133428571Y-114750000D01*
X133428571Y-115107142D01*
X133357142Y-115392857D01*
X133285714Y-115535714D01*
X133214285Y-115607142D01*
X133071428Y-115678571D01*
X132928571Y-115678571D01*
X132785714Y-115607142D01*
X132714285Y-115535714D01*
X132642857Y-115392857D01*
X132571428Y-115107142D01*
X132571428Y-114750000D01*
X132642857Y-114464285D01*
X132714285Y-114321428D01*
X132785714Y-114250000D01*
X132928571Y-114178571D01*
X134357142Y-114178571D02*
X134500000Y-114178571D01*
X134642857Y-114250000D01*
X134714285Y-114321428D01*
X134785714Y-114464285D01*
X134857142Y-114750000D01*
X134857142Y-115107142D01*
X134785714Y-115392857D01*
X134714285Y-115535714D01*
X134642857Y-115607142D01*
X134500000Y-115678571D01*
X134357142Y-115678571D01*
X134214285Y-115607142D01*
X134142857Y-115535714D01*
X134071428Y-115392857D01*
X134000000Y-115107142D01*
X134000000Y-114750000D01*
X134071428Y-114464285D01*
X134142857Y-114321428D01*
X134214285Y-114250000D01*
X134357142Y-114178571D01*
X172321428Y-87821428D02*
X173035714Y-87321428D01*
X172321428Y-86964285D02*
X173821428Y-86964285D01*
X173821428Y-87535714D01*
X173750000Y-87678571D01*
X173678571Y-87750000D01*
X173535714Y-87821428D01*
X173321428Y-87821428D01*
X173178571Y-87750000D01*
X173107142Y-87678571D01*
X173035714Y-87535714D01*
X173035714Y-86964285D01*
X172392857Y-88392857D02*
X172321428Y-88607142D01*
X172321428Y-88964285D01*
X172392857Y-89107142D01*
X172464285Y-89178571D01*
X172607142Y-89250000D01*
X172750000Y-89250000D01*
X172892857Y-89178571D01*
X172964285Y-89107142D01*
X173035714Y-88964285D01*
X173107142Y-88678571D01*
X173178571Y-88535714D01*
X173250000Y-88464285D01*
X173392857Y-88392857D01*
X173535714Y-88392857D01*
X173678571Y-88464285D01*
X173750000Y-88535714D01*
X173821428Y-88678571D01*
X173821428Y-89035714D01*
X173750000Y-89250000D01*
X173821428Y-90321428D02*
X172750000Y-90321428D01*
X172535714Y-90250000D01*
X172392857Y-90107142D01*
X172321428Y-89892857D01*
X172321428Y-89750000D01*
X173821428Y-90892857D02*
X173821428Y-91821428D01*
X173250000Y-91321428D01*
X173250000Y-91535714D01*
X173178571Y-91678571D01*
X173107142Y-91750000D01*
X172964285Y-91821428D01*
X172607142Y-91821428D01*
X172464285Y-91750000D01*
X172392857Y-91678571D01*
X172321428Y-91535714D01*
X172321428Y-91107142D01*
X172392857Y-90964285D01*
X172464285Y-90892857D01*
X173821428Y-92750000D02*
X173821428Y-92892857D01*
X173750000Y-93035714D01*
X173678571Y-93107142D01*
X173535714Y-93178571D01*
X173250000Y-93250000D01*
X172892857Y-93250000D01*
X172607142Y-93178571D01*
X172464285Y-93107142D01*
X172392857Y-93035714D01*
X172321428Y-92892857D01*
X172321428Y-92750000D01*
X172392857Y-92607142D01*
X172464285Y-92535714D01*
X172607142Y-92464285D01*
X172892857Y-92392857D01*
X173250000Y-92392857D01*
X173535714Y-92464285D01*
X173678571Y-92535714D01*
X173750000Y-92607142D01*
X173821428Y-92750000D01*
X173821428Y-94178571D02*
X173821428Y-94321428D01*
X173750000Y-94464285D01*
X173678571Y-94535714D01*
X173535714Y-94607142D01*
X173250000Y-94678571D01*
X172892857Y-94678571D01*
X172607142Y-94607142D01*
X172464285Y-94535714D01*
X172392857Y-94464285D01*
X172321428Y-94321428D01*
X172321428Y-94178571D01*
X172392857Y-94035714D01*
X172464285Y-93964285D01*
X172607142Y-93892857D01*
X172892857Y-93821428D01*
X173250000Y-93821428D01*
X173535714Y-93892857D01*
X173678571Y-93964285D01*
X173750000Y-94035714D01*
X173821428Y-94178571D01*
X172321428Y-95321428D02*
X173821428Y-95321428D01*
X172321428Y-96178571D01*
X173821428Y-96178571D01*
X172321428Y-97678571D02*
X172321428Y-96821428D01*
X172321428Y-97250000D02*
X173821428Y-97250000D01*
X173607142Y-97107142D01*
X173464285Y-96964285D01*
X173392857Y-96821428D01*
X173821428Y-98607142D02*
X173821428Y-98750000D01*
X173750000Y-98892857D01*
X173678571Y-98964285D01*
X173535714Y-99035714D01*
X173250000Y-99107142D01*
X172892857Y-99107142D01*
X172607142Y-99035714D01*
X172464285Y-98964285D01*
X172392857Y-98892857D01*
X172321428Y-98750000D01*
X172321428Y-98607142D01*
X172392857Y-98464285D01*
X172464285Y-98392857D01*
X172607142Y-98321428D01*
X172892857Y-98250000D01*
X173250000Y-98250000D01*
X173535714Y-98321428D01*
X173678571Y-98392857D01*
X173750000Y-98464285D01*
X173821428Y-98607142D01*
X172321428Y-101821428D02*
X173035714Y-101321428D01*
X172321428Y-100964285D02*
X173821428Y-100964285D01*
X173821428Y-101535714D01*
X173750000Y-101678571D01*
X173678571Y-101750000D01*
X173535714Y-101821428D01*
X173321428Y-101821428D01*
X173178571Y-101750000D01*
X173107142Y-101678571D01*
X173035714Y-101535714D01*
X173035714Y-100964285D01*
X172392857Y-102392857D02*
X172321428Y-102607142D01*
X172321428Y-102964285D01*
X172392857Y-103107142D01*
X172464285Y-103178571D01*
X172607142Y-103250000D01*
X172750000Y-103250000D01*
X172892857Y-103178571D01*
X172964285Y-103107142D01*
X173035714Y-102964285D01*
X173107142Y-102678571D01*
X173178571Y-102535714D01*
X173250000Y-102464285D01*
X173392857Y-102392857D01*
X173535714Y-102392857D01*
X173678571Y-102464285D01*
X173750000Y-102535714D01*
X173821428Y-102678571D01*
X173821428Y-103035714D01*
X173750000Y-103250000D01*
X173821428Y-104321428D02*
X172750000Y-104321428D01*
X172535714Y-104250000D01*
X172392857Y-104107142D01*
X172321428Y-103892857D01*
X172321428Y-103750000D01*
X173821428Y-104892857D02*
X173821428Y-105821428D01*
X173250000Y-105321428D01*
X173250000Y-105535714D01*
X173178571Y-105678571D01*
X173107142Y-105750000D01*
X172964285Y-105821428D01*
X172607142Y-105821428D01*
X172464285Y-105750000D01*
X172392857Y-105678571D01*
X172321428Y-105535714D01*
X172321428Y-105107142D01*
X172392857Y-104964285D01*
X172464285Y-104892857D01*
X173821428Y-106750000D02*
X173821428Y-106892857D01*
X173750000Y-107035714D01*
X173678571Y-107107142D01*
X173535714Y-107178571D01*
X173250000Y-107250000D01*
X172892857Y-107250000D01*
X172607142Y-107178571D01*
X172464285Y-107107142D01*
X172392857Y-107035714D01*
X172321428Y-106892857D01*
X172321428Y-106750000D01*
X172392857Y-106607142D01*
X172464285Y-106535714D01*
X172607142Y-106464285D01*
X172892857Y-106392857D01*
X173250000Y-106392857D01*
X173535714Y-106464285D01*
X173678571Y-106535714D01*
X173750000Y-106607142D01*
X173821428Y-106750000D01*
X173821428Y-108178571D02*
X173821428Y-108321428D01*
X173750000Y-108464285D01*
X173678571Y-108535714D01*
X173535714Y-108607142D01*
X173250000Y-108678571D01*
X172892857Y-108678571D01*
X172607142Y-108607142D01*
X172464285Y-108535714D01*
X172392857Y-108464285D01*
X172321428Y-108321428D01*
X172321428Y-108178571D01*
X172392857Y-108035714D01*
X172464285Y-107964285D01*
X172607142Y-107892857D01*
X172892857Y-107821428D01*
X173250000Y-107821428D01*
X173535714Y-107892857D01*
X173678571Y-107964285D01*
X173750000Y-108035714D01*
X173821428Y-108178571D01*
X172321428Y-109321428D02*
X173821428Y-109321428D01*
X172321428Y-110178571D01*
X173821428Y-110178571D01*
X172321428Y-111678571D02*
X172321428Y-110821428D01*
X172321428Y-111250000D02*
X173821428Y-111250000D01*
X173607142Y-111107142D01*
X173464285Y-110964285D01*
X173392857Y-110821428D01*
X173821428Y-112607142D02*
X173821428Y-112750000D01*
X173750000Y-112892857D01*
X173678571Y-112964285D01*
X173535714Y-113035714D01*
X173250000Y-113107142D01*
X172892857Y-113107142D01*
X172607142Y-113035714D01*
X172464285Y-112964285D01*
X172392857Y-112892857D01*
X172321428Y-112750000D01*
X172321428Y-112607142D01*
X172392857Y-112464285D01*
X172464285Y-112392857D01*
X172607142Y-112321428D01*
X172892857Y-112250000D01*
X173250000Y-112250000D01*
X173535714Y-112321428D01*
X173678571Y-112392857D01*
X173750000Y-112464285D01*
X173821428Y-112607142D01*
X172321428Y-115821428D02*
X173035714Y-115321428D01*
X172321428Y-114964285D02*
X173821428Y-114964285D01*
X173821428Y-115535714D01*
X173750000Y-115678571D01*
X173678571Y-115750000D01*
X173535714Y-115821428D01*
X173321428Y-115821428D01*
X173178571Y-115750000D01*
X173107142Y-115678571D01*
X173035714Y-115535714D01*
X173035714Y-114964285D01*
X172392857Y-116392857D02*
X172321428Y-116607142D01*
X172321428Y-116964285D01*
X172392857Y-117107142D01*
X172464285Y-117178571D01*
X172607142Y-117250000D01*
X172750000Y-117250000D01*
X172892857Y-117178571D01*
X172964285Y-117107142D01*
X173035714Y-116964285D01*
X173107142Y-116678571D01*
X173178571Y-116535714D01*
X173250000Y-116464285D01*
X173392857Y-116392857D01*
X173535714Y-116392857D01*
X173678571Y-116464285D01*
X173750000Y-116535714D01*
X173821428Y-116678571D01*
X173821428Y-117035714D01*
X173750000Y-117250000D01*
X173821428Y-118321428D02*
X172750000Y-118321428D01*
X172535714Y-118250000D01*
X172392857Y-118107142D01*
X172321428Y-117892857D01*
X172321428Y-117750000D01*
X173821428Y-118892857D02*
X173821428Y-119821428D01*
X173250000Y-119321428D01*
X173250000Y-119535714D01*
X173178571Y-119678571D01*
X173107142Y-119750000D01*
X172964285Y-119821428D01*
X172607142Y-119821428D01*
X172464285Y-119750000D01*
X172392857Y-119678571D01*
X172321428Y-119535714D01*
X172321428Y-119107142D01*
X172392857Y-118964285D01*
X172464285Y-118892857D01*
X173821428Y-120750000D02*
X173821428Y-120892857D01*
X173750000Y-121035714D01*
X173678571Y-121107142D01*
X173535714Y-121178571D01*
X173250000Y-121250000D01*
X172892857Y-121250000D01*
X172607142Y-121178571D01*
X172464285Y-121107142D01*
X172392857Y-121035714D01*
X172321428Y-120892857D01*
X172321428Y-120750000D01*
X172392857Y-120607142D01*
X172464285Y-120535714D01*
X172607142Y-120464285D01*
X172892857Y-120392857D01*
X173250000Y-120392857D01*
X173535714Y-120464285D01*
X173678571Y-120535714D01*
X173750000Y-120607142D01*
X173821428Y-120750000D01*
X173821428Y-122178571D02*
X173821428Y-122321428D01*
X173750000Y-122464285D01*
X173678571Y-122535714D01*
X173535714Y-122607142D01*
X173250000Y-122678571D01*
X172892857Y-122678571D01*
X172607142Y-122607142D01*
X172464285Y-122535714D01*
X172392857Y-122464285D01*
X172321428Y-122321428D01*
X172321428Y-122178571D01*
X172392857Y-122035714D01*
X172464285Y-121964285D01*
X172607142Y-121892857D01*
X172892857Y-121821428D01*
X173250000Y-121821428D01*
X173535714Y-121892857D01*
X173678571Y-121964285D01*
X173750000Y-122035714D01*
X173821428Y-122178571D01*
X172321428Y-123321428D02*
X173821428Y-123321428D01*
X172321428Y-124178571D01*
X173821428Y-124178571D01*
X172321428Y-125678571D02*
X172321428Y-124821428D01*
X172321428Y-125250000D02*
X173821428Y-125250000D01*
X173607142Y-125107142D01*
X173464285Y-124964285D01*
X173392857Y-124821428D01*
X173821428Y-126607142D02*
X173821428Y-126750000D01*
X173750000Y-126892857D01*
X173678571Y-126964285D01*
X173535714Y-127035714D01*
X173250000Y-127107142D01*
X172892857Y-127107142D01*
X172607142Y-127035714D01*
X172464285Y-126964285D01*
X172392857Y-126892857D01*
X172321428Y-126750000D01*
X172321428Y-126607142D01*
X172392857Y-126464285D01*
X172464285Y-126392857D01*
X172607142Y-126321428D01*
X172892857Y-126250000D01*
X173250000Y-126250000D01*
X173535714Y-126321428D01*
X173678571Y-126392857D01*
X173750000Y-126464285D01*
X173821428Y-126607142D01*
X172321428Y-73821428D02*
X173035714Y-73321428D01*
X172321428Y-72964285D02*
X173821428Y-72964285D01*
X173821428Y-73535714D01*
X173750000Y-73678571D01*
X173678571Y-73750000D01*
X173535714Y-73821428D01*
X173321428Y-73821428D01*
X173178571Y-73750000D01*
X173107142Y-73678571D01*
X173035714Y-73535714D01*
X173035714Y-72964285D01*
X172392857Y-74392857D02*
X172321428Y-74607142D01*
X172321428Y-74964285D01*
X172392857Y-75107142D01*
X172464285Y-75178571D01*
X172607142Y-75250000D01*
X172750000Y-75250000D01*
X172892857Y-75178571D01*
X172964285Y-75107142D01*
X173035714Y-74964285D01*
X173107142Y-74678571D01*
X173178571Y-74535714D01*
X173250000Y-74464285D01*
X173392857Y-74392857D01*
X173535714Y-74392857D01*
X173678571Y-74464285D01*
X173750000Y-74535714D01*
X173821428Y-74678571D01*
X173821428Y-75035714D01*
X173750000Y-75250000D01*
X173821428Y-76321428D02*
X172750000Y-76321428D01*
X172535714Y-76250000D01*
X172392857Y-76107142D01*
X172321428Y-75892857D01*
X172321428Y-75750000D01*
X173821428Y-76892857D02*
X173821428Y-77821428D01*
X173250000Y-77321428D01*
X173250000Y-77535714D01*
X173178571Y-77678571D01*
X173107142Y-77750000D01*
X172964285Y-77821428D01*
X172607142Y-77821428D01*
X172464285Y-77750000D01*
X172392857Y-77678571D01*
X172321428Y-77535714D01*
X172321428Y-77107142D01*
X172392857Y-76964285D01*
X172464285Y-76892857D01*
X173821428Y-78750000D02*
X173821428Y-78892857D01*
X173750000Y-79035714D01*
X173678571Y-79107142D01*
X173535714Y-79178571D01*
X173250000Y-79250000D01*
X172892857Y-79250000D01*
X172607142Y-79178571D01*
X172464285Y-79107142D01*
X172392857Y-79035714D01*
X172321428Y-78892857D01*
X172321428Y-78750000D01*
X172392857Y-78607142D01*
X172464285Y-78535714D01*
X172607142Y-78464285D01*
X172892857Y-78392857D01*
X173250000Y-78392857D01*
X173535714Y-78464285D01*
X173678571Y-78535714D01*
X173750000Y-78607142D01*
X173821428Y-78750000D01*
X173821428Y-80178571D02*
X173821428Y-80321428D01*
X173750000Y-80464285D01*
X173678571Y-80535714D01*
X173535714Y-80607142D01*
X173250000Y-80678571D01*
X172892857Y-80678571D01*
X172607142Y-80607142D01*
X172464285Y-80535714D01*
X172392857Y-80464285D01*
X172321428Y-80321428D01*
X172321428Y-80178571D01*
X172392857Y-80035714D01*
X172464285Y-79964285D01*
X172607142Y-79892857D01*
X172892857Y-79821428D01*
X173250000Y-79821428D01*
X173535714Y-79892857D01*
X173678571Y-79964285D01*
X173750000Y-80035714D01*
X173821428Y-80178571D01*
X172321428Y-81321428D02*
X173821428Y-81321428D01*
X172321428Y-82178571D01*
X173821428Y-82178571D01*
X172321428Y-83678571D02*
X172321428Y-82821428D01*
X172321428Y-83250000D02*
X173821428Y-83250000D01*
X173607142Y-83107142D01*
X173464285Y-82964285D01*
X173392857Y-82821428D01*
X173821428Y-84607142D02*
X173821428Y-84750000D01*
X173750000Y-84892857D01*
X173678571Y-84964285D01*
X173535714Y-85035714D01*
X173250000Y-85107142D01*
X172892857Y-85107142D01*
X172607142Y-85035714D01*
X172464285Y-84964285D01*
X172392857Y-84892857D01*
X172321428Y-84750000D01*
X172321428Y-84607142D01*
X172392857Y-84464285D01*
X172464285Y-84392857D01*
X172607142Y-84321428D01*
X172892857Y-84250000D01*
X173250000Y-84250000D01*
X173535714Y-84321428D01*
X173678571Y-84392857D01*
X173750000Y-84464285D01*
X173821428Y-84607142D01*
X132321428Y-69964285D02*
X132321428Y-69107142D01*
X132321428Y-69535714D02*
X133821428Y-69535714D01*
X133607142Y-69392857D01*
X133464285Y-69250000D01*
X133392857Y-69107142D01*
X133821428Y-70892857D02*
X133821428Y-71035714D01*
X133750000Y-71178571D01*
X133678571Y-71250000D01*
X133535714Y-71321428D01*
X133250000Y-71392857D01*
X132892857Y-71392857D01*
X132607142Y-71321428D01*
X132464285Y-71250000D01*
X132392857Y-71178571D01*
X132321428Y-71035714D01*
X132321428Y-70892857D01*
X132392857Y-70750000D01*
X132464285Y-70678571D01*
X132607142Y-70607142D01*
X132892857Y-70535714D01*
X133250000Y-70535714D01*
X133535714Y-70607142D01*
X133678571Y-70678571D01*
X133750000Y-70750000D01*
X133821428Y-70892857D01*
X133821428Y-72321428D02*
X133821428Y-72464285D01*
X133750000Y-72607142D01*
X133678571Y-72678571D01*
X133535714Y-72750000D01*
X133250000Y-72821428D01*
X132892857Y-72821428D01*
X132607142Y-72750000D01*
X132464285Y-72678571D01*
X132392857Y-72607142D01*
X132321428Y-72464285D01*
X132321428Y-72321428D01*
X132392857Y-72178571D01*
X132464285Y-72107142D01*
X132607142Y-72035714D01*
X132892857Y-71964285D01*
X133250000Y-71964285D01*
X133535714Y-72035714D01*
X133678571Y-72107142D01*
X133750000Y-72178571D01*
X133821428Y-72321428D01*
X133821428Y-73750000D02*
X133821428Y-73892857D01*
X133750000Y-74035714D01*
X133678571Y-74107142D01*
X133535714Y-74178571D01*
X133250000Y-74250000D01*
X132892857Y-74250000D01*
X132607142Y-74178571D01*
X132464285Y-74107142D01*
X132392857Y-74035714D01*
X132321428Y-73892857D01*
X132321428Y-73750000D01*
X132392857Y-73607142D01*
X132464285Y-73535714D01*
X132607142Y-73464285D01*
X132892857Y-73392857D01*
X133250000Y-73392857D01*
X133535714Y-73464285D01*
X133678571Y-73535714D01*
X133750000Y-73607142D01*
X133821428Y-73750000D01*
X133321428Y-75535714D02*
X132321428Y-75535714D01*
X133321428Y-74892857D02*
X132535714Y-74892857D01*
X132392857Y-74964285D01*
X132321428Y-75107142D01*
X132321428Y-75321428D01*
X132392857Y-75464285D01*
X132464285Y-75535714D01*
X133107142Y-76750000D02*
X133107142Y-76250000D01*
X132321428Y-76250000D02*
X133821428Y-76250000D01*
X133821428Y-76964285D01*
X134750000Y-97857142D02*
X134821428Y-97714285D01*
X134821428Y-97500000D01*
X134750000Y-97285714D01*
X134607142Y-97142857D01*
X134464285Y-97071428D01*
X134178571Y-97000000D01*
X133964285Y-97000000D01*
X133678571Y-97071428D01*
X133535714Y-97142857D01*
X133392857Y-97285714D01*
X133321428Y-97500000D01*
X133321428Y-97642857D01*
X133392857Y-97857142D01*
X133464285Y-97928571D01*
X133964285Y-97928571D01*
X133964285Y-97642857D01*
X133321428Y-98571428D02*
X134821428Y-98571428D01*
X133321428Y-99428571D01*
X134821428Y-99428571D01*
X133321428Y-100142857D02*
X134821428Y-100142857D01*
X134821428Y-100500000D01*
X134750000Y-100714285D01*
X134607142Y-100857142D01*
X134464285Y-100928571D01*
X134178571Y-101000000D01*
X133964285Y-101000000D01*
X133678571Y-100928571D01*
X133535714Y-100857142D01*
X133392857Y-100714285D01*
X133321428Y-100500000D01*
X133321428Y-100142857D01*
X134678571Y-86214285D02*
X134750000Y-86285714D01*
X134821428Y-86428571D01*
X134821428Y-86785714D01*
X134750000Y-86928571D01*
X134678571Y-87000000D01*
X134535714Y-87071428D01*
X134392857Y-87071428D01*
X134178571Y-87000000D01*
X133321428Y-86142857D01*
X133321428Y-87071428D01*
X134321428Y-88357142D02*
X133321428Y-88357142D01*
X134892857Y-88000000D02*
X133821428Y-87642857D01*
X133821428Y-88571428D01*
X134821428Y-88928571D02*
X133321428Y-89428571D01*
X134821428Y-89928571D01*
D11*
G04 #@! TO.C,C1*
X135859759Y-81031000D02*
X135859759Y-81661000D01*
X135544759Y-81346000D02*
X136174759Y-81346000D01*
X142286000Y-82783000D02*
X142286000Y-83587000D01*
X142246000Y-82552000D02*
X142246000Y-83818000D01*
X142206000Y-82383000D02*
X142206000Y-83987000D01*
X142166000Y-82245000D02*
X142166000Y-84125000D01*
X142126000Y-82126000D02*
X142126000Y-84244000D01*
X142086000Y-82020000D02*
X142086000Y-84350000D01*
X142046000Y-81923000D02*
X142046000Y-84447000D01*
X142006000Y-81835000D02*
X142006000Y-84535000D01*
X141966000Y-81753000D02*
X141966000Y-84617000D01*
X141926000Y-81676000D02*
X141926000Y-84694000D01*
X141886000Y-81604000D02*
X141886000Y-84766000D01*
X141846000Y-81535000D02*
X141846000Y-84835000D01*
X141806000Y-81471000D02*
X141806000Y-84899000D01*
X141766000Y-81409000D02*
X141766000Y-84961000D01*
X141726000Y-81351000D02*
X141726000Y-85019000D01*
X141686000Y-81295000D02*
X141686000Y-85075000D01*
X141646000Y-81241000D02*
X141646000Y-85129000D01*
X141606000Y-81190000D02*
X141606000Y-85180000D01*
X141566000Y-81141000D02*
X141566000Y-85229000D01*
X141526000Y-81093000D02*
X141526000Y-85277000D01*
X141486000Y-81048000D02*
X141486000Y-85322000D01*
X141446000Y-81003000D02*
X141446000Y-85367000D01*
X141406000Y-80961000D02*
X141406000Y-85409000D01*
X141366000Y-80920000D02*
X141366000Y-85450000D01*
X141326000Y-84225000D02*
X141326000Y-85490000D01*
X141326000Y-80880000D02*
X141326000Y-82145000D01*
X141286000Y-84225000D02*
X141286000Y-85528000D01*
X141286000Y-80842000D02*
X141286000Y-82145000D01*
X141246000Y-84225000D02*
X141246000Y-85565000D01*
X141246000Y-80805000D02*
X141246000Y-82145000D01*
X141206000Y-84225000D02*
X141206000Y-85601000D01*
X141206000Y-80769000D02*
X141206000Y-82145000D01*
X141166000Y-84225000D02*
X141166000Y-85635000D01*
X141166000Y-80735000D02*
X141166000Y-82145000D01*
X141126000Y-84225000D02*
X141126000Y-85669000D01*
X141126000Y-80701000D02*
X141126000Y-82145000D01*
X141086000Y-84225000D02*
X141086000Y-85701000D01*
X141086000Y-80669000D02*
X141086000Y-82145000D01*
X141046000Y-84225000D02*
X141046000Y-85733000D01*
X141046000Y-80637000D02*
X141046000Y-82145000D01*
X141006000Y-84225000D02*
X141006000Y-85763000D01*
X141006000Y-80607000D02*
X141006000Y-82145000D01*
X140966000Y-84225000D02*
X140966000Y-85792000D01*
X140966000Y-80578000D02*
X140966000Y-82145000D01*
X140926000Y-84225000D02*
X140926000Y-85821000D01*
X140926000Y-80549000D02*
X140926000Y-82145000D01*
X140886000Y-84225000D02*
X140886000Y-85849000D01*
X140886000Y-80521000D02*
X140886000Y-82145000D01*
X140846000Y-84225000D02*
X140846000Y-85875000D01*
X140846000Y-80495000D02*
X140846000Y-82145000D01*
X140806000Y-84225000D02*
X140806000Y-85901000D01*
X140806000Y-80469000D02*
X140806000Y-82145000D01*
X140766000Y-84225000D02*
X140766000Y-85927000D01*
X140766000Y-80443000D02*
X140766000Y-82145000D01*
X140726000Y-84225000D02*
X140726000Y-85951000D01*
X140726000Y-80419000D02*
X140726000Y-82145000D01*
X140686000Y-84225000D02*
X140686000Y-85975000D01*
X140686000Y-80395000D02*
X140686000Y-82145000D01*
X140646000Y-84225000D02*
X140646000Y-85997000D01*
X140646000Y-80373000D02*
X140646000Y-82145000D01*
X140606000Y-84225000D02*
X140606000Y-86019000D01*
X140606000Y-80351000D02*
X140606000Y-82145000D01*
X140566000Y-84225000D02*
X140566000Y-86041000D01*
X140566000Y-80329000D02*
X140566000Y-82145000D01*
X140526000Y-84225000D02*
X140526000Y-86061000D01*
X140526000Y-80309000D02*
X140526000Y-82145000D01*
X140486000Y-84225000D02*
X140486000Y-86081000D01*
X140486000Y-80289000D02*
X140486000Y-82145000D01*
X140446000Y-84225000D02*
X140446000Y-86101000D01*
X140446000Y-80269000D02*
X140446000Y-82145000D01*
X140406000Y-84225000D02*
X140406000Y-86119000D01*
X140406000Y-80251000D02*
X140406000Y-82145000D01*
X140366000Y-84225000D02*
X140366000Y-86137000D01*
X140366000Y-80233000D02*
X140366000Y-82145000D01*
X140326000Y-84225000D02*
X140326000Y-86155000D01*
X140326000Y-80215000D02*
X140326000Y-82145000D01*
X140286000Y-84225000D02*
X140286000Y-86171000D01*
X140286000Y-80199000D02*
X140286000Y-82145000D01*
X140246000Y-84225000D02*
X140246000Y-86187000D01*
X140246000Y-80183000D02*
X140246000Y-82145000D01*
X140206000Y-84225000D02*
X140206000Y-86203000D01*
X140206000Y-80167000D02*
X140206000Y-82145000D01*
X140166000Y-84225000D02*
X140166000Y-86218000D01*
X140166000Y-80152000D02*
X140166000Y-82145000D01*
X140126000Y-84225000D02*
X140126000Y-86232000D01*
X140126000Y-80138000D02*
X140126000Y-82145000D01*
X140086000Y-84225000D02*
X140086000Y-86246000D01*
X140086000Y-80124000D02*
X140086000Y-82145000D01*
X140046000Y-84225000D02*
X140046000Y-86259000D01*
X140046000Y-80111000D02*
X140046000Y-82145000D01*
X140006000Y-84225000D02*
X140006000Y-86271000D01*
X140006000Y-80099000D02*
X140006000Y-82145000D01*
X139966000Y-84225000D02*
X139966000Y-86283000D01*
X139966000Y-80087000D02*
X139966000Y-82145000D01*
X139926000Y-84225000D02*
X139926000Y-86295000D01*
X139926000Y-80075000D02*
X139926000Y-82145000D01*
X139886000Y-84225000D02*
X139886000Y-86306000D01*
X139886000Y-80064000D02*
X139886000Y-82145000D01*
X139846000Y-84225000D02*
X139846000Y-86316000D01*
X139846000Y-80054000D02*
X139846000Y-82145000D01*
X139806000Y-84225000D02*
X139806000Y-86326000D01*
X139806000Y-80044000D02*
X139806000Y-82145000D01*
X139766000Y-84225000D02*
X139766000Y-86335000D01*
X139766000Y-80035000D02*
X139766000Y-82145000D01*
X139725000Y-84225000D02*
X139725000Y-86344000D01*
X139725000Y-80026000D02*
X139725000Y-82145000D01*
X139685000Y-84225000D02*
X139685000Y-86352000D01*
X139685000Y-80018000D02*
X139685000Y-82145000D01*
X139645000Y-84225000D02*
X139645000Y-86360000D01*
X139645000Y-80010000D02*
X139645000Y-82145000D01*
X139605000Y-84225000D02*
X139605000Y-86367000D01*
X139605000Y-80003000D02*
X139605000Y-82145000D01*
X139565000Y-84225000D02*
X139565000Y-86374000D01*
X139565000Y-79996000D02*
X139565000Y-82145000D01*
X139525000Y-84225000D02*
X139525000Y-86380000D01*
X139525000Y-79990000D02*
X139525000Y-82145000D01*
X139485000Y-84225000D02*
X139485000Y-86386000D01*
X139485000Y-79984000D02*
X139485000Y-82145000D01*
X139445000Y-84225000D02*
X139445000Y-86391000D01*
X139445000Y-79979000D02*
X139445000Y-82145000D01*
X139405000Y-84225000D02*
X139405000Y-86396000D01*
X139405000Y-79974000D02*
X139405000Y-82145000D01*
X139365000Y-84225000D02*
X139365000Y-86400000D01*
X139365000Y-79970000D02*
X139365000Y-82145000D01*
X139325000Y-84225000D02*
X139325000Y-86403000D01*
X139325000Y-79967000D02*
X139325000Y-82145000D01*
X139285000Y-84225000D02*
X139285000Y-86407000D01*
X139285000Y-79963000D02*
X139285000Y-82145000D01*
X139245000Y-79961000D02*
X139245000Y-86409000D01*
X139205000Y-79958000D02*
X139205000Y-86412000D01*
X139165000Y-79957000D02*
X139165000Y-86413000D01*
X139125000Y-79955000D02*
X139125000Y-86415000D01*
X139085000Y-79955000D02*
X139085000Y-86415000D01*
X139045000Y-79955000D02*
X139045000Y-86415000D01*
X142315000Y-83185000D02*
G75*
G03X142315000Y-83185000I-3270000J0D01*
G01*
G04 #@! TO.C,C2*
X141295000Y-89320000D02*
X141295000Y-89335000D01*
X141295000Y-87195000D02*
X141295000Y-87210000D01*
X136755000Y-89320000D02*
X136755000Y-89335000D01*
X136755000Y-87195000D02*
X136755000Y-87210000D01*
X136755000Y-89335000D02*
X141295000Y-89335000D01*
X136755000Y-87195000D02*
X141295000Y-87195000D01*
G04 #@! TO.C,C3*
X136755000Y-97355000D02*
X141295000Y-97355000D01*
X136755000Y-99495000D02*
X141295000Y-99495000D01*
X136755000Y-97355000D02*
X136755000Y-97370000D01*
X136755000Y-99480000D02*
X136755000Y-99495000D01*
X141295000Y-97355000D02*
X141295000Y-97370000D01*
X141295000Y-99480000D02*
X141295000Y-99495000D01*
G04 #@! TO.C,C4*
X142315000Y-103505000D02*
G75*
G03X142315000Y-103505000I-3270000J0D01*
G01*
X139045000Y-100275000D02*
X139045000Y-106735000D01*
X139085000Y-100275000D02*
X139085000Y-106735000D01*
X139125000Y-100275000D02*
X139125000Y-106735000D01*
X139165000Y-100277000D02*
X139165000Y-106733000D01*
X139205000Y-100278000D02*
X139205000Y-106732000D01*
X139245000Y-100281000D02*
X139245000Y-106729000D01*
X139285000Y-100283000D02*
X139285000Y-102465000D01*
X139285000Y-104545000D02*
X139285000Y-106727000D01*
X139325000Y-100287000D02*
X139325000Y-102465000D01*
X139325000Y-104545000D02*
X139325000Y-106723000D01*
X139365000Y-100290000D02*
X139365000Y-102465000D01*
X139365000Y-104545000D02*
X139365000Y-106720000D01*
X139405000Y-100294000D02*
X139405000Y-102465000D01*
X139405000Y-104545000D02*
X139405000Y-106716000D01*
X139445000Y-100299000D02*
X139445000Y-102465000D01*
X139445000Y-104545000D02*
X139445000Y-106711000D01*
X139485000Y-100304000D02*
X139485000Y-102465000D01*
X139485000Y-104545000D02*
X139485000Y-106706000D01*
X139525000Y-100310000D02*
X139525000Y-102465000D01*
X139525000Y-104545000D02*
X139525000Y-106700000D01*
X139565000Y-100316000D02*
X139565000Y-102465000D01*
X139565000Y-104545000D02*
X139565000Y-106694000D01*
X139605000Y-100323000D02*
X139605000Y-102465000D01*
X139605000Y-104545000D02*
X139605000Y-106687000D01*
X139645000Y-100330000D02*
X139645000Y-102465000D01*
X139645000Y-104545000D02*
X139645000Y-106680000D01*
X139685000Y-100338000D02*
X139685000Y-102465000D01*
X139685000Y-104545000D02*
X139685000Y-106672000D01*
X139725000Y-100346000D02*
X139725000Y-102465000D01*
X139725000Y-104545000D02*
X139725000Y-106664000D01*
X139766000Y-100355000D02*
X139766000Y-102465000D01*
X139766000Y-104545000D02*
X139766000Y-106655000D01*
X139806000Y-100364000D02*
X139806000Y-102465000D01*
X139806000Y-104545000D02*
X139806000Y-106646000D01*
X139846000Y-100374000D02*
X139846000Y-102465000D01*
X139846000Y-104545000D02*
X139846000Y-106636000D01*
X139886000Y-100384000D02*
X139886000Y-102465000D01*
X139886000Y-104545000D02*
X139886000Y-106626000D01*
X139926000Y-100395000D02*
X139926000Y-102465000D01*
X139926000Y-104545000D02*
X139926000Y-106615000D01*
X139966000Y-100407000D02*
X139966000Y-102465000D01*
X139966000Y-104545000D02*
X139966000Y-106603000D01*
X140006000Y-100419000D02*
X140006000Y-102465000D01*
X140006000Y-104545000D02*
X140006000Y-106591000D01*
X140046000Y-100431000D02*
X140046000Y-102465000D01*
X140046000Y-104545000D02*
X140046000Y-106579000D01*
X140086000Y-100444000D02*
X140086000Y-102465000D01*
X140086000Y-104545000D02*
X140086000Y-106566000D01*
X140126000Y-100458000D02*
X140126000Y-102465000D01*
X140126000Y-104545000D02*
X140126000Y-106552000D01*
X140166000Y-100472000D02*
X140166000Y-102465000D01*
X140166000Y-104545000D02*
X140166000Y-106538000D01*
X140206000Y-100487000D02*
X140206000Y-102465000D01*
X140206000Y-104545000D02*
X140206000Y-106523000D01*
X140246000Y-100503000D02*
X140246000Y-102465000D01*
X140246000Y-104545000D02*
X140246000Y-106507000D01*
X140286000Y-100519000D02*
X140286000Y-102465000D01*
X140286000Y-104545000D02*
X140286000Y-106491000D01*
X140326000Y-100535000D02*
X140326000Y-102465000D01*
X140326000Y-104545000D02*
X140326000Y-106475000D01*
X140366000Y-100553000D02*
X140366000Y-102465000D01*
X140366000Y-104545000D02*
X140366000Y-106457000D01*
X140406000Y-100571000D02*
X140406000Y-102465000D01*
X140406000Y-104545000D02*
X140406000Y-106439000D01*
X140446000Y-100589000D02*
X140446000Y-102465000D01*
X140446000Y-104545000D02*
X140446000Y-106421000D01*
X140486000Y-100609000D02*
X140486000Y-102465000D01*
X140486000Y-104545000D02*
X140486000Y-106401000D01*
X140526000Y-100629000D02*
X140526000Y-102465000D01*
X140526000Y-104545000D02*
X140526000Y-106381000D01*
X140566000Y-100649000D02*
X140566000Y-102465000D01*
X140566000Y-104545000D02*
X140566000Y-106361000D01*
X140606000Y-100671000D02*
X140606000Y-102465000D01*
X140606000Y-104545000D02*
X140606000Y-106339000D01*
X140646000Y-100693000D02*
X140646000Y-102465000D01*
X140646000Y-104545000D02*
X140646000Y-106317000D01*
X140686000Y-100715000D02*
X140686000Y-102465000D01*
X140686000Y-104545000D02*
X140686000Y-106295000D01*
X140726000Y-100739000D02*
X140726000Y-102465000D01*
X140726000Y-104545000D02*
X140726000Y-106271000D01*
X140766000Y-100763000D02*
X140766000Y-102465000D01*
X140766000Y-104545000D02*
X140766000Y-106247000D01*
X140806000Y-100789000D02*
X140806000Y-102465000D01*
X140806000Y-104545000D02*
X140806000Y-106221000D01*
X140846000Y-100815000D02*
X140846000Y-102465000D01*
X140846000Y-104545000D02*
X140846000Y-106195000D01*
X140886000Y-100841000D02*
X140886000Y-102465000D01*
X140886000Y-104545000D02*
X140886000Y-106169000D01*
X140926000Y-100869000D02*
X140926000Y-102465000D01*
X140926000Y-104545000D02*
X140926000Y-106141000D01*
X140966000Y-100898000D02*
X140966000Y-102465000D01*
X140966000Y-104545000D02*
X140966000Y-106112000D01*
X141006000Y-100927000D02*
X141006000Y-102465000D01*
X141006000Y-104545000D02*
X141006000Y-106083000D01*
X141046000Y-100957000D02*
X141046000Y-102465000D01*
X141046000Y-104545000D02*
X141046000Y-106053000D01*
X141086000Y-100989000D02*
X141086000Y-102465000D01*
X141086000Y-104545000D02*
X141086000Y-106021000D01*
X141126000Y-101021000D02*
X141126000Y-102465000D01*
X141126000Y-104545000D02*
X141126000Y-105989000D01*
X141166000Y-101055000D02*
X141166000Y-102465000D01*
X141166000Y-104545000D02*
X141166000Y-105955000D01*
X141206000Y-101089000D02*
X141206000Y-102465000D01*
X141206000Y-104545000D02*
X141206000Y-105921000D01*
X141246000Y-101125000D02*
X141246000Y-102465000D01*
X141246000Y-104545000D02*
X141246000Y-105885000D01*
X141286000Y-101162000D02*
X141286000Y-102465000D01*
X141286000Y-104545000D02*
X141286000Y-105848000D01*
X141326000Y-101200000D02*
X141326000Y-102465000D01*
X141326000Y-104545000D02*
X141326000Y-105810000D01*
X141366000Y-101240000D02*
X141366000Y-105770000D01*
X141406000Y-101281000D02*
X141406000Y-105729000D01*
X141446000Y-101323000D02*
X141446000Y-105687000D01*
X141486000Y-101368000D02*
X141486000Y-105642000D01*
X141526000Y-101413000D02*
X141526000Y-105597000D01*
X141566000Y-101461000D02*
X141566000Y-105549000D01*
X141606000Y-101510000D02*
X141606000Y-105500000D01*
X141646000Y-101561000D02*
X141646000Y-105449000D01*
X141686000Y-101615000D02*
X141686000Y-105395000D01*
X141726000Y-101671000D02*
X141726000Y-105339000D01*
X141766000Y-101729000D02*
X141766000Y-105281000D01*
X141806000Y-101791000D02*
X141806000Y-105219000D01*
X141846000Y-101855000D02*
X141846000Y-105155000D01*
X141886000Y-101924000D02*
X141886000Y-105086000D01*
X141926000Y-101996000D02*
X141926000Y-105014000D01*
X141966000Y-102073000D02*
X141966000Y-104937000D01*
X142006000Y-102155000D02*
X142006000Y-104855000D01*
X142046000Y-102243000D02*
X142046000Y-104767000D01*
X142086000Y-102340000D02*
X142086000Y-104670000D01*
X142126000Y-102446000D02*
X142126000Y-104564000D01*
X142166000Y-102565000D02*
X142166000Y-104445000D01*
X142206000Y-102703000D02*
X142206000Y-104307000D01*
X142246000Y-102872000D02*
X142246000Y-104138000D01*
X142286000Y-103103000D02*
X142286000Y-103907000D01*
X135544759Y-101666000D02*
X136174759Y-101666000D01*
X135859759Y-101351000D02*
X135859759Y-101981000D01*
G04 #@! TO.C,C5*
X152170000Y-91240000D02*
X147630000Y-91240000D01*
X152170000Y-89100000D02*
X147630000Y-89100000D01*
X152170000Y-91240000D02*
X152170000Y-91225000D01*
X152170000Y-89115000D02*
X152170000Y-89100000D01*
X147630000Y-91240000D02*
X147630000Y-91225000D01*
X147630000Y-89115000D02*
X147630000Y-89100000D01*
G04 #@! TO.C,C6*
X152090000Y-78525000D02*
X152090000Y-78540000D01*
X152090000Y-76400000D02*
X152090000Y-76415000D01*
X147550000Y-78525000D02*
X147550000Y-78540000D01*
X147550000Y-76400000D02*
X147550000Y-76415000D01*
X147550000Y-78540000D02*
X152090000Y-78540000D01*
X147550000Y-76400000D02*
X152090000Y-76400000D01*
G04 #@! TO.C,C7*
X145645000Y-72390000D02*
G75*
G03X145645000Y-72390000I-6620000J0D01*
G01*
X139025000Y-65810000D02*
X139025000Y-78970000D01*
X139065000Y-65810000D02*
X139065000Y-78970000D01*
X139105000Y-65810000D02*
X139105000Y-78970000D01*
X139145000Y-65811000D02*
X139145000Y-78969000D01*
X139185000Y-65811000D02*
X139185000Y-78969000D01*
X139225000Y-65813000D02*
X139225000Y-78967000D01*
X139265000Y-65814000D02*
X139265000Y-78966000D01*
X139305000Y-65815000D02*
X139305000Y-78965000D01*
X139345000Y-65817000D02*
X139345000Y-78963000D01*
X139385000Y-65819000D02*
X139385000Y-78961000D01*
X139425000Y-65822000D02*
X139425000Y-78958000D01*
X139465000Y-65824000D02*
X139465000Y-78956000D01*
X139505000Y-65827000D02*
X139505000Y-78953000D01*
X139545000Y-65830000D02*
X139545000Y-78950000D01*
X139585000Y-65833000D02*
X139585000Y-78947000D01*
X139625000Y-65837000D02*
X139625000Y-78943000D01*
X139665000Y-65841000D02*
X139665000Y-78939000D01*
X139705000Y-65845000D02*
X139705000Y-78935000D01*
X139746000Y-65849000D02*
X139746000Y-78931000D01*
X139786000Y-65853000D02*
X139786000Y-78927000D01*
X139826000Y-65858000D02*
X139826000Y-78922000D01*
X139866000Y-65863000D02*
X139866000Y-78917000D01*
X139906000Y-65868000D02*
X139906000Y-78912000D01*
X139946000Y-65874000D02*
X139946000Y-78906000D01*
X139986000Y-65879000D02*
X139986000Y-78901000D01*
X140026000Y-65885000D02*
X140026000Y-78895000D01*
X140066000Y-65892000D02*
X140066000Y-78888000D01*
X140106000Y-65898000D02*
X140106000Y-70950000D01*
X140106000Y-73830000D02*
X140106000Y-78882000D01*
X140146000Y-65905000D02*
X140146000Y-70950000D01*
X140146000Y-73830000D02*
X140146000Y-78875000D01*
X140186000Y-65912000D02*
X140186000Y-70950000D01*
X140186000Y-73830000D02*
X140186000Y-78868000D01*
X140226000Y-65919000D02*
X140226000Y-70950000D01*
X140226000Y-73830000D02*
X140226000Y-78861000D01*
X140266000Y-65927000D02*
X140266000Y-70950000D01*
X140266000Y-73830000D02*
X140266000Y-78853000D01*
X140306000Y-65934000D02*
X140306000Y-70950000D01*
X140306000Y-73830000D02*
X140306000Y-78846000D01*
X140346000Y-65942000D02*
X140346000Y-70950000D01*
X140346000Y-73830000D02*
X140346000Y-78838000D01*
X140386000Y-65951000D02*
X140386000Y-70950000D01*
X140386000Y-73830000D02*
X140386000Y-78829000D01*
X140426000Y-65959000D02*
X140426000Y-70950000D01*
X140426000Y-73830000D02*
X140426000Y-78821000D01*
X140466000Y-65968000D02*
X140466000Y-70950000D01*
X140466000Y-73830000D02*
X140466000Y-78812000D01*
X140506000Y-65977000D02*
X140506000Y-70950000D01*
X140506000Y-73830000D02*
X140506000Y-78803000D01*
X140546000Y-65986000D02*
X140546000Y-70950000D01*
X140546000Y-73830000D02*
X140546000Y-78794000D01*
X140586000Y-65996000D02*
X140586000Y-70950000D01*
X140586000Y-73830000D02*
X140586000Y-78784000D01*
X140626000Y-66006000D02*
X140626000Y-70950000D01*
X140626000Y-73830000D02*
X140626000Y-78774000D01*
X140666000Y-66016000D02*
X140666000Y-70950000D01*
X140666000Y-73830000D02*
X140666000Y-78764000D01*
X140706000Y-66026000D02*
X140706000Y-70950000D01*
X140706000Y-73830000D02*
X140706000Y-78754000D01*
X140746000Y-66037000D02*
X140746000Y-70950000D01*
X140746000Y-73830000D02*
X140746000Y-78743000D01*
X140786000Y-66048000D02*
X140786000Y-70950000D01*
X140786000Y-73830000D02*
X140786000Y-78732000D01*
X140826000Y-66059000D02*
X140826000Y-70950000D01*
X140826000Y-73830000D02*
X140826000Y-78721000D01*
X140866000Y-66070000D02*
X140866000Y-70950000D01*
X140866000Y-73830000D02*
X140866000Y-78710000D01*
X140906000Y-66082000D02*
X140906000Y-70950000D01*
X140906000Y-73830000D02*
X140906000Y-78698000D01*
X140946000Y-66094000D02*
X140946000Y-70950000D01*
X140946000Y-73830000D02*
X140946000Y-78686000D01*
X140986000Y-66106000D02*
X140986000Y-70950000D01*
X140986000Y-73830000D02*
X140986000Y-78674000D01*
X141026000Y-66119000D02*
X141026000Y-70950000D01*
X141026000Y-73830000D02*
X141026000Y-78661000D01*
X141066000Y-66132000D02*
X141066000Y-70950000D01*
X141066000Y-73830000D02*
X141066000Y-78648000D01*
X141106000Y-66145000D02*
X141106000Y-70950000D01*
X141106000Y-73830000D02*
X141106000Y-78635000D01*
X141146000Y-66158000D02*
X141146000Y-70950000D01*
X141146000Y-73830000D02*
X141146000Y-78622000D01*
X141186000Y-66172000D02*
X141186000Y-70950000D01*
X141186000Y-73830000D02*
X141186000Y-78608000D01*
X141226000Y-66186000D02*
X141226000Y-70950000D01*
X141226000Y-73830000D02*
X141226000Y-78594000D01*
X141266000Y-66200000D02*
X141266000Y-70950000D01*
X141266000Y-73830000D02*
X141266000Y-78580000D01*
X141306000Y-66215000D02*
X141306000Y-70950000D01*
X141306000Y-73830000D02*
X141306000Y-78565000D01*
X141346000Y-66229000D02*
X141346000Y-70950000D01*
X141346000Y-73830000D02*
X141346000Y-78551000D01*
X141386000Y-66244000D02*
X141386000Y-70950000D01*
X141386000Y-73830000D02*
X141386000Y-78536000D01*
X141426000Y-66260000D02*
X141426000Y-70950000D01*
X141426000Y-73830000D02*
X141426000Y-78520000D01*
X141466000Y-66276000D02*
X141466000Y-70950000D01*
X141466000Y-73830000D02*
X141466000Y-78504000D01*
X141506000Y-66292000D02*
X141506000Y-70950000D01*
X141506000Y-73830000D02*
X141506000Y-78488000D01*
X141546000Y-66308000D02*
X141546000Y-70950000D01*
X141546000Y-73830000D02*
X141546000Y-78472000D01*
X141586000Y-66325000D02*
X141586000Y-70950000D01*
X141586000Y-73830000D02*
X141586000Y-78455000D01*
X141626000Y-66341000D02*
X141626000Y-70950000D01*
X141626000Y-73830000D02*
X141626000Y-78439000D01*
X141666000Y-66359000D02*
X141666000Y-70950000D01*
X141666000Y-73830000D02*
X141666000Y-78421000D01*
X141706000Y-66376000D02*
X141706000Y-70950000D01*
X141706000Y-73830000D02*
X141706000Y-78404000D01*
X141746000Y-66394000D02*
X141746000Y-70950000D01*
X141746000Y-73830000D02*
X141746000Y-78386000D01*
X141786000Y-66412000D02*
X141786000Y-70950000D01*
X141786000Y-73830000D02*
X141786000Y-78368000D01*
X141826000Y-66431000D02*
X141826000Y-70950000D01*
X141826000Y-73830000D02*
X141826000Y-78349000D01*
X141866000Y-66450000D02*
X141866000Y-70950000D01*
X141866000Y-73830000D02*
X141866000Y-78330000D01*
X141906000Y-66469000D02*
X141906000Y-70950000D01*
X141906000Y-73830000D02*
X141906000Y-78311000D01*
X141946000Y-66488000D02*
X141946000Y-70950000D01*
X141946000Y-73830000D02*
X141946000Y-78292000D01*
X141986000Y-66508000D02*
X141986000Y-70950000D01*
X141986000Y-73830000D02*
X141986000Y-78272000D01*
X142026000Y-66528000D02*
X142026000Y-70950000D01*
X142026000Y-73830000D02*
X142026000Y-78252000D01*
X142066000Y-66549000D02*
X142066000Y-70950000D01*
X142066000Y-73830000D02*
X142066000Y-78231000D01*
X142106000Y-66570000D02*
X142106000Y-70950000D01*
X142106000Y-73830000D02*
X142106000Y-78210000D01*
X142146000Y-66591000D02*
X142146000Y-70950000D01*
X142146000Y-73830000D02*
X142146000Y-78189000D01*
X142186000Y-66612000D02*
X142186000Y-70950000D01*
X142186000Y-73830000D02*
X142186000Y-78168000D01*
X142226000Y-66634000D02*
X142226000Y-70950000D01*
X142226000Y-73830000D02*
X142226000Y-78146000D01*
X142266000Y-66657000D02*
X142266000Y-70950000D01*
X142266000Y-73830000D02*
X142266000Y-78123000D01*
X142306000Y-66679000D02*
X142306000Y-70950000D01*
X142306000Y-73830000D02*
X142306000Y-78101000D01*
X142346000Y-66702000D02*
X142346000Y-70950000D01*
X142346000Y-73830000D02*
X142346000Y-78078000D01*
X142386000Y-66726000D02*
X142386000Y-70950000D01*
X142386000Y-73830000D02*
X142386000Y-78054000D01*
X142426000Y-66749000D02*
X142426000Y-70950000D01*
X142426000Y-73830000D02*
X142426000Y-78031000D01*
X142466000Y-66773000D02*
X142466000Y-70950000D01*
X142466000Y-73830000D02*
X142466000Y-78007000D01*
X142506000Y-66798000D02*
X142506000Y-70950000D01*
X142506000Y-73830000D02*
X142506000Y-77982000D01*
X142546000Y-66823000D02*
X142546000Y-70950000D01*
X142546000Y-73830000D02*
X142546000Y-77957000D01*
X142586000Y-66848000D02*
X142586000Y-70950000D01*
X142586000Y-73830000D02*
X142586000Y-77932000D01*
X142626000Y-66874000D02*
X142626000Y-70950000D01*
X142626000Y-73830000D02*
X142626000Y-77906000D01*
X142666000Y-66900000D02*
X142666000Y-70950000D01*
X142666000Y-73830000D02*
X142666000Y-77880000D01*
X142706000Y-66927000D02*
X142706000Y-70950000D01*
X142706000Y-73830000D02*
X142706000Y-77853000D01*
X142746000Y-66954000D02*
X142746000Y-70950000D01*
X142746000Y-73830000D02*
X142746000Y-77826000D01*
X142786000Y-66981000D02*
X142786000Y-70950000D01*
X142786000Y-73830000D02*
X142786000Y-77799000D01*
X142826000Y-67009000D02*
X142826000Y-70950000D01*
X142826000Y-73830000D02*
X142826000Y-77771000D01*
X142866000Y-67037000D02*
X142866000Y-70950000D01*
X142866000Y-73830000D02*
X142866000Y-77743000D01*
X142906000Y-67066000D02*
X142906000Y-70950000D01*
X142906000Y-73830000D02*
X142906000Y-77714000D01*
X142946000Y-67095000D02*
X142946000Y-70950000D01*
X142946000Y-73830000D02*
X142946000Y-77685000D01*
X142986000Y-67125000D02*
X142986000Y-77655000D01*
X143026000Y-67155000D02*
X143026000Y-77625000D01*
X143066000Y-67185000D02*
X143066000Y-77595000D01*
X143106000Y-67216000D02*
X143106000Y-77564000D01*
X143146000Y-67248000D02*
X143146000Y-77532000D01*
X143186000Y-67280000D02*
X143186000Y-77500000D01*
X143226000Y-67312000D02*
X143226000Y-77468000D01*
X143266000Y-67346000D02*
X143266000Y-77434000D01*
X143306000Y-67379000D02*
X143306000Y-77401000D01*
X143346000Y-67413000D02*
X143346000Y-77367000D01*
X143386000Y-67448000D02*
X143386000Y-77332000D01*
X143426000Y-67483000D02*
X143426000Y-77297000D01*
X143466000Y-67519000D02*
X143466000Y-77261000D01*
X143506000Y-67556000D02*
X143506000Y-77224000D01*
X143546000Y-67593000D02*
X143546000Y-77187000D01*
X143586000Y-67630000D02*
X143586000Y-77150000D01*
X143626000Y-67669000D02*
X143626000Y-77111000D01*
X143666000Y-67708000D02*
X143666000Y-77072000D01*
X143706000Y-67747000D02*
X143706000Y-77033000D01*
X143746000Y-67788000D02*
X143746000Y-76992000D01*
X143786000Y-67829000D02*
X143786000Y-76951000D01*
X143826000Y-67871000D02*
X143826000Y-76909000D01*
X143866000Y-67913000D02*
X143866000Y-76867000D01*
X143906000Y-67956000D02*
X143906000Y-76824000D01*
X143946000Y-68000000D02*
X143946000Y-76780000D01*
X143986000Y-68045000D02*
X143986000Y-76735000D01*
X144026000Y-68091000D02*
X144026000Y-76689000D01*
X144066000Y-68137000D02*
X144066000Y-76643000D01*
X144106000Y-68185000D02*
X144106000Y-76595000D01*
X144146000Y-68233000D02*
X144146000Y-76547000D01*
X144186000Y-68282000D02*
X144186000Y-76498000D01*
X144226000Y-68333000D02*
X144226000Y-76447000D01*
X144266000Y-68384000D02*
X144266000Y-76396000D01*
X144306000Y-68436000D02*
X144306000Y-76344000D01*
X144346000Y-68490000D02*
X144346000Y-76290000D01*
X144386000Y-68544000D02*
X144386000Y-76236000D01*
X144426000Y-68600000D02*
X144426000Y-76180000D01*
X144466000Y-68657000D02*
X144466000Y-76123000D01*
X144506000Y-68715000D02*
X144506000Y-76065000D01*
X144546000Y-68775000D02*
X144546000Y-76005000D01*
X144586000Y-68836000D02*
X144586000Y-75944000D01*
X144626000Y-68899000D02*
X144626000Y-75881000D01*
X144666000Y-68963000D02*
X144666000Y-75817000D01*
X144706000Y-69029000D02*
X144706000Y-75751000D01*
X144746000Y-69097000D02*
X144746000Y-75683000D01*
X144786000Y-69167000D02*
X144786000Y-75613000D01*
X144826000Y-69238000D02*
X144826000Y-75542000D01*
X144866000Y-69312000D02*
X144866000Y-75468000D01*
X144906000Y-69388000D02*
X144906000Y-75392000D01*
X144946000Y-69467000D02*
X144946000Y-75313000D01*
X144986000Y-69548000D02*
X144986000Y-75232000D01*
X145026000Y-69632000D02*
X145026000Y-75148000D01*
X145066000Y-69720000D02*
X145066000Y-75060000D01*
X145106000Y-69811000D02*
X145106000Y-74969000D01*
X145146000Y-69906000D02*
X145146000Y-74874000D01*
X145186000Y-70005000D02*
X145186000Y-74775000D01*
X145226000Y-70109000D02*
X145226000Y-74671000D01*
X145266000Y-70219000D02*
X145266000Y-74561000D01*
X145306000Y-70335000D02*
X145306000Y-74445000D01*
X145346000Y-70459000D02*
X145346000Y-74321000D01*
X145386000Y-70592000D02*
X145386000Y-74188000D01*
X145426000Y-70737000D02*
X145426000Y-74043000D01*
X145466000Y-70896000D02*
X145466000Y-73884000D01*
X145506000Y-71075000D02*
X145506000Y-73705000D01*
X145546000Y-71283000D02*
X145546000Y-73497000D01*
X145586000Y-71540000D02*
X145586000Y-73240000D01*
X145626000Y-71915000D02*
X145626000Y-72865000D01*
X131940431Y-68675000D02*
X133240431Y-68675000D01*
X132590431Y-68025000D02*
X132590431Y-69325000D01*
G04 #@! TO.C,C8*
X147550000Y-104340000D02*
X152090000Y-104340000D01*
X147550000Y-106480000D02*
X152090000Y-106480000D01*
X147550000Y-104340000D02*
X147550000Y-104355000D01*
X147550000Y-106465000D02*
X147550000Y-106480000D01*
X152090000Y-104340000D02*
X152090000Y-104355000D01*
X152090000Y-106465000D02*
X152090000Y-106480000D01*
G04 #@! TO.C,C9*
X147630000Y-117055000D02*
X147630000Y-117040000D01*
X147630000Y-119180000D02*
X147630000Y-119165000D01*
X152170000Y-117055000D02*
X152170000Y-117040000D01*
X152170000Y-119180000D02*
X152170000Y-119165000D01*
X152170000Y-117040000D02*
X147630000Y-117040000D01*
X152170000Y-119180000D02*
X147630000Y-119180000D01*
G04 #@! TO.C,D1*
X148260000Y-81780000D02*
X152145000Y-81780000D01*
X152145000Y-81780000D02*
X152145000Y-79510000D01*
X152145000Y-79510000D02*
X148260000Y-79510000D01*
G04 #@! TO.C,D2*
X152145000Y-107450000D02*
X148260000Y-107450000D01*
X152145000Y-109720000D02*
X152145000Y-107450000D01*
X148260000Y-109720000D02*
X152145000Y-109720000D01*
G04 #@! TO.C,D3*
X131915000Y-113130000D02*
X134375000Y-113130000D01*
X134375000Y-113130000D02*
X134375000Y-111660000D01*
X134375000Y-111660000D02*
X131915000Y-111660000D01*
G04 #@! TO.C,D4*
X134375000Y-120550000D02*
X131915000Y-120550000D01*
X134375000Y-122020000D02*
X134375000Y-120550000D01*
X131915000Y-122020000D02*
X134375000Y-122020000D01*
G04 #@! TO.C,D5*
X131915000Y-130910000D02*
X134375000Y-130910000D01*
X134375000Y-130910000D02*
X134375000Y-129440000D01*
X134375000Y-129440000D02*
X131915000Y-129440000D01*
G04 #@! TO.C,J1*
X126365000Y-97790000D02*
X126365000Y-87630000D01*
X125095000Y-97790000D02*
X132715000Y-97790000D01*
X132715000Y-97790000D02*
X132715000Y-87630000D01*
X132715000Y-87630000D02*
X125095000Y-87630000D01*
X125095000Y-87630000D02*
X125095000Y-97790000D01*
G04 #@! TO.C,J2*
X125095000Y-77470000D02*
X125095000Y-87630000D01*
X132715000Y-77470000D02*
X125095000Y-77470000D01*
X132715000Y-87630000D02*
X132715000Y-77470000D01*
X125095000Y-87630000D02*
X132715000Y-87630000D01*
X126365000Y-87630000D02*
X126365000Y-77470000D01*
G04 #@! TO.C,J3*
X129980000Y-101530000D02*
X125960000Y-101530000D01*
X125960000Y-101530000D02*
X125960000Y-116750000D01*
X125960000Y-116750000D02*
X129980000Y-116750000D01*
X129980000Y-116750000D02*
X129980000Y-101530000D01*
X128270000Y-101530000D02*
X128270000Y-102030000D01*
X128270000Y-102030000D02*
X129480000Y-102030000D01*
X129480000Y-102030000D02*
X129480000Y-116250000D01*
X129480000Y-116250000D02*
X128270000Y-116250000D01*
X128270000Y-116250000D02*
X128270000Y-116750000D01*
X127460000Y-101530000D02*
X127460000Y-102530000D01*
X127460000Y-102530000D02*
X125960000Y-102530000D01*
X127460000Y-116750000D02*
X127460000Y-115750000D01*
X127460000Y-115750000D02*
X125960000Y-115750000D01*
X128160000Y-101230000D02*
X125660000Y-101230000D01*
X125660000Y-101230000D02*
X125660000Y-103730000D01*
G04 #@! TO.C,Q1*
X164920000Y-73540000D02*
X163420000Y-73540000D01*
X163420000Y-73540000D02*
X163420000Y-75350000D01*
X163420000Y-75350000D02*
X158295000Y-75350000D01*
X164920000Y-83940000D02*
X163420000Y-83940000D01*
X163420000Y-83940000D02*
X163420000Y-82130000D01*
X163420000Y-82130000D02*
X162320000Y-82130000D01*
G04 #@! TO.C,Q2*
X164920000Y-87510000D02*
X163420000Y-87510000D01*
X163420000Y-87510000D02*
X163420000Y-89320000D01*
X163420000Y-89320000D02*
X158295000Y-89320000D01*
X164920000Y-97910000D02*
X163420000Y-97910000D01*
X163420000Y-97910000D02*
X163420000Y-96100000D01*
X163420000Y-96100000D02*
X162320000Y-96100000D01*
G04 #@! TO.C,Q3*
X163420000Y-110070000D02*
X162320000Y-110070000D01*
X163420000Y-111880000D02*
X163420000Y-110070000D01*
X164920000Y-111880000D02*
X163420000Y-111880000D01*
X163420000Y-103290000D02*
X158295000Y-103290000D01*
X163420000Y-101480000D02*
X163420000Y-103290000D01*
X164920000Y-101480000D02*
X163420000Y-101480000D01*
G04 #@! TO.C,Q4*
X163420000Y-124040000D02*
X162320000Y-124040000D01*
X163420000Y-125850000D02*
X163420000Y-124040000D01*
X164920000Y-125850000D02*
X163420000Y-125850000D01*
X163420000Y-117260000D02*
X158295000Y-117260000D01*
X163420000Y-115450000D02*
X163420000Y-117260000D01*
X164920000Y-115450000D02*
X163420000Y-115450000D01*
G04 #@! TO.C,R1*
X132886267Y-115445000D02*
X132543733Y-115445000D01*
X132886267Y-114425000D02*
X132543733Y-114425000D01*
G04 #@! TO.C,R2*
X132886267Y-123315000D02*
X132543733Y-123315000D01*
X132886267Y-124335000D02*
X132543733Y-124335000D01*
G04 #@! TO.C,R3*
X132886267Y-133225000D02*
X132543733Y-133225000D01*
X132886267Y-132205000D02*
X132543733Y-132205000D01*
G04 #@! TO.C,R10*
X143098733Y-108710000D02*
X143441267Y-108710000D01*
X143098733Y-109730000D02*
X143441267Y-109730000D01*
G04 #@! TO.C,R11*
X143098733Y-117600000D02*
X143441267Y-117600000D01*
X143098733Y-118620000D02*
X143441267Y-118620000D01*
G04 #@! TO.C,R12*
X143098733Y-127510000D02*
X143441267Y-127510000D01*
X143098733Y-126490000D02*
X143441267Y-126490000D01*
G04 #@! TO.C,R13*
X156381267Y-83631500D02*
X156038733Y-83631500D01*
X156381267Y-82611500D02*
X156038733Y-82611500D01*
G04 #@! TO.C,R14*
X156381267Y-88009000D02*
X156038733Y-88009000D01*
X156381267Y-89029000D02*
X156038733Y-89029000D01*
G04 #@! TO.C,R15*
X156720000Y-78911267D02*
X156720000Y-78568733D01*
X155700000Y-78911267D02*
X155700000Y-78568733D01*
G04 #@! TO.C,R16*
X155700000Y-92881267D02*
X155700000Y-92538733D01*
X156720000Y-92881267D02*
X156720000Y-92538733D01*
G04 #@! TO.C,R17*
X156720000Y-106611267D02*
X156720000Y-106268733D01*
X155700000Y-106611267D02*
X155700000Y-106268733D01*
G04 #@! TO.C,R18*
X155700000Y-120821267D02*
X155700000Y-120478733D01*
X156720000Y-120821267D02*
X156720000Y-120478733D01*
G04 #@! TO.C,R19*
X156381267Y-110552000D02*
X156038733Y-110552000D01*
X156381267Y-111572000D02*
X156038733Y-111572000D01*
G04 #@! TO.C,R20*
X156381267Y-115949000D02*
X156038733Y-115949000D01*
X156381267Y-116969000D02*
X156038733Y-116969000D01*
G04 #@! TO.C,U1*
X138730000Y-89895000D02*
X137230000Y-89895000D01*
X137230000Y-89895000D02*
X137230000Y-90165000D01*
X137230000Y-90165000D02*
X134400000Y-90165000D01*
X138730000Y-96795000D02*
X137230000Y-96795000D01*
X137230000Y-96795000D02*
X137230000Y-96525000D01*
X137230000Y-96525000D02*
X136130000Y-96525000D01*
G04 #@! TO.C,U2*
X141335000Y-111065000D02*
G75*
G02X139335000Y-111065000I-1000000J0D01*
G01*
X139335000Y-111065000D02*
X137885000Y-111065000D01*
X137885000Y-111065000D02*
X137885000Y-116265000D01*
X137885000Y-116265000D02*
X142785000Y-116265000D01*
X142785000Y-116265000D02*
X142785000Y-111065000D01*
X142785000Y-111065000D02*
X141335000Y-111065000D01*
G04 #@! TO.C,U3*
X142785000Y-119955000D02*
X141335000Y-119955000D01*
X142785000Y-125155000D02*
X142785000Y-119955000D01*
X137885000Y-125155000D02*
X142785000Y-125155000D01*
X137885000Y-119955000D02*
X137885000Y-125155000D01*
X139335000Y-119955000D02*
X137885000Y-119955000D01*
X141335000Y-119955000D02*
G75*
G02X139335000Y-119955000I-1000000J0D01*
G01*
G04 #@! TO.C,U4*
X141335000Y-128845000D02*
G75*
G02X139335000Y-128845000I-1000000J0D01*
G01*
X139335000Y-128845000D02*
X137885000Y-128845000D01*
X137885000Y-128845000D02*
X137885000Y-134045000D01*
X137885000Y-134045000D02*
X142785000Y-134045000D01*
X142785000Y-134045000D02*
X142785000Y-128845000D01*
X142785000Y-128845000D02*
X141335000Y-128845000D01*
D12*
G04 #@! TO.C,U5*
X147785000Y-82515000D02*
X147785000Y-82565000D01*
X151935000Y-82515000D02*
X151935000Y-82660000D01*
X151935000Y-87665000D02*
X151935000Y-87520000D01*
X147785000Y-87665000D02*
X147785000Y-87520000D01*
X147785000Y-82515000D02*
X151935000Y-82515000D01*
X147785000Y-87665000D02*
X151935000Y-87665000D01*
X147785000Y-82565000D02*
X146385000Y-82565000D01*
G04 #@! TO.C,U6*
X147785000Y-110505000D02*
X146385000Y-110505000D01*
X147785000Y-115605000D02*
X151935000Y-115605000D01*
X147785000Y-110455000D02*
X151935000Y-110455000D01*
X147785000Y-115605000D02*
X147785000Y-115460000D01*
X151935000Y-115605000D02*
X151935000Y-115460000D01*
X151935000Y-110455000D02*
X151935000Y-110600000D01*
X147785000Y-110455000D02*
X147785000Y-110505000D01*
G04 #@! TD*
G04 #@! TO.C,C1*
D13*
X139045000Y-78785000D02*
X139045000Y-78785000D01*
X139045000Y-78785000D01*
X139045000Y-78785000D01*
X139045000Y-78785000D01*
X139045000Y-78785000D01*
X139045000Y-78785000D01*
X139045000Y-78785000D01*
X139045000Y-78785000D01*
X139045000Y-78785000D01*
X139045000Y-78785000D01*
X139045000Y-78785000D01*
X139045000Y-78785000D01*
X139045000Y-78785000D01*
X139045000Y-78785000D01*
X139045000Y-78785000D01*
X139045000Y-78785000D02*
X139045000Y-78785000D01*
X139045000Y-78785000D02*
X139045000Y-78785000D01*
X139045000Y-78785000D01*
X139045000Y-78785000D01*
X139045000Y-78785000D01*
D12*
G04 #@! TO.C,C2*
D13*
X139025000Y-86065000D02*
X139025000Y-86065000D01*
X139025000Y-86065000D01*
X139025000Y-86065000D01*
X139025000Y-86065000D01*
X139025000Y-86065000D01*
X139025000Y-86065000D01*
X139025000Y-86065000D01*
X139025000Y-86065000D01*
X139025000Y-86065000D01*
X139025000Y-86065000D01*
X139025000Y-86065000D01*
X139025000Y-86065000D01*
X139025000Y-86065000D01*
X139025000Y-86065000D01*
X139025000Y-86065000D01*
X139025000Y-86065000D02*
X139025000Y-86065000D01*
X139025000Y-86065000D01*
X139025000Y-86065000D01*
X139025000Y-86065000D01*
X139025000Y-86065000D01*
X139025000Y-86065000D01*
X139025000Y-86065000D01*
X139025000Y-86065000D01*
X139025000Y-86065000D01*
X139025000Y-86065000D01*
D12*
G04 #@! TO.C,C3*
D13*
X139025000Y-96225000D02*
X139025000Y-96225000D01*
X139025000Y-96225000D01*
X139025000Y-96225000D01*
X139025000Y-96225000D01*
X139025000Y-96225000D01*
X139025000Y-96225000D01*
X139025000Y-96225000D01*
X139025000Y-96225000D01*
X139025000Y-96225000D01*
X139025000Y-96225000D01*
X139025000Y-96225000D01*
X139025000Y-96225000D01*
X139025000Y-96225000D01*
X139025000Y-96225000D01*
X139025000Y-96225000D01*
X139025000Y-96225000D02*
X139025000Y-96225000D01*
X139025000Y-96225000D01*
X139025000Y-96225000D01*
X139025000Y-96225000D01*
X139025000Y-96225000D01*
X139025000Y-96225000D01*
X139025000Y-96225000D01*
X139025000Y-96225000D01*
X139025000Y-96225000D01*
X139025000Y-96225000D01*
X139025000Y-96225000D01*
X139025000Y-96225000D01*
X139025000Y-96225000D01*
D12*
G04 #@! TO.C,C4*
D13*
X139045000Y-99105000D02*
X139045000Y-99105000D01*
X139045000Y-99105000D01*
X139045000Y-99105000D01*
X139045000Y-99105000D01*
X139045000Y-99105000D01*
X139045000Y-99105000D01*
X139045000Y-99105000D01*
X139045000Y-99105000D01*
X139045000Y-99105000D01*
X139045000Y-99105000D01*
X139045000Y-99105000D01*
X139045000Y-99105000D01*
X139045000Y-99105000D01*
X139045000Y-99105000D01*
X139045000Y-99105000D01*
X139045000Y-99105000D02*
X139045000Y-99105000D01*
X139045000Y-99105000D02*
X139045000Y-99105000D01*
X139045000Y-99105000D01*
D12*
G04 #@! TO.C,C5*
D13*
X149900000Y-92370000D02*
X149900000Y-92370000D01*
X149900000Y-92370000D01*
X149900000Y-92370000D01*
X149900000Y-92370000D01*
X149900000Y-92370000D01*
X149900000Y-92370000D01*
X149900000Y-92370000D01*
X149900000Y-92370000D01*
X149900000Y-92370000D01*
X149900000Y-92370000D01*
X149900000Y-92370000D01*
X149900000Y-92370000D01*
X149900000Y-92370000D01*
X149900000Y-92370000D01*
X149900000Y-92370000D01*
X149900000Y-92370000D02*
X149900000Y-92370000D01*
X149900000Y-92370000D01*
X149900000Y-92370000D01*
X149900000Y-92370000D01*
X149900000Y-92370000D01*
X149900000Y-92370000D01*
X149900000Y-92370000D01*
X149900000Y-92370000D01*
X149900000Y-92370000D01*
X149900000Y-92370000D01*
X149900000Y-92370000D01*
X149900000Y-92370000D01*
X149900000Y-92370000D01*
X149900000Y-92370000D01*
X149900000Y-92370000D01*
D12*
G04 #@! TO.C,C6*
D13*
X149820000Y-75270000D02*
X149820000Y-75270000D01*
X149820000Y-75270000D01*
X149820000Y-75270000D01*
X149820000Y-75270000D01*
X149820000Y-75270000D01*
X149820000Y-75270000D01*
X149820000Y-75270000D01*
X149820000Y-75270000D01*
X149820000Y-75270000D01*
X149820000Y-75270000D01*
X149820000Y-75270000D01*
X149820000Y-75270000D01*
X149820000Y-75270000D01*
X149820000Y-75270000D01*
X149820000Y-75270000D01*
X149820000Y-75270000D02*
X149820000Y-75270000D01*
X149820000Y-75270000D01*
X149820000Y-75270000D01*
X149820000Y-75270000D01*
X149820000Y-75270000D01*
X149820000Y-75270000D01*
X149820000Y-75270000D01*
X149820000Y-75270000D01*
X149820000Y-75270000D01*
X149820000Y-75270000D01*
X149820000Y-75270000D01*
X149820000Y-75270000D01*
X149820000Y-75270000D01*
X149820000Y-75270000D01*
X149820000Y-75270000D01*
X149820000Y-75270000D01*
X149820000Y-75270000D01*
X149820000Y-75270000D01*
X149820000Y-75270000D01*
X149820000Y-75270000D01*
X149820000Y-75270000D01*
D12*
G04 #@! TO.C,C7*
D13*
X139025000Y-64640000D02*
X139025000Y-64640000D01*
X139025000Y-64640000D01*
X139025000Y-64640000D01*
X139025000Y-64640000D01*
X139025000Y-64640000D01*
X139025000Y-64640000D01*
X139025000Y-64640000D01*
X139025000Y-64640000D01*
X139025000Y-64640000D01*
X139025000Y-64640000D01*
X139025000Y-64640000D01*
X139025000Y-64640000D01*
X139025000Y-64640000D01*
X139025000Y-64640000D01*
X139025000Y-64640000D01*
X139025000Y-64640000D02*
X139025000Y-64640000D01*
X139025000Y-64640000D01*
D12*
G04 #@! TO.C,C8*
D13*
X149820000Y-103210000D02*
X149820000Y-103210000D01*
X149820000Y-103210000D01*
X149820000Y-103210000D01*
X149820000Y-103210000D01*
X149820000Y-103210000D01*
X149820000Y-103210000D01*
X149820000Y-103210000D01*
X149820000Y-103210000D01*
X149820000Y-103210000D01*
X149820000Y-103210000D01*
X149820000Y-103210000D01*
X149820000Y-103210000D01*
X149820000Y-103210000D01*
X149820000Y-103210000D01*
X149820000Y-103210000D01*
X149820000Y-103210000D02*
X149820000Y-103210000D01*
X149820000Y-103210000D01*
X149820000Y-103210000D01*
X149820000Y-103210000D01*
X149820000Y-103210000D01*
X149820000Y-103210000D01*
X149820000Y-103210000D01*
X149820000Y-103210000D01*
X149820000Y-103210000D01*
X149820000Y-103210000D01*
X149820000Y-103210000D01*
X149820000Y-103210000D01*
X149820000Y-103210000D01*
X149820000Y-103210000D01*
X149820000Y-103210000D01*
X149820000Y-103210000D01*
X149820000Y-103210000D01*
X149820000Y-103210000D01*
X149820000Y-103210000D01*
X149820000Y-103210000D01*
X149820000Y-103210000D01*
X149820000Y-103210000D01*
X149820000Y-103210000D01*
X149820000Y-103210000D01*
X149820000Y-103210000D01*
X149820000Y-103210000D01*
X149820000Y-103210000D01*
X149820000Y-103210000D01*
X149820000Y-103210000D01*
X149820000Y-103210000D01*
X149820000Y-103210000D01*
D12*
G04 #@! TO.C,C9*
D13*
X149900000Y-120310000D02*
X149900000Y-120310000D01*
X149900000Y-120310000D01*
X149900000Y-120310000D01*
X149900000Y-120310000D01*
X149900000Y-120310000D01*
X149900000Y-120310000D01*
X149900000Y-120310000D01*
X149900000Y-120310000D01*
X149900000Y-120310000D01*
X149900000Y-120310000D01*
X149900000Y-120310000D01*
X149900000Y-120310000D01*
X149900000Y-120310000D01*
X149900000Y-120310000D01*
X149900000Y-120310000D01*
X149900000Y-120310000D02*
X149900000Y-120310000D01*
X149900000Y-120310000D01*
X149900000Y-120310000D01*
X149900000Y-120310000D01*
X149900000Y-120310000D01*
X149900000Y-120310000D01*
X149900000Y-120310000D01*
X149900000Y-120310000D01*
X149900000Y-120310000D01*
X149900000Y-120310000D01*
X149900000Y-120310000D01*
X149900000Y-120310000D01*
X149900000Y-120310000D01*
X149900000Y-120310000D01*
X149900000Y-120310000D01*
X149900000Y-120310000D01*
X149900000Y-120310000D01*
X149900000Y-120310000D01*
X149900000Y-120310000D01*
X149900000Y-120310000D01*
X149900000Y-120310000D01*
D12*
G04 #@! TO.C,D1*
D13*
X149860000Y-82465000D02*
X149860000Y-82465000D01*
X149860000Y-82465000D01*
X149860000Y-82465000D01*
X149860000Y-82465000D01*
X149860000Y-82465000D01*
X149860000Y-82465000D01*
X149860000Y-82465000D01*
X149860000Y-82465000D01*
X149860000Y-82465000D01*
X149860000Y-82465000D01*
X149860000Y-82465000D01*
X149860000Y-82465000D01*
X149860000Y-82465000D02*
X149860000Y-82465000D01*
X149860000Y-82465000D02*
X149860000Y-82465000D01*
X149860000Y-82465000D01*
X149860000Y-82465000D01*
X149860000Y-82465000D01*
D12*
G04 #@! TO.C,D2*
D13*
X149860000Y-110405000D02*
X149860000Y-110405000D01*
X149860000Y-110405000D01*
X149860000Y-110405000D01*
X149860000Y-110405000D01*
X149860000Y-110405000D01*
X149860000Y-110405000D01*
X149860000Y-110405000D01*
X149860000Y-110405000D01*
X149860000Y-110405000D01*
X149860000Y-110405000D01*
X149860000Y-110405000D01*
X149860000Y-110405000D01*
X149860000Y-110405000D02*
X149860000Y-110405000D01*
X149860000Y-110405000D01*
X149860000Y-110405000D01*
X149860000Y-110405000D01*
X149860000Y-110405000D01*
X149860000Y-110405000D01*
X149860000Y-110405000D01*
X149860000Y-110405000D01*
X149860000Y-110405000D01*
X149860000Y-110405000D01*
D12*
G04 #@! TO.C,D3*
D13*
X132715000Y-113825000D02*
X132715000Y-113825000D01*
X132715000Y-113825000D01*
X132715000Y-113825000D01*
X132715000Y-113825000D01*
X132715000Y-113825000D01*
X132715000Y-113825000D01*
X132715000Y-113825000D01*
X132715000Y-113825000D01*
X132715000Y-113825000D01*
X132715000Y-113825000D01*
X132715000Y-113825000D01*
X132715000Y-113825000D01*
X132715000Y-113825000D02*
X132715000Y-113825000D01*
X132715000Y-113825000D01*
X132715000Y-113825000D01*
X132715000Y-113825000D01*
X132715000Y-113825000D01*
X132715000Y-113825000D01*
X132715000Y-113825000D01*
X132715000Y-113825000D01*
X132715000Y-113825000D01*
X132715000Y-113825000D01*
X132715000Y-113825000D01*
X132715000Y-113825000D01*
X132715000Y-113825000D01*
D12*
G04 #@! TO.C,D4*
D13*
X132715000Y-122715000D02*
X132715000Y-122715000D01*
X132715000Y-122715000D01*
X132715000Y-122715000D01*
X132715000Y-122715000D01*
X132715000Y-122715000D01*
X132715000Y-122715000D01*
X132715000Y-122715000D01*
X132715000Y-122715000D01*
X132715000Y-122715000D01*
X132715000Y-122715000D01*
X132715000Y-122715000D01*
X132715000Y-122715000D01*
X132715000Y-122715000D02*
X132715000Y-122715000D01*
X132715000Y-122715000D02*
X132715000Y-122715000D01*
X132715000Y-122715000D01*
D12*
G04 #@! TO.C,D5*
D13*
X132715000Y-131605000D02*
X132715000Y-131605000D01*
X132715000Y-131605000D01*
X132715000Y-131605000D01*
X132715000Y-131605000D01*
X132715000Y-131605000D01*
X132715000Y-131605000D01*
X132715000Y-131605000D01*
X132715000Y-131605000D01*
X132715000Y-131605000D01*
X132715000Y-131605000D01*
X132715000Y-131605000D01*
X132715000Y-131605000D01*
X132715000Y-131605000D02*
X132715000Y-131605000D01*
X132715000Y-131605000D01*
X132715000Y-131605000D01*
X132715000Y-131605000D01*
X132715000Y-131605000D01*
X132715000Y-131605000D01*
X132715000Y-131605000D01*
X132715000Y-131605000D01*
X132715000Y-131605000D01*
X132715000Y-131605000D01*
X132715000Y-131605000D01*
X132715000Y-131605000D01*
X132715000Y-131605000D01*
X132715000Y-131605000D01*
X132715000Y-131605000D01*
D12*
G04 #@! TO.C,J1*
D13*
X133985000Y-92710000D02*
X133985000Y-92710000D01*
X133985000Y-92710000D01*
X133985000Y-92710000D01*
X133985000Y-92710000D01*
X133985000Y-92710000D01*
X133985000Y-92710000D02*
X133985000Y-92710000D01*
X133985000Y-92710000D02*
X133985000Y-92710000D01*
X133985000Y-92710000D01*
X133985000Y-92710000D01*
X133985000Y-92710000D01*
D12*
G04 #@! TO.C,J2*
D13*
X133985000Y-82550000D02*
X133985000Y-82550000D01*
X133985000Y-82550000D01*
X133985000Y-82550000D01*
X133985000Y-82550000D01*
X133985000Y-82550000D01*
X133985000Y-82550000D02*
X133985000Y-82550000D01*
X133985000Y-82550000D01*
X133985000Y-82550000D01*
X133985000Y-82550000D01*
X133985000Y-82550000D01*
X133985000Y-82550000D01*
X133985000Y-82550000D01*
X133985000Y-82550000D01*
X133985000Y-82550000D01*
X133985000Y-82550000D01*
D12*
G04 #@! TO.C,J3*
D13*
X131070000Y-109140000D02*
X131070000Y-109140000D01*
X131070000Y-109140000D01*
X131070000Y-109140000D01*
X131070000Y-109140000D01*
X131070000Y-109140000D01*
X131070000Y-109140000D02*
X131070000Y-109140000D01*
X131070000Y-109140000D01*
X131070000Y-109140000D01*
X131070000Y-109140000D01*
X131070000Y-109140000D01*
X131070000Y-109140000D01*
X131070000Y-109140000D01*
X131070000Y-109140000D01*
X131070000Y-109140000D01*
X131070000Y-109140000D01*
X131070000Y-109140000D01*
X131070000Y-109140000D01*
X131070000Y-109140000D01*
D12*
G04 #@! TO.C,Q1*
D13*
X166370000Y-72090000D02*
X166370000Y-72090000D01*
X166370000Y-72090000D01*
X166370000Y-72090000D01*
X166370000Y-72090000D01*
X166370000Y-72090000D01*
X166370000Y-72090000D02*
X166370000Y-72090000D01*
X166370000Y-72090000D01*
X166370000Y-72090000D01*
X166370000Y-72090000D01*
X166370000Y-72090000D01*
X166370000Y-72090000D01*
X166370000Y-72090000D01*
X166370000Y-72090000D01*
X166370000Y-72090000D01*
X166370000Y-72090000D01*
X166370000Y-72090000D01*
X166370000Y-72090000D01*
X166370000Y-72090000D01*
X166370000Y-72090000D01*
X166370000Y-72090000D01*
X166370000Y-72090000D01*
X166370000Y-72090000D02*
X166370000Y-72090000D01*
X166370000Y-72090000D02*
X166370000Y-72090000D01*
X166370000Y-72090000D01*
X166370000Y-72090000D01*
X166370000Y-72090000D01*
D12*
G04 #@! TO.C,Q2*
D13*
X166370000Y-86060000D02*
X166370000Y-86060000D01*
X166370000Y-86060000D01*
X166370000Y-86060000D01*
X166370000Y-86060000D01*
X166370000Y-86060000D01*
X166370000Y-86060000D02*
X166370000Y-86060000D01*
X166370000Y-86060000D01*
X166370000Y-86060000D01*
X166370000Y-86060000D01*
X166370000Y-86060000D01*
X166370000Y-86060000D01*
X166370000Y-86060000D01*
X166370000Y-86060000D01*
X166370000Y-86060000D01*
X166370000Y-86060000D01*
X166370000Y-86060000D01*
X166370000Y-86060000D01*
X166370000Y-86060000D01*
X166370000Y-86060000D01*
X166370000Y-86060000D01*
X166370000Y-86060000D01*
X166370000Y-86060000D02*
X166370000Y-86060000D01*
X166370000Y-86060000D01*
X166370000Y-86060000D01*
X166370000Y-86060000D01*
X166370000Y-86060000D01*
X166370000Y-86060000D01*
X166370000Y-86060000D01*
X166370000Y-86060000D01*
X166370000Y-86060000D01*
X166370000Y-86060000D01*
D12*
G04 #@! TO.C,Q3*
D13*
X166370000Y-100030000D02*
X166370000Y-100030000D01*
X166370000Y-100030000D01*
X166370000Y-100030000D01*
X166370000Y-100030000D01*
X166370000Y-100030000D01*
X166370000Y-100030000D02*
X166370000Y-100030000D01*
X166370000Y-100030000D01*
X166370000Y-100030000D01*
X166370000Y-100030000D01*
X166370000Y-100030000D01*
X166370000Y-100030000D01*
X166370000Y-100030000D01*
X166370000Y-100030000D01*
X166370000Y-100030000D01*
X166370000Y-100030000D01*
X166370000Y-100030000D01*
X166370000Y-100030000D01*
X166370000Y-100030000D01*
X166370000Y-100030000D01*
X166370000Y-100030000D01*
X166370000Y-100030000D01*
X166370000Y-100030000D02*
X166370000Y-100030000D01*
X166370000Y-100030000D01*
X166370000Y-100030000D01*
X166370000Y-100030000D01*
X166370000Y-100030000D01*
X166370000Y-100030000D01*
X166370000Y-100030000D01*
X166370000Y-100030000D01*
X166370000Y-100030000D01*
X166370000Y-100030000D01*
X166370000Y-100030000D01*
X166370000Y-100030000D01*
X166370000Y-100030000D01*
D12*
G04 #@! TO.C,Q4*
D13*
X166370000Y-114000000D02*
X166370000Y-114000000D01*
X166370000Y-114000000D01*
X166370000Y-114000000D01*
X166370000Y-114000000D01*
X166370000Y-114000000D01*
X166370000Y-114000000D02*
X166370000Y-114000000D01*
X166370000Y-114000000D01*
X166370000Y-114000000D01*
X166370000Y-114000000D01*
X166370000Y-114000000D01*
X166370000Y-114000000D01*
X166370000Y-114000000D01*
X166370000Y-114000000D01*
X166370000Y-114000000D01*
X166370000Y-114000000D01*
X166370000Y-114000000D01*
X166370000Y-114000000D01*
X166370000Y-114000000D01*
X166370000Y-114000000D01*
X166370000Y-114000000D01*
X166370000Y-114000000D01*
X166370000Y-114000000D02*
X166370000Y-114000000D01*
X166370000Y-114000000D02*
X166370000Y-114000000D01*
X166370000Y-114000000D01*
D12*
G04 #@! TO.C,R1*
D13*
X132715000Y-116365000D02*
X132715000Y-116365000D01*
X132715000Y-116365000D02*
X132715000Y-116365000D01*
X132715000Y-116365000D01*
X132715000Y-116365000D01*
X132715000Y-116365000D01*
X132715000Y-116365000D01*
X132715000Y-116365000D01*
X132715000Y-116365000D01*
X132715000Y-116365000D01*
X132715000Y-116365000D01*
X132715000Y-116365000D01*
X132715000Y-116365000D02*
X132715000Y-116365000D01*
X132715000Y-116365000D02*
X132715000Y-116365000D01*
X132715000Y-116365000D01*
X132715000Y-116365000D01*
X132715000Y-116365000D01*
D12*
G04 #@! TO.C,R2*
D13*
X132715000Y-125255000D02*
X132715000Y-125255000D01*
X132715000Y-125255000D02*
X132715000Y-125255000D01*
X132715000Y-125255000D01*
X132715000Y-125255000D01*
X132715000Y-125255000D01*
X132715000Y-125255000D01*
X132715000Y-125255000D01*
X132715000Y-125255000D01*
X132715000Y-125255000D01*
X132715000Y-125255000D01*
X132715000Y-125255000D01*
X132715000Y-125255000D02*
X132715000Y-125255000D01*
X132715000Y-125255000D01*
X132715000Y-125255000D01*
X132715000Y-125255000D01*
X132715000Y-125255000D01*
X132715000Y-125255000D01*
X132715000Y-125255000D01*
X132715000Y-125255000D01*
X132715000Y-125255000D01*
X132715000Y-125255000D01*
D12*
G04 #@! TO.C,R3*
D13*
X132715000Y-134145000D02*
X132715000Y-134145000D01*
X132715000Y-134145000D02*
X132715000Y-134145000D01*
X132715000Y-134145000D01*
X132715000Y-134145000D01*
X132715000Y-134145000D01*
X132715000Y-134145000D01*
X132715000Y-134145000D01*
X132715000Y-134145000D01*
X132715000Y-134145000D01*
X132715000Y-134145000D01*
X132715000Y-134145000D01*
X132715000Y-134145000D02*
X132715000Y-134145000D01*
X132715000Y-134145000D01*
X132715000Y-134145000D01*
X132715000Y-134145000D01*
X132715000Y-134145000D01*
X132715000Y-134145000D01*
X132715000Y-134145000D01*
X132715000Y-134145000D01*
X132715000Y-134145000D01*
X132715000Y-134145000D01*
X132715000Y-134145000D01*
X132715000Y-134145000D01*
X132715000Y-134145000D01*
D12*
G04 #@! TO.C,R10*
D13*
X143270000Y-107790000D02*
X143270000Y-107790000D01*
X143270000Y-107790000D02*
X143270000Y-107790000D01*
X143270000Y-107790000D01*
X143270000Y-107790000D01*
X143270000Y-107790000D01*
X143270000Y-107790000D01*
X143270000Y-107790000D01*
X143270000Y-107790000D01*
X143270000Y-107790000D01*
X143270000Y-107790000D01*
X143270000Y-107790000D01*
X143270000Y-107790000D02*
X143270000Y-107790000D01*
X143270000Y-107790000D02*
X143270000Y-107790000D01*
X143270000Y-107790000D01*
X143270000Y-107790000D01*
X143270000Y-107790000D01*
X143270000Y-107790000D02*
X143270000Y-107790000D01*
X143270000Y-107790000D01*
X143270000Y-107790000D01*
X143270000Y-107790000D01*
X143270000Y-107790000D01*
X143270000Y-107790000D01*
X143270000Y-107790000D01*
X143270000Y-107790000D01*
X143270000Y-107790000D01*
X143270000Y-107790000D01*
X143270000Y-107790000D01*
X143270000Y-107790000D01*
X143270000Y-107790000D01*
X143270000Y-107790000D01*
X143270000Y-107790000D01*
X143270000Y-107790000D01*
X143270000Y-107790000D01*
X143270000Y-107790000D01*
X143270000Y-107790000D01*
X143270000Y-107790000D01*
D12*
G04 #@! TO.C,R11*
D13*
X143270000Y-116680000D02*
X143270000Y-116680000D01*
X143270000Y-116680000D02*
X143270000Y-116680000D01*
X143270000Y-116680000D01*
X143270000Y-116680000D01*
X143270000Y-116680000D01*
X143270000Y-116680000D01*
X143270000Y-116680000D01*
X143270000Y-116680000D01*
X143270000Y-116680000D01*
X143270000Y-116680000D01*
X143270000Y-116680000D01*
X143270000Y-116680000D02*
X143270000Y-116680000D01*
X143270000Y-116680000D02*
X143270000Y-116680000D01*
X143270000Y-116680000D01*
X143270000Y-116680000D01*
X143270000Y-116680000D01*
X143270000Y-116680000D02*
X143270000Y-116680000D01*
X143270000Y-116680000D02*
X143270000Y-116680000D01*
X143270000Y-116680000D01*
X143270000Y-116680000D01*
X143270000Y-116680000D01*
D12*
G04 #@! TO.C,R12*
D13*
X143270000Y-125570000D02*
X143270000Y-125570000D01*
X143270000Y-125570000D02*
X143270000Y-125570000D01*
X143270000Y-125570000D01*
X143270000Y-125570000D01*
X143270000Y-125570000D01*
X143270000Y-125570000D01*
X143270000Y-125570000D01*
X143270000Y-125570000D01*
X143270000Y-125570000D01*
X143270000Y-125570000D01*
X143270000Y-125570000D01*
X143270000Y-125570000D02*
X143270000Y-125570000D01*
X143270000Y-125570000D02*
X143270000Y-125570000D01*
X143270000Y-125570000D01*
X143270000Y-125570000D01*
X143270000Y-125570000D01*
X143270000Y-125570000D02*
X143270000Y-125570000D01*
X143270000Y-125570000D01*
X143270000Y-125570000D01*
X143270000Y-125570000D01*
X143270000Y-125570000D01*
X143270000Y-125570000D01*
X143270000Y-125570000D01*
X143270000Y-125570000D01*
X143270000Y-125570000D01*
X143270000Y-125570000D01*
D12*
G04 #@! TO.C,R13*
D13*
X156210000Y-84551500D02*
X156210000Y-84551500D01*
X156210000Y-84551500D02*
X156210000Y-84551500D01*
X156210000Y-84551500D01*
X156210000Y-84551500D01*
X156210000Y-84551500D01*
X156210000Y-84551500D01*
X156210000Y-84551500D01*
X156210000Y-84551500D01*
X156210000Y-84551500D01*
X156210000Y-84551500D01*
X156210000Y-84551500D01*
X156210000Y-84551500D02*
X156210000Y-84551500D01*
X156210000Y-84551500D02*
X156210000Y-84551500D01*
X156210000Y-84551500D01*
X156210000Y-84551500D01*
X156210000Y-84551500D01*
X156210000Y-84551500D02*
X156210000Y-84551500D01*
X156210000Y-84551500D01*
X156210000Y-84551500D01*
X156210000Y-84551500D01*
X156210000Y-84551500D01*
X156210000Y-84551500D01*
X156210000Y-84551500D01*
X156210000Y-84551500D01*
X156210000Y-84551500D01*
X156210000Y-84551500D01*
X156210000Y-84551500D01*
X156210000Y-84551500D01*
X156210000Y-84551500D01*
D12*
G04 #@! TO.C,R14*
D13*
X156210000Y-89949000D02*
X156210000Y-89949000D01*
X156210000Y-89949000D02*
X156210000Y-89949000D01*
X156210000Y-89949000D01*
X156210000Y-89949000D01*
X156210000Y-89949000D01*
X156210000Y-89949000D01*
X156210000Y-89949000D01*
X156210000Y-89949000D01*
X156210000Y-89949000D01*
X156210000Y-89949000D01*
X156210000Y-89949000D01*
X156210000Y-89949000D02*
X156210000Y-89949000D01*
X156210000Y-89949000D02*
X156210000Y-89949000D01*
X156210000Y-89949000D01*
X156210000Y-89949000D01*
X156210000Y-89949000D01*
X156210000Y-89949000D02*
X156210000Y-89949000D01*
X156210000Y-89949000D02*
X156210000Y-89949000D01*
X156210000Y-89949000D01*
D12*
G04 #@! TO.C,R15*
D13*
X154780000Y-78740000D02*
X154780000Y-78740000D01*
X154780000Y-78740000D02*
X154780000Y-78740000D01*
X154780000Y-78740000D01*
X154780000Y-78740000D01*
X154780000Y-78740000D01*
X154780000Y-78740000D01*
X154780000Y-78740000D01*
X154780000Y-78740000D01*
X154780000Y-78740000D01*
X154780000Y-78740000D01*
X154780000Y-78740000D01*
X154780000Y-78740000D02*
X154780000Y-78740000D01*
X154780000Y-78740000D02*
X154780000Y-78740000D01*
X154780000Y-78740000D01*
X154780000Y-78740000D01*
X154780000Y-78740000D01*
X154780000Y-78740000D02*
X154780000Y-78740000D01*
X154780000Y-78740000D01*
X154780000Y-78740000D01*
X154780000Y-78740000D01*
X154780000Y-78740000D01*
X154780000Y-78740000D01*
X154780000Y-78740000D01*
X154780000Y-78740000D01*
X154780000Y-78740000D01*
X154780000Y-78740000D01*
X154780000Y-78740000D01*
X154780000Y-78740000D01*
X154780000Y-78740000D01*
X154780000Y-78740000D01*
X154780000Y-78740000D01*
D12*
G04 #@! TO.C,R16*
D13*
X154780000Y-92710000D02*
X154780000Y-92710000D01*
X154780000Y-92710000D02*
X154780000Y-92710000D01*
X154780000Y-92710000D01*
X154780000Y-92710000D01*
X154780000Y-92710000D01*
X154780000Y-92710000D01*
X154780000Y-92710000D01*
X154780000Y-92710000D01*
X154780000Y-92710000D01*
X154780000Y-92710000D01*
X154780000Y-92710000D01*
X154780000Y-92710000D02*
X154780000Y-92710000D01*
X154780000Y-92710000D02*
X154780000Y-92710000D01*
X154780000Y-92710000D01*
X154780000Y-92710000D01*
X154780000Y-92710000D01*
X154780000Y-92710000D02*
X154780000Y-92710000D01*
X154780000Y-92710000D01*
X154780000Y-92710000D01*
X154780000Y-92710000D01*
X154780000Y-92710000D01*
X154780000Y-92710000D01*
X154780000Y-92710000D01*
X154780000Y-92710000D01*
X154780000Y-92710000D01*
X154780000Y-92710000D01*
X154780000Y-92710000D01*
X154780000Y-92710000D01*
X154780000Y-92710000D01*
X154780000Y-92710000D01*
X154780000Y-92710000D01*
X154780000Y-92710000D01*
X154780000Y-92710000D01*
X154780000Y-92710000D01*
X154780000Y-92710000D01*
X154780000Y-92710000D01*
X154780000Y-92710000D01*
D12*
G04 #@! TO.C,R17*
D13*
X154780000Y-106440000D02*
X154780000Y-106440000D01*
X154780000Y-106440000D02*
X154780000Y-106440000D01*
X154780000Y-106440000D01*
X154780000Y-106440000D01*
X154780000Y-106440000D01*
X154780000Y-106440000D01*
X154780000Y-106440000D01*
X154780000Y-106440000D01*
X154780000Y-106440000D01*
X154780000Y-106440000D01*
X154780000Y-106440000D01*
X154780000Y-106440000D02*
X154780000Y-106440000D01*
X154780000Y-106440000D02*
X154780000Y-106440000D01*
X154780000Y-106440000D01*
X154780000Y-106440000D01*
X154780000Y-106440000D01*
X154780000Y-106440000D02*
X154780000Y-106440000D01*
X154780000Y-106440000D01*
D12*
G04 #@! TO.C,R18*
D13*
X154780000Y-120650000D02*
X154780000Y-120650000D01*
X154780000Y-120650000D02*
X154780000Y-120650000D01*
X154780000Y-120650000D01*
X154780000Y-120650000D01*
X154780000Y-120650000D01*
X154780000Y-120650000D01*
X154780000Y-120650000D01*
X154780000Y-120650000D01*
X154780000Y-120650000D01*
X154780000Y-120650000D01*
X154780000Y-120650000D01*
X154780000Y-120650000D02*
X154780000Y-120650000D01*
X154780000Y-120650000D02*
X154780000Y-120650000D01*
X154780000Y-120650000D01*
X154780000Y-120650000D01*
X154780000Y-120650000D01*
X154780000Y-120650000D02*
X154780000Y-120650000D01*
X154780000Y-120650000D01*
X154780000Y-120650000D01*
X154780000Y-120650000D01*
X154780000Y-120650000D01*
X154780000Y-120650000D01*
X154780000Y-120650000D01*
X154780000Y-120650000D01*
X154780000Y-120650000D01*
X154780000Y-120650000D01*
X154780000Y-120650000D01*
X154780000Y-120650000D01*
X154780000Y-120650000D01*
X154780000Y-120650000D01*
X154780000Y-120650000D01*
X154780000Y-120650000D01*
X154780000Y-120650000D01*
X154780000Y-120650000D01*
X154780000Y-120650000D01*
X154780000Y-120650000D01*
X154780000Y-120650000D01*
X154780000Y-120650000D01*
X154780000Y-120650000D01*
X154780000Y-120650000D01*
X154780000Y-120650000D01*
X154780000Y-120650000D01*
X154780000Y-120650000D01*
X154780000Y-120650000D01*
X154780000Y-120650000D01*
X154780000Y-120650000D01*
X154780000Y-120650000D01*
D12*
G04 #@! TO.C,R19*
D13*
X156210000Y-112492000D02*
X156210000Y-112492000D01*
X156210000Y-112492000D02*
X156210000Y-112492000D01*
X156210000Y-112492000D01*
X156210000Y-112492000D01*
X156210000Y-112492000D01*
X156210000Y-112492000D01*
X156210000Y-112492000D01*
X156210000Y-112492000D01*
X156210000Y-112492000D01*
X156210000Y-112492000D01*
X156210000Y-112492000D01*
X156210000Y-112492000D02*
X156210000Y-112492000D01*
X156210000Y-112492000D02*
X156210000Y-112492000D01*
X156210000Y-112492000D01*
X156210000Y-112492000D01*
X156210000Y-112492000D01*
X156210000Y-112492000D02*
X156210000Y-112492000D01*
X156210000Y-112492000D01*
X156210000Y-112492000D01*
X156210000Y-112492000D01*
X156210000Y-112492000D01*
X156210000Y-112492000D01*
X156210000Y-112492000D01*
X156210000Y-112492000D01*
X156210000Y-112492000D01*
X156210000Y-112492000D01*
X156210000Y-112492000D01*
X156210000Y-112492000D01*
X156210000Y-112492000D01*
X156210000Y-112492000D01*
X156210000Y-112492000D01*
X156210000Y-112492000D01*
X156210000Y-112492000D01*
X156210000Y-112492000D01*
X156210000Y-112492000D01*
X156210000Y-112492000D01*
X156210000Y-112492000D01*
D12*
G04 #@! TO.C,R20*
D13*
X156210000Y-117889000D02*
X156210000Y-117889000D01*
X156210000Y-117889000D02*
X156210000Y-117889000D01*
X156210000Y-117889000D01*
X156210000Y-117889000D01*
X156210000Y-117889000D01*
X156210000Y-117889000D01*
X156210000Y-117889000D01*
X156210000Y-117889000D01*
X156210000Y-117889000D01*
X156210000Y-117889000D01*
X156210000Y-117889000D01*
X156210000Y-117889000D02*
X156210000Y-117889000D01*
X156210000Y-117889000D01*
X156210000Y-117889000D01*
X156210000Y-117889000D01*
X156210000Y-117889000D01*
X156210000Y-117889000D01*
X156210000Y-117889000D01*
X156210000Y-117889000D01*
X156210000Y-117889000D01*
X156210000Y-117889000D01*
X156210000Y-117889000D02*
X156210000Y-117889000D01*
X156210000Y-117889000D01*
X156210000Y-117889000D01*
X156210000Y-117889000D01*
X156210000Y-117889000D01*
X156210000Y-117889000D01*
X156210000Y-117889000D01*
X156210000Y-117889000D01*
X156210000Y-117889000D01*
X156210000Y-117889000D01*
X156210000Y-117889000D01*
X156210000Y-117889000D01*
X156210000Y-117889000D01*
X156210000Y-117889000D01*
X156210000Y-117889000D01*
X156210000Y-117889000D01*
X156210000Y-117889000D01*
X156210000Y-117889000D01*
X156210000Y-117889000D01*
X156210000Y-117889000D01*
D12*
G04 #@! TO.C,U1*
D13*
X139700000Y-88845000D02*
X139700000Y-88845000D01*
X139700000Y-88845000D01*
X139700000Y-88845000D01*
X139700000Y-88845000D01*
X139700000Y-88845000D01*
X139700000Y-88845000D01*
X139700000Y-88845000D01*
X139700000Y-88845000D01*
X139700000Y-88845000D01*
X139700000Y-88845000D02*
X139700000Y-88845000D01*
X139700000Y-88845000D02*
X139700000Y-88845000D01*
X139700000Y-88845000D01*
X139700000Y-88845000D01*
X139700000Y-88845000D01*
D12*
G04 #@! TO.C,U2*
D13*
X140335000Y-110065000D02*
X140335000Y-110065000D01*
X140335000Y-110065000D01*
X140335000Y-110065000D01*
X140335000Y-110065000D01*
X140335000Y-110065000D01*
X140335000Y-110065000D01*
X140335000Y-110065000D01*
X140335000Y-110065000D01*
X140335000Y-110065000D01*
X140335000Y-110065000D02*
X140335000Y-110065000D01*
X140335000Y-110065000D01*
X140335000Y-110065000D01*
X140335000Y-110065000D01*
X140335000Y-110065000D01*
X140335000Y-110065000D01*
X140335000Y-110065000D01*
X140335000Y-110065000D01*
X140335000Y-110065000D01*
X140335000Y-110065000D01*
D12*
G04 #@! TO.C,U3*
D13*
X140335000Y-118955000D02*
X140335000Y-118955000D01*
X140335000Y-118955000D01*
X140335000Y-118955000D01*
X140335000Y-118955000D01*
X140335000Y-118955000D01*
X140335000Y-118955000D01*
X140335000Y-118955000D01*
X140335000Y-118955000D01*
X140335000Y-118955000D01*
X140335000Y-118955000D02*
X140335000Y-118955000D01*
X140335000Y-118955000D01*
X140335000Y-118955000D01*
X140335000Y-118955000D01*
X140335000Y-118955000D01*
X140335000Y-118955000D01*
X140335000Y-118955000D01*
X140335000Y-118955000D01*
X140335000Y-118955000D01*
X140335000Y-118955000D01*
X140335000Y-118955000D01*
X140335000Y-118955000D01*
X140335000Y-118955000D01*
D12*
G04 #@! TO.C,U4*
D13*
X140335000Y-127845000D02*
X140335000Y-127845000D01*
X140335000Y-127845000D01*
X140335000Y-127845000D01*
X140335000Y-127845000D01*
X140335000Y-127845000D01*
X140335000Y-127845000D01*
X140335000Y-127845000D01*
X140335000Y-127845000D01*
X140335000Y-127845000D01*
X140335000Y-127845000D02*
X140335000Y-127845000D01*
X140335000Y-127845000D02*
X140335000Y-127845000D01*
X140335000Y-127845000D01*
D12*
G04 #@! TO.C,U5*
D13*
X149860000Y-81590000D02*
X149860000Y-81590000D01*
X149860000Y-81590000D01*
X149860000Y-81590000D01*
X149860000Y-81590000D01*
X149860000Y-81590000D01*
X149860000Y-81590000D01*
X149860000Y-81590000D01*
X149860000Y-81590000D01*
X149860000Y-81590000D01*
X149860000Y-81590000D02*
X149860000Y-81590000D01*
X149860000Y-81590000D01*
X149860000Y-81590000D01*
X149860000Y-81590000D01*
X149860000Y-81590000D01*
X149860000Y-81590000D01*
X149860000Y-81590000D01*
X149860000Y-81590000D01*
X149860000Y-81590000D01*
X149860000Y-81590000D01*
X149860000Y-81590000D01*
X149860000Y-81590000D01*
X149860000Y-81590000D01*
X149860000Y-81590000D01*
X149860000Y-81590000D01*
D12*
G04 #@! TO.C,U6*
D13*
X149860000Y-109530000D02*
X149860000Y-109530000D01*
X149860000Y-109530000D01*
X149860000Y-109530000D01*
X149860000Y-109530000D01*
X149860000Y-109530000D01*
X149860000Y-109530000D01*
X149860000Y-109530000D01*
X149860000Y-109530000D01*
X149860000Y-109530000D01*
X149860000Y-109530000D02*
X149860000Y-109530000D01*
X149860000Y-109530000D01*
X149860000Y-109530000D01*
X149860000Y-109530000D01*
X149860000Y-109530000D01*
X149860000Y-109530000D01*
X149860000Y-109530000D01*
X149860000Y-109530000D01*
X149860000Y-109530000D01*
X149860000Y-109530000D01*
X149860000Y-109530000D01*
X149860000Y-109530000D01*
X149860000Y-109530000D01*
X149860000Y-109530000D01*
X149860000Y-109530000D01*
X149860000Y-109530000D01*
X149860000Y-109530000D01*
X149860000Y-109530000D01*
X149860000Y-109530000D01*
X149860000Y-109530000D01*
X149860000Y-109530000D01*
D12*
G04 #@! TD*
M02*
