M48
;DRILL file {KiCad 5.0.1-33cea8e~68~ubuntu16.04.1} date 2018年11月22日 10時51分03秒
;FORMAT={-:-/ absolute / metric / decimal}
FMAT,2
METRIC,TZ
T1C0.400
T2C0.600
T3C0.800
T4C0.950
T5C1.200
T6C1.520
%
G90
G05
M71
T1
X142.705Y-116.815
X143.254Y-110.078
T2
X158.485Y-83.537
X169.745Y-86.51
T3
X147.32Y-105.41
X152.32Y-105.41
X147.32Y-77.47
X147.4Y-118.11
X152.4Y-118.11
X136.525Y-88.265
X141.525Y-88.265
X152.32Y-77.47
X137.795Y-103.505
X140.295Y-103.505
X136.525Y-98.425
X141.525Y-98.425
X147.4Y-90.17
X152.4Y-90.17
X137.795Y-83.185
X140.295Y-83.185
T4
X128.27Y-104.14
X128.27Y-106.64
X128.27Y-109.14
X128.27Y-111.64
X128.27Y-114.14
T5
X136.525Y-72.39
X141.525Y-72.39
T6
X128.905Y-80.01
X128.905Y-85.09
X128.905Y-90.17
X128.905Y-95.25
T0
M30
