G04 #@! TF.GenerationSoftware,KiCad,Pcbnew,5.0.1-33cea8e~68~ubuntu16.04.1*
G04 #@! TF.CreationDate,2018-11-22T10:51:10+09:00*
G04 #@! TF.ProjectId,BS2103F_photo,425332313033465F70686F746F2E6B69,rev?*
G04 #@! TF.SameCoordinates,Original*
G04 #@! TF.FileFunction,Soldermask,Top*
G04 #@! TF.FilePolarity,Negative*
%FSLAX46Y46*%
G04 Gerber Fmt 4.6, Leading zero omitted, Abs format (unit mm)*
G04 Created by KiCad (PCBNEW 5.0.1-33cea8e~68~ubuntu16.04.1) date 2018年11月22日 10時51分10秒*
%MOMM*%
%LPD*%
G01*
G04 APERTURE LIST*
%ADD10C,0.100000*%
G04 APERTURE END LIST*
D10*
G36*
X145196000Y-133656000D02*
X143094000Y-133656000D01*
X143094000Y-131774000D01*
X145196000Y-131774000D01*
X145196000Y-133656000D01*
X145196000Y-133656000D01*
G37*
G36*
X137576000Y-133656000D02*
X135474000Y-133656000D01*
X135474000Y-131774000D01*
X137576000Y-131774000D01*
X137576000Y-133656000D01*
X137576000Y-133656000D01*
G37*
G36*
X132254499Y-132193445D02*
X132291993Y-132204819D01*
X132326557Y-132223294D01*
X132356847Y-132248153D01*
X132381706Y-132278443D01*
X132400181Y-132313007D01*
X132411555Y-132350501D01*
X132416000Y-132395638D01*
X132416000Y-133034362D01*
X132411555Y-133079499D01*
X132400181Y-133116993D01*
X132381706Y-133151557D01*
X132356847Y-133181847D01*
X132326557Y-133206706D01*
X132291993Y-133225181D01*
X132254499Y-133236555D01*
X132209362Y-133241000D01*
X131470638Y-133241000D01*
X131425501Y-133236555D01*
X131388007Y-133225181D01*
X131353443Y-133206706D01*
X131323153Y-133181847D01*
X131298294Y-133151557D01*
X131279819Y-133116993D01*
X131268445Y-133079499D01*
X131264000Y-133034362D01*
X131264000Y-132395638D01*
X131268445Y-132350501D01*
X131279819Y-132313007D01*
X131298294Y-132278443D01*
X131323153Y-132248153D01*
X131353443Y-132223294D01*
X131388007Y-132204819D01*
X131425501Y-132193445D01*
X131470638Y-132189000D01*
X132209362Y-132189000D01*
X132254499Y-132193445D01*
X132254499Y-132193445D01*
G37*
G36*
X134004499Y-132193445D02*
X134041993Y-132204819D01*
X134076557Y-132223294D01*
X134106847Y-132248153D01*
X134131706Y-132278443D01*
X134150181Y-132313007D01*
X134161555Y-132350501D01*
X134166000Y-132395638D01*
X134166000Y-133034362D01*
X134161555Y-133079499D01*
X134150181Y-133116993D01*
X134131706Y-133151557D01*
X134106847Y-133181847D01*
X134076557Y-133206706D01*
X134041993Y-133225181D01*
X134004499Y-133236555D01*
X133959362Y-133241000D01*
X133220638Y-133241000D01*
X133175501Y-133236555D01*
X133138007Y-133225181D01*
X133103443Y-133206706D01*
X133073153Y-133181847D01*
X133048294Y-133151557D01*
X133029819Y-133116993D01*
X133018445Y-133079499D01*
X133014000Y-133034362D01*
X133014000Y-132395638D01*
X133018445Y-132350501D01*
X133029819Y-132313007D01*
X133048294Y-132278443D01*
X133073153Y-132248153D01*
X133103443Y-132223294D01*
X133138007Y-132204819D01*
X133175501Y-132193445D01*
X133220638Y-132189000D01*
X133959362Y-132189000D01*
X134004499Y-132193445D01*
X134004499Y-132193445D01*
G37*
G36*
X145196000Y-131116000D02*
X143094000Y-131116000D01*
X143094000Y-129234000D01*
X145196000Y-129234000D01*
X145196000Y-131116000D01*
X145196000Y-131116000D01*
G37*
G36*
X137576000Y-131116000D02*
X135474000Y-131116000D01*
X135474000Y-129234000D01*
X137576000Y-129234000D01*
X137576000Y-131116000D01*
X137576000Y-131116000D01*
G37*
G36*
X134004499Y-129653445D02*
X134041993Y-129664819D01*
X134076557Y-129683294D01*
X134106847Y-129708153D01*
X134131706Y-129738443D01*
X134150181Y-129773007D01*
X134161555Y-129810501D01*
X134166000Y-129855638D01*
X134166000Y-130494362D01*
X134161555Y-130539499D01*
X134150181Y-130576993D01*
X134131706Y-130611557D01*
X134106847Y-130641847D01*
X134076557Y-130666706D01*
X134041993Y-130685181D01*
X134004499Y-130696555D01*
X133959362Y-130701000D01*
X133220638Y-130701000D01*
X133175501Y-130696555D01*
X133138007Y-130685181D01*
X133103443Y-130666706D01*
X133073153Y-130641847D01*
X133048294Y-130611557D01*
X133029819Y-130576993D01*
X133018445Y-130539499D01*
X133014000Y-130494362D01*
X133014000Y-129855638D01*
X133018445Y-129810501D01*
X133029819Y-129773007D01*
X133048294Y-129738443D01*
X133073153Y-129708153D01*
X133103443Y-129683294D01*
X133138007Y-129664819D01*
X133175501Y-129653445D01*
X133220638Y-129649000D01*
X133959362Y-129649000D01*
X134004499Y-129653445D01*
X134004499Y-129653445D01*
G37*
G36*
X132254499Y-129653445D02*
X132291993Y-129664819D01*
X132326557Y-129683294D01*
X132356847Y-129708153D01*
X132381706Y-129738443D01*
X132400181Y-129773007D01*
X132411555Y-129810501D01*
X132416000Y-129855638D01*
X132416000Y-130494362D01*
X132411555Y-130539499D01*
X132400181Y-130576993D01*
X132381706Y-130611557D01*
X132356847Y-130641847D01*
X132326557Y-130666706D01*
X132291993Y-130685181D01*
X132254499Y-130696555D01*
X132209362Y-130701000D01*
X131470638Y-130701000D01*
X131425501Y-130696555D01*
X131388007Y-130685181D01*
X131353443Y-130666706D01*
X131323153Y-130641847D01*
X131298294Y-130611557D01*
X131279819Y-130576993D01*
X131268445Y-130539499D01*
X131264000Y-130494362D01*
X131264000Y-129855638D01*
X131268445Y-129810501D01*
X131279819Y-129773007D01*
X131298294Y-129738443D01*
X131323153Y-129708153D01*
X131353443Y-129683294D01*
X131388007Y-129664819D01*
X131425501Y-129653445D01*
X131470638Y-129649000D01*
X132209362Y-129649000D01*
X132254499Y-129653445D01*
X132254499Y-129653445D01*
G37*
G36*
X144559499Y-126478445D02*
X144596993Y-126489819D01*
X144631557Y-126508294D01*
X144661847Y-126533153D01*
X144686706Y-126563443D01*
X144705181Y-126598007D01*
X144716555Y-126635501D01*
X144721000Y-126680638D01*
X144721000Y-127319362D01*
X144716555Y-127364499D01*
X144705181Y-127401993D01*
X144686706Y-127436557D01*
X144661847Y-127466847D01*
X144631557Y-127491706D01*
X144596993Y-127510181D01*
X144559499Y-127521555D01*
X144514362Y-127526000D01*
X143775638Y-127526000D01*
X143730501Y-127521555D01*
X143693007Y-127510181D01*
X143658443Y-127491706D01*
X143628153Y-127466847D01*
X143603294Y-127436557D01*
X143584819Y-127401993D01*
X143573445Y-127364499D01*
X143569000Y-127319362D01*
X143569000Y-126680638D01*
X143573445Y-126635501D01*
X143584819Y-126598007D01*
X143603294Y-126563443D01*
X143628153Y-126533153D01*
X143658443Y-126508294D01*
X143693007Y-126489819D01*
X143730501Y-126478445D01*
X143775638Y-126474000D01*
X144514362Y-126474000D01*
X144559499Y-126478445D01*
X144559499Y-126478445D01*
G37*
G36*
X142809499Y-126478445D02*
X142846993Y-126489819D01*
X142881557Y-126508294D01*
X142911847Y-126533153D01*
X142936706Y-126563443D01*
X142955181Y-126598007D01*
X142966555Y-126635501D01*
X142971000Y-126680638D01*
X142971000Y-127319362D01*
X142966555Y-127364499D01*
X142955181Y-127401993D01*
X142936706Y-127436557D01*
X142911847Y-127466847D01*
X142881557Y-127491706D01*
X142846993Y-127510181D01*
X142809499Y-127521555D01*
X142764362Y-127526000D01*
X142025638Y-127526000D01*
X141980501Y-127521555D01*
X141943007Y-127510181D01*
X141908443Y-127491706D01*
X141878153Y-127466847D01*
X141853294Y-127436557D01*
X141834819Y-127401993D01*
X141823445Y-127364499D01*
X141819000Y-127319362D01*
X141819000Y-126680638D01*
X141823445Y-126635501D01*
X141834819Y-126598007D01*
X141853294Y-126563443D01*
X141878153Y-126533153D01*
X141908443Y-126508294D01*
X141943007Y-126489819D01*
X141980501Y-126478445D01*
X142025638Y-126474000D01*
X142764362Y-126474000D01*
X142809499Y-126478445D01*
X142809499Y-126478445D01*
G37*
G36*
X174496000Y-126101000D02*
X164994000Y-126101000D01*
X164994000Y-115199000D01*
X174496000Y-115199000D01*
X174496000Y-126101000D01*
X174496000Y-126101000D01*
G37*
G36*
X145196000Y-124766000D02*
X143094000Y-124766000D01*
X143094000Y-122884000D01*
X145196000Y-122884000D01*
X145196000Y-124766000D01*
X145196000Y-124766000D01*
G37*
G36*
X137576000Y-124766000D02*
X135474000Y-124766000D01*
X135474000Y-122884000D01*
X137576000Y-122884000D01*
X137576000Y-124766000D01*
X137576000Y-124766000D01*
G37*
G36*
X134004499Y-123303445D02*
X134041993Y-123314819D01*
X134076557Y-123333294D01*
X134106847Y-123358153D01*
X134131706Y-123388443D01*
X134150181Y-123423007D01*
X134161555Y-123460501D01*
X134166000Y-123505638D01*
X134166000Y-124144362D01*
X134161555Y-124189499D01*
X134150181Y-124226993D01*
X134131706Y-124261557D01*
X134106847Y-124291847D01*
X134076557Y-124316706D01*
X134041993Y-124335181D01*
X134004499Y-124346555D01*
X133959362Y-124351000D01*
X133220638Y-124351000D01*
X133175501Y-124346555D01*
X133138007Y-124335181D01*
X133103443Y-124316706D01*
X133073153Y-124291847D01*
X133048294Y-124261557D01*
X133029819Y-124226993D01*
X133018445Y-124189499D01*
X133014000Y-124144362D01*
X133014000Y-123505638D01*
X133018445Y-123460501D01*
X133029819Y-123423007D01*
X133048294Y-123388443D01*
X133073153Y-123358153D01*
X133103443Y-123333294D01*
X133138007Y-123314819D01*
X133175501Y-123303445D01*
X133220638Y-123299000D01*
X133959362Y-123299000D01*
X134004499Y-123303445D01*
X134004499Y-123303445D01*
G37*
G36*
X132254499Y-123303445D02*
X132291993Y-123314819D01*
X132326557Y-123333294D01*
X132356847Y-123358153D01*
X132381706Y-123388443D01*
X132400181Y-123423007D01*
X132411555Y-123460501D01*
X132416000Y-123505638D01*
X132416000Y-124144362D01*
X132411555Y-124189499D01*
X132400181Y-124226993D01*
X132381706Y-124261557D01*
X132356847Y-124291847D01*
X132326557Y-124316706D01*
X132291993Y-124335181D01*
X132254499Y-124346555D01*
X132209362Y-124351000D01*
X131470638Y-124351000D01*
X131425501Y-124346555D01*
X131388007Y-124335181D01*
X131353443Y-124316706D01*
X131323153Y-124291847D01*
X131298294Y-124261557D01*
X131279819Y-124226993D01*
X131268445Y-124189499D01*
X131264000Y-124144362D01*
X131264000Y-123505638D01*
X131268445Y-123460501D01*
X131279819Y-123423007D01*
X131298294Y-123388443D01*
X131323153Y-123358153D01*
X131353443Y-123333294D01*
X131388007Y-123314819D01*
X131425501Y-123303445D01*
X131470638Y-123299000D01*
X132209362Y-123299000D01*
X132254499Y-123303445D01*
X132254499Y-123303445D01*
G37*
G36*
X162946000Y-123791000D02*
X158244000Y-123791000D01*
X158244000Y-122589000D01*
X162946000Y-122589000D01*
X162946000Y-123791000D01*
X162946000Y-123791000D01*
G37*
G36*
X145196000Y-122226000D02*
X143094000Y-122226000D01*
X143094000Y-120344000D01*
X145196000Y-120344000D01*
X145196000Y-122226000D01*
X145196000Y-122226000D01*
G37*
G36*
X137576000Y-122226000D02*
X135474000Y-122226000D01*
X135474000Y-120344000D01*
X137576000Y-120344000D01*
X137576000Y-122226000D01*
X137576000Y-122226000D01*
G37*
G36*
X156574499Y-120953445D02*
X156611993Y-120964819D01*
X156646557Y-120983294D01*
X156676847Y-121008153D01*
X156701706Y-121038443D01*
X156720181Y-121073007D01*
X156731555Y-121110501D01*
X156736000Y-121155638D01*
X156736000Y-121894362D01*
X156731555Y-121939499D01*
X156720181Y-121976993D01*
X156701706Y-122011557D01*
X156676847Y-122041847D01*
X156646557Y-122066706D01*
X156611993Y-122085181D01*
X156574499Y-122096555D01*
X156529362Y-122101000D01*
X155890638Y-122101000D01*
X155845501Y-122096555D01*
X155808007Y-122085181D01*
X155773443Y-122066706D01*
X155743153Y-122041847D01*
X155718294Y-122011557D01*
X155699819Y-121976993D01*
X155688445Y-121939499D01*
X155684000Y-121894362D01*
X155684000Y-121155638D01*
X155688445Y-121110501D01*
X155699819Y-121073007D01*
X155718294Y-121038443D01*
X155743153Y-121008153D01*
X155773443Y-120983294D01*
X155808007Y-120964819D01*
X155845501Y-120953445D01*
X155890638Y-120949000D01*
X156529362Y-120949000D01*
X156574499Y-120953445D01*
X156574499Y-120953445D01*
G37*
G36*
X134004499Y-120763445D02*
X134041993Y-120774819D01*
X134076557Y-120793294D01*
X134106847Y-120818153D01*
X134131706Y-120848443D01*
X134150181Y-120883007D01*
X134161555Y-120920501D01*
X134166000Y-120965638D01*
X134166000Y-121604362D01*
X134161555Y-121649499D01*
X134150181Y-121686993D01*
X134131706Y-121721557D01*
X134106847Y-121751847D01*
X134076557Y-121776706D01*
X134041993Y-121795181D01*
X134004499Y-121806555D01*
X133959362Y-121811000D01*
X133220638Y-121811000D01*
X133175501Y-121806555D01*
X133138007Y-121795181D01*
X133103443Y-121776706D01*
X133073153Y-121751847D01*
X133048294Y-121721557D01*
X133029819Y-121686993D01*
X133018445Y-121649499D01*
X133014000Y-121604362D01*
X133014000Y-120965638D01*
X133018445Y-120920501D01*
X133029819Y-120883007D01*
X133048294Y-120848443D01*
X133073153Y-120818153D01*
X133103443Y-120793294D01*
X133138007Y-120774819D01*
X133175501Y-120763445D01*
X133220638Y-120759000D01*
X133959362Y-120759000D01*
X134004499Y-120763445D01*
X134004499Y-120763445D01*
G37*
G36*
X132254499Y-120763445D02*
X132291993Y-120774819D01*
X132326557Y-120793294D01*
X132356847Y-120818153D01*
X132381706Y-120848443D01*
X132400181Y-120883007D01*
X132411555Y-120920501D01*
X132416000Y-120965638D01*
X132416000Y-121604362D01*
X132411555Y-121649499D01*
X132400181Y-121686993D01*
X132381706Y-121721557D01*
X132356847Y-121751847D01*
X132326557Y-121776706D01*
X132291993Y-121795181D01*
X132254499Y-121806555D01*
X132209362Y-121811000D01*
X131470638Y-121811000D01*
X131425501Y-121806555D01*
X131388007Y-121795181D01*
X131353443Y-121776706D01*
X131323153Y-121751847D01*
X131298294Y-121721557D01*
X131279819Y-121686993D01*
X131268445Y-121649499D01*
X131264000Y-121604362D01*
X131264000Y-120965638D01*
X131268445Y-120920501D01*
X131279819Y-120883007D01*
X131298294Y-120848443D01*
X131323153Y-120818153D01*
X131353443Y-120793294D01*
X131388007Y-120774819D01*
X131425501Y-120763445D01*
X131470638Y-120759000D01*
X132209362Y-120759000D01*
X132254499Y-120763445D01*
X132254499Y-120763445D01*
G37*
G36*
X156574499Y-119203445D02*
X156611993Y-119214819D01*
X156646557Y-119233294D01*
X156676847Y-119258153D01*
X156701706Y-119288443D01*
X156720181Y-119323007D01*
X156731555Y-119360501D01*
X156736000Y-119405638D01*
X156736000Y-120144362D01*
X156731555Y-120189499D01*
X156720181Y-120226993D01*
X156701706Y-120261557D01*
X156676847Y-120291847D01*
X156646557Y-120316706D01*
X156611993Y-120335181D01*
X156574499Y-120346555D01*
X156529362Y-120351000D01*
X155890638Y-120351000D01*
X155845501Y-120346555D01*
X155808007Y-120335181D01*
X155773443Y-120316706D01*
X155743153Y-120291847D01*
X155718294Y-120261557D01*
X155699819Y-120226993D01*
X155688445Y-120189499D01*
X155684000Y-120144362D01*
X155684000Y-119405638D01*
X155688445Y-119360501D01*
X155699819Y-119323007D01*
X155718294Y-119288443D01*
X155743153Y-119258153D01*
X155773443Y-119233294D01*
X155808007Y-119214819D01*
X155845501Y-119203445D01*
X155890638Y-119199000D01*
X156529362Y-119199000D01*
X156574499Y-119203445D01*
X156574499Y-119203445D01*
G37*
G36*
X152648228Y-117291703D02*
X152803100Y-117355853D01*
X152942481Y-117448985D01*
X153061015Y-117567519D01*
X153154147Y-117706900D01*
X153218297Y-117861772D01*
X153251000Y-118026184D01*
X153251000Y-118193816D01*
X153218297Y-118358228D01*
X153154147Y-118513100D01*
X153061015Y-118652481D01*
X152942481Y-118771015D01*
X152803100Y-118864147D01*
X152648228Y-118928297D01*
X152483816Y-118961000D01*
X152316184Y-118961000D01*
X152151772Y-118928297D01*
X151996900Y-118864147D01*
X151857519Y-118771015D01*
X151738985Y-118652481D01*
X151645853Y-118513100D01*
X151581703Y-118358228D01*
X151549000Y-118193816D01*
X151549000Y-118026184D01*
X151581703Y-117861772D01*
X151645853Y-117706900D01*
X151738985Y-117567519D01*
X151857519Y-117448985D01*
X151996900Y-117355853D01*
X152151772Y-117291703D01*
X152316184Y-117259000D01*
X152483816Y-117259000D01*
X152648228Y-117291703D01*
X152648228Y-117291703D01*
G37*
G36*
X147648228Y-117291703D02*
X147803100Y-117355853D01*
X147942481Y-117448985D01*
X148061015Y-117567519D01*
X148154147Y-117706900D01*
X148218297Y-117861772D01*
X148251000Y-118026184D01*
X148251000Y-118193816D01*
X148218297Y-118358228D01*
X148154147Y-118513100D01*
X148061015Y-118652481D01*
X147942481Y-118771015D01*
X147803100Y-118864147D01*
X147648228Y-118928297D01*
X147483816Y-118961000D01*
X147316184Y-118961000D01*
X147151772Y-118928297D01*
X146996900Y-118864147D01*
X146857519Y-118771015D01*
X146738985Y-118652481D01*
X146645853Y-118513100D01*
X146581703Y-118358228D01*
X146549000Y-118193816D01*
X146549000Y-118026184D01*
X146581703Y-117861772D01*
X146645853Y-117706900D01*
X146738985Y-117567519D01*
X146857519Y-117448985D01*
X146996900Y-117355853D01*
X147151772Y-117291703D01*
X147316184Y-117259000D01*
X147483816Y-117259000D01*
X147648228Y-117291703D01*
X147648228Y-117291703D01*
G37*
G36*
X162946000Y-118711000D02*
X158244000Y-118711000D01*
X158244000Y-117509000D01*
X162946000Y-117509000D01*
X162946000Y-118711000D01*
X162946000Y-118711000D01*
G37*
G36*
X144559499Y-117588445D02*
X144596993Y-117599819D01*
X144631557Y-117618294D01*
X144661847Y-117643153D01*
X144686706Y-117673443D01*
X144705181Y-117708007D01*
X144716555Y-117745501D01*
X144721000Y-117790638D01*
X144721000Y-118429362D01*
X144716555Y-118474499D01*
X144705181Y-118511993D01*
X144686706Y-118546557D01*
X144661847Y-118576847D01*
X144631557Y-118601706D01*
X144596993Y-118620181D01*
X144559499Y-118631555D01*
X144514362Y-118636000D01*
X143775638Y-118636000D01*
X143730501Y-118631555D01*
X143693007Y-118620181D01*
X143658443Y-118601706D01*
X143628153Y-118576847D01*
X143603294Y-118546557D01*
X143584819Y-118511993D01*
X143573445Y-118474499D01*
X143569000Y-118429362D01*
X143569000Y-117790638D01*
X143573445Y-117745501D01*
X143584819Y-117708007D01*
X143603294Y-117673443D01*
X143628153Y-117643153D01*
X143658443Y-117618294D01*
X143693007Y-117599819D01*
X143730501Y-117588445D01*
X143775638Y-117584000D01*
X144514362Y-117584000D01*
X144559499Y-117588445D01*
X144559499Y-117588445D01*
G37*
G36*
X142809499Y-117588445D02*
X142846993Y-117599819D01*
X142881557Y-117618294D01*
X142911847Y-117643153D01*
X142936706Y-117673443D01*
X142955181Y-117708007D01*
X142966555Y-117745501D01*
X142971000Y-117790638D01*
X142971000Y-118429362D01*
X142966555Y-118474499D01*
X142955181Y-118511993D01*
X142936706Y-118546557D01*
X142911847Y-118576847D01*
X142881557Y-118601706D01*
X142846993Y-118620181D01*
X142809499Y-118631555D01*
X142764362Y-118636000D01*
X142025638Y-118636000D01*
X141980501Y-118631555D01*
X141943007Y-118620181D01*
X141908443Y-118601706D01*
X141878153Y-118576847D01*
X141853294Y-118546557D01*
X141834819Y-118511993D01*
X141823445Y-118474499D01*
X141819000Y-118429362D01*
X141819000Y-117790638D01*
X141823445Y-117745501D01*
X141834819Y-117708007D01*
X141853294Y-117673443D01*
X141878153Y-117643153D01*
X141908443Y-117618294D01*
X141943007Y-117599819D01*
X141980501Y-117588445D01*
X142025638Y-117584000D01*
X142764362Y-117584000D01*
X142809499Y-117588445D01*
X142809499Y-117588445D01*
G37*
G36*
X157499499Y-115937445D02*
X157536993Y-115948819D01*
X157571557Y-115967294D01*
X157601847Y-115992153D01*
X157626706Y-116022443D01*
X157645181Y-116057007D01*
X157656555Y-116094501D01*
X157661000Y-116139638D01*
X157661000Y-116778362D01*
X157656555Y-116823499D01*
X157645181Y-116860993D01*
X157626706Y-116895557D01*
X157601847Y-116925847D01*
X157571557Y-116950706D01*
X157536993Y-116969181D01*
X157499499Y-116980555D01*
X157454362Y-116985000D01*
X156715638Y-116985000D01*
X156670501Y-116980555D01*
X156633007Y-116969181D01*
X156598443Y-116950706D01*
X156568153Y-116925847D01*
X156543294Y-116895557D01*
X156524819Y-116860993D01*
X156513445Y-116823499D01*
X156509000Y-116778362D01*
X156509000Y-116139638D01*
X156513445Y-116094501D01*
X156524819Y-116057007D01*
X156543294Y-116022443D01*
X156568153Y-115992153D01*
X156598443Y-115967294D01*
X156633007Y-115948819D01*
X156670501Y-115937445D01*
X156715638Y-115933000D01*
X157454362Y-115933000D01*
X157499499Y-115937445D01*
X157499499Y-115937445D01*
G37*
G36*
X155749499Y-115937445D02*
X155786993Y-115948819D01*
X155821557Y-115967294D01*
X155851847Y-115992153D01*
X155876706Y-116022443D01*
X155895181Y-116057007D01*
X155906555Y-116094501D01*
X155911000Y-116139638D01*
X155911000Y-116778362D01*
X155906555Y-116823499D01*
X155895181Y-116860993D01*
X155876706Y-116895557D01*
X155851847Y-116925847D01*
X155821557Y-116950706D01*
X155786993Y-116969181D01*
X155749499Y-116980555D01*
X155704362Y-116985000D01*
X154965638Y-116985000D01*
X154920501Y-116980555D01*
X154883007Y-116969181D01*
X154848443Y-116950706D01*
X154818153Y-116925847D01*
X154793294Y-116895557D01*
X154774819Y-116860993D01*
X154763445Y-116823499D01*
X154759000Y-116778362D01*
X154759000Y-116139638D01*
X154763445Y-116094501D01*
X154774819Y-116057007D01*
X154793294Y-116022443D01*
X154818153Y-115992153D01*
X154848443Y-115967294D01*
X154883007Y-115948819D01*
X154920501Y-115937445D01*
X154965638Y-115933000D01*
X155704362Y-115933000D01*
X155749499Y-115937445D01*
X155749499Y-115937445D01*
G37*
G36*
X137576000Y-115876000D02*
X135474000Y-115876000D01*
X135474000Y-113994000D01*
X137576000Y-113994000D01*
X137576000Y-115876000D01*
X137576000Y-115876000D01*
G37*
G36*
X145196000Y-115876000D02*
X143094000Y-115876000D01*
X143094000Y-113994000D01*
X145196000Y-113994000D01*
X145196000Y-115876000D01*
X145196000Y-115876000D01*
G37*
G36*
X134004499Y-114413445D02*
X134041993Y-114424819D01*
X134076557Y-114443294D01*
X134106847Y-114468153D01*
X134131706Y-114498443D01*
X134150181Y-114533007D01*
X134161555Y-114570501D01*
X134166000Y-114615638D01*
X134166000Y-115254362D01*
X134161555Y-115299499D01*
X134150181Y-115336993D01*
X134131706Y-115371557D01*
X134106847Y-115401847D01*
X134076557Y-115426706D01*
X134041993Y-115445181D01*
X134004499Y-115456555D01*
X133959362Y-115461000D01*
X133220638Y-115461000D01*
X133175501Y-115456555D01*
X133138007Y-115445181D01*
X133103443Y-115426706D01*
X133073153Y-115401847D01*
X133048294Y-115371557D01*
X133029819Y-115336993D01*
X133018445Y-115299499D01*
X133014000Y-115254362D01*
X133014000Y-114615638D01*
X133018445Y-114570501D01*
X133029819Y-114533007D01*
X133048294Y-114498443D01*
X133073153Y-114468153D01*
X133103443Y-114443294D01*
X133138007Y-114424819D01*
X133175501Y-114413445D01*
X133220638Y-114409000D01*
X133959362Y-114409000D01*
X134004499Y-114413445D01*
X134004499Y-114413445D01*
G37*
G36*
X132254499Y-114413445D02*
X132291993Y-114424819D01*
X132326557Y-114443294D01*
X132356847Y-114468153D01*
X132381706Y-114498443D01*
X132400181Y-114533007D01*
X132411555Y-114570501D01*
X132416000Y-114615638D01*
X132416000Y-115254362D01*
X132411555Y-115299499D01*
X132400181Y-115336993D01*
X132381706Y-115371557D01*
X132356847Y-115401847D01*
X132326557Y-115426706D01*
X132291993Y-115445181D01*
X132254499Y-115456555D01*
X132209362Y-115461000D01*
X131470638Y-115461000D01*
X131425501Y-115456555D01*
X131388007Y-115445181D01*
X131353443Y-115426706D01*
X131323153Y-115401847D01*
X131298294Y-115371557D01*
X131279819Y-115336993D01*
X131268445Y-115299499D01*
X131264000Y-115254362D01*
X131264000Y-114615638D01*
X131268445Y-114570501D01*
X131279819Y-114533007D01*
X131298294Y-114498443D01*
X131323153Y-114468153D01*
X131353443Y-114443294D01*
X131388007Y-114424819D01*
X131425501Y-114413445D01*
X131470638Y-114409000D01*
X132209362Y-114409000D01*
X132254499Y-114413445D01*
X132254499Y-114413445D01*
G37*
G36*
X153386000Y-115286000D02*
X151734000Y-115286000D01*
X151734000Y-114584000D01*
X153386000Y-114584000D01*
X153386000Y-115286000D01*
X153386000Y-115286000D01*
G37*
G36*
X147986000Y-115286000D02*
X146334000Y-115286000D01*
X146334000Y-114584000D01*
X147986000Y-114584000D01*
X147986000Y-115286000D01*
X147986000Y-115286000D01*
G37*
G36*
X128505442Y-113245518D02*
X128571627Y-113252037D01*
X128684853Y-113286384D01*
X128741467Y-113303557D01*
X128880087Y-113377652D01*
X128897991Y-113387222D01*
X128933729Y-113416552D01*
X129035186Y-113499814D01*
X129118448Y-113601271D01*
X129147778Y-113637009D01*
X129147779Y-113637011D01*
X129231443Y-113793533D01*
X129231443Y-113793534D01*
X129282963Y-113963373D01*
X129300359Y-114140000D01*
X129282963Y-114316627D01*
X129254942Y-114409000D01*
X129231443Y-114486467D01*
X129210373Y-114525885D01*
X129147778Y-114642991D01*
X129123971Y-114672000D01*
X129035186Y-114780186D01*
X128933729Y-114863448D01*
X128897991Y-114892778D01*
X128897989Y-114892779D01*
X128741467Y-114976443D01*
X128684853Y-114993616D01*
X128571627Y-115027963D01*
X128505443Y-115034481D01*
X128439260Y-115041000D01*
X128100740Y-115041000D01*
X128034557Y-115034481D01*
X127968373Y-115027963D01*
X127855147Y-114993616D01*
X127798533Y-114976443D01*
X127642011Y-114892779D01*
X127642009Y-114892778D01*
X127606271Y-114863448D01*
X127504814Y-114780186D01*
X127416029Y-114672000D01*
X127392222Y-114642991D01*
X127329627Y-114525885D01*
X127308557Y-114486467D01*
X127285058Y-114409000D01*
X127257037Y-114316627D01*
X127239641Y-114140000D01*
X127257037Y-113963373D01*
X127308557Y-113793534D01*
X127308557Y-113793533D01*
X127392221Y-113637011D01*
X127392222Y-113637009D01*
X127421552Y-113601271D01*
X127504814Y-113499814D01*
X127606271Y-113416552D01*
X127642009Y-113387222D01*
X127659913Y-113377652D01*
X127798533Y-113303557D01*
X127855147Y-113286384D01*
X127968373Y-113252037D01*
X128034558Y-113245518D01*
X128100740Y-113239000D01*
X128439260Y-113239000D01*
X128505442Y-113245518D01*
X128505442Y-113245518D01*
G37*
G36*
X147986000Y-114016000D02*
X146334000Y-114016000D01*
X146334000Y-113314000D01*
X147986000Y-113314000D01*
X147986000Y-114016000D01*
X147986000Y-114016000D01*
G37*
G36*
X153386000Y-114016000D02*
X151734000Y-114016000D01*
X151734000Y-113314000D01*
X153386000Y-113314000D01*
X153386000Y-114016000D01*
X153386000Y-114016000D01*
G37*
G36*
X137576000Y-113336000D02*
X135474000Y-113336000D01*
X135474000Y-111454000D01*
X137576000Y-111454000D01*
X137576000Y-113336000D01*
X137576000Y-113336000D01*
G37*
G36*
X145196000Y-113336000D02*
X143094000Y-113336000D01*
X143094000Y-111454000D01*
X145196000Y-111454000D01*
X145196000Y-113336000D01*
X145196000Y-113336000D01*
G37*
G36*
X134004499Y-111873445D02*
X134041993Y-111884819D01*
X134076557Y-111903294D01*
X134106847Y-111928153D01*
X134131706Y-111958443D01*
X134150181Y-111993007D01*
X134161555Y-112030501D01*
X134166000Y-112075638D01*
X134166000Y-112714362D01*
X134161555Y-112759499D01*
X134150181Y-112796993D01*
X134131706Y-112831557D01*
X134106847Y-112861847D01*
X134076557Y-112886706D01*
X134041993Y-112905181D01*
X134004499Y-112916555D01*
X133959362Y-112921000D01*
X133220638Y-112921000D01*
X133175501Y-112916555D01*
X133138007Y-112905181D01*
X133103443Y-112886706D01*
X133073153Y-112861847D01*
X133048294Y-112831557D01*
X133029819Y-112796993D01*
X133018445Y-112759499D01*
X133014000Y-112714362D01*
X133014000Y-112075638D01*
X133018445Y-112030501D01*
X133029819Y-111993007D01*
X133048294Y-111958443D01*
X133073153Y-111928153D01*
X133103443Y-111903294D01*
X133138007Y-111884819D01*
X133175501Y-111873445D01*
X133220638Y-111869000D01*
X133959362Y-111869000D01*
X134004499Y-111873445D01*
X134004499Y-111873445D01*
G37*
G36*
X132254499Y-111873445D02*
X132291993Y-111884819D01*
X132326557Y-111903294D01*
X132356847Y-111928153D01*
X132381706Y-111958443D01*
X132400181Y-111993007D01*
X132411555Y-112030501D01*
X132416000Y-112075638D01*
X132416000Y-112714362D01*
X132411555Y-112759499D01*
X132400181Y-112796993D01*
X132381706Y-112831557D01*
X132356847Y-112861847D01*
X132326557Y-112886706D01*
X132291993Y-112905181D01*
X132254499Y-112916555D01*
X132209362Y-112921000D01*
X131470638Y-112921000D01*
X131425501Y-112916555D01*
X131388007Y-112905181D01*
X131353443Y-112886706D01*
X131323153Y-112861847D01*
X131298294Y-112831557D01*
X131279819Y-112796993D01*
X131268445Y-112759499D01*
X131264000Y-112714362D01*
X131264000Y-112075638D01*
X131268445Y-112030501D01*
X131279819Y-111993007D01*
X131298294Y-111958443D01*
X131323153Y-111928153D01*
X131353443Y-111903294D01*
X131388007Y-111884819D01*
X131425501Y-111873445D01*
X131470638Y-111869000D01*
X132209362Y-111869000D01*
X132254499Y-111873445D01*
X132254499Y-111873445D01*
G37*
G36*
X147986000Y-112746000D02*
X146334000Y-112746000D01*
X146334000Y-112044000D01*
X147986000Y-112044000D01*
X147986000Y-112746000D01*
X147986000Y-112746000D01*
G37*
G36*
X153386000Y-112746000D02*
X151734000Y-112746000D01*
X151734000Y-112044000D01*
X153386000Y-112044000D01*
X153386000Y-112746000D01*
X153386000Y-112746000D01*
G37*
G36*
X128505442Y-110745518D02*
X128571627Y-110752037D01*
X128644029Y-110774000D01*
X128741467Y-110803557D01*
X128880087Y-110877652D01*
X128897991Y-110887222D01*
X128933729Y-110916552D01*
X129035186Y-110999814D01*
X129118448Y-111101271D01*
X129147778Y-111137009D01*
X129147779Y-111137011D01*
X129231443Y-111293533D01*
X129231443Y-111293534D01*
X129282963Y-111463373D01*
X129300359Y-111640000D01*
X129282963Y-111816627D01*
X129267076Y-111869000D01*
X129231443Y-111986467D01*
X129183779Y-112075638D01*
X129147778Y-112142991D01*
X129118448Y-112178729D01*
X129035186Y-112280186D01*
X128933729Y-112363448D01*
X128897991Y-112392778D01*
X128897989Y-112392779D01*
X128741467Y-112476443D01*
X128684853Y-112493616D01*
X128571627Y-112527963D01*
X128505442Y-112534482D01*
X128439260Y-112541000D01*
X128100740Y-112541000D01*
X128034558Y-112534482D01*
X127968373Y-112527963D01*
X127855147Y-112493616D01*
X127798533Y-112476443D01*
X127642011Y-112392779D01*
X127642009Y-112392778D01*
X127606271Y-112363448D01*
X127504814Y-112280186D01*
X127421552Y-112178729D01*
X127392222Y-112142991D01*
X127356221Y-112075638D01*
X127308557Y-111986467D01*
X127272924Y-111869000D01*
X127257037Y-111816627D01*
X127239641Y-111640000D01*
X127257037Y-111463373D01*
X127308557Y-111293534D01*
X127308557Y-111293533D01*
X127392221Y-111137011D01*
X127392222Y-111137009D01*
X127421552Y-111101271D01*
X127504814Y-110999814D01*
X127606271Y-110916552D01*
X127642009Y-110887222D01*
X127659913Y-110877652D01*
X127798533Y-110803557D01*
X127895971Y-110774000D01*
X127968373Y-110752037D01*
X128034558Y-110745518D01*
X128100740Y-110739000D01*
X128439260Y-110739000D01*
X128505442Y-110745518D01*
X128505442Y-110745518D01*
G37*
G36*
X174496000Y-112131000D02*
X164994000Y-112131000D01*
X164994000Y-101229000D01*
X174496000Y-101229000D01*
X174496000Y-112131000D01*
X174496000Y-112131000D01*
G37*
G36*
X155749499Y-110540445D02*
X155786993Y-110551819D01*
X155821557Y-110570294D01*
X155851847Y-110595153D01*
X155876706Y-110625443D01*
X155895181Y-110660007D01*
X155906555Y-110697501D01*
X155911000Y-110742638D01*
X155911000Y-111381362D01*
X155906555Y-111426499D01*
X155895181Y-111463993D01*
X155876706Y-111498557D01*
X155851847Y-111528847D01*
X155821557Y-111553706D01*
X155786993Y-111572181D01*
X155749499Y-111583555D01*
X155704362Y-111588000D01*
X154965638Y-111588000D01*
X154920501Y-111583555D01*
X154883007Y-111572181D01*
X154848443Y-111553706D01*
X154818153Y-111528847D01*
X154793294Y-111498557D01*
X154774819Y-111463993D01*
X154763445Y-111426499D01*
X154759000Y-111381362D01*
X154759000Y-110742638D01*
X154763445Y-110697501D01*
X154774819Y-110660007D01*
X154793294Y-110625443D01*
X154818153Y-110595153D01*
X154848443Y-110570294D01*
X154883007Y-110551819D01*
X154920501Y-110540445D01*
X154965638Y-110536000D01*
X155704362Y-110536000D01*
X155749499Y-110540445D01*
X155749499Y-110540445D01*
G37*
G36*
X157499499Y-110540445D02*
X157536993Y-110551819D01*
X157571557Y-110570294D01*
X157601847Y-110595153D01*
X157626706Y-110625443D01*
X157645181Y-110660007D01*
X157656555Y-110697501D01*
X157661000Y-110742638D01*
X157661000Y-111381362D01*
X157656555Y-111426499D01*
X157645181Y-111463993D01*
X157626706Y-111498557D01*
X157601847Y-111528847D01*
X157571557Y-111553706D01*
X157536993Y-111572181D01*
X157499499Y-111583555D01*
X157454362Y-111588000D01*
X156715638Y-111588000D01*
X156670501Y-111583555D01*
X156633007Y-111572181D01*
X156598443Y-111553706D01*
X156568153Y-111528847D01*
X156543294Y-111498557D01*
X156524819Y-111463993D01*
X156513445Y-111426499D01*
X156509000Y-111381362D01*
X156509000Y-110742638D01*
X156513445Y-110697501D01*
X156524819Y-110660007D01*
X156543294Y-110625443D01*
X156568153Y-110595153D01*
X156598443Y-110570294D01*
X156633007Y-110551819D01*
X156670501Y-110540445D01*
X156715638Y-110536000D01*
X157454362Y-110536000D01*
X157499499Y-110540445D01*
X157499499Y-110540445D01*
G37*
G36*
X153386000Y-111476000D02*
X151734000Y-111476000D01*
X151734000Y-110774000D01*
X153386000Y-110774000D01*
X153386000Y-111476000D01*
X153386000Y-111476000D01*
G37*
G36*
X147986000Y-111476000D02*
X146334000Y-111476000D01*
X146334000Y-110774000D01*
X147986000Y-110774000D01*
X147986000Y-111476000D01*
X147986000Y-111476000D01*
G37*
G36*
X128505443Y-108245519D02*
X128571627Y-108252037D01*
X128684853Y-108286384D01*
X128741467Y-108303557D01*
X128880087Y-108377652D01*
X128897991Y-108387222D01*
X128933729Y-108416552D01*
X129035186Y-108499814D01*
X129118448Y-108601271D01*
X129147778Y-108637009D01*
X129147779Y-108637011D01*
X129231443Y-108793533D01*
X129238867Y-108818007D01*
X129282963Y-108963373D01*
X129300359Y-109140000D01*
X129282963Y-109316627D01*
X129260455Y-109390826D01*
X129231443Y-109486467D01*
X129179499Y-109583646D01*
X129147778Y-109642991D01*
X129126458Y-109668969D01*
X129035186Y-109780186D01*
X128933729Y-109863448D01*
X128897991Y-109892778D01*
X128897989Y-109892779D01*
X128741467Y-109976443D01*
X128684853Y-109993616D01*
X128571627Y-110027963D01*
X128505442Y-110034482D01*
X128439260Y-110041000D01*
X128100740Y-110041000D01*
X128034558Y-110034482D01*
X127968373Y-110027963D01*
X127855147Y-109993616D01*
X127798533Y-109976443D01*
X127642011Y-109892779D01*
X127642009Y-109892778D01*
X127606271Y-109863448D01*
X127504814Y-109780186D01*
X127413542Y-109668969D01*
X127392222Y-109642991D01*
X127360501Y-109583646D01*
X127308557Y-109486467D01*
X127279545Y-109390826D01*
X127257037Y-109316627D01*
X127239641Y-109140000D01*
X127257037Y-108963373D01*
X127301133Y-108818007D01*
X127308557Y-108793533D01*
X127392221Y-108637011D01*
X127392222Y-108637009D01*
X127421552Y-108601271D01*
X127504814Y-108499814D01*
X127606271Y-108416552D01*
X127642009Y-108387222D01*
X127659913Y-108377652D01*
X127798533Y-108303557D01*
X127855147Y-108286384D01*
X127968373Y-108252037D01*
X128034557Y-108245519D01*
X128100740Y-108239000D01*
X128439260Y-108239000D01*
X128505443Y-108245519D01*
X128505443Y-108245519D01*
G37*
G36*
X162946000Y-109821000D02*
X158244000Y-109821000D01*
X158244000Y-108619000D01*
X162946000Y-108619000D01*
X162946000Y-109821000D01*
X162946000Y-109821000D01*
G37*
G36*
X144559499Y-108698445D02*
X144596993Y-108709819D01*
X144631557Y-108728294D01*
X144661847Y-108753153D01*
X144686706Y-108783443D01*
X144705181Y-108818007D01*
X144716555Y-108855501D01*
X144721000Y-108900638D01*
X144721000Y-109539362D01*
X144716555Y-109584499D01*
X144705181Y-109621993D01*
X144686706Y-109656557D01*
X144661847Y-109686847D01*
X144631557Y-109711706D01*
X144596993Y-109730181D01*
X144559499Y-109741555D01*
X144514362Y-109746000D01*
X143775638Y-109746000D01*
X143730501Y-109741555D01*
X143693007Y-109730181D01*
X143658443Y-109711706D01*
X143628153Y-109686847D01*
X143603294Y-109656557D01*
X143584819Y-109621993D01*
X143573445Y-109584499D01*
X143569000Y-109539362D01*
X143569000Y-108900638D01*
X143573445Y-108855501D01*
X143584819Y-108818007D01*
X143603294Y-108783443D01*
X143628153Y-108753153D01*
X143658443Y-108728294D01*
X143693007Y-108709819D01*
X143730501Y-108698445D01*
X143775638Y-108694000D01*
X144514362Y-108694000D01*
X144559499Y-108698445D01*
X144559499Y-108698445D01*
G37*
G36*
X142809499Y-108698445D02*
X142846993Y-108709819D01*
X142881557Y-108728294D01*
X142911847Y-108753153D01*
X142936706Y-108783443D01*
X142955181Y-108818007D01*
X142966555Y-108855501D01*
X142971000Y-108900638D01*
X142971000Y-109539362D01*
X142966555Y-109584499D01*
X142955181Y-109621993D01*
X142936706Y-109656557D01*
X142911847Y-109686847D01*
X142881557Y-109711706D01*
X142846993Y-109730181D01*
X142809499Y-109741555D01*
X142764362Y-109746000D01*
X142025638Y-109746000D01*
X141980501Y-109741555D01*
X141943007Y-109730181D01*
X141908443Y-109711706D01*
X141878153Y-109686847D01*
X141853294Y-109656557D01*
X141834819Y-109621993D01*
X141823445Y-109584499D01*
X141819000Y-109539362D01*
X141819000Y-108900638D01*
X141823445Y-108855501D01*
X141834819Y-108818007D01*
X141853294Y-108783443D01*
X141878153Y-108753153D01*
X141908443Y-108728294D01*
X141943007Y-108709819D01*
X141980501Y-108698445D01*
X142025638Y-108694000D01*
X142764362Y-108694000D01*
X142809499Y-108698445D01*
X142809499Y-108698445D01*
G37*
G36*
X148978604Y-107663347D02*
X149015145Y-107674432D01*
X149048820Y-107692431D01*
X149078341Y-107716659D01*
X149102569Y-107746180D01*
X149120568Y-107779855D01*
X149131653Y-107816396D01*
X149136000Y-107860538D01*
X149136000Y-109309462D01*
X149131653Y-109353604D01*
X149120568Y-109390145D01*
X149102569Y-109423820D01*
X149078341Y-109453341D01*
X149048820Y-109477569D01*
X149015145Y-109495568D01*
X148978604Y-109506653D01*
X148934462Y-109511000D01*
X147985538Y-109511000D01*
X147941396Y-109506653D01*
X147904855Y-109495568D01*
X147871180Y-109477569D01*
X147841659Y-109453341D01*
X147817431Y-109423820D01*
X147799432Y-109390145D01*
X147788347Y-109353604D01*
X147784000Y-109309462D01*
X147784000Y-107860538D01*
X147788347Y-107816396D01*
X147799432Y-107779855D01*
X147817431Y-107746180D01*
X147841659Y-107716659D01*
X147871180Y-107692431D01*
X147904855Y-107674432D01*
X147941396Y-107663347D01*
X147985538Y-107659000D01*
X148934462Y-107659000D01*
X148978604Y-107663347D01*
X148978604Y-107663347D01*
G37*
G36*
X151778604Y-107663347D02*
X151815145Y-107674432D01*
X151848820Y-107692431D01*
X151878341Y-107716659D01*
X151902569Y-107746180D01*
X151920568Y-107779855D01*
X151931653Y-107816396D01*
X151936000Y-107860538D01*
X151936000Y-109309462D01*
X151931653Y-109353604D01*
X151920568Y-109390145D01*
X151902569Y-109423820D01*
X151878341Y-109453341D01*
X151848820Y-109477569D01*
X151815145Y-109495568D01*
X151778604Y-109506653D01*
X151734462Y-109511000D01*
X150785538Y-109511000D01*
X150741396Y-109506653D01*
X150704855Y-109495568D01*
X150671180Y-109477569D01*
X150641659Y-109453341D01*
X150617431Y-109423820D01*
X150599432Y-109390145D01*
X150588347Y-109353604D01*
X150584000Y-109309462D01*
X150584000Y-107860538D01*
X150588347Y-107816396D01*
X150599432Y-107779855D01*
X150617431Y-107746180D01*
X150641659Y-107716659D01*
X150671180Y-107692431D01*
X150704855Y-107674432D01*
X150741396Y-107663347D01*
X150785538Y-107659000D01*
X151734462Y-107659000D01*
X151778604Y-107663347D01*
X151778604Y-107663347D01*
G37*
G36*
X156574499Y-106743445D02*
X156611993Y-106754819D01*
X156646557Y-106773294D01*
X156676847Y-106798153D01*
X156701706Y-106828443D01*
X156720181Y-106863007D01*
X156731555Y-106900501D01*
X156736000Y-106945638D01*
X156736000Y-107684362D01*
X156731555Y-107729499D01*
X156720181Y-107766993D01*
X156701706Y-107801557D01*
X156676847Y-107831847D01*
X156646557Y-107856706D01*
X156611993Y-107875181D01*
X156574499Y-107886555D01*
X156529362Y-107891000D01*
X155890638Y-107891000D01*
X155845501Y-107886555D01*
X155808007Y-107875181D01*
X155773443Y-107856706D01*
X155743153Y-107831847D01*
X155718294Y-107801557D01*
X155699819Y-107766993D01*
X155688445Y-107729499D01*
X155684000Y-107684362D01*
X155684000Y-106945638D01*
X155688445Y-106900501D01*
X155699819Y-106863007D01*
X155718294Y-106828443D01*
X155743153Y-106798153D01*
X155773443Y-106773294D01*
X155808007Y-106754819D01*
X155845501Y-106743445D01*
X155890638Y-106739000D01*
X156529362Y-106739000D01*
X156574499Y-106743445D01*
X156574499Y-106743445D01*
G37*
G36*
X128505442Y-105745518D02*
X128571627Y-105752037D01*
X128684853Y-105786384D01*
X128741467Y-105803557D01*
X128759320Y-105813100D01*
X128897991Y-105887222D01*
X128933729Y-105916552D01*
X129035186Y-105999814D01*
X129114678Y-106096677D01*
X129147778Y-106137009D01*
X129147779Y-106137011D01*
X129231443Y-106293533D01*
X129231443Y-106293534D01*
X129282963Y-106463373D01*
X129300359Y-106640000D01*
X129282963Y-106816627D01*
X129257520Y-106900501D01*
X129231443Y-106986467D01*
X129223140Y-107002000D01*
X129147778Y-107142991D01*
X129118448Y-107178729D01*
X129035186Y-107280186D01*
X128933729Y-107363448D01*
X128897991Y-107392778D01*
X128897989Y-107392779D01*
X128741467Y-107476443D01*
X128684853Y-107493616D01*
X128571627Y-107527963D01*
X128505442Y-107534482D01*
X128439260Y-107541000D01*
X128100740Y-107541000D01*
X128034558Y-107534482D01*
X127968373Y-107527963D01*
X127855147Y-107493616D01*
X127798533Y-107476443D01*
X127642011Y-107392779D01*
X127642009Y-107392778D01*
X127606271Y-107363448D01*
X127504814Y-107280186D01*
X127421552Y-107178729D01*
X127392222Y-107142991D01*
X127316860Y-107002000D01*
X127308557Y-106986467D01*
X127282480Y-106900501D01*
X127257037Y-106816627D01*
X127239641Y-106640000D01*
X127257037Y-106463373D01*
X127308557Y-106293534D01*
X127308557Y-106293533D01*
X127392221Y-106137011D01*
X127392222Y-106137009D01*
X127425322Y-106096677D01*
X127504814Y-105999814D01*
X127606271Y-105916552D01*
X127642009Y-105887222D01*
X127780680Y-105813100D01*
X127798533Y-105803557D01*
X127855147Y-105786384D01*
X127968373Y-105752037D01*
X128034558Y-105745518D01*
X128100740Y-105739000D01*
X128439260Y-105739000D01*
X128505442Y-105745518D01*
X128505442Y-105745518D01*
G37*
G36*
X152568228Y-104591703D02*
X152723100Y-104655853D01*
X152862481Y-104748985D01*
X152981015Y-104867519D01*
X153074147Y-105006900D01*
X153138297Y-105161772D01*
X153171000Y-105326184D01*
X153171000Y-105493816D01*
X153138297Y-105658228D01*
X153074147Y-105813100D01*
X152981015Y-105952481D01*
X152862481Y-106071015D01*
X152723100Y-106164147D01*
X152568228Y-106228297D01*
X152403816Y-106261000D01*
X152236184Y-106261000D01*
X152071772Y-106228297D01*
X151916900Y-106164147D01*
X151777519Y-106071015D01*
X151658985Y-105952481D01*
X151565853Y-105813100D01*
X151501703Y-105658228D01*
X151469000Y-105493816D01*
X151469000Y-105326184D01*
X151501703Y-105161772D01*
X151565853Y-105006900D01*
X151658985Y-104867519D01*
X151777519Y-104748985D01*
X151916900Y-104655853D01*
X152071772Y-104591703D01*
X152236184Y-104559000D01*
X152403816Y-104559000D01*
X152568228Y-104591703D01*
X152568228Y-104591703D01*
G37*
G36*
X147568228Y-104591703D02*
X147723100Y-104655853D01*
X147862481Y-104748985D01*
X147981015Y-104867519D01*
X148074147Y-105006900D01*
X148138297Y-105161772D01*
X148171000Y-105326184D01*
X148171000Y-105493816D01*
X148138297Y-105658228D01*
X148074147Y-105813100D01*
X147981015Y-105952481D01*
X147862481Y-106071015D01*
X147723100Y-106164147D01*
X147568228Y-106228297D01*
X147403816Y-106261000D01*
X147236184Y-106261000D01*
X147071772Y-106228297D01*
X146916900Y-106164147D01*
X146777519Y-106071015D01*
X146658985Y-105952481D01*
X146565853Y-105813100D01*
X146501703Y-105658228D01*
X146469000Y-105493816D01*
X146469000Y-105326184D01*
X146501703Y-105161772D01*
X146565853Y-105006900D01*
X146658985Y-104867519D01*
X146777519Y-104748985D01*
X146916900Y-104655853D01*
X147071772Y-104591703D01*
X147236184Y-104559000D01*
X147403816Y-104559000D01*
X147568228Y-104591703D01*
X147568228Y-104591703D01*
G37*
G36*
X156574499Y-104993445D02*
X156611993Y-105004819D01*
X156646557Y-105023294D01*
X156676847Y-105048153D01*
X156701706Y-105078443D01*
X156720181Y-105113007D01*
X156731555Y-105150501D01*
X156736000Y-105195638D01*
X156736000Y-105934362D01*
X156731555Y-105979499D01*
X156720181Y-106016993D01*
X156701706Y-106051557D01*
X156676847Y-106081847D01*
X156646557Y-106106706D01*
X156611993Y-106125181D01*
X156574499Y-106136555D01*
X156529362Y-106141000D01*
X155890638Y-106141000D01*
X155845501Y-106136555D01*
X155808007Y-106125181D01*
X155773443Y-106106706D01*
X155743153Y-106081847D01*
X155718294Y-106051557D01*
X155699819Y-106016993D01*
X155688445Y-105979499D01*
X155684000Y-105934362D01*
X155684000Y-105195638D01*
X155688445Y-105150501D01*
X155699819Y-105113007D01*
X155718294Y-105078443D01*
X155743153Y-105048153D01*
X155773443Y-105023294D01*
X155808007Y-105004819D01*
X155845501Y-104993445D01*
X155890638Y-104989000D01*
X156529362Y-104989000D01*
X156574499Y-104993445D01*
X156574499Y-104993445D01*
G37*
G36*
X129153600Y-103242989D02*
X129186649Y-103253014D01*
X129217106Y-103269294D01*
X129243799Y-103291201D01*
X129265706Y-103317894D01*
X129281986Y-103348351D01*
X129292011Y-103381400D01*
X129296000Y-103421904D01*
X129296000Y-104858096D01*
X129292011Y-104898600D01*
X129281986Y-104931649D01*
X129265706Y-104962106D01*
X129243799Y-104988799D01*
X129217106Y-105010706D01*
X129186649Y-105026986D01*
X129153600Y-105037011D01*
X129113096Y-105041000D01*
X127426904Y-105041000D01*
X127386400Y-105037011D01*
X127353351Y-105026986D01*
X127322894Y-105010706D01*
X127296201Y-104988799D01*
X127274294Y-104962106D01*
X127258014Y-104931649D01*
X127247989Y-104898600D01*
X127244000Y-104858096D01*
X127244000Y-103421904D01*
X127247989Y-103381400D01*
X127258014Y-103348351D01*
X127274294Y-103317894D01*
X127296201Y-103291201D01*
X127322894Y-103269294D01*
X127353351Y-103253014D01*
X127386400Y-103242989D01*
X127426904Y-103239000D01*
X129113096Y-103239000D01*
X129153600Y-103242989D01*
X129153600Y-103242989D01*
G37*
G36*
X162946000Y-104741000D02*
X158244000Y-104741000D01*
X158244000Y-103539000D01*
X162946000Y-103539000D01*
X162946000Y-104741000D01*
X162946000Y-104741000D01*
G37*
G36*
X140543228Y-102686703D02*
X140698100Y-102750853D01*
X140837481Y-102843985D01*
X140956015Y-102962519D01*
X141049147Y-103101900D01*
X141113297Y-103256772D01*
X141146000Y-103421184D01*
X141146000Y-103588816D01*
X141113297Y-103753228D01*
X141049147Y-103908100D01*
X140956015Y-104047481D01*
X140837481Y-104166015D01*
X140698100Y-104259147D01*
X140543228Y-104323297D01*
X140378816Y-104356000D01*
X140211184Y-104356000D01*
X140046772Y-104323297D01*
X139891900Y-104259147D01*
X139752519Y-104166015D01*
X139633985Y-104047481D01*
X139540853Y-103908100D01*
X139476703Y-103753228D01*
X139444000Y-103588816D01*
X139444000Y-103421184D01*
X139476703Y-103256772D01*
X139540853Y-103101900D01*
X139633985Y-102962519D01*
X139752519Y-102843985D01*
X139891900Y-102750853D01*
X140046772Y-102686703D01*
X140211184Y-102654000D01*
X140378816Y-102654000D01*
X140543228Y-102686703D01*
X140543228Y-102686703D01*
G37*
G36*
X138646000Y-104356000D02*
X136944000Y-104356000D01*
X136944000Y-102654000D01*
X138646000Y-102654000D01*
X138646000Y-104356000D01*
X138646000Y-104356000D01*
G37*
G36*
X141773228Y-97606703D02*
X141928100Y-97670853D01*
X142067481Y-97763985D01*
X142186015Y-97882519D01*
X142279147Y-98021900D01*
X142343297Y-98176772D01*
X142376000Y-98341184D01*
X142376000Y-98508816D01*
X142343297Y-98673228D01*
X142279147Y-98828100D01*
X142186015Y-98967481D01*
X142067481Y-99086015D01*
X141928100Y-99179147D01*
X141773228Y-99243297D01*
X141608816Y-99276000D01*
X141441184Y-99276000D01*
X141276772Y-99243297D01*
X141121900Y-99179147D01*
X140982519Y-99086015D01*
X140863985Y-98967481D01*
X140770853Y-98828100D01*
X140706703Y-98673228D01*
X140674000Y-98508816D01*
X140674000Y-98341184D01*
X140706703Y-98176772D01*
X140770853Y-98021900D01*
X140863985Y-97882519D01*
X140982519Y-97763985D01*
X141121900Y-97670853D01*
X141276772Y-97606703D01*
X141441184Y-97574000D01*
X141608816Y-97574000D01*
X141773228Y-97606703D01*
X141773228Y-97606703D01*
G37*
G36*
X136773228Y-97606703D02*
X136928100Y-97670853D01*
X137067481Y-97763985D01*
X137186015Y-97882519D01*
X137279147Y-98021900D01*
X137343297Y-98176772D01*
X137376000Y-98341184D01*
X137376000Y-98508816D01*
X137343297Y-98673228D01*
X137279147Y-98828100D01*
X137186015Y-98967481D01*
X137067481Y-99086015D01*
X136928100Y-99179147D01*
X136773228Y-99243297D01*
X136608816Y-99276000D01*
X136441184Y-99276000D01*
X136276772Y-99243297D01*
X136121900Y-99179147D01*
X135982519Y-99086015D01*
X135863985Y-98967481D01*
X135770853Y-98828100D01*
X135706703Y-98673228D01*
X135674000Y-98508816D01*
X135674000Y-98341184D01*
X135706703Y-98176772D01*
X135770853Y-98021900D01*
X135863985Y-97882519D01*
X135982519Y-97763985D01*
X136121900Y-97670853D01*
X136276772Y-97606703D01*
X136441184Y-97574000D01*
X136608816Y-97574000D01*
X136773228Y-97606703D01*
X136773228Y-97606703D01*
G37*
G36*
X174496000Y-98161000D02*
X164994000Y-98161000D01*
X164994000Y-87259000D01*
X174496000Y-87259000D01*
X174496000Y-98161000D01*
X174496000Y-98161000D01*
G37*
G36*
X129257527Y-93738736D02*
X129357410Y-93758604D01*
X129639674Y-93875521D01*
X129893705Y-94045259D01*
X130109741Y-94261295D01*
X130279479Y-94515326D01*
X130396396Y-94797590D01*
X130456000Y-95097240D01*
X130456000Y-95402760D01*
X130396396Y-95702410D01*
X130279479Y-95984674D01*
X130109741Y-96238705D01*
X129893705Y-96454741D01*
X129639674Y-96624479D01*
X129357410Y-96741396D01*
X129257527Y-96761264D01*
X129057762Y-96801000D01*
X128752238Y-96801000D01*
X128552473Y-96761264D01*
X128452590Y-96741396D01*
X128170326Y-96624479D01*
X127916295Y-96454741D01*
X127700259Y-96238705D01*
X127530521Y-95984674D01*
X127413604Y-95702410D01*
X127354000Y-95402760D01*
X127354000Y-95097240D01*
X127413604Y-94797590D01*
X127530521Y-94515326D01*
X127700259Y-94261295D01*
X127916295Y-94045259D01*
X128170326Y-93875521D01*
X128452590Y-93758604D01*
X128552473Y-93738736D01*
X128752238Y-93699000D01*
X129057762Y-93699000D01*
X129257527Y-93738736D01*
X129257527Y-93738736D01*
G37*
G36*
X145051000Y-96296000D02*
X138549000Y-96296000D01*
X138549000Y-90394000D01*
X145051000Y-90394000D01*
X145051000Y-96296000D01*
X145051000Y-96296000D01*
G37*
G36*
X136651000Y-96276000D02*
X134349000Y-96276000D01*
X134349000Y-94974000D01*
X136651000Y-94974000D01*
X136651000Y-96276000D01*
X136651000Y-96276000D01*
G37*
G36*
X162946000Y-95851000D02*
X158244000Y-95851000D01*
X158244000Y-94649000D01*
X162946000Y-94649000D01*
X162946000Y-95851000D01*
X162946000Y-95851000D01*
G37*
G36*
X156574499Y-93013445D02*
X156611993Y-93024819D01*
X156646557Y-93043294D01*
X156676847Y-93068153D01*
X156701706Y-93098443D01*
X156720181Y-93133007D01*
X156731555Y-93170501D01*
X156736000Y-93215638D01*
X156736000Y-93954362D01*
X156731555Y-93999499D01*
X156720181Y-94036993D01*
X156701706Y-94071557D01*
X156676847Y-94101847D01*
X156646557Y-94126706D01*
X156611993Y-94145181D01*
X156574499Y-94156555D01*
X156529362Y-94161000D01*
X155890638Y-94161000D01*
X155845501Y-94156555D01*
X155808007Y-94145181D01*
X155773443Y-94126706D01*
X155743153Y-94101847D01*
X155718294Y-94071557D01*
X155699819Y-94036993D01*
X155688445Y-93999499D01*
X155684000Y-93954362D01*
X155684000Y-93215638D01*
X155688445Y-93170501D01*
X155699819Y-93133007D01*
X155718294Y-93098443D01*
X155743153Y-93068153D01*
X155773443Y-93043294D01*
X155808007Y-93024819D01*
X155845501Y-93013445D01*
X155890638Y-93009000D01*
X156529362Y-93009000D01*
X156574499Y-93013445D01*
X156574499Y-93013445D01*
G37*
G36*
X156574499Y-91263445D02*
X156611993Y-91274819D01*
X156646557Y-91293294D01*
X156676847Y-91318153D01*
X156701706Y-91348443D01*
X156720181Y-91383007D01*
X156731555Y-91420501D01*
X156736000Y-91465638D01*
X156736000Y-92204362D01*
X156731555Y-92249499D01*
X156720181Y-92286993D01*
X156701706Y-92321557D01*
X156676847Y-92351847D01*
X156646557Y-92376706D01*
X156611993Y-92395181D01*
X156574499Y-92406555D01*
X156529362Y-92411000D01*
X155890638Y-92411000D01*
X155845501Y-92406555D01*
X155808007Y-92395181D01*
X155773443Y-92376706D01*
X155743153Y-92351847D01*
X155718294Y-92321557D01*
X155699819Y-92286993D01*
X155688445Y-92249499D01*
X155684000Y-92204362D01*
X155684000Y-91465638D01*
X155688445Y-91420501D01*
X155699819Y-91383007D01*
X155718294Y-91348443D01*
X155743153Y-91318153D01*
X155773443Y-91293294D01*
X155808007Y-91274819D01*
X155845501Y-91263445D01*
X155890638Y-91259000D01*
X156529362Y-91259000D01*
X156574499Y-91263445D01*
X156574499Y-91263445D01*
G37*
G36*
X130456000Y-91721000D02*
X127354000Y-91721000D01*
X127354000Y-88619000D01*
X130456000Y-88619000D01*
X130456000Y-91721000D01*
X130456000Y-91721000D01*
G37*
G36*
X136651000Y-91716000D02*
X134349000Y-91716000D01*
X134349000Y-90414000D01*
X136651000Y-90414000D01*
X136651000Y-91716000D01*
X136651000Y-91716000D01*
G37*
G36*
X147648228Y-89351703D02*
X147803100Y-89415853D01*
X147942481Y-89508985D01*
X148061015Y-89627519D01*
X148154147Y-89766900D01*
X148218297Y-89921772D01*
X148251000Y-90086184D01*
X148251000Y-90253816D01*
X148218297Y-90418228D01*
X148154147Y-90573100D01*
X148061015Y-90712481D01*
X147942481Y-90831015D01*
X147803100Y-90924147D01*
X147648228Y-90988297D01*
X147483816Y-91021000D01*
X147316184Y-91021000D01*
X147151772Y-90988297D01*
X146996900Y-90924147D01*
X146857519Y-90831015D01*
X146738985Y-90712481D01*
X146645853Y-90573100D01*
X146581703Y-90418228D01*
X146549000Y-90253816D01*
X146549000Y-90086184D01*
X146581703Y-89921772D01*
X146645853Y-89766900D01*
X146738985Y-89627519D01*
X146857519Y-89508985D01*
X146996900Y-89415853D01*
X147151772Y-89351703D01*
X147316184Y-89319000D01*
X147483816Y-89319000D01*
X147648228Y-89351703D01*
X147648228Y-89351703D01*
G37*
G36*
X152648228Y-89351703D02*
X152803100Y-89415853D01*
X152942481Y-89508985D01*
X153061015Y-89627519D01*
X153154147Y-89766900D01*
X153218297Y-89921772D01*
X153251000Y-90086184D01*
X153251000Y-90253816D01*
X153218297Y-90418228D01*
X153154147Y-90573100D01*
X153061015Y-90712481D01*
X152942481Y-90831015D01*
X152803100Y-90924147D01*
X152648228Y-90988297D01*
X152483816Y-91021000D01*
X152316184Y-91021000D01*
X152151772Y-90988297D01*
X151996900Y-90924147D01*
X151857519Y-90831015D01*
X151738985Y-90712481D01*
X151645853Y-90573100D01*
X151581703Y-90418228D01*
X151549000Y-90253816D01*
X151549000Y-90086184D01*
X151581703Y-89921772D01*
X151645853Y-89766900D01*
X151738985Y-89627519D01*
X151857519Y-89508985D01*
X151996900Y-89415853D01*
X152151772Y-89351703D01*
X152316184Y-89319000D01*
X152483816Y-89319000D01*
X152648228Y-89351703D01*
X152648228Y-89351703D01*
G37*
G36*
X162946000Y-90771000D02*
X158244000Y-90771000D01*
X158244000Y-89569000D01*
X162946000Y-89569000D01*
X162946000Y-90771000D01*
X162946000Y-90771000D01*
G37*
G36*
X136773228Y-87446703D02*
X136928100Y-87510853D01*
X137067481Y-87603985D01*
X137186015Y-87722519D01*
X137279147Y-87861900D01*
X137343297Y-88016772D01*
X137376000Y-88181184D01*
X137376000Y-88348816D01*
X137343297Y-88513228D01*
X137279147Y-88668100D01*
X137186015Y-88807481D01*
X137067481Y-88926015D01*
X136928100Y-89019147D01*
X136773228Y-89083297D01*
X136608816Y-89116000D01*
X136441184Y-89116000D01*
X136276772Y-89083297D01*
X136121900Y-89019147D01*
X135982519Y-88926015D01*
X135863985Y-88807481D01*
X135770853Y-88668100D01*
X135706703Y-88513228D01*
X135674000Y-88348816D01*
X135674000Y-88181184D01*
X135706703Y-88016772D01*
X135770853Y-87861900D01*
X135863985Y-87722519D01*
X135982519Y-87603985D01*
X136121900Y-87510853D01*
X136276772Y-87446703D01*
X136441184Y-87414000D01*
X136608816Y-87414000D01*
X136773228Y-87446703D01*
X136773228Y-87446703D01*
G37*
G36*
X141773228Y-87446703D02*
X141928100Y-87510853D01*
X142067481Y-87603985D01*
X142186015Y-87722519D01*
X142279147Y-87861900D01*
X142343297Y-88016772D01*
X142376000Y-88181184D01*
X142376000Y-88348816D01*
X142343297Y-88513228D01*
X142279147Y-88668100D01*
X142186015Y-88807481D01*
X142067481Y-88926015D01*
X141928100Y-89019147D01*
X141773228Y-89083297D01*
X141608816Y-89116000D01*
X141441184Y-89116000D01*
X141276772Y-89083297D01*
X141121900Y-89019147D01*
X140982519Y-88926015D01*
X140863985Y-88807481D01*
X140770853Y-88668100D01*
X140706703Y-88513228D01*
X140674000Y-88348816D01*
X140674000Y-88181184D01*
X140706703Y-88016772D01*
X140770853Y-87861900D01*
X140863985Y-87722519D01*
X140982519Y-87603985D01*
X141121900Y-87510853D01*
X141276772Y-87446703D01*
X141441184Y-87414000D01*
X141608816Y-87414000D01*
X141773228Y-87446703D01*
X141773228Y-87446703D01*
G37*
G36*
X157499499Y-87997445D02*
X157536993Y-88008819D01*
X157571557Y-88027294D01*
X157601847Y-88052153D01*
X157626706Y-88082443D01*
X157645181Y-88117007D01*
X157656555Y-88154501D01*
X157661000Y-88199638D01*
X157661000Y-88838362D01*
X157656555Y-88883499D01*
X157645181Y-88920993D01*
X157626706Y-88955557D01*
X157601847Y-88985847D01*
X157571557Y-89010706D01*
X157536993Y-89029181D01*
X157499499Y-89040555D01*
X157454362Y-89045000D01*
X156715638Y-89045000D01*
X156670501Y-89040555D01*
X156633007Y-89029181D01*
X156598443Y-89010706D01*
X156568153Y-88985847D01*
X156543294Y-88955557D01*
X156524819Y-88920993D01*
X156513445Y-88883499D01*
X156509000Y-88838362D01*
X156509000Y-88199638D01*
X156513445Y-88154501D01*
X156524819Y-88117007D01*
X156543294Y-88082443D01*
X156568153Y-88052153D01*
X156598443Y-88027294D01*
X156633007Y-88008819D01*
X156670501Y-87997445D01*
X156715638Y-87993000D01*
X157454362Y-87993000D01*
X157499499Y-87997445D01*
X157499499Y-87997445D01*
G37*
G36*
X155749499Y-87997445D02*
X155786993Y-88008819D01*
X155821557Y-88027294D01*
X155851847Y-88052153D01*
X155876706Y-88082443D01*
X155895181Y-88117007D01*
X155906555Y-88154501D01*
X155911000Y-88199638D01*
X155911000Y-88838362D01*
X155906555Y-88883499D01*
X155895181Y-88920993D01*
X155876706Y-88955557D01*
X155851847Y-88985847D01*
X155821557Y-89010706D01*
X155786993Y-89029181D01*
X155749499Y-89040555D01*
X155704362Y-89045000D01*
X154965638Y-89045000D01*
X154920501Y-89040555D01*
X154883007Y-89029181D01*
X154848443Y-89010706D01*
X154818153Y-88985847D01*
X154793294Y-88955557D01*
X154774819Y-88920993D01*
X154763445Y-88883499D01*
X154759000Y-88838362D01*
X154759000Y-88199638D01*
X154763445Y-88154501D01*
X154774819Y-88117007D01*
X154793294Y-88082443D01*
X154818153Y-88052153D01*
X154848443Y-88027294D01*
X154883007Y-88008819D01*
X154920501Y-87997445D01*
X154965638Y-87993000D01*
X155704362Y-87993000D01*
X155749499Y-87997445D01*
X155749499Y-87997445D01*
G37*
G36*
X153386000Y-87346000D02*
X151734000Y-87346000D01*
X151734000Y-86644000D01*
X153386000Y-86644000D01*
X153386000Y-87346000D01*
X153386000Y-87346000D01*
G37*
G36*
X147986000Y-87346000D02*
X146334000Y-87346000D01*
X146334000Y-86644000D01*
X147986000Y-86644000D01*
X147986000Y-87346000D01*
X147986000Y-87346000D01*
G37*
G36*
X129215966Y-83570469D02*
X129357410Y-83598604D01*
X129639674Y-83715521D01*
X129893705Y-83885259D01*
X130109741Y-84101295D01*
X130279479Y-84355326D01*
X130396396Y-84637590D01*
X130456000Y-84937240D01*
X130456000Y-85242760D01*
X130396396Y-85542410D01*
X130279479Y-85824674D01*
X130109741Y-86078705D01*
X129893705Y-86294741D01*
X129639674Y-86464479D01*
X129357410Y-86581396D01*
X129257527Y-86601264D01*
X129057762Y-86641000D01*
X128752238Y-86641000D01*
X128552473Y-86601264D01*
X128452590Y-86581396D01*
X128170326Y-86464479D01*
X127916295Y-86294741D01*
X127700259Y-86078705D01*
X127530521Y-85824674D01*
X127413604Y-85542410D01*
X127354000Y-85242760D01*
X127354000Y-84937240D01*
X127413604Y-84637590D01*
X127530521Y-84355326D01*
X127700259Y-84101295D01*
X127916295Y-83885259D01*
X128170326Y-83715521D01*
X128452590Y-83598604D01*
X128594034Y-83570469D01*
X128752238Y-83539000D01*
X129057762Y-83539000D01*
X129215966Y-83570469D01*
X129215966Y-83570469D01*
G37*
G36*
X147986000Y-86076000D02*
X146334000Y-86076000D01*
X146334000Y-85374000D01*
X147986000Y-85374000D01*
X147986000Y-86076000D01*
X147986000Y-86076000D01*
G37*
G36*
X153386000Y-86076000D02*
X151734000Y-86076000D01*
X151734000Y-85374000D01*
X153386000Y-85374000D01*
X153386000Y-86076000D01*
X153386000Y-86076000D01*
G37*
G36*
X147986000Y-84806000D02*
X146334000Y-84806000D01*
X146334000Y-84104000D01*
X147986000Y-84104000D01*
X147986000Y-84806000D01*
X147986000Y-84806000D01*
G37*
G36*
X153386000Y-84806000D02*
X151734000Y-84806000D01*
X151734000Y-84104000D01*
X153386000Y-84104000D01*
X153386000Y-84806000D01*
X153386000Y-84806000D01*
G37*
G36*
X174496000Y-84191000D02*
X164994000Y-84191000D01*
X164994000Y-73289000D01*
X174496000Y-73289000D01*
X174496000Y-84191000D01*
X174496000Y-84191000D01*
G37*
G36*
X138646000Y-84036000D02*
X136944000Y-84036000D01*
X136944000Y-82334000D01*
X138646000Y-82334000D01*
X138646000Y-84036000D01*
X138646000Y-84036000D01*
G37*
G36*
X140543228Y-82366703D02*
X140698100Y-82430853D01*
X140837481Y-82523985D01*
X140956015Y-82642519D01*
X141049147Y-82781900D01*
X141113297Y-82936772D01*
X141146000Y-83101184D01*
X141146000Y-83268816D01*
X141113297Y-83433228D01*
X141049147Y-83588100D01*
X140956015Y-83727481D01*
X140837481Y-83846015D01*
X140698100Y-83939147D01*
X140543228Y-84003297D01*
X140378816Y-84036000D01*
X140211184Y-84036000D01*
X140046772Y-84003297D01*
X139891900Y-83939147D01*
X139752519Y-83846015D01*
X139633985Y-83727481D01*
X139540853Y-83588100D01*
X139476703Y-83433228D01*
X139444000Y-83268816D01*
X139444000Y-83101184D01*
X139476703Y-82936772D01*
X139540853Y-82781900D01*
X139633985Y-82642519D01*
X139752519Y-82523985D01*
X139891900Y-82430853D01*
X140046772Y-82366703D01*
X140211184Y-82334000D01*
X140378816Y-82334000D01*
X140543228Y-82366703D01*
X140543228Y-82366703D01*
G37*
G36*
X157499499Y-82599945D02*
X157536993Y-82611319D01*
X157571557Y-82629794D01*
X157601847Y-82654653D01*
X157626706Y-82684943D01*
X157645181Y-82719507D01*
X157656555Y-82757001D01*
X157661000Y-82802138D01*
X157661000Y-83440862D01*
X157656555Y-83485999D01*
X157645181Y-83523493D01*
X157626706Y-83558057D01*
X157601847Y-83588347D01*
X157571557Y-83613206D01*
X157536993Y-83631681D01*
X157499499Y-83643055D01*
X157454362Y-83647500D01*
X156715638Y-83647500D01*
X156670501Y-83643055D01*
X156633007Y-83631681D01*
X156598443Y-83613206D01*
X156568153Y-83588347D01*
X156543294Y-83558057D01*
X156524819Y-83523493D01*
X156513445Y-83485999D01*
X156509000Y-83440862D01*
X156509000Y-82802138D01*
X156513445Y-82757001D01*
X156524819Y-82719507D01*
X156543294Y-82684943D01*
X156568153Y-82654653D01*
X156598443Y-82629794D01*
X156633007Y-82611319D01*
X156670501Y-82599945D01*
X156715638Y-82595500D01*
X157454362Y-82595500D01*
X157499499Y-82599945D01*
X157499499Y-82599945D01*
G37*
G36*
X155749499Y-82599945D02*
X155786993Y-82611319D01*
X155821557Y-82629794D01*
X155851847Y-82654653D01*
X155876706Y-82684943D01*
X155895181Y-82719507D01*
X155906555Y-82757001D01*
X155911000Y-82802138D01*
X155911000Y-83440862D01*
X155906555Y-83485999D01*
X155895181Y-83523493D01*
X155876706Y-83558057D01*
X155851847Y-83588347D01*
X155821557Y-83613206D01*
X155786993Y-83631681D01*
X155749499Y-83643055D01*
X155704362Y-83647500D01*
X154965638Y-83647500D01*
X154920501Y-83643055D01*
X154883007Y-83631681D01*
X154848443Y-83613206D01*
X154818153Y-83588347D01*
X154793294Y-83558057D01*
X154774819Y-83523493D01*
X154763445Y-83485999D01*
X154759000Y-83440862D01*
X154759000Y-82802138D01*
X154763445Y-82757001D01*
X154774819Y-82719507D01*
X154793294Y-82684943D01*
X154818153Y-82654653D01*
X154848443Y-82629794D01*
X154883007Y-82611319D01*
X154920501Y-82599945D01*
X154965638Y-82595500D01*
X155704362Y-82595500D01*
X155749499Y-82599945D01*
X155749499Y-82599945D01*
G37*
G36*
X153386000Y-83536000D02*
X151734000Y-83536000D01*
X151734000Y-82834000D01*
X153386000Y-82834000D01*
X153386000Y-83536000D01*
X153386000Y-83536000D01*
G37*
G36*
X147986000Y-83536000D02*
X146334000Y-83536000D01*
X146334000Y-82834000D01*
X147986000Y-82834000D01*
X147986000Y-83536000D01*
X147986000Y-83536000D01*
G37*
G36*
X162946000Y-81881000D02*
X158244000Y-81881000D01*
X158244000Y-80679000D01*
X162946000Y-80679000D01*
X162946000Y-81881000D01*
X162946000Y-81881000D01*
G37*
G36*
X148978604Y-79723347D02*
X149015145Y-79734432D01*
X149048820Y-79752431D01*
X149078341Y-79776659D01*
X149102569Y-79806180D01*
X149120568Y-79839855D01*
X149131653Y-79876396D01*
X149136000Y-79920538D01*
X149136000Y-81369462D01*
X149131653Y-81413604D01*
X149120568Y-81450145D01*
X149102569Y-81483820D01*
X149078341Y-81513341D01*
X149048820Y-81537569D01*
X149015145Y-81555568D01*
X148978604Y-81566653D01*
X148934462Y-81571000D01*
X147985538Y-81571000D01*
X147941396Y-81566653D01*
X147904855Y-81555568D01*
X147871180Y-81537569D01*
X147841659Y-81513341D01*
X147817431Y-81483820D01*
X147799432Y-81450145D01*
X147788347Y-81413604D01*
X147784000Y-81369462D01*
X147784000Y-79920538D01*
X147788347Y-79876396D01*
X147799432Y-79839855D01*
X147817431Y-79806180D01*
X147841659Y-79776659D01*
X147871180Y-79752431D01*
X147904855Y-79734432D01*
X147941396Y-79723347D01*
X147985538Y-79719000D01*
X148934462Y-79719000D01*
X148978604Y-79723347D01*
X148978604Y-79723347D01*
G37*
G36*
X151778604Y-79723347D02*
X151815145Y-79734432D01*
X151848820Y-79752431D01*
X151878341Y-79776659D01*
X151902569Y-79806180D01*
X151920568Y-79839855D01*
X151931653Y-79876396D01*
X151936000Y-79920538D01*
X151936000Y-81369462D01*
X151931653Y-81413604D01*
X151920568Y-81450145D01*
X151902569Y-81483820D01*
X151878341Y-81513341D01*
X151848820Y-81537569D01*
X151815145Y-81555568D01*
X151778604Y-81566653D01*
X151734462Y-81571000D01*
X150785538Y-81571000D01*
X150741396Y-81566653D01*
X150704855Y-81555568D01*
X150671180Y-81537569D01*
X150641659Y-81513341D01*
X150617431Y-81483820D01*
X150599432Y-81450145D01*
X150588347Y-81413604D01*
X150584000Y-81369462D01*
X150584000Y-79920538D01*
X150588347Y-79876396D01*
X150599432Y-79839855D01*
X150617431Y-79806180D01*
X150641659Y-79776659D01*
X150671180Y-79752431D01*
X150704855Y-79734432D01*
X150741396Y-79723347D01*
X150785538Y-79719000D01*
X151734462Y-79719000D01*
X151778604Y-79723347D01*
X151778604Y-79723347D01*
G37*
G36*
X130456000Y-81561000D02*
X127354000Y-81561000D01*
X127354000Y-78459000D01*
X130456000Y-78459000D01*
X130456000Y-81561000D01*
X130456000Y-81561000D01*
G37*
G36*
X156574499Y-79043445D02*
X156611993Y-79054819D01*
X156646557Y-79073294D01*
X156676847Y-79098153D01*
X156701706Y-79128443D01*
X156720181Y-79163007D01*
X156731555Y-79200501D01*
X156736000Y-79245638D01*
X156736000Y-79984362D01*
X156731555Y-80029499D01*
X156720181Y-80066993D01*
X156701706Y-80101557D01*
X156676847Y-80131847D01*
X156646557Y-80156706D01*
X156611993Y-80175181D01*
X156574499Y-80186555D01*
X156529362Y-80191000D01*
X155890638Y-80191000D01*
X155845501Y-80186555D01*
X155808007Y-80175181D01*
X155773443Y-80156706D01*
X155743153Y-80131847D01*
X155718294Y-80101557D01*
X155699819Y-80066993D01*
X155688445Y-80029499D01*
X155684000Y-79984362D01*
X155684000Y-79245638D01*
X155688445Y-79200501D01*
X155699819Y-79163007D01*
X155718294Y-79128443D01*
X155743153Y-79098153D01*
X155773443Y-79073294D01*
X155808007Y-79054819D01*
X155845501Y-79043445D01*
X155890638Y-79039000D01*
X156529362Y-79039000D01*
X156574499Y-79043445D01*
X156574499Y-79043445D01*
G37*
G36*
X156574499Y-77293445D02*
X156611993Y-77304819D01*
X156646557Y-77323294D01*
X156676847Y-77348153D01*
X156701706Y-77378443D01*
X156720181Y-77413007D01*
X156731555Y-77450501D01*
X156736000Y-77495638D01*
X156736000Y-78234362D01*
X156731555Y-78279499D01*
X156720181Y-78316993D01*
X156701706Y-78351557D01*
X156676847Y-78381847D01*
X156646557Y-78406706D01*
X156611993Y-78425181D01*
X156574499Y-78436555D01*
X156529362Y-78441000D01*
X155890638Y-78441000D01*
X155845501Y-78436555D01*
X155808007Y-78425181D01*
X155773443Y-78406706D01*
X155743153Y-78381847D01*
X155718294Y-78351557D01*
X155699819Y-78316993D01*
X155688445Y-78279499D01*
X155684000Y-78234362D01*
X155684000Y-77495638D01*
X155688445Y-77450501D01*
X155699819Y-77413007D01*
X155718294Y-77378443D01*
X155743153Y-77348153D01*
X155773443Y-77323294D01*
X155808007Y-77304819D01*
X155845501Y-77293445D01*
X155890638Y-77289000D01*
X156529362Y-77289000D01*
X156574499Y-77293445D01*
X156574499Y-77293445D01*
G37*
G36*
X147568228Y-76651703D02*
X147723100Y-76715853D01*
X147862481Y-76808985D01*
X147981015Y-76927519D01*
X148074147Y-77066900D01*
X148138297Y-77221772D01*
X148171000Y-77386184D01*
X148171000Y-77553816D01*
X148138297Y-77718228D01*
X148074147Y-77873100D01*
X147981015Y-78012481D01*
X147862481Y-78131015D01*
X147723100Y-78224147D01*
X147568228Y-78288297D01*
X147403816Y-78321000D01*
X147236184Y-78321000D01*
X147071772Y-78288297D01*
X146916900Y-78224147D01*
X146777519Y-78131015D01*
X146658985Y-78012481D01*
X146565853Y-77873100D01*
X146501703Y-77718228D01*
X146469000Y-77553816D01*
X146469000Y-77386184D01*
X146501703Y-77221772D01*
X146565853Y-77066900D01*
X146658985Y-76927519D01*
X146777519Y-76808985D01*
X146916900Y-76715853D01*
X147071772Y-76651703D01*
X147236184Y-76619000D01*
X147403816Y-76619000D01*
X147568228Y-76651703D01*
X147568228Y-76651703D01*
G37*
G36*
X152568228Y-76651703D02*
X152723100Y-76715853D01*
X152862481Y-76808985D01*
X152981015Y-76927519D01*
X153074147Y-77066900D01*
X153138297Y-77221772D01*
X153171000Y-77386184D01*
X153171000Y-77553816D01*
X153138297Y-77718228D01*
X153074147Y-77873100D01*
X152981015Y-78012481D01*
X152862481Y-78131015D01*
X152723100Y-78224147D01*
X152568228Y-78288297D01*
X152403816Y-78321000D01*
X152236184Y-78321000D01*
X152071772Y-78288297D01*
X151916900Y-78224147D01*
X151777519Y-78131015D01*
X151658985Y-78012481D01*
X151565853Y-77873100D01*
X151501703Y-77718228D01*
X151469000Y-77553816D01*
X151469000Y-77386184D01*
X151501703Y-77221772D01*
X151565853Y-77066900D01*
X151658985Y-76927519D01*
X151777519Y-76808985D01*
X151916900Y-76715853D01*
X152071772Y-76651703D01*
X152236184Y-76619000D01*
X152403816Y-76619000D01*
X152568228Y-76651703D01*
X152568228Y-76651703D01*
G37*
G36*
X162946000Y-76801000D02*
X158244000Y-76801000D01*
X158244000Y-75599000D01*
X162946000Y-75599000D01*
X162946000Y-76801000D01*
X162946000Y-76801000D01*
G37*
G36*
X137776000Y-73641000D02*
X135274000Y-73641000D01*
X135274000Y-71139000D01*
X137776000Y-71139000D01*
X137776000Y-73641000D01*
X137776000Y-73641000D01*
G37*
G36*
X141708636Y-71151019D02*
X141889903Y-71187075D01*
X142117571Y-71281378D01*
X142321542Y-71417668D01*
X142322469Y-71418287D01*
X142496713Y-71592531D01*
X142496715Y-71592534D01*
X142633622Y-71797429D01*
X142727925Y-72025097D01*
X142776000Y-72266787D01*
X142776000Y-72513213D01*
X142727925Y-72754903D01*
X142633622Y-72982571D01*
X142497332Y-73186542D01*
X142496713Y-73187469D01*
X142322469Y-73361713D01*
X142322466Y-73361715D01*
X142117571Y-73498622D01*
X141889903Y-73592925D01*
X141708636Y-73628981D01*
X141648214Y-73641000D01*
X141401786Y-73641000D01*
X141341364Y-73628981D01*
X141160097Y-73592925D01*
X140932429Y-73498622D01*
X140727534Y-73361715D01*
X140727531Y-73361713D01*
X140553287Y-73187469D01*
X140552668Y-73186542D01*
X140416378Y-72982571D01*
X140322075Y-72754903D01*
X140274000Y-72513213D01*
X140274000Y-72266787D01*
X140322075Y-72025097D01*
X140416378Y-71797429D01*
X140553285Y-71592534D01*
X140553287Y-71592531D01*
X140727531Y-71418287D01*
X140728458Y-71417668D01*
X140932429Y-71281378D01*
X141160097Y-71187075D01*
X141341364Y-71151019D01*
X141401786Y-71139000D01*
X141648214Y-71139000D01*
X141708636Y-71151019D01*
X141708636Y-71151019D01*
G37*
M02*
