G04 #@! TF.GenerationSoftware,KiCad,Pcbnew,5.0.1-33cea8e~68~ubuntu16.04.1*
G04 #@! TF.CreationDate,2018-11-22T10:51:10+09:00*
G04 #@! TF.ProjectId,BS2103F_photo,425332313033465F70686F746F2E6B69,rev?*
G04 #@! TF.SameCoordinates,Original*
G04 #@! TF.FileFunction,Paste,Top*
G04 #@! TF.FilePolarity,Positive*
%FSLAX46Y46*%
G04 Gerber Fmt 4.6, Leading zero omitted, Abs format (unit mm)*
G04 Created by KiCad (PCBNEW 5.0.1-33cea8e~68~ubuntu16.04.1) date 2018年11月22日 10時51分10秒*
%MOMM*%
%LPD*%
G01*
G04 APERTURE LIST*
%ADD10C,0.100000*%
%ADD11C,1.250000*%
%ADD12C,0.950000*%
%ADD13R,4.600000X1.100000*%
%ADD14R,4.550000X5.250000*%
%ADD15R,2.200000X1.200000*%
%ADD16R,3.050000X2.750000*%
%ADD17R,2.000000X1.780000*%
%ADD18R,1.550000X0.600000*%
G04 APERTURE END LIST*
D10*
G04 #@! TO.C,D1*
G36*
X151659504Y-79771204D02*
X151683773Y-79774804D01*
X151707571Y-79780765D01*
X151730671Y-79789030D01*
X151752849Y-79799520D01*
X151773893Y-79812133D01*
X151793598Y-79826747D01*
X151811777Y-79843223D01*
X151828253Y-79861402D01*
X151842867Y-79881107D01*
X151855480Y-79902151D01*
X151865970Y-79924329D01*
X151874235Y-79947429D01*
X151880196Y-79971227D01*
X151883796Y-79995496D01*
X151885000Y-80020000D01*
X151885000Y-81270000D01*
X151883796Y-81294504D01*
X151880196Y-81318773D01*
X151874235Y-81342571D01*
X151865970Y-81365671D01*
X151855480Y-81387849D01*
X151842867Y-81408893D01*
X151828253Y-81428598D01*
X151811777Y-81446777D01*
X151793598Y-81463253D01*
X151773893Y-81477867D01*
X151752849Y-81490480D01*
X151730671Y-81500970D01*
X151707571Y-81509235D01*
X151683773Y-81515196D01*
X151659504Y-81518796D01*
X151635000Y-81520000D01*
X150885000Y-81520000D01*
X150860496Y-81518796D01*
X150836227Y-81515196D01*
X150812429Y-81509235D01*
X150789329Y-81500970D01*
X150767151Y-81490480D01*
X150746107Y-81477867D01*
X150726402Y-81463253D01*
X150708223Y-81446777D01*
X150691747Y-81428598D01*
X150677133Y-81408893D01*
X150664520Y-81387849D01*
X150654030Y-81365671D01*
X150645765Y-81342571D01*
X150639804Y-81318773D01*
X150636204Y-81294504D01*
X150635000Y-81270000D01*
X150635000Y-80020000D01*
X150636204Y-79995496D01*
X150639804Y-79971227D01*
X150645765Y-79947429D01*
X150654030Y-79924329D01*
X150664520Y-79902151D01*
X150677133Y-79881107D01*
X150691747Y-79861402D01*
X150708223Y-79843223D01*
X150726402Y-79826747D01*
X150746107Y-79812133D01*
X150767151Y-79799520D01*
X150789329Y-79789030D01*
X150812429Y-79780765D01*
X150836227Y-79774804D01*
X150860496Y-79771204D01*
X150885000Y-79770000D01*
X151635000Y-79770000D01*
X151659504Y-79771204D01*
X151659504Y-79771204D01*
G37*
D11*
X151260000Y-80645000D03*
D10*
G36*
X148859504Y-79771204D02*
X148883773Y-79774804D01*
X148907571Y-79780765D01*
X148930671Y-79789030D01*
X148952849Y-79799520D01*
X148973893Y-79812133D01*
X148993598Y-79826747D01*
X149011777Y-79843223D01*
X149028253Y-79861402D01*
X149042867Y-79881107D01*
X149055480Y-79902151D01*
X149065970Y-79924329D01*
X149074235Y-79947429D01*
X149080196Y-79971227D01*
X149083796Y-79995496D01*
X149085000Y-80020000D01*
X149085000Y-81270000D01*
X149083796Y-81294504D01*
X149080196Y-81318773D01*
X149074235Y-81342571D01*
X149065970Y-81365671D01*
X149055480Y-81387849D01*
X149042867Y-81408893D01*
X149028253Y-81428598D01*
X149011777Y-81446777D01*
X148993598Y-81463253D01*
X148973893Y-81477867D01*
X148952849Y-81490480D01*
X148930671Y-81500970D01*
X148907571Y-81509235D01*
X148883773Y-81515196D01*
X148859504Y-81518796D01*
X148835000Y-81520000D01*
X148085000Y-81520000D01*
X148060496Y-81518796D01*
X148036227Y-81515196D01*
X148012429Y-81509235D01*
X147989329Y-81500970D01*
X147967151Y-81490480D01*
X147946107Y-81477867D01*
X147926402Y-81463253D01*
X147908223Y-81446777D01*
X147891747Y-81428598D01*
X147877133Y-81408893D01*
X147864520Y-81387849D01*
X147854030Y-81365671D01*
X147845765Y-81342571D01*
X147839804Y-81318773D01*
X147836204Y-81294504D01*
X147835000Y-81270000D01*
X147835000Y-80020000D01*
X147836204Y-79995496D01*
X147839804Y-79971227D01*
X147845765Y-79947429D01*
X147854030Y-79924329D01*
X147864520Y-79902151D01*
X147877133Y-79881107D01*
X147891747Y-79861402D01*
X147908223Y-79843223D01*
X147926402Y-79826747D01*
X147946107Y-79812133D01*
X147967151Y-79799520D01*
X147989329Y-79789030D01*
X148012429Y-79780765D01*
X148036227Y-79774804D01*
X148060496Y-79771204D01*
X148085000Y-79770000D01*
X148835000Y-79770000D01*
X148859504Y-79771204D01*
X148859504Y-79771204D01*
G37*
D11*
X148460000Y-80645000D03*
G04 #@! TD*
D10*
G04 #@! TO.C,D2*
G36*
X148859504Y-107711204D02*
X148883773Y-107714804D01*
X148907571Y-107720765D01*
X148930671Y-107729030D01*
X148952849Y-107739520D01*
X148973893Y-107752133D01*
X148993598Y-107766747D01*
X149011777Y-107783223D01*
X149028253Y-107801402D01*
X149042867Y-107821107D01*
X149055480Y-107842151D01*
X149065970Y-107864329D01*
X149074235Y-107887429D01*
X149080196Y-107911227D01*
X149083796Y-107935496D01*
X149085000Y-107960000D01*
X149085000Y-109210000D01*
X149083796Y-109234504D01*
X149080196Y-109258773D01*
X149074235Y-109282571D01*
X149065970Y-109305671D01*
X149055480Y-109327849D01*
X149042867Y-109348893D01*
X149028253Y-109368598D01*
X149011777Y-109386777D01*
X148993598Y-109403253D01*
X148973893Y-109417867D01*
X148952849Y-109430480D01*
X148930671Y-109440970D01*
X148907571Y-109449235D01*
X148883773Y-109455196D01*
X148859504Y-109458796D01*
X148835000Y-109460000D01*
X148085000Y-109460000D01*
X148060496Y-109458796D01*
X148036227Y-109455196D01*
X148012429Y-109449235D01*
X147989329Y-109440970D01*
X147967151Y-109430480D01*
X147946107Y-109417867D01*
X147926402Y-109403253D01*
X147908223Y-109386777D01*
X147891747Y-109368598D01*
X147877133Y-109348893D01*
X147864520Y-109327849D01*
X147854030Y-109305671D01*
X147845765Y-109282571D01*
X147839804Y-109258773D01*
X147836204Y-109234504D01*
X147835000Y-109210000D01*
X147835000Y-107960000D01*
X147836204Y-107935496D01*
X147839804Y-107911227D01*
X147845765Y-107887429D01*
X147854030Y-107864329D01*
X147864520Y-107842151D01*
X147877133Y-107821107D01*
X147891747Y-107801402D01*
X147908223Y-107783223D01*
X147926402Y-107766747D01*
X147946107Y-107752133D01*
X147967151Y-107739520D01*
X147989329Y-107729030D01*
X148012429Y-107720765D01*
X148036227Y-107714804D01*
X148060496Y-107711204D01*
X148085000Y-107710000D01*
X148835000Y-107710000D01*
X148859504Y-107711204D01*
X148859504Y-107711204D01*
G37*
D11*
X148460000Y-108585000D03*
D10*
G36*
X151659504Y-107711204D02*
X151683773Y-107714804D01*
X151707571Y-107720765D01*
X151730671Y-107729030D01*
X151752849Y-107739520D01*
X151773893Y-107752133D01*
X151793598Y-107766747D01*
X151811777Y-107783223D01*
X151828253Y-107801402D01*
X151842867Y-107821107D01*
X151855480Y-107842151D01*
X151865970Y-107864329D01*
X151874235Y-107887429D01*
X151880196Y-107911227D01*
X151883796Y-107935496D01*
X151885000Y-107960000D01*
X151885000Y-109210000D01*
X151883796Y-109234504D01*
X151880196Y-109258773D01*
X151874235Y-109282571D01*
X151865970Y-109305671D01*
X151855480Y-109327849D01*
X151842867Y-109348893D01*
X151828253Y-109368598D01*
X151811777Y-109386777D01*
X151793598Y-109403253D01*
X151773893Y-109417867D01*
X151752849Y-109430480D01*
X151730671Y-109440970D01*
X151707571Y-109449235D01*
X151683773Y-109455196D01*
X151659504Y-109458796D01*
X151635000Y-109460000D01*
X150885000Y-109460000D01*
X150860496Y-109458796D01*
X150836227Y-109455196D01*
X150812429Y-109449235D01*
X150789329Y-109440970D01*
X150767151Y-109430480D01*
X150746107Y-109417867D01*
X150726402Y-109403253D01*
X150708223Y-109386777D01*
X150691747Y-109368598D01*
X150677133Y-109348893D01*
X150664520Y-109327849D01*
X150654030Y-109305671D01*
X150645765Y-109282571D01*
X150639804Y-109258773D01*
X150636204Y-109234504D01*
X150635000Y-109210000D01*
X150635000Y-107960000D01*
X150636204Y-107935496D01*
X150639804Y-107911227D01*
X150645765Y-107887429D01*
X150654030Y-107864329D01*
X150664520Y-107842151D01*
X150677133Y-107821107D01*
X150691747Y-107801402D01*
X150708223Y-107783223D01*
X150726402Y-107766747D01*
X150746107Y-107752133D01*
X150767151Y-107739520D01*
X150789329Y-107729030D01*
X150812429Y-107720765D01*
X150836227Y-107714804D01*
X150860496Y-107711204D01*
X150885000Y-107710000D01*
X151635000Y-107710000D01*
X151659504Y-107711204D01*
X151659504Y-107711204D01*
G37*
D11*
X151260000Y-108585000D03*
G04 #@! TD*
D10*
G04 #@! TO.C,D3*
G36*
X133900779Y-111921144D02*
X133923834Y-111924563D01*
X133946443Y-111930227D01*
X133968387Y-111938079D01*
X133989457Y-111948044D01*
X134009448Y-111960026D01*
X134028168Y-111973910D01*
X134045438Y-111989562D01*
X134061090Y-112006832D01*
X134074974Y-112025552D01*
X134086956Y-112045543D01*
X134096921Y-112066613D01*
X134104773Y-112088557D01*
X134110437Y-112111166D01*
X134113856Y-112134221D01*
X134115000Y-112157500D01*
X134115000Y-112632500D01*
X134113856Y-112655779D01*
X134110437Y-112678834D01*
X134104773Y-112701443D01*
X134096921Y-112723387D01*
X134086956Y-112744457D01*
X134074974Y-112764448D01*
X134061090Y-112783168D01*
X134045438Y-112800438D01*
X134028168Y-112816090D01*
X134009448Y-112829974D01*
X133989457Y-112841956D01*
X133968387Y-112851921D01*
X133946443Y-112859773D01*
X133923834Y-112865437D01*
X133900779Y-112868856D01*
X133877500Y-112870000D01*
X133302500Y-112870000D01*
X133279221Y-112868856D01*
X133256166Y-112865437D01*
X133233557Y-112859773D01*
X133211613Y-112851921D01*
X133190543Y-112841956D01*
X133170552Y-112829974D01*
X133151832Y-112816090D01*
X133134562Y-112800438D01*
X133118910Y-112783168D01*
X133105026Y-112764448D01*
X133093044Y-112744457D01*
X133083079Y-112723387D01*
X133075227Y-112701443D01*
X133069563Y-112678834D01*
X133066144Y-112655779D01*
X133065000Y-112632500D01*
X133065000Y-112157500D01*
X133066144Y-112134221D01*
X133069563Y-112111166D01*
X133075227Y-112088557D01*
X133083079Y-112066613D01*
X133093044Y-112045543D01*
X133105026Y-112025552D01*
X133118910Y-112006832D01*
X133134562Y-111989562D01*
X133151832Y-111973910D01*
X133170552Y-111960026D01*
X133190543Y-111948044D01*
X133211613Y-111938079D01*
X133233557Y-111930227D01*
X133256166Y-111924563D01*
X133279221Y-111921144D01*
X133302500Y-111920000D01*
X133877500Y-111920000D01*
X133900779Y-111921144D01*
X133900779Y-111921144D01*
G37*
D12*
X133590000Y-112395000D03*
D10*
G36*
X132150779Y-111921144D02*
X132173834Y-111924563D01*
X132196443Y-111930227D01*
X132218387Y-111938079D01*
X132239457Y-111948044D01*
X132259448Y-111960026D01*
X132278168Y-111973910D01*
X132295438Y-111989562D01*
X132311090Y-112006832D01*
X132324974Y-112025552D01*
X132336956Y-112045543D01*
X132346921Y-112066613D01*
X132354773Y-112088557D01*
X132360437Y-112111166D01*
X132363856Y-112134221D01*
X132365000Y-112157500D01*
X132365000Y-112632500D01*
X132363856Y-112655779D01*
X132360437Y-112678834D01*
X132354773Y-112701443D01*
X132346921Y-112723387D01*
X132336956Y-112744457D01*
X132324974Y-112764448D01*
X132311090Y-112783168D01*
X132295438Y-112800438D01*
X132278168Y-112816090D01*
X132259448Y-112829974D01*
X132239457Y-112841956D01*
X132218387Y-112851921D01*
X132196443Y-112859773D01*
X132173834Y-112865437D01*
X132150779Y-112868856D01*
X132127500Y-112870000D01*
X131552500Y-112870000D01*
X131529221Y-112868856D01*
X131506166Y-112865437D01*
X131483557Y-112859773D01*
X131461613Y-112851921D01*
X131440543Y-112841956D01*
X131420552Y-112829974D01*
X131401832Y-112816090D01*
X131384562Y-112800438D01*
X131368910Y-112783168D01*
X131355026Y-112764448D01*
X131343044Y-112744457D01*
X131333079Y-112723387D01*
X131325227Y-112701443D01*
X131319563Y-112678834D01*
X131316144Y-112655779D01*
X131315000Y-112632500D01*
X131315000Y-112157500D01*
X131316144Y-112134221D01*
X131319563Y-112111166D01*
X131325227Y-112088557D01*
X131333079Y-112066613D01*
X131343044Y-112045543D01*
X131355026Y-112025552D01*
X131368910Y-112006832D01*
X131384562Y-111989562D01*
X131401832Y-111973910D01*
X131420552Y-111960026D01*
X131440543Y-111948044D01*
X131461613Y-111938079D01*
X131483557Y-111930227D01*
X131506166Y-111924563D01*
X131529221Y-111921144D01*
X131552500Y-111920000D01*
X132127500Y-111920000D01*
X132150779Y-111921144D01*
X132150779Y-111921144D01*
G37*
D12*
X131840000Y-112395000D03*
G04 #@! TD*
D10*
G04 #@! TO.C,D4*
G36*
X132150779Y-120811144D02*
X132173834Y-120814563D01*
X132196443Y-120820227D01*
X132218387Y-120828079D01*
X132239457Y-120838044D01*
X132259448Y-120850026D01*
X132278168Y-120863910D01*
X132295438Y-120879562D01*
X132311090Y-120896832D01*
X132324974Y-120915552D01*
X132336956Y-120935543D01*
X132346921Y-120956613D01*
X132354773Y-120978557D01*
X132360437Y-121001166D01*
X132363856Y-121024221D01*
X132365000Y-121047500D01*
X132365000Y-121522500D01*
X132363856Y-121545779D01*
X132360437Y-121568834D01*
X132354773Y-121591443D01*
X132346921Y-121613387D01*
X132336956Y-121634457D01*
X132324974Y-121654448D01*
X132311090Y-121673168D01*
X132295438Y-121690438D01*
X132278168Y-121706090D01*
X132259448Y-121719974D01*
X132239457Y-121731956D01*
X132218387Y-121741921D01*
X132196443Y-121749773D01*
X132173834Y-121755437D01*
X132150779Y-121758856D01*
X132127500Y-121760000D01*
X131552500Y-121760000D01*
X131529221Y-121758856D01*
X131506166Y-121755437D01*
X131483557Y-121749773D01*
X131461613Y-121741921D01*
X131440543Y-121731956D01*
X131420552Y-121719974D01*
X131401832Y-121706090D01*
X131384562Y-121690438D01*
X131368910Y-121673168D01*
X131355026Y-121654448D01*
X131343044Y-121634457D01*
X131333079Y-121613387D01*
X131325227Y-121591443D01*
X131319563Y-121568834D01*
X131316144Y-121545779D01*
X131315000Y-121522500D01*
X131315000Y-121047500D01*
X131316144Y-121024221D01*
X131319563Y-121001166D01*
X131325227Y-120978557D01*
X131333079Y-120956613D01*
X131343044Y-120935543D01*
X131355026Y-120915552D01*
X131368910Y-120896832D01*
X131384562Y-120879562D01*
X131401832Y-120863910D01*
X131420552Y-120850026D01*
X131440543Y-120838044D01*
X131461613Y-120828079D01*
X131483557Y-120820227D01*
X131506166Y-120814563D01*
X131529221Y-120811144D01*
X131552500Y-120810000D01*
X132127500Y-120810000D01*
X132150779Y-120811144D01*
X132150779Y-120811144D01*
G37*
D12*
X131840000Y-121285000D03*
D10*
G36*
X133900779Y-120811144D02*
X133923834Y-120814563D01*
X133946443Y-120820227D01*
X133968387Y-120828079D01*
X133989457Y-120838044D01*
X134009448Y-120850026D01*
X134028168Y-120863910D01*
X134045438Y-120879562D01*
X134061090Y-120896832D01*
X134074974Y-120915552D01*
X134086956Y-120935543D01*
X134096921Y-120956613D01*
X134104773Y-120978557D01*
X134110437Y-121001166D01*
X134113856Y-121024221D01*
X134115000Y-121047500D01*
X134115000Y-121522500D01*
X134113856Y-121545779D01*
X134110437Y-121568834D01*
X134104773Y-121591443D01*
X134096921Y-121613387D01*
X134086956Y-121634457D01*
X134074974Y-121654448D01*
X134061090Y-121673168D01*
X134045438Y-121690438D01*
X134028168Y-121706090D01*
X134009448Y-121719974D01*
X133989457Y-121731956D01*
X133968387Y-121741921D01*
X133946443Y-121749773D01*
X133923834Y-121755437D01*
X133900779Y-121758856D01*
X133877500Y-121760000D01*
X133302500Y-121760000D01*
X133279221Y-121758856D01*
X133256166Y-121755437D01*
X133233557Y-121749773D01*
X133211613Y-121741921D01*
X133190543Y-121731956D01*
X133170552Y-121719974D01*
X133151832Y-121706090D01*
X133134562Y-121690438D01*
X133118910Y-121673168D01*
X133105026Y-121654448D01*
X133093044Y-121634457D01*
X133083079Y-121613387D01*
X133075227Y-121591443D01*
X133069563Y-121568834D01*
X133066144Y-121545779D01*
X133065000Y-121522500D01*
X133065000Y-121047500D01*
X133066144Y-121024221D01*
X133069563Y-121001166D01*
X133075227Y-120978557D01*
X133083079Y-120956613D01*
X133093044Y-120935543D01*
X133105026Y-120915552D01*
X133118910Y-120896832D01*
X133134562Y-120879562D01*
X133151832Y-120863910D01*
X133170552Y-120850026D01*
X133190543Y-120838044D01*
X133211613Y-120828079D01*
X133233557Y-120820227D01*
X133256166Y-120814563D01*
X133279221Y-120811144D01*
X133302500Y-120810000D01*
X133877500Y-120810000D01*
X133900779Y-120811144D01*
X133900779Y-120811144D01*
G37*
D12*
X133590000Y-121285000D03*
G04 #@! TD*
D10*
G04 #@! TO.C,D5*
G36*
X133900779Y-129701144D02*
X133923834Y-129704563D01*
X133946443Y-129710227D01*
X133968387Y-129718079D01*
X133989457Y-129728044D01*
X134009448Y-129740026D01*
X134028168Y-129753910D01*
X134045438Y-129769562D01*
X134061090Y-129786832D01*
X134074974Y-129805552D01*
X134086956Y-129825543D01*
X134096921Y-129846613D01*
X134104773Y-129868557D01*
X134110437Y-129891166D01*
X134113856Y-129914221D01*
X134115000Y-129937500D01*
X134115000Y-130412500D01*
X134113856Y-130435779D01*
X134110437Y-130458834D01*
X134104773Y-130481443D01*
X134096921Y-130503387D01*
X134086956Y-130524457D01*
X134074974Y-130544448D01*
X134061090Y-130563168D01*
X134045438Y-130580438D01*
X134028168Y-130596090D01*
X134009448Y-130609974D01*
X133989457Y-130621956D01*
X133968387Y-130631921D01*
X133946443Y-130639773D01*
X133923834Y-130645437D01*
X133900779Y-130648856D01*
X133877500Y-130650000D01*
X133302500Y-130650000D01*
X133279221Y-130648856D01*
X133256166Y-130645437D01*
X133233557Y-130639773D01*
X133211613Y-130631921D01*
X133190543Y-130621956D01*
X133170552Y-130609974D01*
X133151832Y-130596090D01*
X133134562Y-130580438D01*
X133118910Y-130563168D01*
X133105026Y-130544448D01*
X133093044Y-130524457D01*
X133083079Y-130503387D01*
X133075227Y-130481443D01*
X133069563Y-130458834D01*
X133066144Y-130435779D01*
X133065000Y-130412500D01*
X133065000Y-129937500D01*
X133066144Y-129914221D01*
X133069563Y-129891166D01*
X133075227Y-129868557D01*
X133083079Y-129846613D01*
X133093044Y-129825543D01*
X133105026Y-129805552D01*
X133118910Y-129786832D01*
X133134562Y-129769562D01*
X133151832Y-129753910D01*
X133170552Y-129740026D01*
X133190543Y-129728044D01*
X133211613Y-129718079D01*
X133233557Y-129710227D01*
X133256166Y-129704563D01*
X133279221Y-129701144D01*
X133302500Y-129700000D01*
X133877500Y-129700000D01*
X133900779Y-129701144D01*
X133900779Y-129701144D01*
G37*
D12*
X133590000Y-130175000D03*
D10*
G36*
X132150779Y-129701144D02*
X132173834Y-129704563D01*
X132196443Y-129710227D01*
X132218387Y-129718079D01*
X132239457Y-129728044D01*
X132259448Y-129740026D01*
X132278168Y-129753910D01*
X132295438Y-129769562D01*
X132311090Y-129786832D01*
X132324974Y-129805552D01*
X132336956Y-129825543D01*
X132346921Y-129846613D01*
X132354773Y-129868557D01*
X132360437Y-129891166D01*
X132363856Y-129914221D01*
X132365000Y-129937500D01*
X132365000Y-130412500D01*
X132363856Y-130435779D01*
X132360437Y-130458834D01*
X132354773Y-130481443D01*
X132346921Y-130503387D01*
X132336956Y-130524457D01*
X132324974Y-130544448D01*
X132311090Y-130563168D01*
X132295438Y-130580438D01*
X132278168Y-130596090D01*
X132259448Y-130609974D01*
X132239457Y-130621956D01*
X132218387Y-130631921D01*
X132196443Y-130639773D01*
X132173834Y-130645437D01*
X132150779Y-130648856D01*
X132127500Y-130650000D01*
X131552500Y-130650000D01*
X131529221Y-130648856D01*
X131506166Y-130645437D01*
X131483557Y-130639773D01*
X131461613Y-130631921D01*
X131440543Y-130621956D01*
X131420552Y-130609974D01*
X131401832Y-130596090D01*
X131384562Y-130580438D01*
X131368910Y-130563168D01*
X131355026Y-130544448D01*
X131343044Y-130524457D01*
X131333079Y-130503387D01*
X131325227Y-130481443D01*
X131319563Y-130458834D01*
X131316144Y-130435779D01*
X131315000Y-130412500D01*
X131315000Y-129937500D01*
X131316144Y-129914221D01*
X131319563Y-129891166D01*
X131325227Y-129868557D01*
X131333079Y-129846613D01*
X131343044Y-129825543D01*
X131355026Y-129805552D01*
X131368910Y-129786832D01*
X131384562Y-129769562D01*
X131401832Y-129753910D01*
X131420552Y-129740026D01*
X131440543Y-129728044D01*
X131461613Y-129718079D01*
X131483557Y-129710227D01*
X131506166Y-129704563D01*
X131529221Y-129701144D01*
X131552500Y-129700000D01*
X132127500Y-129700000D01*
X132150779Y-129701144D01*
X132150779Y-129701144D01*
G37*
D12*
X131840000Y-130175000D03*
G04 #@! TD*
D13*
G04 #@! TO.C,Q1*
X160595000Y-76200000D03*
X160595000Y-81280000D03*
D14*
X172170000Y-81515000D03*
X167320000Y-75965000D03*
X172170000Y-75965000D03*
X167320000Y-81515000D03*
G04 #@! TD*
D13*
G04 #@! TO.C,Q2*
X160595000Y-90170000D03*
X160595000Y-95250000D03*
D14*
X172170000Y-95485000D03*
X167320000Y-89935000D03*
X172170000Y-89935000D03*
X167320000Y-95485000D03*
G04 #@! TD*
G04 #@! TO.C,Q3*
X167320000Y-109455000D03*
X172170000Y-103905000D03*
X167320000Y-103905000D03*
X172170000Y-109455000D03*
D13*
X160595000Y-109220000D03*
X160595000Y-104140000D03*
G04 #@! TD*
D14*
G04 #@! TO.C,Q4*
X167320000Y-123425000D03*
X172170000Y-117875000D03*
X167320000Y-117875000D03*
X172170000Y-123425000D03*
D13*
X160595000Y-123190000D03*
X160595000Y-118110000D03*
G04 #@! TD*
D10*
G04 #@! TO.C,R1*
G36*
X133900779Y-114461144D02*
X133923834Y-114464563D01*
X133946443Y-114470227D01*
X133968387Y-114478079D01*
X133989457Y-114488044D01*
X134009448Y-114500026D01*
X134028168Y-114513910D01*
X134045438Y-114529562D01*
X134061090Y-114546832D01*
X134074974Y-114565552D01*
X134086956Y-114585543D01*
X134096921Y-114606613D01*
X134104773Y-114628557D01*
X134110437Y-114651166D01*
X134113856Y-114674221D01*
X134115000Y-114697500D01*
X134115000Y-115172500D01*
X134113856Y-115195779D01*
X134110437Y-115218834D01*
X134104773Y-115241443D01*
X134096921Y-115263387D01*
X134086956Y-115284457D01*
X134074974Y-115304448D01*
X134061090Y-115323168D01*
X134045438Y-115340438D01*
X134028168Y-115356090D01*
X134009448Y-115369974D01*
X133989457Y-115381956D01*
X133968387Y-115391921D01*
X133946443Y-115399773D01*
X133923834Y-115405437D01*
X133900779Y-115408856D01*
X133877500Y-115410000D01*
X133302500Y-115410000D01*
X133279221Y-115408856D01*
X133256166Y-115405437D01*
X133233557Y-115399773D01*
X133211613Y-115391921D01*
X133190543Y-115381956D01*
X133170552Y-115369974D01*
X133151832Y-115356090D01*
X133134562Y-115340438D01*
X133118910Y-115323168D01*
X133105026Y-115304448D01*
X133093044Y-115284457D01*
X133083079Y-115263387D01*
X133075227Y-115241443D01*
X133069563Y-115218834D01*
X133066144Y-115195779D01*
X133065000Y-115172500D01*
X133065000Y-114697500D01*
X133066144Y-114674221D01*
X133069563Y-114651166D01*
X133075227Y-114628557D01*
X133083079Y-114606613D01*
X133093044Y-114585543D01*
X133105026Y-114565552D01*
X133118910Y-114546832D01*
X133134562Y-114529562D01*
X133151832Y-114513910D01*
X133170552Y-114500026D01*
X133190543Y-114488044D01*
X133211613Y-114478079D01*
X133233557Y-114470227D01*
X133256166Y-114464563D01*
X133279221Y-114461144D01*
X133302500Y-114460000D01*
X133877500Y-114460000D01*
X133900779Y-114461144D01*
X133900779Y-114461144D01*
G37*
D12*
X133590000Y-114935000D03*
D10*
G36*
X132150779Y-114461144D02*
X132173834Y-114464563D01*
X132196443Y-114470227D01*
X132218387Y-114478079D01*
X132239457Y-114488044D01*
X132259448Y-114500026D01*
X132278168Y-114513910D01*
X132295438Y-114529562D01*
X132311090Y-114546832D01*
X132324974Y-114565552D01*
X132336956Y-114585543D01*
X132346921Y-114606613D01*
X132354773Y-114628557D01*
X132360437Y-114651166D01*
X132363856Y-114674221D01*
X132365000Y-114697500D01*
X132365000Y-115172500D01*
X132363856Y-115195779D01*
X132360437Y-115218834D01*
X132354773Y-115241443D01*
X132346921Y-115263387D01*
X132336956Y-115284457D01*
X132324974Y-115304448D01*
X132311090Y-115323168D01*
X132295438Y-115340438D01*
X132278168Y-115356090D01*
X132259448Y-115369974D01*
X132239457Y-115381956D01*
X132218387Y-115391921D01*
X132196443Y-115399773D01*
X132173834Y-115405437D01*
X132150779Y-115408856D01*
X132127500Y-115410000D01*
X131552500Y-115410000D01*
X131529221Y-115408856D01*
X131506166Y-115405437D01*
X131483557Y-115399773D01*
X131461613Y-115391921D01*
X131440543Y-115381956D01*
X131420552Y-115369974D01*
X131401832Y-115356090D01*
X131384562Y-115340438D01*
X131368910Y-115323168D01*
X131355026Y-115304448D01*
X131343044Y-115284457D01*
X131333079Y-115263387D01*
X131325227Y-115241443D01*
X131319563Y-115218834D01*
X131316144Y-115195779D01*
X131315000Y-115172500D01*
X131315000Y-114697500D01*
X131316144Y-114674221D01*
X131319563Y-114651166D01*
X131325227Y-114628557D01*
X131333079Y-114606613D01*
X131343044Y-114585543D01*
X131355026Y-114565552D01*
X131368910Y-114546832D01*
X131384562Y-114529562D01*
X131401832Y-114513910D01*
X131420552Y-114500026D01*
X131440543Y-114488044D01*
X131461613Y-114478079D01*
X131483557Y-114470227D01*
X131506166Y-114464563D01*
X131529221Y-114461144D01*
X131552500Y-114460000D01*
X132127500Y-114460000D01*
X132150779Y-114461144D01*
X132150779Y-114461144D01*
G37*
D12*
X131840000Y-114935000D03*
G04 #@! TD*
D10*
G04 #@! TO.C,R2*
G36*
X132150779Y-123351144D02*
X132173834Y-123354563D01*
X132196443Y-123360227D01*
X132218387Y-123368079D01*
X132239457Y-123378044D01*
X132259448Y-123390026D01*
X132278168Y-123403910D01*
X132295438Y-123419562D01*
X132311090Y-123436832D01*
X132324974Y-123455552D01*
X132336956Y-123475543D01*
X132346921Y-123496613D01*
X132354773Y-123518557D01*
X132360437Y-123541166D01*
X132363856Y-123564221D01*
X132365000Y-123587500D01*
X132365000Y-124062500D01*
X132363856Y-124085779D01*
X132360437Y-124108834D01*
X132354773Y-124131443D01*
X132346921Y-124153387D01*
X132336956Y-124174457D01*
X132324974Y-124194448D01*
X132311090Y-124213168D01*
X132295438Y-124230438D01*
X132278168Y-124246090D01*
X132259448Y-124259974D01*
X132239457Y-124271956D01*
X132218387Y-124281921D01*
X132196443Y-124289773D01*
X132173834Y-124295437D01*
X132150779Y-124298856D01*
X132127500Y-124300000D01*
X131552500Y-124300000D01*
X131529221Y-124298856D01*
X131506166Y-124295437D01*
X131483557Y-124289773D01*
X131461613Y-124281921D01*
X131440543Y-124271956D01*
X131420552Y-124259974D01*
X131401832Y-124246090D01*
X131384562Y-124230438D01*
X131368910Y-124213168D01*
X131355026Y-124194448D01*
X131343044Y-124174457D01*
X131333079Y-124153387D01*
X131325227Y-124131443D01*
X131319563Y-124108834D01*
X131316144Y-124085779D01*
X131315000Y-124062500D01*
X131315000Y-123587500D01*
X131316144Y-123564221D01*
X131319563Y-123541166D01*
X131325227Y-123518557D01*
X131333079Y-123496613D01*
X131343044Y-123475543D01*
X131355026Y-123455552D01*
X131368910Y-123436832D01*
X131384562Y-123419562D01*
X131401832Y-123403910D01*
X131420552Y-123390026D01*
X131440543Y-123378044D01*
X131461613Y-123368079D01*
X131483557Y-123360227D01*
X131506166Y-123354563D01*
X131529221Y-123351144D01*
X131552500Y-123350000D01*
X132127500Y-123350000D01*
X132150779Y-123351144D01*
X132150779Y-123351144D01*
G37*
D12*
X131840000Y-123825000D03*
D10*
G36*
X133900779Y-123351144D02*
X133923834Y-123354563D01*
X133946443Y-123360227D01*
X133968387Y-123368079D01*
X133989457Y-123378044D01*
X134009448Y-123390026D01*
X134028168Y-123403910D01*
X134045438Y-123419562D01*
X134061090Y-123436832D01*
X134074974Y-123455552D01*
X134086956Y-123475543D01*
X134096921Y-123496613D01*
X134104773Y-123518557D01*
X134110437Y-123541166D01*
X134113856Y-123564221D01*
X134115000Y-123587500D01*
X134115000Y-124062500D01*
X134113856Y-124085779D01*
X134110437Y-124108834D01*
X134104773Y-124131443D01*
X134096921Y-124153387D01*
X134086956Y-124174457D01*
X134074974Y-124194448D01*
X134061090Y-124213168D01*
X134045438Y-124230438D01*
X134028168Y-124246090D01*
X134009448Y-124259974D01*
X133989457Y-124271956D01*
X133968387Y-124281921D01*
X133946443Y-124289773D01*
X133923834Y-124295437D01*
X133900779Y-124298856D01*
X133877500Y-124300000D01*
X133302500Y-124300000D01*
X133279221Y-124298856D01*
X133256166Y-124295437D01*
X133233557Y-124289773D01*
X133211613Y-124281921D01*
X133190543Y-124271956D01*
X133170552Y-124259974D01*
X133151832Y-124246090D01*
X133134562Y-124230438D01*
X133118910Y-124213168D01*
X133105026Y-124194448D01*
X133093044Y-124174457D01*
X133083079Y-124153387D01*
X133075227Y-124131443D01*
X133069563Y-124108834D01*
X133066144Y-124085779D01*
X133065000Y-124062500D01*
X133065000Y-123587500D01*
X133066144Y-123564221D01*
X133069563Y-123541166D01*
X133075227Y-123518557D01*
X133083079Y-123496613D01*
X133093044Y-123475543D01*
X133105026Y-123455552D01*
X133118910Y-123436832D01*
X133134562Y-123419562D01*
X133151832Y-123403910D01*
X133170552Y-123390026D01*
X133190543Y-123378044D01*
X133211613Y-123368079D01*
X133233557Y-123360227D01*
X133256166Y-123354563D01*
X133279221Y-123351144D01*
X133302500Y-123350000D01*
X133877500Y-123350000D01*
X133900779Y-123351144D01*
X133900779Y-123351144D01*
G37*
D12*
X133590000Y-123825000D03*
G04 #@! TD*
D10*
G04 #@! TO.C,R3*
G36*
X133900779Y-132241144D02*
X133923834Y-132244563D01*
X133946443Y-132250227D01*
X133968387Y-132258079D01*
X133989457Y-132268044D01*
X134009448Y-132280026D01*
X134028168Y-132293910D01*
X134045438Y-132309562D01*
X134061090Y-132326832D01*
X134074974Y-132345552D01*
X134086956Y-132365543D01*
X134096921Y-132386613D01*
X134104773Y-132408557D01*
X134110437Y-132431166D01*
X134113856Y-132454221D01*
X134115000Y-132477500D01*
X134115000Y-132952500D01*
X134113856Y-132975779D01*
X134110437Y-132998834D01*
X134104773Y-133021443D01*
X134096921Y-133043387D01*
X134086956Y-133064457D01*
X134074974Y-133084448D01*
X134061090Y-133103168D01*
X134045438Y-133120438D01*
X134028168Y-133136090D01*
X134009448Y-133149974D01*
X133989457Y-133161956D01*
X133968387Y-133171921D01*
X133946443Y-133179773D01*
X133923834Y-133185437D01*
X133900779Y-133188856D01*
X133877500Y-133190000D01*
X133302500Y-133190000D01*
X133279221Y-133188856D01*
X133256166Y-133185437D01*
X133233557Y-133179773D01*
X133211613Y-133171921D01*
X133190543Y-133161956D01*
X133170552Y-133149974D01*
X133151832Y-133136090D01*
X133134562Y-133120438D01*
X133118910Y-133103168D01*
X133105026Y-133084448D01*
X133093044Y-133064457D01*
X133083079Y-133043387D01*
X133075227Y-133021443D01*
X133069563Y-132998834D01*
X133066144Y-132975779D01*
X133065000Y-132952500D01*
X133065000Y-132477500D01*
X133066144Y-132454221D01*
X133069563Y-132431166D01*
X133075227Y-132408557D01*
X133083079Y-132386613D01*
X133093044Y-132365543D01*
X133105026Y-132345552D01*
X133118910Y-132326832D01*
X133134562Y-132309562D01*
X133151832Y-132293910D01*
X133170552Y-132280026D01*
X133190543Y-132268044D01*
X133211613Y-132258079D01*
X133233557Y-132250227D01*
X133256166Y-132244563D01*
X133279221Y-132241144D01*
X133302500Y-132240000D01*
X133877500Y-132240000D01*
X133900779Y-132241144D01*
X133900779Y-132241144D01*
G37*
D12*
X133590000Y-132715000D03*
D10*
G36*
X132150779Y-132241144D02*
X132173834Y-132244563D01*
X132196443Y-132250227D01*
X132218387Y-132258079D01*
X132239457Y-132268044D01*
X132259448Y-132280026D01*
X132278168Y-132293910D01*
X132295438Y-132309562D01*
X132311090Y-132326832D01*
X132324974Y-132345552D01*
X132336956Y-132365543D01*
X132346921Y-132386613D01*
X132354773Y-132408557D01*
X132360437Y-132431166D01*
X132363856Y-132454221D01*
X132365000Y-132477500D01*
X132365000Y-132952500D01*
X132363856Y-132975779D01*
X132360437Y-132998834D01*
X132354773Y-133021443D01*
X132346921Y-133043387D01*
X132336956Y-133064457D01*
X132324974Y-133084448D01*
X132311090Y-133103168D01*
X132295438Y-133120438D01*
X132278168Y-133136090D01*
X132259448Y-133149974D01*
X132239457Y-133161956D01*
X132218387Y-133171921D01*
X132196443Y-133179773D01*
X132173834Y-133185437D01*
X132150779Y-133188856D01*
X132127500Y-133190000D01*
X131552500Y-133190000D01*
X131529221Y-133188856D01*
X131506166Y-133185437D01*
X131483557Y-133179773D01*
X131461613Y-133171921D01*
X131440543Y-133161956D01*
X131420552Y-133149974D01*
X131401832Y-133136090D01*
X131384562Y-133120438D01*
X131368910Y-133103168D01*
X131355026Y-133084448D01*
X131343044Y-133064457D01*
X131333079Y-133043387D01*
X131325227Y-133021443D01*
X131319563Y-132998834D01*
X131316144Y-132975779D01*
X131315000Y-132952500D01*
X131315000Y-132477500D01*
X131316144Y-132454221D01*
X131319563Y-132431166D01*
X131325227Y-132408557D01*
X131333079Y-132386613D01*
X131343044Y-132365543D01*
X131355026Y-132345552D01*
X131368910Y-132326832D01*
X131384562Y-132309562D01*
X131401832Y-132293910D01*
X131420552Y-132280026D01*
X131440543Y-132268044D01*
X131461613Y-132258079D01*
X131483557Y-132250227D01*
X131506166Y-132244563D01*
X131529221Y-132241144D01*
X131552500Y-132240000D01*
X132127500Y-132240000D01*
X132150779Y-132241144D01*
X132150779Y-132241144D01*
G37*
D12*
X131840000Y-132715000D03*
G04 #@! TD*
D10*
G04 #@! TO.C,R10*
G36*
X142705779Y-108746144D02*
X142728834Y-108749563D01*
X142751443Y-108755227D01*
X142773387Y-108763079D01*
X142794457Y-108773044D01*
X142814448Y-108785026D01*
X142833168Y-108798910D01*
X142850438Y-108814562D01*
X142866090Y-108831832D01*
X142879974Y-108850552D01*
X142891956Y-108870543D01*
X142901921Y-108891613D01*
X142909773Y-108913557D01*
X142915437Y-108936166D01*
X142918856Y-108959221D01*
X142920000Y-108982500D01*
X142920000Y-109457500D01*
X142918856Y-109480779D01*
X142915437Y-109503834D01*
X142909773Y-109526443D01*
X142901921Y-109548387D01*
X142891956Y-109569457D01*
X142879974Y-109589448D01*
X142866090Y-109608168D01*
X142850438Y-109625438D01*
X142833168Y-109641090D01*
X142814448Y-109654974D01*
X142794457Y-109666956D01*
X142773387Y-109676921D01*
X142751443Y-109684773D01*
X142728834Y-109690437D01*
X142705779Y-109693856D01*
X142682500Y-109695000D01*
X142107500Y-109695000D01*
X142084221Y-109693856D01*
X142061166Y-109690437D01*
X142038557Y-109684773D01*
X142016613Y-109676921D01*
X141995543Y-109666956D01*
X141975552Y-109654974D01*
X141956832Y-109641090D01*
X141939562Y-109625438D01*
X141923910Y-109608168D01*
X141910026Y-109589448D01*
X141898044Y-109569457D01*
X141888079Y-109548387D01*
X141880227Y-109526443D01*
X141874563Y-109503834D01*
X141871144Y-109480779D01*
X141870000Y-109457500D01*
X141870000Y-108982500D01*
X141871144Y-108959221D01*
X141874563Y-108936166D01*
X141880227Y-108913557D01*
X141888079Y-108891613D01*
X141898044Y-108870543D01*
X141910026Y-108850552D01*
X141923910Y-108831832D01*
X141939562Y-108814562D01*
X141956832Y-108798910D01*
X141975552Y-108785026D01*
X141995543Y-108773044D01*
X142016613Y-108763079D01*
X142038557Y-108755227D01*
X142061166Y-108749563D01*
X142084221Y-108746144D01*
X142107500Y-108745000D01*
X142682500Y-108745000D01*
X142705779Y-108746144D01*
X142705779Y-108746144D01*
G37*
D12*
X142395000Y-109220000D03*
D10*
G36*
X144455779Y-108746144D02*
X144478834Y-108749563D01*
X144501443Y-108755227D01*
X144523387Y-108763079D01*
X144544457Y-108773044D01*
X144564448Y-108785026D01*
X144583168Y-108798910D01*
X144600438Y-108814562D01*
X144616090Y-108831832D01*
X144629974Y-108850552D01*
X144641956Y-108870543D01*
X144651921Y-108891613D01*
X144659773Y-108913557D01*
X144665437Y-108936166D01*
X144668856Y-108959221D01*
X144670000Y-108982500D01*
X144670000Y-109457500D01*
X144668856Y-109480779D01*
X144665437Y-109503834D01*
X144659773Y-109526443D01*
X144651921Y-109548387D01*
X144641956Y-109569457D01*
X144629974Y-109589448D01*
X144616090Y-109608168D01*
X144600438Y-109625438D01*
X144583168Y-109641090D01*
X144564448Y-109654974D01*
X144544457Y-109666956D01*
X144523387Y-109676921D01*
X144501443Y-109684773D01*
X144478834Y-109690437D01*
X144455779Y-109693856D01*
X144432500Y-109695000D01*
X143857500Y-109695000D01*
X143834221Y-109693856D01*
X143811166Y-109690437D01*
X143788557Y-109684773D01*
X143766613Y-109676921D01*
X143745543Y-109666956D01*
X143725552Y-109654974D01*
X143706832Y-109641090D01*
X143689562Y-109625438D01*
X143673910Y-109608168D01*
X143660026Y-109589448D01*
X143648044Y-109569457D01*
X143638079Y-109548387D01*
X143630227Y-109526443D01*
X143624563Y-109503834D01*
X143621144Y-109480779D01*
X143620000Y-109457500D01*
X143620000Y-108982500D01*
X143621144Y-108959221D01*
X143624563Y-108936166D01*
X143630227Y-108913557D01*
X143638079Y-108891613D01*
X143648044Y-108870543D01*
X143660026Y-108850552D01*
X143673910Y-108831832D01*
X143689562Y-108814562D01*
X143706832Y-108798910D01*
X143725552Y-108785026D01*
X143745543Y-108773044D01*
X143766613Y-108763079D01*
X143788557Y-108755227D01*
X143811166Y-108749563D01*
X143834221Y-108746144D01*
X143857500Y-108745000D01*
X144432500Y-108745000D01*
X144455779Y-108746144D01*
X144455779Y-108746144D01*
G37*
D12*
X144145000Y-109220000D03*
G04 #@! TD*
D10*
G04 #@! TO.C,R11*
G36*
X142705779Y-117636144D02*
X142728834Y-117639563D01*
X142751443Y-117645227D01*
X142773387Y-117653079D01*
X142794457Y-117663044D01*
X142814448Y-117675026D01*
X142833168Y-117688910D01*
X142850438Y-117704562D01*
X142866090Y-117721832D01*
X142879974Y-117740552D01*
X142891956Y-117760543D01*
X142901921Y-117781613D01*
X142909773Y-117803557D01*
X142915437Y-117826166D01*
X142918856Y-117849221D01*
X142920000Y-117872500D01*
X142920000Y-118347500D01*
X142918856Y-118370779D01*
X142915437Y-118393834D01*
X142909773Y-118416443D01*
X142901921Y-118438387D01*
X142891956Y-118459457D01*
X142879974Y-118479448D01*
X142866090Y-118498168D01*
X142850438Y-118515438D01*
X142833168Y-118531090D01*
X142814448Y-118544974D01*
X142794457Y-118556956D01*
X142773387Y-118566921D01*
X142751443Y-118574773D01*
X142728834Y-118580437D01*
X142705779Y-118583856D01*
X142682500Y-118585000D01*
X142107500Y-118585000D01*
X142084221Y-118583856D01*
X142061166Y-118580437D01*
X142038557Y-118574773D01*
X142016613Y-118566921D01*
X141995543Y-118556956D01*
X141975552Y-118544974D01*
X141956832Y-118531090D01*
X141939562Y-118515438D01*
X141923910Y-118498168D01*
X141910026Y-118479448D01*
X141898044Y-118459457D01*
X141888079Y-118438387D01*
X141880227Y-118416443D01*
X141874563Y-118393834D01*
X141871144Y-118370779D01*
X141870000Y-118347500D01*
X141870000Y-117872500D01*
X141871144Y-117849221D01*
X141874563Y-117826166D01*
X141880227Y-117803557D01*
X141888079Y-117781613D01*
X141898044Y-117760543D01*
X141910026Y-117740552D01*
X141923910Y-117721832D01*
X141939562Y-117704562D01*
X141956832Y-117688910D01*
X141975552Y-117675026D01*
X141995543Y-117663044D01*
X142016613Y-117653079D01*
X142038557Y-117645227D01*
X142061166Y-117639563D01*
X142084221Y-117636144D01*
X142107500Y-117635000D01*
X142682500Y-117635000D01*
X142705779Y-117636144D01*
X142705779Y-117636144D01*
G37*
D12*
X142395000Y-118110000D03*
D10*
G36*
X144455779Y-117636144D02*
X144478834Y-117639563D01*
X144501443Y-117645227D01*
X144523387Y-117653079D01*
X144544457Y-117663044D01*
X144564448Y-117675026D01*
X144583168Y-117688910D01*
X144600438Y-117704562D01*
X144616090Y-117721832D01*
X144629974Y-117740552D01*
X144641956Y-117760543D01*
X144651921Y-117781613D01*
X144659773Y-117803557D01*
X144665437Y-117826166D01*
X144668856Y-117849221D01*
X144670000Y-117872500D01*
X144670000Y-118347500D01*
X144668856Y-118370779D01*
X144665437Y-118393834D01*
X144659773Y-118416443D01*
X144651921Y-118438387D01*
X144641956Y-118459457D01*
X144629974Y-118479448D01*
X144616090Y-118498168D01*
X144600438Y-118515438D01*
X144583168Y-118531090D01*
X144564448Y-118544974D01*
X144544457Y-118556956D01*
X144523387Y-118566921D01*
X144501443Y-118574773D01*
X144478834Y-118580437D01*
X144455779Y-118583856D01*
X144432500Y-118585000D01*
X143857500Y-118585000D01*
X143834221Y-118583856D01*
X143811166Y-118580437D01*
X143788557Y-118574773D01*
X143766613Y-118566921D01*
X143745543Y-118556956D01*
X143725552Y-118544974D01*
X143706832Y-118531090D01*
X143689562Y-118515438D01*
X143673910Y-118498168D01*
X143660026Y-118479448D01*
X143648044Y-118459457D01*
X143638079Y-118438387D01*
X143630227Y-118416443D01*
X143624563Y-118393834D01*
X143621144Y-118370779D01*
X143620000Y-118347500D01*
X143620000Y-117872500D01*
X143621144Y-117849221D01*
X143624563Y-117826166D01*
X143630227Y-117803557D01*
X143638079Y-117781613D01*
X143648044Y-117760543D01*
X143660026Y-117740552D01*
X143673910Y-117721832D01*
X143689562Y-117704562D01*
X143706832Y-117688910D01*
X143725552Y-117675026D01*
X143745543Y-117663044D01*
X143766613Y-117653079D01*
X143788557Y-117645227D01*
X143811166Y-117639563D01*
X143834221Y-117636144D01*
X143857500Y-117635000D01*
X144432500Y-117635000D01*
X144455779Y-117636144D01*
X144455779Y-117636144D01*
G37*
D12*
X144145000Y-118110000D03*
G04 #@! TD*
D10*
G04 #@! TO.C,R12*
G36*
X144455779Y-126526144D02*
X144478834Y-126529563D01*
X144501443Y-126535227D01*
X144523387Y-126543079D01*
X144544457Y-126553044D01*
X144564448Y-126565026D01*
X144583168Y-126578910D01*
X144600438Y-126594562D01*
X144616090Y-126611832D01*
X144629974Y-126630552D01*
X144641956Y-126650543D01*
X144651921Y-126671613D01*
X144659773Y-126693557D01*
X144665437Y-126716166D01*
X144668856Y-126739221D01*
X144670000Y-126762500D01*
X144670000Y-127237500D01*
X144668856Y-127260779D01*
X144665437Y-127283834D01*
X144659773Y-127306443D01*
X144651921Y-127328387D01*
X144641956Y-127349457D01*
X144629974Y-127369448D01*
X144616090Y-127388168D01*
X144600438Y-127405438D01*
X144583168Y-127421090D01*
X144564448Y-127434974D01*
X144544457Y-127446956D01*
X144523387Y-127456921D01*
X144501443Y-127464773D01*
X144478834Y-127470437D01*
X144455779Y-127473856D01*
X144432500Y-127475000D01*
X143857500Y-127475000D01*
X143834221Y-127473856D01*
X143811166Y-127470437D01*
X143788557Y-127464773D01*
X143766613Y-127456921D01*
X143745543Y-127446956D01*
X143725552Y-127434974D01*
X143706832Y-127421090D01*
X143689562Y-127405438D01*
X143673910Y-127388168D01*
X143660026Y-127369448D01*
X143648044Y-127349457D01*
X143638079Y-127328387D01*
X143630227Y-127306443D01*
X143624563Y-127283834D01*
X143621144Y-127260779D01*
X143620000Y-127237500D01*
X143620000Y-126762500D01*
X143621144Y-126739221D01*
X143624563Y-126716166D01*
X143630227Y-126693557D01*
X143638079Y-126671613D01*
X143648044Y-126650543D01*
X143660026Y-126630552D01*
X143673910Y-126611832D01*
X143689562Y-126594562D01*
X143706832Y-126578910D01*
X143725552Y-126565026D01*
X143745543Y-126553044D01*
X143766613Y-126543079D01*
X143788557Y-126535227D01*
X143811166Y-126529563D01*
X143834221Y-126526144D01*
X143857500Y-126525000D01*
X144432500Y-126525000D01*
X144455779Y-126526144D01*
X144455779Y-126526144D01*
G37*
D12*
X144145000Y-127000000D03*
D10*
G36*
X142705779Y-126526144D02*
X142728834Y-126529563D01*
X142751443Y-126535227D01*
X142773387Y-126543079D01*
X142794457Y-126553044D01*
X142814448Y-126565026D01*
X142833168Y-126578910D01*
X142850438Y-126594562D01*
X142866090Y-126611832D01*
X142879974Y-126630552D01*
X142891956Y-126650543D01*
X142901921Y-126671613D01*
X142909773Y-126693557D01*
X142915437Y-126716166D01*
X142918856Y-126739221D01*
X142920000Y-126762500D01*
X142920000Y-127237500D01*
X142918856Y-127260779D01*
X142915437Y-127283834D01*
X142909773Y-127306443D01*
X142901921Y-127328387D01*
X142891956Y-127349457D01*
X142879974Y-127369448D01*
X142866090Y-127388168D01*
X142850438Y-127405438D01*
X142833168Y-127421090D01*
X142814448Y-127434974D01*
X142794457Y-127446956D01*
X142773387Y-127456921D01*
X142751443Y-127464773D01*
X142728834Y-127470437D01*
X142705779Y-127473856D01*
X142682500Y-127475000D01*
X142107500Y-127475000D01*
X142084221Y-127473856D01*
X142061166Y-127470437D01*
X142038557Y-127464773D01*
X142016613Y-127456921D01*
X141995543Y-127446956D01*
X141975552Y-127434974D01*
X141956832Y-127421090D01*
X141939562Y-127405438D01*
X141923910Y-127388168D01*
X141910026Y-127369448D01*
X141898044Y-127349457D01*
X141888079Y-127328387D01*
X141880227Y-127306443D01*
X141874563Y-127283834D01*
X141871144Y-127260779D01*
X141870000Y-127237500D01*
X141870000Y-126762500D01*
X141871144Y-126739221D01*
X141874563Y-126716166D01*
X141880227Y-126693557D01*
X141888079Y-126671613D01*
X141898044Y-126650543D01*
X141910026Y-126630552D01*
X141923910Y-126611832D01*
X141939562Y-126594562D01*
X141956832Y-126578910D01*
X141975552Y-126565026D01*
X141995543Y-126553044D01*
X142016613Y-126543079D01*
X142038557Y-126535227D01*
X142061166Y-126529563D01*
X142084221Y-126526144D01*
X142107500Y-126525000D01*
X142682500Y-126525000D01*
X142705779Y-126526144D01*
X142705779Y-126526144D01*
G37*
D12*
X142395000Y-127000000D03*
G04 #@! TD*
D10*
G04 #@! TO.C,R13*
G36*
X157395779Y-82647644D02*
X157418834Y-82651063D01*
X157441443Y-82656727D01*
X157463387Y-82664579D01*
X157484457Y-82674544D01*
X157504448Y-82686526D01*
X157523168Y-82700410D01*
X157540438Y-82716062D01*
X157556090Y-82733332D01*
X157569974Y-82752052D01*
X157581956Y-82772043D01*
X157591921Y-82793113D01*
X157599773Y-82815057D01*
X157605437Y-82837666D01*
X157608856Y-82860721D01*
X157610000Y-82884000D01*
X157610000Y-83359000D01*
X157608856Y-83382279D01*
X157605437Y-83405334D01*
X157599773Y-83427943D01*
X157591921Y-83449887D01*
X157581956Y-83470957D01*
X157569974Y-83490948D01*
X157556090Y-83509668D01*
X157540438Y-83526938D01*
X157523168Y-83542590D01*
X157504448Y-83556474D01*
X157484457Y-83568456D01*
X157463387Y-83578421D01*
X157441443Y-83586273D01*
X157418834Y-83591937D01*
X157395779Y-83595356D01*
X157372500Y-83596500D01*
X156797500Y-83596500D01*
X156774221Y-83595356D01*
X156751166Y-83591937D01*
X156728557Y-83586273D01*
X156706613Y-83578421D01*
X156685543Y-83568456D01*
X156665552Y-83556474D01*
X156646832Y-83542590D01*
X156629562Y-83526938D01*
X156613910Y-83509668D01*
X156600026Y-83490948D01*
X156588044Y-83470957D01*
X156578079Y-83449887D01*
X156570227Y-83427943D01*
X156564563Y-83405334D01*
X156561144Y-83382279D01*
X156560000Y-83359000D01*
X156560000Y-82884000D01*
X156561144Y-82860721D01*
X156564563Y-82837666D01*
X156570227Y-82815057D01*
X156578079Y-82793113D01*
X156588044Y-82772043D01*
X156600026Y-82752052D01*
X156613910Y-82733332D01*
X156629562Y-82716062D01*
X156646832Y-82700410D01*
X156665552Y-82686526D01*
X156685543Y-82674544D01*
X156706613Y-82664579D01*
X156728557Y-82656727D01*
X156751166Y-82651063D01*
X156774221Y-82647644D01*
X156797500Y-82646500D01*
X157372500Y-82646500D01*
X157395779Y-82647644D01*
X157395779Y-82647644D01*
G37*
D12*
X157085000Y-83121500D03*
D10*
G36*
X155645779Y-82647644D02*
X155668834Y-82651063D01*
X155691443Y-82656727D01*
X155713387Y-82664579D01*
X155734457Y-82674544D01*
X155754448Y-82686526D01*
X155773168Y-82700410D01*
X155790438Y-82716062D01*
X155806090Y-82733332D01*
X155819974Y-82752052D01*
X155831956Y-82772043D01*
X155841921Y-82793113D01*
X155849773Y-82815057D01*
X155855437Y-82837666D01*
X155858856Y-82860721D01*
X155860000Y-82884000D01*
X155860000Y-83359000D01*
X155858856Y-83382279D01*
X155855437Y-83405334D01*
X155849773Y-83427943D01*
X155841921Y-83449887D01*
X155831956Y-83470957D01*
X155819974Y-83490948D01*
X155806090Y-83509668D01*
X155790438Y-83526938D01*
X155773168Y-83542590D01*
X155754448Y-83556474D01*
X155734457Y-83568456D01*
X155713387Y-83578421D01*
X155691443Y-83586273D01*
X155668834Y-83591937D01*
X155645779Y-83595356D01*
X155622500Y-83596500D01*
X155047500Y-83596500D01*
X155024221Y-83595356D01*
X155001166Y-83591937D01*
X154978557Y-83586273D01*
X154956613Y-83578421D01*
X154935543Y-83568456D01*
X154915552Y-83556474D01*
X154896832Y-83542590D01*
X154879562Y-83526938D01*
X154863910Y-83509668D01*
X154850026Y-83490948D01*
X154838044Y-83470957D01*
X154828079Y-83449887D01*
X154820227Y-83427943D01*
X154814563Y-83405334D01*
X154811144Y-83382279D01*
X154810000Y-83359000D01*
X154810000Y-82884000D01*
X154811144Y-82860721D01*
X154814563Y-82837666D01*
X154820227Y-82815057D01*
X154828079Y-82793113D01*
X154838044Y-82772043D01*
X154850026Y-82752052D01*
X154863910Y-82733332D01*
X154879562Y-82716062D01*
X154896832Y-82700410D01*
X154915552Y-82686526D01*
X154935543Y-82674544D01*
X154956613Y-82664579D01*
X154978557Y-82656727D01*
X155001166Y-82651063D01*
X155024221Y-82647644D01*
X155047500Y-82646500D01*
X155622500Y-82646500D01*
X155645779Y-82647644D01*
X155645779Y-82647644D01*
G37*
D12*
X155335000Y-83121500D03*
G04 #@! TD*
D10*
G04 #@! TO.C,R14*
G36*
X155645779Y-88045144D02*
X155668834Y-88048563D01*
X155691443Y-88054227D01*
X155713387Y-88062079D01*
X155734457Y-88072044D01*
X155754448Y-88084026D01*
X155773168Y-88097910D01*
X155790438Y-88113562D01*
X155806090Y-88130832D01*
X155819974Y-88149552D01*
X155831956Y-88169543D01*
X155841921Y-88190613D01*
X155849773Y-88212557D01*
X155855437Y-88235166D01*
X155858856Y-88258221D01*
X155860000Y-88281500D01*
X155860000Y-88756500D01*
X155858856Y-88779779D01*
X155855437Y-88802834D01*
X155849773Y-88825443D01*
X155841921Y-88847387D01*
X155831956Y-88868457D01*
X155819974Y-88888448D01*
X155806090Y-88907168D01*
X155790438Y-88924438D01*
X155773168Y-88940090D01*
X155754448Y-88953974D01*
X155734457Y-88965956D01*
X155713387Y-88975921D01*
X155691443Y-88983773D01*
X155668834Y-88989437D01*
X155645779Y-88992856D01*
X155622500Y-88994000D01*
X155047500Y-88994000D01*
X155024221Y-88992856D01*
X155001166Y-88989437D01*
X154978557Y-88983773D01*
X154956613Y-88975921D01*
X154935543Y-88965956D01*
X154915552Y-88953974D01*
X154896832Y-88940090D01*
X154879562Y-88924438D01*
X154863910Y-88907168D01*
X154850026Y-88888448D01*
X154838044Y-88868457D01*
X154828079Y-88847387D01*
X154820227Y-88825443D01*
X154814563Y-88802834D01*
X154811144Y-88779779D01*
X154810000Y-88756500D01*
X154810000Y-88281500D01*
X154811144Y-88258221D01*
X154814563Y-88235166D01*
X154820227Y-88212557D01*
X154828079Y-88190613D01*
X154838044Y-88169543D01*
X154850026Y-88149552D01*
X154863910Y-88130832D01*
X154879562Y-88113562D01*
X154896832Y-88097910D01*
X154915552Y-88084026D01*
X154935543Y-88072044D01*
X154956613Y-88062079D01*
X154978557Y-88054227D01*
X155001166Y-88048563D01*
X155024221Y-88045144D01*
X155047500Y-88044000D01*
X155622500Y-88044000D01*
X155645779Y-88045144D01*
X155645779Y-88045144D01*
G37*
D12*
X155335000Y-88519000D03*
D10*
G36*
X157395779Y-88045144D02*
X157418834Y-88048563D01*
X157441443Y-88054227D01*
X157463387Y-88062079D01*
X157484457Y-88072044D01*
X157504448Y-88084026D01*
X157523168Y-88097910D01*
X157540438Y-88113562D01*
X157556090Y-88130832D01*
X157569974Y-88149552D01*
X157581956Y-88169543D01*
X157591921Y-88190613D01*
X157599773Y-88212557D01*
X157605437Y-88235166D01*
X157608856Y-88258221D01*
X157610000Y-88281500D01*
X157610000Y-88756500D01*
X157608856Y-88779779D01*
X157605437Y-88802834D01*
X157599773Y-88825443D01*
X157591921Y-88847387D01*
X157581956Y-88868457D01*
X157569974Y-88888448D01*
X157556090Y-88907168D01*
X157540438Y-88924438D01*
X157523168Y-88940090D01*
X157504448Y-88953974D01*
X157484457Y-88965956D01*
X157463387Y-88975921D01*
X157441443Y-88983773D01*
X157418834Y-88989437D01*
X157395779Y-88992856D01*
X157372500Y-88994000D01*
X156797500Y-88994000D01*
X156774221Y-88992856D01*
X156751166Y-88989437D01*
X156728557Y-88983773D01*
X156706613Y-88975921D01*
X156685543Y-88965956D01*
X156665552Y-88953974D01*
X156646832Y-88940090D01*
X156629562Y-88924438D01*
X156613910Y-88907168D01*
X156600026Y-88888448D01*
X156588044Y-88868457D01*
X156578079Y-88847387D01*
X156570227Y-88825443D01*
X156564563Y-88802834D01*
X156561144Y-88779779D01*
X156560000Y-88756500D01*
X156560000Y-88281500D01*
X156561144Y-88258221D01*
X156564563Y-88235166D01*
X156570227Y-88212557D01*
X156578079Y-88190613D01*
X156588044Y-88169543D01*
X156600026Y-88149552D01*
X156613910Y-88130832D01*
X156629562Y-88113562D01*
X156646832Y-88097910D01*
X156665552Y-88084026D01*
X156685543Y-88072044D01*
X156706613Y-88062079D01*
X156728557Y-88054227D01*
X156751166Y-88048563D01*
X156774221Y-88045144D01*
X156797500Y-88044000D01*
X157372500Y-88044000D01*
X157395779Y-88045144D01*
X157395779Y-88045144D01*
G37*
D12*
X157085000Y-88519000D03*
G04 #@! TD*
D10*
G04 #@! TO.C,R15*
G36*
X156470779Y-77341144D02*
X156493834Y-77344563D01*
X156516443Y-77350227D01*
X156538387Y-77358079D01*
X156559457Y-77368044D01*
X156579448Y-77380026D01*
X156598168Y-77393910D01*
X156615438Y-77409562D01*
X156631090Y-77426832D01*
X156644974Y-77445552D01*
X156656956Y-77465543D01*
X156666921Y-77486613D01*
X156674773Y-77508557D01*
X156680437Y-77531166D01*
X156683856Y-77554221D01*
X156685000Y-77577500D01*
X156685000Y-78152500D01*
X156683856Y-78175779D01*
X156680437Y-78198834D01*
X156674773Y-78221443D01*
X156666921Y-78243387D01*
X156656956Y-78264457D01*
X156644974Y-78284448D01*
X156631090Y-78303168D01*
X156615438Y-78320438D01*
X156598168Y-78336090D01*
X156579448Y-78349974D01*
X156559457Y-78361956D01*
X156538387Y-78371921D01*
X156516443Y-78379773D01*
X156493834Y-78385437D01*
X156470779Y-78388856D01*
X156447500Y-78390000D01*
X155972500Y-78390000D01*
X155949221Y-78388856D01*
X155926166Y-78385437D01*
X155903557Y-78379773D01*
X155881613Y-78371921D01*
X155860543Y-78361956D01*
X155840552Y-78349974D01*
X155821832Y-78336090D01*
X155804562Y-78320438D01*
X155788910Y-78303168D01*
X155775026Y-78284448D01*
X155763044Y-78264457D01*
X155753079Y-78243387D01*
X155745227Y-78221443D01*
X155739563Y-78198834D01*
X155736144Y-78175779D01*
X155735000Y-78152500D01*
X155735000Y-77577500D01*
X155736144Y-77554221D01*
X155739563Y-77531166D01*
X155745227Y-77508557D01*
X155753079Y-77486613D01*
X155763044Y-77465543D01*
X155775026Y-77445552D01*
X155788910Y-77426832D01*
X155804562Y-77409562D01*
X155821832Y-77393910D01*
X155840552Y-77380026D01*
X155860543Y-77368044D01*
X155881613Y-77358079D01*
X155903557Y-77350227D01*
X155926166Y-77344563D01*
X155949221Y-77341144D01*
X155972500Y-77340000D01*
X156447500Y-77340000D01*
X156470779Y-77341144D01*
X156470779Y-77341144D01*
G37*
D12*
X156210000Y-77865000D03*
D10*
G36*
X156470779Y-79091144D02*
X156493834Y-79094563D01*
X156516443Y-79100227D01*
X156538387Y-79108079D01*
X156559457Y-79118044D01*
X156579448Y-79130026D01*
X156598168Y-79143910D01*
X156615438Y-79159562D01*
X156631090Y-79176832D01*
X156644974Y-79195552D01*
X156656956Y-79215543D01*
X156666921Y-79236613D01*
X156674773Y-79258557D01*
X156680437Y-79281166D01*
X156683856Y-79304221D01*
X156685000Y-79327500D01*
X156685000Y-79902500D01*
X156683856Y-79925779D01*
X156680437Y-79948834D01*
X156674773Y-79971443D01*
X156666921Y-79993387D01*
X156656956Y-80014457D01*
X156644974Y-80034448D01*
X156631090Y-80053168D01*
X156615438Y-80070438D01*
X156598168Y-80086090D01*
X156579448Y-80099974D01*
X156559457Y-80111956D01*
X156538387Y-80121921D01*
X156516443Y-80129773D01*
X156493834Y-80135437D01*
X156470779Y-80138856D01*
X156447500Y-80140000D01*
X155972500Y-80140000D01*
X155949221Y-80138856D01*
X155926166Y-80135437D01*
X155903557Y-80129773D01*
X155881613Y-80121921D01*
X155860543Y-80111956D01*
X155840552Y-80099974D01*
X155821832Y-80086090D01*
X155804562Y-80070438D01*
X155788910Y-80053168D01*
X155775026Y-80034448D01*
X155763044Y-80014457D01*
X155753079Y-79993387D01*
X155745227Y-79971443D01*
X155739563Y-79948834D01*
X155736144Y-79925779D01*
X155735000Y-79902500D01*
X155735000Y-79327500D01*
X155736144Y-79304221D01*
X155739563Y-79281166D01*
X155745227Y-79258557D01*
X155753079Y-79236613D01*
X155763044Y-79215543D01*
X155775026Y-79195552D01*
X155788910Y-79176832D01*
X155804562Y-79159562D01*
X155821832Y-79143910D01*
X155840552Y-79130026D01*
X155860543Y-79118044D01*
X155881613Y-79108079D01*
X155903557Y-79100227D01*
X155926166Y-79094563D01*
X155949221Y-79091144D01*
X155972500Y-79090000D01*
X156447500Y-79090000D01*
X156470779Y-79091144D01*
X156470779Y-79091144D01*
G37*
D12*
X156210000Y-79615000D03*
G04 #@! TD*
D10*
G04 #@! TO.C,R16*
G36*
X156470779Y-93061144D02*
X156493834Y-93064563D01*
X156516443Y-93070227D01*
X156538387Y-93078079D01*
X156559457Y-93088044D01*
X156579448Y-93100026D01*
X156598168Y-93113910D01*
X156615438Y-93129562D01*
X156631090Y-93146832D01*
X156644974Y-93165552D01*
X156656956Y-93185543D01*
X156666921Y-93206613D01*
X156674773Y-93228557D01*
X156680437Y-93251166D01*
X156683856Y-93274221D01*
X156685000Y-93297500D01*
X156685000Y-93872500D01*
X156683856Y-93895779D01*
X156680437Y-93918834D01*
X156674773Y-93941443D01*
X156666921Y-93963387D01*
X156656956Y-93984457D01*
X156644974Y-94004448D01*
X156631090Y-94023168D01*
X156615438Y-94040438D01*
X156598168Y-94056090D01*
X156579448Y-94069974D01*
X156559457Y-94081956D01*
X156538387Y-94091921D01*
X156516443Y-94099773D01*
X156493834Y-94105437D01*
X156470779Y-94108856D01*
X156447500Y-94110000D01*
X155972500Y-94110000D01*
X155949221Y-94108856D01*
X155926166Y-94105437D01*
X155903557Y-94099773D01*
X155881613Y-94091921D01*
X155860543Y-94081956D01*
X155840552Y-94069974D01*
X155821832Y-94056090D01*
X155804562Y-94040438D01*
X155788910Y-94023168D01*
X155775026Y-94004448D01*
X155763044Y-93984457D01*
X155753079Y-93963387D01*
X155745227Y-93941443D01*
X155739563Y-93918834D01*
X155736144Y-93895779D01*
X155735000Y-93872500D01*
X155735000Y-93297500D01*
X155736144Y-93274221D01*
X155739563Y-93251166D01*
X155745227Y-93228557D01*
X155753079Y-93206613D01*
X155763044Y-93185543D01*
X155775026Y-93165552D01*
X155788910Y-93146832D01*
X155804562Y-93129562D01*
X155821832Y-93113910D01*
X155840552Y-93100026D01*
X155860543Y-93088044D01*
X155881613Y-93078079D01*
X155903557Y-93070227D01*
X155926166Y-93064563D01*
X155949221Y-93061144D01*
X155972500Y-93060000D01*
X156447500Y-93060000D01*
X156470779Y-93061144D01*
X156470779Y-93061144D01*
G37*
D12*
X156210000Y-93585000D03*
D10*
G36*
X156470779Y-91311144D02*
X156493834Y-91314563D01*
X156516443Y-91320227D01*
X156538387Y-91328079D01*
X156559457Y-91338044D01*
X156579448Y-91350026D01*
X156598168Y-91363910D01*
X156615438Y-91379562D01*
X156631090Y-91396832D01*
X156644974Y-91415552D01*
X156656956Y-91435543D01*
X156666921Y-91456613D01*
X156674773Y-91478557D01*
X156680437Y-91501166D01*
X156683856Y-91524221D01*
X156685000Y-91547500D01*
X156685000Y-92122500D01*
X156683856Y-92145779D01*
X156680437Y-92168834D01*
X156674773Y-92191443D01*
X156666921Y-92213387D01*
X156656956Y-92234457D01*
X156644974Y-92254448D01*
X156631090Y-92273168D01*
X156615438Y-92290438D01*
X156598168Y-92306090D01*
X156579448Y-92319974D01*
X156559457Y-92331956D01*
X156538387Y-92341921D01*
X156516443Y-92349773D01*
X156493834Y-92355437D01*
X156470779Y-92358856D01*
X156447500Y-92360000D01*
X155972500Y-92360000D01*
X155949221Y-92358856D01*
X155926166Y-92355437D01*
X155903557Y-92349773D01*
X155881613Y-92341921D01*
X155860543Y-92331956D01*
X155840552Y-92319974D01*
X155821832Y-92306090D01*
X155804562Y-92290438D01*
X155788910Y-92273168D01*
X155775026Y-92254448D01*
X155763044Y-92234457D01*
X155753079Y-92213387D01*
X155745227Y-92191443D01*
X155739563Y-92168834D01*
X155736144Y-92145779D01*
X155735000Y-92122500D01*
X155735000Y-91547500D01*
X155736144Y-91524221D01*
X155739563Y-91501166D01*
X155745227Y-91478557D01*
X155753079Y-91456613D01*
X155763044Y-91435543D01*
X155775026Y-91415552D01*
X155788910Y-91396832D01*
X155804562Y-91379562D01*
X155821832Y-91363910D01*
X155840552Y-91350026D01*
X155860543Y-91338044D01*
X155881613Y-91328079D01*
X155903557Y-91320227D01*
X155926166Y-91314563D01*
X155949221Y-91311144D01*
X155972500Y-91310000D01*
X156447500Y-91310000D01*
X156470779Y-91311144D01*
X156470779Y-91311144D01*
G37*
D12*
X156210000Y-91835000D03*
G04 #@! TD*
D10*
G04 #@! TO.C,R17*
G36*
X156470779Y-105041144D02*
X156493834Y-105044563D01*
X156516443Y-105050227D01*
X156538387Y-105058079D01*
X156559457Y-105068044D01*
X156579448Y-105080026D01*
X156598168Y-105093910D01*
X156615438Y-105109562D01*
X156631090Y-105126832D01*
X156644974Y-105145552D01*
X156656956Y-105165543D01*
X156666921Y-105186613D01*
X156674773Y-105208557D01*
X156680437Y-105231166D01*
X156683856Y-105254221D01*
X156685000Y-105277500D01*
X156685000Y-105852500D01*
X156683856Y-105875779D01*
X156680437Y-105898834D01*
X156674773Y-105921443D01*
X156666921Y-105943387D01*
X156656956Y-105964457D01*
X156644974Y-105984448D01*
X156631090Y-106003168D01*
X156615438Y-106020438D01*
X156598168Y-106036090D01*
X156579448Y-106049974D01*
X156559457Y-106061956D01*
X156538387Y-106071921D01*
X156516443Y-106079773D01*
X156493834Y-106085437D01*
X156470779Y-106088856D01*
X156447500Y-106090000D01*
X155972500Y-106090000D01*
X155949221Y-106088856D01*
X155926166Y-106085437D01*
X155903557Y-106079773D01*
X155881613Y-106071921D01*
X155860543Y-106061956D01*
X155840552Y-106049974D01*
X155821832Y-106036090D01*
X155804562Y-106020438D01*
X155788910Y-106003168D01*
X155775026Y-105984448D01*
X155763044Y-105964457D01*
X155753079Y-105943387D01*
X155745227Y-105921443D01*
X155739563Y-105898834D01*
X155736144Y-105875779D01*
X155735000Y-105852500D01*
X155735000Y-105277500D01*
X155736144Y-105254221D01*
X155739563Y-105231166D01*
X155745227Y-105208557D01*
X155753079Y-105186613D01*
X155763044Y-105165543D01*
X155775026Y-105145552D01*
X155788910Y-105126832D01*
X155804562Y-105109562D01*
X155821832Y-105093910D01*
X155840552Y-105080026D01*
X155860543Y-105068044D01*
X155881613Y-105058079D01*
X155903557Y-105050227D01*
X155926166Y-105044563D01*
X155949221Y-105041144D01*
X155972500Y-105040000D01*
X156447500Y-105040000D01*
X156470779Y-105041144D01*
X156470779Y-105041144D01*
G37*
D12*
X156210000Y-105565000D03*
D10*
G36*
X156470779Y-106791144D02*
X156493834Y-106794563D01*
X156516443Y-106800227D01*
X156538387Y-106808079D01*
X156559457Y-106818044D01*
X156579448Y-106830026D01*
X156598168Y-106843910D01*
X156615438Y-106859562D01*
X156631090Y-106876832D01*
X156644974Y-106895552D01*
X156656956Y-106915543D01*
X156666921Y-106936613D01*
X156674773Y-106958557D01*
X156680437Y-106981166D01*
X156683856Y-107004221D01*
X156685000Y-107027500D01*
X156685000Y-107602500D01*
X156683856Y-107625779D01*
X156680437Y-107648834D01*
X156674773Y-107671443D01*
X156666921Y-107693387D01*
X156656956Y-107714457D01*
X156644974Y-107734448D01*
X156631090Y-107753168D01*
X156615438Y-107770438D01*
X156598168Y-107786090D01*
X156579448Y-107799974D01*
X156559457Y-107811956D01*
X156538387Y-107821921D01*
X156516443Y-107829773D01*
X156493834Y-107835437D01*
X156470779Y-107838856D01*
X156447500Y-107840000D01*
X155972500Y-107840000D01*
X155949221Y-107838856D01*
X155926166Y-107835437D01*
X155903557Y-107829773D01*
X155881613Y-107821921D01*
X155860543Y-107811956D01*
X155840552Y-107799974D01*
X155821832Y-107786090D01*
X155804562Y-107770438D01*
X155788910Y-107753168D01*
X155775026Y-107734448D01*
X155763044Y-107714457D01*
X155753079Y-107693387D01*
X155745227Y-107671443D01*
X155739563Y-107648834D01*
X155736144Y-107625779D01*
X155735000Y-107602500D01*
X155735000Y-107027500D01*
X155736144Y-107004221D01*
X155739563Y-106981166D01*
X155745227Y-106958557D01*
X155753079Y-106936613D01*
X155763044Y-106915543D01*
X155775026Y-106895552D01*
X155788910Y-106876832D01*
X155804562Y-106859562D01*
X155821832Y-106843910D01*
X155840552Y-106830026D01*
X155860543Y-106818044D01*
X155881613Y-106808079D01*
X155903557Y-106800227D01*
X155926166Y-106794563D01*
X155949221Y-106791144D01*
X155972500Y-106790000D01*
X156447500Y-106790000D01*
X156470779Y-106791144D01*
X156470779Y-106791144D01*
G37*
D12*
X156210000Y-107315000D03*
G04 #@! TD*
D10*
G04 #@! TO.C,R18*
G36*
X156470779Y-121001144D02*
X156493834Y-121004563D01*
X156516443Y-121010227D01*
X156538387Y-121018079D01*
X156559457Y-121028044D01*
X156579448Y-121040026D01*
X156598168Y-121053910D01*
X156615438Y-121069562D01*
X156631090Y-121086832D01*
X156644974Y-121105552D01*
X156656956Y-121125543D01*
X156666921Y-121146613D01*
X156674773Y-121168557D01*
X156680437Y-121191166D01*
X156683856Y-121214221D01*
X156685000Y-121237500D01*
X156685000Y-121812500D01*
X156683856Y-121835779D01*
X156680437Y-121858834D01*
X156674773Y-121881443D01*
X156666921Y-121903387D01*
X156656956Y-121924457D01*
X156644974Y-121944448D01*
X156631090Y-121963168D01*
X156615438Y-121980438D01*
X156598168Y-121996090D01*
X156579448Y-122009974D01*
X156559457Y-122021956D01*
X156538387Y-122031921D01*
X156516443Y-122039773D01*
X156493834Y-122045437D01*
X156470779Y-122048856D01*
X156447500Y-122050000D01*
X155972500Y-122050000D01*
X155949221Y-122048856D01*
X155926166Y-122045437D01*
X155903557Y-122039773D01*
X155881613Y-122031921D01*
X155860543Y-122021956D01*
X155840552Y-122009974D01*
X155821832Y-121996090D01*
X155804562Y-121980438D01*
X155788910Y-121963168D01*
X155775026Y-121944448D01*
X155763044Y-121924457D01*
X155753079Y-121903387D01*
X155745227Y-121881443D01*
X155739563Y-121858834D01*
X155736144Y-121835779D01*
X155735000Y-121812500D01*
X155735000Y-121237500D01*
X155736144Y-121214221D01*
X155739563Y-121191166D01*
X155745227Y-121168557D01*
X155753079Y-121146613D01*
X155763044Y-121125543D01*
X155775026Y-121105552D01*
X155788910Y-121086832D01*
X155804562Y-121069562D01*
X155821832Y-121053910D01*
X155840552Y-121040026D01*
X155860543Y-121028044D01*
X155881613Y-121018079D01*
X155903557Y-121010227D01*
X155926166Y-121004563D01*
X155949221Y-121001144D01*
X155972500Y-121000000D01*
X156447500Y-121000000D01*
X156470779Y-121001144D01*
X156470779Y-121001144D01*
G37*
D12*
X156210000Y-121525000D03*
D10*
G36*
X156470779Y-119251144D02*
X156493834Y-119254563D01*
X156516443Y-119260227D01*
X156538387Y-119268079D01*
X156559457Y-119278044D01*
X156579448Y-119290026D01*
X156598168Y-119303910D01*
X156615438Y-119319562D01*
X156631090Y-119336832D01*
X156644974Y-119355552D01*
X156656956Y-119375543D01*
X156666921Y-119396613D01*
X156674773Y-119418557D01*
X156680437Y-119441166D01*
X156683856Y-119464221D01*
X156685000Y-119487500D01*
X156685000Y-120062500D01*
X156683856Y-120085779D01*
X156680437Y-120108834D01*
X156674773Y-120131443D01*
X156666921Y-120153387D01*
X156656956Y-120174457D01*
X156644974Y-120194448D01*
X156631090Y-120213168D01*
X156615438Y-120230438D01*
X156598168Y-120246090D01*
X156579448Y-120259974D01*
X156559457Y-120271956D01*
X156538387Y-120281921D01*
X156516443Y-120289773D01*
X156493834Y-120295437D01*
X156470779Y-120298856D01*
X156447500Y-120300000D01*
X155972500Y-120300000D01*
X155949221Y-120298856D01*
X155926166Y-120295437D01*
X155903557Y-120289773D01*
X155881613Y-120281921D01*
X155860543Y-120271956D01*
X155840552Y-120259974D01*
X155821832Y-120246090D01*
X155804562Y-120230438D01*
X155788910Y-120213168D01*
X155775026Y-120194448D01*
X155763044Y-120174457D01*
X155753079Y-120153387D01*
X155745227Y-120131443D01*
X155739563Y-120108834D01*
X155736144Y-120085779D01*
X155735000Y-120062500D01*
X155735000Y-119487500D01*
X155736144Y-119464221D01*
X155739563Y-119441166D01*
X155745227Y-119418557D01*
X155753079Y-119396613D01*
X155763044Y-119375543D01*
X155775026Y-119355552D01*
X155788910Y-119336832D01*
X155804562Y-119319562D01*
X155821832Y-119303910D01*
X155840552Y-119290026D01*
X155860543Y-119278044D01*
X155881613Y-119268079D01*
X155903557Y-119260227D01*
X155926166Y-119254563D01*
X155949221Y-119251144D01*
X155972500Y-119250000D01*
X156447500Y-119250000D01*
X156470779Y-119251144D01*
X156470779Y-119251144D01*
G37*
D12*
X156210000Y-119775000D03*
G04 #@! TD*
D10*
G04 #@! TO.C,R19*
G36*
X155645779Y-110588144D02*
X155668834Y-110591563D01*
X155691443Y-110597227D01*
X155713387Y-110605079D01*
X155734457Y-110615044D01*
X155754448Y-110627026D01*
X155773168Y-110640910D01*
X155790438Y-110656562D01*
X155806090Y-110673832D01*
X155819974Y-110692552D01*
X155831956Y-110712543D01*
X155841921Y-110733613D01*
X155849773Y-110755557D01*
X155855437Y-110778166D01*
X155858856Y-110801221D01*
X155860000Y-110824500D01*
X155860000Y-111299500D01*
X155858856Y-111322779D01*
X155855437Y-111345834D01*
X155849773Y-111368443D01*
X155841921Y-111390387D01*
X155831956Y-111411457D01*
X155819974Y-111431448D01*
X155806090Y-111450168D01*
X155790438Y-111467438D01*
X155773168Y-111483090D01*
X155754448Y-111496974D01*
X155734457Y-111508956D01*
X155713387Y-111518921D01*
X155691443Y-111526773D01*
X155668834Y-111532437D01*
X155645779Y-111535856D01*
X155622500Y-111537000D01*
X155047500Y-111537000D01*
X155024221Y-111535856D01*
X155001166Y-111532437D01*
X154978557Y-111526773D01*
X154956613Y-111518921D01*
X154935543Y-111508956D01*
X154915552Y-111496974D01*
X154896832Y-111483090D01*
X154879562Y-111467438D01*
X154863910Y-111450168D01*
X154850026Y-111431448D01*
X154838044Y-111411457D01*
X154828079Y-111390387D01*
X154820227Y-111368443D01*
X154814563Y-111345834D01*
X154811144Y-111322779D01*
X154810000Y-111299500D01*
X154810000Y-110824500D01*
X154811144Y-110801221D01*
X154814563Y-110778166D01*
X154820227Y-110755557D01*
X154828079Y-110733613D01*
X154838044Y-110712543D01*
X154850026Y-110692552D01*
X154863910Y-110673832D01*
X154879562Y-110656562D01*
X154896832Y-110640910D01*
X154915552Y-110627026D01*
X154935543Y-110615044D01*
X154956613Y-110605079D01*
X154978557Y-110597227D01*
X155001166Y-110591563D01*
X155024221Y-110588144D01*
X155047500Y-110587000D01*
X155622500Y-110587000D01*
X155645779Y-110588144D01*
X155645779Y-110588144D01*
G37*
D12*
X155335000Y-111062000D03*
D10*
G36*
X157395779Y-110588144D02*
X157418834Y-110591563D01*
X157441443Y-110597227D01*
X157463387Y-110605079D01*
X157484457Y-110615044D01*
X157504448Y-110627026D01*
X157523168Y-110640910D01*
X157540438Y-110656562D01*
X157556090Y-110673832D01*
X157569974Y-110692552D01*
X157581956Y-110712543D01*
X157591921Y-110733613D01*
X157599773Y-110755557D01*
X157605437Y-110778166D01*
X157608856Y-110801221D01*
X157610000Y-110824500D01*
X157610000Y-111299500D01*
X157608856Y-111322779D01*
X157605437Y-111345834D01*
X157599773Y-111368443D01*
X157591921Y-111390387D01*
X157581956Y-111411457D01*
X157569974Y-111431448D01*
X157556090Y-111450168D01*
X157540438Y-111467438D01*
X157523168Y-111483090D01*
X157504448Y-111496974D01*
X157484457Y-111508956D01*
X157463387Y-111518921D01*
X157441443Y-111526773D01*
X157418834Y-111532437D01*
X157395779Y-111535856D01*
X157372500Y-111537000D01*
X156797500Y-111537000D01*
X156774221Y-111535856D01*
X156751166Y-111532437D01*
X156728557Y-111526773D01*
X156706613Y-111518921D01*
X156685543Y-111508956D01*
X156665552Y-111496974D01*
X156646832Y-111483090D01*
X156629562Y-111467438D01*
X156613910Y-111450168D01*
X156600026Y-111431448D01*
X156588044Y-111411457D01*
X156578079Y-111390387D01*
X156570227Y-111368443D01*
X156564563Y-111345834D01*
X156561144Y-111322779D01*
X156560000Y-111299500D01*
X156560000Y-110824500D01*
X156561144Y-110801221D01*
X156564563Y-110778166D01*
X156570227Y-110755557D01*
X156578079Y-110733613D01*
X156588044Y-110712543D01*
X156600026Y-110692552D01*
X156613910Y-110673832D01*
X156629562Y-110656562D01*
X156646832Y-110640910D01*
X156665552Y-110627026D01*
X156685543Y-110615044D01*
X156706613Y-110605079D01*
X156728557Y-110597227D01*
X156751166Y-110591563D01*
X156774221Y-110588144D01*
X156797500Y-110587000D01*
X157372500Y-110587000D01*
X157395779Y-110588144D01*
X157395779Y-110588144D01*
G37*
D12*
X157085000Y-111062000D03*
G04 #@! TD*
D10*
G04 #@! TO.C,R20*
G36*
X155645779Y-115985144D02*
X155668834Y-115988563D01*
X155691443Y-115994227D01*
X155713387Y-116002079D01*
X155734457Y-116012044D01*
X155754448Y-116024026D01*
X155773168Y-116037910D01*
X155790438Y-116053562D01*
X155806090Y-116070832D01*
X155819974Y-116089552D01*
X155831956Y-116109543D01*
X155841921Y-116130613D01*
X155849773Y-116152557D01*
X155855437Y-116175166D01*
X155858856Y-116198221D01*
X155860000Y-116221500D01*
X155860000Y-116696500D01*
X155858856Y-116719779D01*
X155855437Y-116742834D01*
X155849773Y-116765443D01*
X155841921Y-116787387D01*
X155831956Y-116808457D01*
X155819974Y-116828448D01*
X155806090Y-116847168D01*
X155790438Y-116864438D01*
X155773168Y-116880090D01*
X155754448Y-116893974D01*
X155734457Y-116905956D01*
X155713387Y-116915921D01*
X155691443Y-116923773D01*
X155668834Y-116929437D01*
X155645779Y-116932856D01*
X155622500Y-116934000D01*
X155047500Y-116934000D01*
X155024221Y-116932856D01*
X155001166Y-116929437D01*
X154978557Y-116923773D01*
X154956613Y-116915921D01*
X154935543Y-116905956D01*
X154915552Y-116893974D01*
X154896832Y-116880090D01*
X154879562Y-116864438D01*
X154863910Y-116847168D01*
X154850026Y-116828448D01*
X154838044Y-116808457D01*
X154828079Y-116787387D01*
X154820227Y-116765443D01*
X154814563Y-116742834D01*
X154811144Y-116719779D01*
X154810000Y-116696500D01*
X154810000Y-116221500D01*
X154811144Y-116198221D01*
X154814563Y-116175166D01*
X154820227Y-116152557D01*
X154828079Y-116130613D01*
X154838044Y-116109543D01*
X154850026Y-116089552D01*
X154863910Y-116070832D01*
X154879562Y-116053562D01*
X154896832Y-116037910D01*
X154915552Y-116024026D01*
X154935543Y-116012044D01*
X154956613Y-116002079D01*
X154978557Y-115994227D01*
X155001166Y-115988563D01*
X155024221Y-115985144D01*
X155047500Y-115984000D01*
X155622500Y-115984000D01*
X155645779Y-115985144D01*
X155645779Y-115985144D01*
G37*
D12*
X155335000Y-116459000D03*
D10*
G36*
X157395779Y-115985144D02*
X157418834Y-115988563D01*
X157441443Y-115994227D01*
X157463387Y-116002079D01*
X157484457Y-116012044D01*
X157504448Y-116024026D01*
X157523168Y-116037910D01*
X157540438Y-116053562D01*
X157556090Y-116070832D01*
X157569974Y-116089552D01*
X157581956Y-116109543D01*
X157591921Y-116130613D01*
X157599773Y-116152557D01*
X157605437Y-116175166D01*
X157608856Y-116198221D01*
X157610000Y-116221500D01*
X157610000Y-116696500D01*
X157608856Y-116719779D01*
X157605437Y-116742834D01*
X157599773Y-116765443D01*
X157591921Y-116787387D01*
X157581956Y-116808457D01*
X157569974Y-116828448D01*
X157556090Y-116847168D01*
X157540438Y-116864438D01*
X157523168Y-116880090D01*
X157504448Y-116893974D01*
X157484457Y-116905956D01*
X157463387Y-116915921D01*
X157441443Y-116923773D01*
X157418834Y-116929437D01*
X157395779Y-116932856D01*
X157372500Y-116934000D01*
X156797500Y-116934000D01*
X156774221Y-116932856D01*
X156751166Y-116929437D01*
X156728557Y-116923773D01*
X156706613Y-116915921D01*
X156685543Y-116905956D01*
X156665552Y-116893974D01*
X156646832Y-116880090D01*
X156629562Y-116864438D01*
X156613910Y-116847168D01*
X156600026Y-116828448D01*
X156588044Y-116808457D01*
X156578079Y-116787387D01*
X156570227Y-116765443D01*
X156564563Y-116742834D01*
X156561144Y-116719779D01*
X156560000Y-116696500D01*
X156560000Y-116221500D01*
X156561144Y-116198221D01*
X156564563Y-116175166D01*
X156570227Y-116152557D01*
X156578079Y-116130613D01*
X156588044Y-116109543D01*
X156600026Y-116089552D01*
X156613910Y-116070832D01*
X156629562Y-116053562D01*
X156646832Y-116037910D01*
X156665552Y-116024026D01*
X156685543Y-116012044D01*
X156706613Y-116002079D01*
X156728557Y-115994227D01*
X156751166Y-115988563D01*
X156774221Y-115985144D01*
X156797500Y-115984000D01*
X157372500Y-115984000D01*
X157395779Y-115985144D01*
X157395779Y-115985144D01*
G37*
D12*
X157085000Y-116459000D03*
G04 #@! TD*
D15*
G04 #@! TO.C,U1*
X135500000Y-91065000D03*
X135500000Y-95625000D03*
D16*
X143475000Y-94870000D03*
X140125000Y-91820000D03*
X143475000Y-91820000D03*
X140125000Y-94870000D03*
G04 #@! TD*
D17*
G04 #@! TO.C,U2*
X136525000Y-112395000D03*
X144145000Y-114935000D03*
X136525000Y-114935000D03*
X144145000Y-112395000D03*
G04 #@! TD*
G04 #@! TO.C,U3*
X144145000Y-121285000D03*
X136525000Y-123825000D03*
X144145000Y-123825000D03*
X136525000Y-121285000D03*
G04 #@! TD*
G04 #@! TO.C,U4*
X136525000Y-130175000D03*
X144145000Y-132715000D03*
X136525000Y-132715000D03*
X144145000Y-130175000D03*
G04 #@! TD*
D18*
G04 #@! TO.C,U5*
X147160000Y-83185000D03*
X147160000Y-84455000D03*
X147160000Y-85725000D03*
X147160000Y-86995000D03*
X152560000Y-86995000D03*
X152560000Y-85725000D03*
X152560000Y-84455000D03*
X152560000Y-83185000D03*
G04 #@! TD*
G04 #@! TO.C,U6*
X152560000Y-111125000D03*
X152560000Y-112395000D03*
X152560000Y-113665000D03*
X152560000Y-114935000D03*
X147160000Y-114935000D03*
X147160000Y-113665000D03*
X147160000Y-112395000D03*
X147160000Y-111125000D03*
G04 #@! TD*
M02*
