G04 #@! TF.GenerationSoftware,KiCad,Pcbnew,5.0.1-33cea8e~68~ubuntu16.04.1*
G04 #@! TF.CreationDate,2018-11-22T10:51:10+09:00*
G04 #@! TF.ProjectId,BS2103F_photo,425332313033465F70686F746F2E6B69,rev?*
G04 #@! TF.SameCoordinates,Original*
G04 #@! TF.FileFunction,Copper,L1,Top,Signal*
G04 #@! TF.FilePolarity,Positive*
%FSLAX46Y46*%
G04 Gerber Fmt 4.6, Leading zero omitted, Abs format (unit mm)*
G04 Created by KiCad (PCBNEW 5.0.1-33cea8e~68~ubuntu16.04.1) date 2018年11月22日 10時51分10秒*
%MOMM*%
%LPD*%
G01*
G04 APERTURE LIST*
G04 #@! TA.AperFunction,ComponentPad*
%ADD10C,1.600000*%
G04 #@! TD*
G04 #@! TA.AperFunction,ComponentPad*
%ADD11R,1.600000X1.600000*%
G04 #@! TD*
G04 #@! TA.AperFunction,ComponentPad*
%ADD12R,2.400000X2.400000*%
G04 #@! TD*
G04 #@! TA.AperFunction,ComponentPad*
%ADD13C,2.400000*%
G04 #@! TD*
G04 #@! TA.AperFunction,Conductor*
%ADD14C,0.100000*%
G04 #@! TD*
G04 #@! TA.AperFunction,SMDPad,CuDef*
%ADD15C,1.250000*%
G04 #@! TD*
G04 #@! TA.AperFunction,SMDPad,CuDef*
%ADD16C,0.950000*%
G04 #@! TD*
G04 #@! TA.AperFunction,ComponentPad*
%ADD17R,3.000000X3.000000*%
G04 #@! TD*
G04 #@! TA.AperFunction,ComponentPad*
%ADD18C,3.000000*%
G04 #@! TD*
G04 #@! TA.AperFunction,ComponentPad*
%ADD19C,1.700000*%
G04 #@! TD*
G04 #@! TA.AperFunction,ComponentPad*
%ADD20O,1.950000X1.700000*%
G04 #@! TD*
G04 #@! TA.AperFunction,SMDPad,CuDef*
%ADD21R,4.600000X1.100000*%
G04 #@! TD*
G04 #@! TA.AperFunction,SMDPad,CuDef*
%ADD22R,9.400000X10.800000*%
G04 #@! TD*
G04 #@! TA.AperFunction,SMDPad,CuDef*
%ADD23R,2.200000X1.200000*%
G04 #@! TD*
G04 #@! TA.AperFunction,SMDPad,CuDef*
%ADD24R,6.400000X5.800000*%
G04 #@! TD*
G04 #@! TA.AperFunction,SMDPad,CuDef*
%ADD25R,2.000000X1.780000*%
G04 #@! TD*
G04 #@! TA.AperFunction,SMDPad,CuDef*
%ADD26R,1.550000X0.600000*%
G04 #@! TD*
G04 #@! TA.AperFunction,ViaPad*
%ADD27C,0.800000*%
G04 #@! TD*
G04 #@! TA.AperFunction,ViaPad*
%ADD28C,1.000000*%
G04 #@! TD*
G04 #@! TA.AperFunction,Conductor*
%ADD29C,1.200000*%
G04 #@! TD*
G04 #@! TA.AperFunction,Conductor*
%ADD30C,0.250000*%
G04 #@! TD*
G04 #@! TA.AperFunction,Conductor*
%ADD31C,0.254000*%
G04 #@! TD*
G04 APERTURE END LIST*
D10*
G04 #@! TO.P,C1,2*
G04 #@! TO.N,GND*
X140295000Y-83185000D03*
D11*
G04 #@! TO.P,C1,1*
G04 #@! TO.N,24V*
X137795000Y-83185000D03*
G04 #@! TD*
D10*
G04 #@! TO.P,C2,2*
G04 #@! TO.N,GND*
X141525000Y-88265000D03*
G04 #@! TO.P,C2,1*
G04 #@! TO.N,24V*
X136525000Y-88265000D03*
G04 #@! TD*
G04 #@! TO.P,C3,1*
G04 #@! TO.N,Net-(C3-Pad1)*
X136525000Y-98425000D03*
G04 #@! TO.P,C3,2*
G04 #@! TO.N,GND*
X141525000Y-98425000D03*
G04 #@! TD*
D11*
G04 #@! TO.P,C4,1*
G04 #@! TO.N,Net-(C3-Pad1)*
X137795000Y-103505000D03*
D10*
G04 #@! TO.P,C4,2*
G04 #@! TO.N,GND*
X140295000Y-103505000D03*
G04 #@! TD*
G04 #@! TO.P,C5,1*
G04 #@! TO.N,Net-(C3-Pad1)*
X152400000Y-90170000D03*
G04 #@! TO.P,C5,2*
G04 #@! TO.N,GND*
X147400000Y-90170000D03*
G04 #@! TD*
G04 #@! TO.P,C6,2*
G04 #@! TO.N,Motor1*
X152320000Y-77470000D03*
G04 #@! TO.P,C6,1*
G04 #@! TO.N,Net-(C6-Pad1)*
X147320000Y-77470000D03*
G04 #@! TD*
D12*
G04 #@! TO.P,C7,1*
G04 #@! TO.N,24V*
X136525000Y-72390000D03*
D13*
G04 #@! TO.P,C7,2*
G04 #@! TO.N,GND*
X141525000Y-72390000D03*
G04 #@! TD*
D10*
G04 #@! TO.P,C8,1*
G04 #@! TO.N,Net-(C8-Pad1)*
X147320000Y-105410000D03*
G04 #@! TO.P,C8,2*
G04 #@! TO.N,Motor2*
X152320000Y-105410000D03*
G04 #@! TD*
G04 #@! TO.P,C9,2*
G04 #@! TO.N,GND*
X147400000Y-118110000D03*
G04 #@! TO.P,C9,1*
G04 #@! TO.N,Net-(C3-Pad1)*
X152400000Y-118110000D03*
G04 #@! TD*
D14*
G04 #@! TO.N,Net-(C6-Pad1)*
G04 #@! TO.C,D1*
G36*
X151659504Y-79771204D02*
X151683773Y-79774804D01*
X151707571Y-79780765D01*
X151730671Y-79789030D01*
X151752849Y-79799520D01*
X151773893Y-79812133D01*
X151793598Y-79826747D01*
X151811777Y-79843223D01*
X151828253Y-79861402D01*
X151842867Y-79881107D01*
X151855480Y-79902151D01*
X151865970Y-79924329D01*
X151874235Y-79947429D01*
X151880196Y-79971227D01*
X151883796Y-79995496D01*
X151885000Y-80020000D01*
X151885000Y-81270000D01*
X151883796Y-81294504D01*
X151880196Y-81318773D01*
X151874235Y-81342571D01*
X151865970Y-81365671D01*
X151855480Y-81387849D01*
X151842867Y-81408893D01*
X151828253Y-81428598D01*
X151811777Y-81446777D01*
X151793598Y-81463253D01*
X151773893Y-81477867D01*
X151752849Y-81490480D01*
X151730671Y-81500970D01*
X151707571Y-81509235D01*
X151683773Y-81515196D01*
X151659504Y-81518796D01*
X151635000Y-81520000D01*
X150885000Y-81520000D01*
X150860496Y-81518796D01*
X150836227Y-81515196D01*
X150812429Y-81509235D01*
X150789329Y-81500970D01*
X150767151Y-81490480D01*
X150746107Y-81477867D01*
X150726402Y-81463253D01*
X150708223Y-81446777D01*
X150691747Y-81428598D01*
X150677133Y-81408893D01*
X150664520Y-81387849D01*
X150654030Y-81365671D01*
X150645765Y-81342571D01*
X150639804Y-81318773D01*
X150636204Y-81294504D01*
X150635000Y-81270000D01*
X150635000Y-80020000D01*
X150636204Y-79995496D01*
X150639804Y-79971227D01*
X150645765Y-79947429D01*
X150654030Y-79924329D01*
X150664520Y-79902151D01*
X150677133Y-79881107D01*
X150691747Y-79861402D01*
X150708223Y-79843223D01*
X150726402Y-79826747D01*
X150746107Y-79812133D01*
X150767151Y-79799520D01*
X150789329Y-79789030D01*
X150812429Y-79780765D01*
X150836227Y-79774804D01*
X150860496Y-79771204D01*
X150885000Y-79770000D01*
X151635000Y-79770000D01*
X151659504Y-79771204D01*
X151659504Y-79771204D01*
G37*
D15*
G04 #@! TD*
G04 #@! TO.P,D1,1*
G04 #@! TO.N,Net-(C6-Pad1)*
X151260000Y-80645000D03*
D14*
G04 #@! TO.N,Net-(C3-Pad1)*
G04 #@! TO.C,D1*
G36*
X148859504Y-79771204D02*
X148883773Y-79774804D01*
X148907571Y-79780765D01*
X148930671Y-79789030D01*
X148952849Y-79799520D01*
X148973893Y-79812133D01*
X148993598Y-79826747D01*
X149011777Y-79843223D01*
X149028253Y-79861402D01*
X149042867Y-79881107D01*
X149055480Y-79902151D01*
X149065970Y-79924329D01*
X149074235Y-79947429D01*
X149080196Y-79971227D01*
X149083796Y-79995496D01*
X149085000Y-80020000D01*
X149085000Y-81270000D01*
X149083796Y-81294504D01*
X149080196Y-81318773D01*
X149074235Y-81342571D01*
X149065970Y-81365671D01*
X149055480Y-81387849D01*
X149042867Y-81408893D01*
X149028253Y-81428598D01*
X149011777Y-81446777D01*
X148993598Y-81463253D01*
X148973893Y-81477867D01*
X148952849Y-81490480D01*
X148930671Y-81500970D01*
X148907571Y-81509235D01*
X148883773Y-81515196D01*
X148859504Y-81518796D01*
X148835000Y-81520000D01*
X148085000Y-81520000D01*
X148060496Y-81518796D01*
X148036227Y-81515196D01*
X148012429Y-81509235D01*
X147989329Y-81500970D01*
X147967151Y-81490480D01*
X147946107Y-81477867D01*
X147926402Y-81463253D01*
X147908223Y-81446777D01*
X147891747Y-81428598D01*
X147877133Y-81408893D01*
X147864520Y-81387849D01*
X147854030Y-81365671D01*
X147845765Y-81342571D01*
X147839804Y-81318773D01*
X147836204Y-81294504D01*
X147835000Y-81270000D01*
X147835000Y-80020000D01*
X147836204Y-79995496D01*
X147839804Y-79971227D01*
X147845765Y-79947429D01*
X147854030Y-79924329D01*
X147864520Y-79902151D01*
X147877133Y-79881107D01*
X147891747Y-79861402D01*
X147908223Y-79843223D01*
X147926402Y-79826747D01*
X147946107Y-79812133D01*
X147967151Y-79799520D01*
X147989329Y-79789030D01*
X148012429Y-79780765D01*
X148036227Y-79774804D01*
X148060496Y-79771204D01*
X148085000Y-79770000D01*
X148835000Y-79770000D01*
X148859504Y-79771204D01*
X148859504Y-79771204D01*
G37*
D15*
G04 #@! TD*
G04 #@! TO.P,D1,2*
G04 #@! TO.N,Net-(C3-Pad1)*
X148460000Y-80645000D03*
D14*
G04 #@! TO.N,Net-(C3-Pad1)*
G04 #@! TO.C,D2*
G36*
X148859504Y-107711204D02*
X148883773Y-107714804D01*
X148907571Y-107720765D01*
X148930671Y-107729030D01*
X148952849Y-107739520D01*
X148973893Y-107752133D01*
X148993598Y-107766747D01*
X149011777Y-107783223D01*
X149028253Y-107801402D01*
X149042867Y-107821107D01*
X149055480Y-107842151D01*
X149065970Y-107864329D01*
X149074235Y-107887429D01*
X149080196Y-107911227D01*
X149083796Y-107935496D01*
X149085000Y-107960000D01*
X149085000Y-109210000D01*
X149083796Y-109234504D01*
X149080196Y-109258773D01*
X149074235Y-109282571D01*
X149065970Y-109305671D01*
X149055480Y-109327849D01*
X149042867Y-109348893D01*
X149028253Y-109368598D01*
X149011777Y-109386777D01*
X148993598Y-109403253D01*
X148973893Y-109417867D01*
X148952849Y-109430480D01*
X148930671Y-109440970D01*
X148907571Y-109449235D01*
X148883773Y-109455196D01*
X148859504Y-109458796D01*
X148835000Y-109460000D01*
X148085000Y-109460000D01*
X148060496Y-109458796D01*
X148036227Y-109455196D01*
X148012429Y-109449235D01*
X147989329Y-109440970D01*
X147967151Y-109430480D01*
X147946107Y-109417867D01*
X147926402Y-109403253D01*
X147908223Y-109386777D01*
X147891747Y-109368598D01*
X147877133Y-109348893D01*
X147864520Y-109327849D01*
X147854030Y-109305671D01*
X147845765Y-109282571D01*
X147839804Y-109258773D01*
X147836204Y-109234504D01*
X147835000Y-109210000D01*
X147835000Y-107960000D01*
X147836204Y-107935496D01*
X147839804Y-107911227D01*
X147845765Y-107887429D01*
X147854030Y-107864329D01*
X147864520Y-107842151D01*
X147877133Y-107821107D01*
X147891747Y-107801402D01*
X147908223Y-107783223D01*
X147926402Y-107766747D01*
X147946107Y-107752133D01*
X147967151Y-107739520D01*
X147989329Y-107729030D01*
X148012429Y-107720765D01*
X148036227Y-107714804D01*
X148060496Y-107711204D01*
X148085000Y-107710000D01*
X148835000Y-107710000D01*
X148859504Y-107711204D01*
X148859504Y-107711204D01*
G37*
D15*
G04 #@! TD*
G04 #@! TO.P,D2,2*
G04 #@! TO.N,Net-(C3-Pad1)*
X148460000Y-108585000D03*
D14*
G04 #@! TO.N,Net-(C8-Pad1)*
G04 #@! TO.C,D2*
G36*
X151659504Y-107711204D02*
X151683773Y-107714804D01*
X151707571Y-107720765D01*
X151730671Y-107729030D01*
X151752849Y-107739520D01*
X151773893Y-107752133D01*
X151793598Y-107766747D01*
X151811777Y-107783223D01*
X151828253Y-107801402D01*
X151842867Y-107821107D01*
X151855480Y-107842151D01*
X151865970Y-107864329D01*
X151874235Y-107887429D01*
X151880196Y-107911227D01*
X151883796Y-107935496D01*
X151885000Y-107960000D01*
X151885000Y-109210000D01*
X151883796Y-109234504D01*
X151880196Y-109258773D01*
X151874235Y-109282571D01*
X151865970Y-109305671D01*
X151855480Y-109327849D01*
X151842867Y-109348893D01*
X151828253Y-109368598D01*
X151811777Y-109386777D01*
X151793598Y-109403253D01*
X151773893Y-109417867D01*
X151752849Y-109430480D01*
X151730671Y-109440970D01*
X151707571Y-109449235D01*
X151683773Y-109455196D01*
X151659504Y-109458796D01*
X151635000Y-109460000D01*
X150885000Y-109460000D01*
X150860496Y-109458796D01*
X150836227Y-109455196D01*
X150812429Y-109449235D01*
X150789329Y-109440970D01*
X150767151Y-109430480D01*
X150746107Y-109417867D01*
X150726402Y-109403253D01*
X150708223Y-109386777D01*
X150691747Y-109368598D01*
X150677133Y-109348893D01*
X150664520Y-109327849D01*
X150654030Y-109305671D01*
X150645765Y-109282571D01*
X150639804Y-109258773D01*
X150636204Y-109234504D01*
X150635000Y-109210000D01*
X150635000Y-107960000D01*
X150636204Y-107935496D01*
X150639804Y-107911227D01*
X150645765Y-107887429D01*
X150654030Y-107864329D01*
X150664520Y-107842151D01*
X150677133Y-107821107D01*
X150691747Y-107801402D01*
X150708223Y-107783223D01*
X150726402Y-107766747D01*
X150746107Y-107752133D01*
X150767151Y-107739520D01*
X150789329Y-107729030D01*
X150812429Y-107720765D01*
X150836227Y-107714804D01*
X150860496Y-107711204D01*
X150885000Y-107710000D01*
X151635000Y-107710000D01*
X151659504Y-107711204D01*
X151659504Y-107711204D01*
G37*
D15*
G04 #@! TD*
G04 #@! TO.P,D2,1*
G04 #@! TO.N,Net-(C8-Pad1)*
X151260000Y-108585000D03*
D14*
G04 #@! TO.N,Net-(D3-Pad1)*
G04 #@! TO.C,D3*
G36*
X133900779Y-111921144D02*
X133923834Y-111924563D01*
X133946443Y-111930227D01*
X133968387Y-111938079D01*
X133989457Y-111948044D01*
X134009448Y-111960026D01*
X134028168Y-111973910D01*
X134045438Y-111989562D01*
X134061090Y-112006832D01*
X134074974Y-112025552D01*
X134086956Y-112045543D01*
X134096921Y-112066613D01*
X134104773Y-112088557D01*
X134110437Y-112111166D01*
X134113856Y-112134221D01*
X134115000Y-112157500D01*
X134115000Y-112632500D01*
X134113856Y-112655779D01*
X134110437Y-112678834D01*
X134104773Y-112701443D01*
X134096921Y-112723387D01*
X134086956Y-112744457D01*
X134074974Y-112764448D01*
X134061090Y-112783168D01*
X134045438Y-112800438D01*
X134028168Y-112816090D01*
X134009448Y-112829974D01*
X133989457Y-112841956D01*
X133968387Y-112851921D01*
X133946443Y-112859773D01*
X133923834Y-112865437D01*
X133900779Y-112868856D01*
X133877500Y-112870000D01*
X133302500Y-112870000D01*
X133279221Y-112868856D01*
X133256166Y-112865437D01*
X133233557Y-112859773D01*
X133211613Y-112851921D01*
X133190543Y-112841956D01*
X133170552Y-112829974D01*
X133151832Y-112816090D01*
X133134562Y-112800438D01*
X133118910Y-112783168D01*
X133105026Y-112764448D01*
X133093044Y-112744457D01*
X133083079Y-112723387D01*
X133075227Y-112701443D01*
X133069563Y-112678834D01*
X133066144Y-112655779D01*
X133065000Y-112632500D01*
X133065000Y-112157500D01*
X133066144Y-112134221D01*
X133069563Y-112111166D01*
X133075227Y-112088557D01*
X133083079Y-112066613D01*
X133093044Y-112045543D01*
X133105026Y-112025552D01*
X133118910Y-112006832D01*
X133134562Y-111989562D01*
X133151832Y-111973910D01*
X133170552Y-111960026D01*
X133190543Y-111948044D01*
X133211613Y-111938079D01*
X133233557Y-111930227D01*
X133256166Y-111924563D01*
X133279221Y-111921144D01*
X133302500Y-111920000D01*
X133877500Y-111920000D01*
X133900779Y-111921144D01*
X133900779Y-111921144D01*
G37*
D16*
G04 #@! TD*
G04 #@! TO.P,D3,1*
G04 #@! TO.N,Net-(D3-Pad1)*
X133590000Y-112395000D03*
D14*
G04 #@! TO.N,Net-(D3-Pad2)*
G04 #@! TO.C,D3*
G36*
X132150779Y-111921144D02*
X132173834Y-111924563D01*
X132196443Y-111930227D01*
X132218387Y-111938079D01*
X132239457Y-111948044D01*
X132259448Y-111960026D01*
X132278168Y-111973910D01*
X132295438Y-111989562D01*
X132311090Y-112006832D01*
X132324974Y-112025552D01*
X132336956Y-112045543D01*
X132346921Y-112066613D01*
X132354773Y-112088557D01*
X132360437Y-112111166D01*
X132363856Y-112134221D01*
X132365000Y-112157500D01*
X132365000Y-112632500D01*
X132363856Y-112655779D01*
X132360437Y-112678834D01*
X132354773Y-112701443D01*
X132346921Y-112723387D01*
X132336956Y-112744457D01*
X132324974Y-112764448D01*
X132311090Y-112783168D01*
X132295438Y-112800438D01*
X132278168Y-112816090D01*
X132259448Y-112829974D01*
X132239457Y-112841956D01*
X132218387Y-112851921D01*
X132196443Y-112859773D01*
X132173834Y-112865437D01*
X132150779Y-112868856D01*
X132127500Y-112870000D01*
X131552500Y-112870000D01*
X131529221Y-112868856D01*
X131506166Y-112865437D01*
X131483557Y-112859773D01*
X131461613Y-112851921D01*
X131440543Y-112841956D01*
X131420552Y-112829974D01*
X131401832Y-112816090D01*
X131384562Y-112800438D01*
X131368910Y-112783168D01*
X131355026Y-112764448D01*
X131343044Y-112744457D01*
X131333079Y-112723387D01*
X131325227Y-112701443D01*
X131319563Y-112678834D01*
X131316144Y-112655779D01*
X131315000Y-112632500D01*
X131315000Y-112157500D01*
X131316144Y-112134221D01*
X131319563Y-112111166D01*
X131325227Y-112088557D01*
X131333079Y-112066613D01*
X131343044Y-112045543D01*
X131355026Y-112025552D01*
X131368910Y-112006832D01*
X131384562Y-111989562D01*
X131401832Y-111973910D01*
X131420552Y-111960026D01*
X131440543Y-111948044D01*
X131461613Y-111938079D01*
X131483557Y-111930227D01*
X131506166Y-111924563D01*
X131529221Y-111921144D01*
X131552500Y-111920000D01*
X132127500Y-111920000D01*
X132150779Y-111921144D01*
X132150779Y-111921144D01*
G37*
D16*
G04 #@! TD*
G04 #@! TO.P,D3,2*
G04 #@! TO.N,Net-(D3-Pad2)*
X131840000Y-112395000D03*
D14*
G04 #@! TO.N,Net-(D4-Pad2)*
G04 #@! TO.C,D4*
G36*
X132150779Y-120811144D02*
X132173834Y-120814563D01*
X132196443Y-120820227D01*
X132218387Y-120828079D01*
X132239457Y-120838044D01*
X132259448Y-120850026D01*
X132278168Y-120863910D01*
X132295438Y-120879562D01*
X132311090Y-120896832D01*
X132324974Y-120915552D01*
X132336956Y-120935543D01*
X132346921Y-120956613D01*
X132354773Y-120978557D01*
X132360437Y-121001166D01*
X132363856Y-121024221D01*
X132365000Y-121047500D01*
X132365000Y-121522500D01*
X132363856Y-121545779D01*
X132360437Y-121568834D01*
X132354773Y-121591443D01*
X132346921Y-121613387D01*
X132336956Y-121634457D01*
X132324974Y-121654448D01*
X132311090Y-121673168D01*
X132295438Y-121690438D01*
X132278168Y-121706090D01*
X132259448Y-121719974D01*
X132239457Y-121731956D01*
X132218387Y-121741921D01*
X132196443Y-121749773D01*
X132173834Y-121755437D01*
X132150779Y-121758856D01*
X132127500Y-121760000D01*
X131552500Y-121760000D01*
X131529221Y-121758856D01*
X131506166Y-121755437D01*
X131483557Y-121749773D01*
X131461613Y-121741921D01*
X131440543Y-121731956D01*
X131420552Y-121719974D01*
X131401832Y-121706090D01*
X131384562Y-121690438D01*
X131368910Y-121673168D01*
X131355026Y-121654448D01*
X131343044Y-121634457D01*
X131333079Y-121613387D01*
X131325227Y-121591443D01*
X131319563Y-121568834D01*
X131316144Y-121545779D01*
X131315000Y-121522500D01*
X131315000Y-121047500D01*
X131316144Y-121024221D01*
X131319563Y-121001166D01*
X131325227Y-120978557D01*
X131333079Y-120956613D01*
X131343044Y-120935543D01*
X131355026Y-120915552D01*
X131368910Y-120896832D01*
X131384562Y-120879562D01*
X131401832Y-120863910D01*
X131420552Y-120850026D01*
X131440543Y-120838044D01*
X131461613Y-120828079D01*
X131483557Y-120820227D01*
X131506166Y-120814563D01*
X131529221Y-120811144D01*
X131552500Y-120810000D01*
X132127500Y-120810000D01*
X132150779Y-120811144D01*
X132150779Y-120811144D01*
G37*
D16*
G04 #@! TD*
G04 #@! TO.P,D4,2*
G04 #@! TO.N,Net-(D4-Pad2)*
X131840000Y-121285000D03*
D14*
G04 #@! TO.N,Net-(D4-Pad1)*
G04 #@! TO.C,D4*
G36*
X133900779Y-120811144D02*
X133923834Y-120814563D01*
X133946443Y-120820227D01*
X133968387Y-120828079D01*
X133989457Y-120838044D01*
X134009448Y-120850026D01*
X134028168Y-120863910D01*
X134045438Y-120879562D01*
X134061090Y-120896832D01*
X134074974Y-120915552D01*
X134086956Y-120935543D01*
X134096921Y-120956613D01*
X134104773Y-120978557D01*
X134110437Y-121001166D01*
X134113856Y-121024221D01*
X134115000Y-121047500D01*
X134115000Y-121522500D01*
X134113856Y-121545779D01*
X134110437Y-121568834D01*
X134104773Y-121591443D01*
X134096921Y-121613387D01*
X134086956Y-121634457D01*
X134074974Y-121654448D01*
X134061090Y-121673168D01*
X134045438Y-121690438D01*
X134028168Y-121706090D01*
X134009448Y-121719974D01*
X133989457Y-121731956D01*
X133968387Y-121741921D01*
X133946443Y-121749773D01*
X133923834Y-121755437D01*
X133900779Y-121758856D01*
X133877500Y-121760000D01*
X133302500Y-121760000D01*
X133279221Y-121758856D01*
X133256166Y-121755437D01*
X133233557Y-121749773D01*
X133211613Y-121741921D01*
X133190543Y-121731956D01*
X133170552Y-121719974D01*
X133151832Y-121706090D01*
X133134562Y-121690438D01*
X133118910Y-121673168D01*
X133105026Y-121654448D01*
X133093044Y-121634457D01*
X133083079Y-121613387D01*
X133075227Y-121591443D01*
X133069563Y-121568834D01*
X133066144Y-121545779D01*
X133065000Y-121522500D01*
X133065000Y-121047500D01*
X133066144Y-121024221D01*
X133069563Y-121001166D01*
X133075227Y-120978557D01*
X133083079Y-120956613D01*
X133093044Y-120935543D01*
X133105026Y-120915552D01*
X133118910Y-120896832D01*
X133134562Y-120879562D01*
X133151832Y-120863910D01*
X133170552Y-120850026D01*
X133190543Y-120838044D01*
X133211613Y-120828079D01*
X133233557Y-120820227D01*
X133256166Y-120814563D01*
X133279221Y-120811144D01*
X133302500Y-120810000D01*
X133877500Y-120810000D01*
X133900779Y-120811144D01*
X133900779Y-120811144D01*
G37*
D16*
G04 #@! TD*
G04 #@! TO.P,D4,1*
G04 #@! TO.N,Net-(D4-Pad1)*
X133590000Y-121285000D03*
D14*
G04 #@! TO.N,Net-(D5-Pad1)*
G04 #@! TO.C,D5*
G36*
X133900779Y-129701144D02*
X133923834Y-129704563D01*
X133946443Y-129710227D01*
X133968387Y-129718079D01*
X133989457Y-129728044D01*
X134009448Y-129740026D01*
X134028168Y-129753910D01*
X134045438Y-129769562D01*
X134061090Y-129786832D01*
X134074974Y-129805552D01*
X134086956Y-129825543D01*
X134096921Y-129846613D01*
X134104773Y-129868557D01*
X134110437Y-129891166D01*
X134113856Y-129914221D01*
X134115000Y-129937500D01*
X134115000Y-130412500D01*
X134113856Y-130435779D01*
X134110437Y-130458834D01*
X134104773Y-130481443D01*
X134096921Y-130503387D01*
X134086956Y-130524457D01*
X134074974Y-130544448D01*
X134061090Y-130563168D01*
X134045438Y-130580438D01*
X134028168Y-130596090D01*
X134009448Y-130609974D01*
X133989457Y-130621956D01*
X133968387Y-130631921D01*
X133946443Y-130639773D01*
X133923834Y-130645437D01*
X133900779Y-130648856D01*
X133877500Y-130650000D01*
X133302500Y-130650000D01*
X133279221Y-130648856D01*
X133256166Y-130645437D01*
X133233557Y-130639773D01*
X133211613Y-130631921D01*
X133190543Y-130621956D01*
X133170552Y-130609974D01*
X133151832Y-130596090D01*
X133134562Y-130580438D01*
X133118910Y-130563168D01*
X133105026Y-130544448D01*
X133093044Y-130524457D01*
X133083079Y-130503387D01*
X133075227Y-130481443D01*
X133069563Y-130458834D01*
X133066144Y-130435779D01*
X133065000Y-130412500D01*
X133065000Y-129937500D01*
X133066144Y-129914221D01*
X133069563Y-129891166D01*
X133075227Y-129868557D01*
X133083079Y-129846613D01*
X133093044Y-129825543D01*
X133105026Y-129805552D01*
X133118910Y-129786832D01*
X133134562Y-129769562D01*
X133151832Y-129753910D01*
X133170552Y-129740026D01*
X133190543Y-129728044D01*
X133211613Y-129718079D01*
X133233557Y-129710227D01*
X133256166Y-129704563D01*
X133279221Y-129701144D01*
X133302500Y-129700000D01*
X133877500Y-129700000D01*
X133900779Y-129701144D01*
X133900779Y-129701144D01*
G37*
D16*
G04 #@! TD*
G04 #@! TO.P,D5,1*
G04 #@! TO.N,Net-(D5-Pad1)*
X133590000Y-130175000D03*
D14*
G04 #@! TO.N,Net-(D5-Pad2)*
G04 #@! TO.C,D5*
G36*
X132150779Y-129701144D02*
X132173834Y-129704563D01*
X132196443Y-129710227D01*
X132218387Y-129718079D01*
X132239457Y-129728044D01*
X132259448Y-129740026D01*
X132278168Y-129753910D01*
X132295438Y-129769562D01*
X132311090Y-129786832D01*
X132324974Y-129805552D01*
X132336956Y-129825543D01*
X132346921Y-129846613D01*
X132354773Y-129868557D01*
X132360437Y-129891166D01*
X132363856Y-129914221D01*
X132365000Y-129937500D01*
X132365000Y-130412500D01*
X132363856Y-130435779D01*
X132360437Y-130458834D01*
X132354773Y-130481443D01*
X132346921Y-130503387D01*
X132336956Y-130524457D01*
X132324974Y-130544448D01*
X132311090Y-130563168D01*
X132295438Y-130580438D01*
X132278168Y-130596090D01*
X132259448Y-130609974D01*
X132239457Y-130621956D01*
X132218387Y-130631921D01*
X132196443Y-130639773D01*
X132173834Y-130645437D01*
X132150779Y-130648856D01*
X132127500Y-130650000D01*
X131552500Y-130650000D01*
X131529221Y-130648856D01*
X131506166Y-130645437D01*
X131483557Y-130639773D01*
X131461613Y-130631921D01*
X131440543Y-130621956D01*
X131420552Y-130609974D01*
X131401832Y-130596090D01*
X131384562Y-130580438D01*
X131368910Y-130563168D01*
X131355026Y-130544448D01*
X131343044Y-130524457D01*
X131333079Y-130503387D01*
X131325227Y-130481443D01*
X131319563Y-130458834D01*
X131316144Y-130435779D01*
X131315000Y-130412500D01*
X131315000Y-129937500D01*
X131316144Y-129914221D01*
X131319563Y-129891166D01*
X131325227Y-129868557D01*
X131333079Y-129846613D01*
X131343044Y-129825543D01*
X131355026Y-129805552D01*
X131368910Y-129786832D01*
X131384562Y-129769562D01*
X131401832Y-129753910D01*
X131420552Y-129740026D01*
X131440543Y-129728044D01*
X131461613Y-129718079D01*
X131483557Y-129710227D01*
X131506166Y-129704563D01*
X131529221Y-129701144D01*
X131552500Y-129700000D01*
X132127500Y-129700000D01*
X132150779Y-129701144D01*
X132150779Y-129701144D01*
G37*
D16*
G04 #@! TD*
G04 #@! TO.P,D5,2*
G04 #@! TO.N,Net-(D5-Pad2)*
X131840000Y-130175000D03*
D17*
G04 #@! TO.P,J1,1*
G04 #@! TO.N,24V*
X128905000Y-90170000D03*
D18*
G04 #@! TO.P,J1,2*
G04 #@! TO.N,GND*
X128905000Y-95250000D03*
G04 #@! TD*
G04 #@! TO.P,J2,2*
G04 #@! TO.N,Motor2*
X128905000Y-85090000D03*
D17*
G04 #@! TO.P,J2,1*
G04 #@! TO.N,Motor1*
X128905000Y-80010000D03*
G04 #@! TD*
D14*
G04 #@! TO.N,5V*
G04 #@! TO.C,J3*
G36*
X129019504Y-103291204D02*
X129043773Y-103294804D01*
X129067571Y-103300765D01*
X129090671Y-103309030D01*
X129112849Y-103319520D01*
X129133893Y-103332133D01*
X129153598Y-103346747D01*
X129171777Y-103363223D01*
X129188253Y-103381402D01*
X129202867Y-103401107D01*
X129215480Y-103422151D01*
X129225970Y-103444329D01*
X129234235Y-103467429D01*
X129240196Y-103491227D01*
X129243796Y-103515496D01*
X129245000Y-103540000D01*
X129245000Y-104740000D01*
X129243796Y-104764504D01*
X129240196Y-104788773D01*
X129234235Y-104812571D01*
X129225970Y-104835671D01*
X129215480Y-104857849D01*
X129202867Y-104878893D01*
X129188253Y-104898598D01*
X129171777Y-104916777D01*
X129153598Y-104933253D01*
X129133893Y-104947867D01*
X129112849Y-104960480D01*
X129090671Y-104970970D01*
X129067571Y-104979235D01*
X129043773Y-104985196D01*
X129019504Y-104988796D01*
X128995000Y-104990000D01*
X127545000Y-104990000D01*
X127520496Y-104988796D01*
X127496227Y-104985196D01*
X127472429Y-104979235D01*
X127449329Y-104970970D01*
X127427151Y-104960480D01*
X127406107Y-104947867D01*
X127386402Y-104933253D01*
X127368223Y-104916777D01*
X127351747Y-104898598D01*
X127337133Y-104878893D01*
X127324520Y-104857849D01*
X127314030Y-104835671D01*
X127305765Y-104812571D01*
X127299804Y-104788773D01*
X127296204Y-104764504D01*
X127295000Y-104740000D01*
X127295000Y-103540000D01*
X127296204Y-103515496D01*
X127299804Y-103491227D01*
X127305765Y-103467429D01*
X127314030Y-103444329D01*
X127324520Y-103422151D01*
X127337133Y-103401107D01*
X127351747Y-103381402D01*
X127368223Y-103363223D01*
X127386402Y-103346747D01*
X127406107Y-103332133D01*
X127427151Y-103319520D01*
X127449329Y-103309030D01*
X127472429Y-103300765D01*
X127496227Y-103294804D01*
X127520496Y-103291204D01*
X127545000Y-103290000D01*
X128995000Y-103290000D01*
X129019504Y-103291204D01*
X129019504Y-103291204D01*
G37*
D19*
G04 #@! TD*
G04 #@! TO.P,J3,1*
G04 #@! TO.N,5V*
X128270000Y-104140000D03*
D20*
G04 #@! TO.P,J3,2*
G04 #@! TO.N,PINGND*
X128270000Y-106640000D03*
G04 #@! TO.P,J3,3*
G04 #@! TO.N,IN1*
X128270000Y-109140000D03*
G04 #@! TO.P,J3,4*
G04 #@! TO.N,IN2*
X128270000Y-111640000D03*
G04 #@! TO.P,J3,5*
G04 #@! TO.N,ShutDown*
X128270000Y-114140000D03*
G04 #@! TD*
D21*
G04 #@! TO.P,Q1,1*
G04 #@! TO.N,Net-(Q1-Pad1)*
X160595000Y-76200000D03*
G04 #@! TO.P,Q1,3*
G04 #@! TO.N,Motor1*
X160595000Y-81280000D03*
D22*
G04 #@! TO.P,Q1,2*
G04 #@! TO.N,24V*
X169745000Y-78740000D03*
G04 #@! TD*
D21*
G04 #@! TO.P,Q2,1*
G04 #@! TO.N,Net-(Q2-Pad1)*
X160595000Y-90170000D03*
G04 #@! TO.P,Q2,3*
G04 #@! TO.N,GND*
X160595000Y-95250000D03*
D22*
G04 #@! TO.P,Q2,2*
G04 #@! TO.N,Motor1*
X169745000Y-92710000D03*
G04 #@! TD*
G04 #@! TO.P,Q3,2*
G04 #@! TO.N,24V*
X169745000Y-106680000D03*
D21*
G04 #@! TO.P,Q3,3*
G04 #@! TO.N,Motor2*
X160595000Y-109220000D03*
G04 #@! TO.P,Q3,1*
G04 #@! TO.N,Net-(Q3-Pad1)*
X160595000Y-104140000D03*
G04 #@! TD*
D22*
G04 #@! TO.P,Q4,2*
G04 #@! TO.N,Motor2*
X169745000Y-120650000D03*
D21*
G04 #@! TO.P,Q4,3*
G04 #@! TO.N,GND*
X160595000Y-123190000D03*
G04 #@! TO.P,Q4,1*
G04 #@! TO.N,Net-(Q4-Pad1)*
X160595000Y-118110000D03*
G04 #@! TD*
D14*
G04 #@! TO.N,Net-(D3-Pad2)*
G04 #@! TO.C,R1*
G36*
X133900779Y-114461144D02*
X133923834Y-114464563D01*
X133946443Y-114470227D01*
X133968387Y-114478079D01*
X133989457Y-114488044D01*
X134009448Y-114500026D01*
X134028168Y-114513910D01*
X134045438Y-114529562D01*
X134061090Y-114546832D01*
X134074974Y-114565552D01*
X134086956Y-114585543D01*
X134096921Y-114606613D01*
X134104773Y-114628557D01*
X134110437Y-114651166D01*
X134113856Y-114674221D01*
X134115000Y-114697500D01*
X134115000Y-115172500D01*
X134113856Y-115195779D01*
X134110437Y-115218834D01*
X134104773Y-115241443D01*
X134096921Y-115263387D01*
X134086956Y-115284457D01*
X134074974Y-115304448D01*
X134061090Y-115323168D01*
X134045438Y-115340438D01*
X134028168Y-115356090D01*
X134009448Y-115369974D01*
X133989457Y-115381956D01*
X133968387Y-115391921D01*
X133946443Y-115399773D01*
X133923834Y-115405437D01*
X133900779Y-115408856D01*
X133877500Y-115410000D01*
X133302500Y-115410000D01*
X133279221Y-115408856D01*
X133256166Y-115405437D01*
X133233557Y-115399773D01*
X133211613Y-115391921D01*
X133190543Y-115381956D01*
X133170552Y-115369974D01*
X133151832Y-115356090D01*
X133134562Y-115340438D01*
X133118910Y-115323168D01*
X133105026Y-115304448D01*
X133093044Y-115284457D01*
X133083079Y-115263387D01*
X133075227Y-115241443D01*
X133069563Y-115218834D01*
X133066144Y-115195779D01*
X133065000Y-115172500D01*
X133065000Y-114697500D01*
X133066144Y-114674221D01*
X133069563Y-114651166D01*
X133075227Y-114628557D01*
X133083079Y-114606613D01*
X133093044Y-114585543D01*
X133105026Y-114565552D01*
X133118910Y-114546832D01*
X133134562Y-114529562D01*
X133151832Y-114513910D01*
X133170552Y-114500026D01*
X133190543Y-114488044D01*
X133211613Y-114478079D01*
X133233557Y-114470227D01*
X133256166Y-114464563D01*
X133279221Y-114461144D01*
X133302500Y-114460000D01*
X133877500Y-114460000D01*
X133900779Y-114461144D01*
X133900779Y-114461144D01*
G37*
D16*
G04 #@! TD*
G04 #@! TO.P,R1,1*
G04 #@! TO.N,Net-(D3-Pad2)*
X133590000Y-114935000D03*
D14*
G04 #@! TO.N,5V*
G04 #@! TO.C,R1*
G36*
X132150779Y-114461144D02*
X132173834Y-114464563D01*
X132196443Y-114470227D01*
X132218387Y-114478079D01*
X132239457Y-114488044D01*
X132259448Y-114500026D01*
X132278168Y-114513910D01*
X132295438Y-114529562D01*
X132311090Y-114546832D01*
X132324974Y-114565552D01*
X132336956Y-114585543D01*
X132346921Y-114606613D01*
X132354773Y-114628557D01*
X132360437Y-114651166D01*
X132363856Y-114674221D01*
X132365000Y-114697500D01*
X132365000Y-115172500D01*
X132363856Y-115195779D01*
X132360437Y-115218834D01*
X132354773Y-115241443D01*
X132346921Y-115263387D01*
X132336956Y-115284457D01*
X132324974Y-115304448D01*
X132311090Y-115323168D01*
X132295438Y-115340438D01*
X132278168Y-115356090D01*
X132259448Y-115369974D01*
X132239457Y-115381956D01*
X132218387Y-115391921D01*
X132196443Y-115399773D01*
X132173834Y-115405437D01*
X132150779Y-115408856D01*
X132127500Y-115410000D01*
X131552500Y-115410000D01*
X131529221Y-115408856D01*
X131506166Y-115405437D01*
X131483557Y-115399773D01*
X131461613Y-115391921D01*
X131440543Y-115381956D01*
X131420552Y-115369974D01*
X131401832Y-115356090D01*
X131384562Y-115340438D01*
X131368910Y-115323168D01*
X131355026Y-115304448D01*
X131343044Y-115284457D01*
X131333079Y-115263387D01*
X131325227Y-115241443D01*
X131319563Y-115218834D01*
X131316144Y-115195779D01*
X131315000Y-115172500D01*
X131315000Y-114697500D01*
X131316144Y-114674221D01*
X131319563Y-114651166D01*
X131325227Y-114628557D01*
X131333079Y-114606613D01*
X131343044Y-114585543D01*
X131355026Y-114565552D01*
X131368910Y-114546832D01*
X131384562Y-114529562D01*
X131401832Y-114513910D01*
X131420552Y-114500026D01*
X131440543Y-114488044D01*
X131461613Y-114478079D01*
X131483557Y-114470227D01*
X131506166Y-114464563D01*
X131529221Y-114461144D01*
X131552500Y-114460000D01*
X132127500Y-114460000D01*
X132150779Y-114461144D01*
X132150779Y-114461144D01*
G37*
D16*
G04 #@! TD*
G04 #@! TO.P,R1,2*
G04 #@! TO.N,5V*
X131840000Y-114935000D03*
D14*
G04 #@! TO.N,5V*
G04 #@! TO.C,R2*
G36*
X132150779Y-123351144D02*
X132173834Y-123354563D01*
X132196443Y-123360227D01*
X132218387Y-123368079D01*
X132239457Y-123378044D01*
X132259448Y-123390026D01*
X132278168Y-123403910D01*
X132295438Y-123419562D01*
X132311090Y-123436832D01*
X132324974Y-123455552D01*
X132336956Y-123475543D01*
X132346921Y-123496613D01*
X132354773Y-123518557D01*
X132360437Y-123541166D01*
X132363856Y-123564221D01*
X132365000Y-123587500D01*
X132365000Y-124062500D01*
X132363856Y-124085779D01*
X132360437Y-124108834D01*
X132354773Y-124131443D01*
X132346921Y-124153387D01*
X132336956Y-124174457D01*
X132324974Y-124194448D01*
X132311090Y-124213168D01*
X132295438Y-124230438D01*
X132278168Y-124246090D01*
X132259448Y-124259974D01*
X132239457Y-124271956D01*
X132218387Y-124281921D01*
X132196443Y-124289773D01*
X132173834Y-124295437D01*
X132150779Y-124298856D01*
X132127500Y-124300000D01*
X131552500Y-124300000D01*
X131529221Y-124298856D01*
X131506166Y-124295437D01*
X131483557Y-124289773D01*
X131461613Y-124281921D01*
X131440543Y-124271956D01*
X131420552Y-124259974D01*
X131401832Y-124246090D01*
X131384562Y-124230438D01*
X131368910Y-124213168D01*
X131355026Y-124194448D01*
X131343044Y-124174457D01*
X131333079Y-124153387D01*
X131325227Y-124131443D01*
X131319563Y-124108834D01*
X131316144Y-124085779D01*
X131315000Y-124062500D01*
X131315000Y-123587500D01*
X131316144Y-123564221D01*
X131319563Y-123541166D01*
X131325227Y-123518557D01*
X131333079Y-123496613D01*
X131343044Y-123475543D01*
X131355026Y-123455552D01*
X131368910Y-123436832D01*
X131384562Y-123419562D01*
X131401832Y-123403910D01*
X131420552Y-123390026D01*
X131440543Y-123378044D01*
X131461613Y-123368079D01*
X131483557Y-123360227D01*
X131506166Y-123354563D01*
X131529221Y-123351144D01*
X131552500Y-123350000D01*
X132127500Y-123350000D01*
X132150779Y-123351144D01*
X132150779Y-123351144D01*
G37*
D16*
G04 #@! TD*
G04 #@! TO.P,R2,2*
G04 #@! TO.N,5V*
X131840000Y-123825000D03*
D14*
G04 #@! TO.N,Net-(D4-Pad2)*
G04 #@! TO.C,R2*
G36*
X133900779Y-123351144D02*
X133923834Y-123354563D01*
X133946443Y-123360227D01*
X133968387Y-123368079D01*
X133989457Y-123378044D01*
X134009448Y-123390026D01*
X134028168Y-123403910D01*
X134045438Y-123419562D01*
X134061090Y-123436832D01*
X134074974Y-123455552D01*
X134086956Y-123475543D01*
X134096921Y-123496613D01*
X134104773Y-123518557D01*
X134110437Y-123541166D01*
X134113856Y-123564221D01*
X134115000Y-123587500D01*
X134115000Y-124062500D01*
X134113856Y-124085779D01*
X134110437Y-124108834D01*
X134104773Y-124131443D01*
X134096921Y-124153387D01*
X134086956Y-124174457D01*
X134074974Y-124194448D01*
X134061090Y-124213168D01*
X134045438Y-124230438D01*
X134028168Y-124246090D01*
X134009448Y-124259974D01*
X133989457Y-124271956D01*
X133968387Y-124281921D01*
X133946443Y-124289773D01*
X133923834Y-124295437D01*
X133900779Y-124298856D01*
X133877500Y-124300000D01*
X133302500Y-124300000D01*
X133279221Y-124298856D01*
X133256166Y-124295437D01*
X133233557Y-124289773D01*
X133211613Y-124281921D01*
X133190543Y-124271956D01*
X133170552Y-124259974D01*
X133151832Y-124246090D01*
X133134562Y-124230438D01*
X133118910Y-124213168D01*
X133105026Y-124194448D01*
X133093044Y-124174457D01*
X133083079Y-124153387D01*
X133075227Y-124131443D01*
X133069563Y-124108834D01*
X133066144Y-124085779D01*
X133065000Y-124062500D01*
X133065000Y-123587500D01*
X133066144Y-123564221D01*
X133069563Y-123541166D01*
X133075227Y-123518557D01*
X133083079Y-123496613D01*
X133093044Y-123475543D01*
X133105026Y-123455552D01*
X133118910Y-123436832D01*
X133134562Y-123419562D01*
X133151832Y-123403910D01*
X133170552Y-123390026D01*
X133190543Y-123378044D01*
X133211613Y-123368079D01*
X133233557Y-123360227D01*
X133256166Y-123354563D01*
X133279221Y-123351144D01*
X133302500Y-123350000D01*
X133877500Y-123350000D01*
X133900779Y-123351144D01*
X133900779Y-123351144D01*
G37*
D16*
G04 #@! TD*
G04 #@! TO.P,R2,1*
G04 #@! TO.N,Net-(D4-Pad2)*
X133590000Y-123825000D03*
D14*
G04 #@! TO.N,Net-(D5-Pad2)*
G04 #@! TO.C,R3*
G36*
X133900779Y-132241144D02*
X133923834Y-132244563D01*
X133946443Y-132250227D01*
X133968387Y-132258079D01*
X133989457Y-132268044D01*
X134009448Y-132280026D01*
X134028168Y-132293910D01*
X134045438Y-132309562D01*
X134061090Y-132326832D01*
X134074974Y-132345552D01*
X134086956Y-132365543D01*
X134096921Y-132386613D01*
X134104773Y-132408557D01*
X134110437Y-132431166D01*
X134113856Y-132454221D01*
X134115000Y-132477500D01*
X134115000Y-132952500D01*
X134113856Y-132975779D01*
X134110437Y-132998834D01*
X134104773Y-133021443D01*
X134096921Y-133043387D01*
X134086956Y-133064457D01*
X134074974Y-133084448D01*
X134061090Y-133103168D01*
X134045438Y-133120438D01*
X134028168Y-133136090D01*
X134009448Y-133149974D01*
X133989457Y-133161956D01*
X133968387Y-133171921D01*
X133946443Y-133179773D01*
X133923834Y-133185437D01*
X133900779Y-133188856D01*
X133877500Y-133190000D01*
X133302500Y-133190000D01*
X133279221Y-133188856D01*
X133256166Y-133185437D01*
X133233557Y-133179773D01*
X133211613Y-133171921D01*
X133190543Y-133161956D01*
X133170552Y-133149974D01*
X133151832Y-133136090D01*
X133134562Y-133120438D01*
X133118910Y-133103168D01*
X133105026Y-133084448D01*
X133093044Y-133064457D01*
X133083079Y-133043387D01*
X133075227Y-133021443D01*
X133069563Y-132998834D01*
X133066144Y-132975779D01*
X133065000Y-132952500D01*
X133065000Y-132477500D01*
X133066144Y-132454221D01*
X133069563Y-132431166D01*
X133075227Y-132408557D01*
X133083079Y-132386613D01*
X133093044Y-132365543D01*
X133105026Y-132345552D01*
X133118910Y-132326832D01*
X133134562Y-132309562D01*
X133151832Y-132293910D01*
X133170552Y-132280026D01*
X133190543Y-132268044D01*
X133211613Y-132258079D01*
X133233557Y-132250227D01*
X133256166Y-132244563D01*
X133279221Y-132241144D01*
X133302500Y-132240000D01*
X133877500Y-132240000D01*
X133900779Y-132241144D01*
X133900779Y-132241144D01*
G37*
D16*
G04 #@! TD*
G04 #@! TO.P,R3,1*
G04 #@! TO.N,Net-(D5-Pad2)*
X133590000Y-132715000D03*
D14*
G04 #@! TO.N,ShutDown*
G04 #@! TO.C,R3*
G36*
X132150779Y-132241144D02*
X132173834Y-132244563D01*
X132196443Y-132250227D01*
X132218387Y-132258079D01*
X132239457Y-132268044D01*
X132259448Y-132280026D01*
X132278168Y-132293910D01*
X132295438Y-132309562D01*
X132311090Y-132326832D01*
X132324974Y-132345552D01*
X132336956Y-132365543D01*
X132346921Y-132386613D01*
X132354773Y-132408557D01*
X132360437Y-132431166D01*
X132363856Y-132454221D01*
X132365000Y-132477500D01*
X132365000Y-132952500D01*
X132363856Y-132975779D01*
X132360437Y-132998834D01*
X132354773Y-133021443D01*
X132346921Y-133043387D01*
X132336956Y-133064457D01*
X132324974Y-133084448D01*
X132311090Y-133103168D01*
X132295438Y-133120438D01*
X132278168Y-133136090D01*
X132259448Y-133149974D01*
X132239457Y-133161956D01*
X132218387Y-133171921D01*
X132196443Y-133179773D01*
X132173834Y-133185437D01*
X132150779Y-133188856D01*
X132127500Y-133190000D01*
X131552500Y-133190000D01*
X131529221Y-133188856D01*
X131506166Y-133185437D01*
X131483557Y-133179773D01*
X131461613Y-133171921D01*
X131440543Y-133161956D01*
X131420552Y-133149974D01*
X131401832Y-133136090D01*
X131384562Y-133120438D01*
X131368910Y-133103168D01*
X131355026Y-133084448D01*
X131343044Y-133064457D01*
X131333079Y-133043387D01*
X131325227Y-133021443D01*
X131319563Y-132998834D01*
X131316144Y-132975779D01*
X131315000Y-132952500D01*
X131315000Y-132477500D01*
X131316144Y-132454221D01*
X131319563Y-132431166D01*
X131325227Y-132408557D01*
X131333079Y-132386613D01*
X131343044Y-132365543D01*
X131355026Y-132345552D01*
X131368910Y-132326832D01*
X131384562Y-132309562D01*
X131401832Y-132293910D01*
X131420552Y-132280026D01*
X131440543Y-132268044D01*
X131461613Y-132258079D01*
X131483557Y-132250227D01*
X131506166Y-132244563D01*
X131529221Y-132241144D01*
X131552500Y-132240000D01*
X132127500Y-132240000D01*
X132150779Y-132241144D01*
X132150779Y-132241144D01*
G37*
D16*
G04 #@! TD*
G04 #@! TO.P,R3,2*
G04 #@! TO.N,ShutDown*
X131840000Y-132715000D03*
D14*
G04 #@! TO.N,Net-(C3-Pad1)*
G04 #@! TO.C,R10*
G36*
X142705779Y-108746144D02*
X142728834Y-108749563D01*
X142751443Y-108755227D01*
X142773387Y-108763079D01*
X142794457Y-108773044D01*
X142814448Y-108785026D01*
X142833168Y-108798910D01*
X142850438Y-108814562D01*
X142866090Y-108831832D01*
X142879974Y-108850552D01*
X142891956Y-108870543D01*
X142901921Y-108891613D01*
X142909773Y-108913557D01*
X142915437Y-108936166D01*
X142918856Y-108959221D01*
X142920000Y-108982500D01*
X142920000Y-109457500D01*
X142918856Y-109480779D01*
X142915437Y-109503834D01*
X142909773Y-109526443D01*
X142901921Y-109548387D01*
X142891956Y-109569457D01*
X142879974Y-109589448D01*
X142866090Y-109608168D01*
X142850438Y-109625438D01*
X142833168Y-109641090D01*
X142814448Y-109654974D01*
X142794457Y-109666956D01*
X142773387Y-109676921D01*
X142751443Y-109684773D01*
X142728834Y-109690437D01*
X142705779Y-109693856D01*
X142682500Y-109695000D01*
X142107500Y-109695000D01*
X142084221Y-109693856D01*
X142061166Y-109690437D01*
X142038557Y-109684773D01*
X142016613Y-109676921D01*
X141995543Y-109666956D01*
X141975552Y-109654974D01*
X141956832Y-109641090D01*
X141939562Y-109625438D01*
X141923910Y-109608168D01*
X141910026Y-109589448D01*
X141898044Y-109569457D01*
X141888079Y-109548387D01*
X141880227Y-109526443D01*
X141874563Y-109503834D01*
X141871144Y-109480779D01*
X141870000Y-109457500D01*
X141870000Y-108982500D01*
X141871144Y-108959221D01*
X141874563Y-108936166D01*
X141880227Y-108913557D01*
X141888079Y-108891613D01*
X141898044Y-108870543D01*
X141910026Y-108850552D01*
X141923910Y-108831832D01*
X141939562Y-108814562D01*
X141956832Y-108798910D01*
X141975552Y-108785026D01*
X141995543Y-108773044D01*
X142016613Y-108763079D01*
X142038557Y-108755227D01*
X142061166Y-108749563D01*
X142084221Y-108746144D01*
X142107500Y-108745000D01*
X142682500Y-108745000D01*
X142705779Y-108746144D01*
X142705779Y-108746144D01*
G37*
D16*
G04 #@! TD*
G04 #@! TO.P,R10,1*
G04 #@! TO.N,Net-(C3-Pad1)*
X142395000Y-109220000D03*
D14*
G04 #@! TO.N,Net-(R10-Pad2)*
G04 #@! TO.C,R10*
G36*
X144455779Y-108746144D02*
X144478834Y-108749563D01*
X144501443Y-108755227D01*
X144523387Y-108763079D01*
X144544457Y-108773044D01*
X144564448Y-108785026D01*
X144583168Y-108798910D01*
X144600438Y-108814562D01*
X144616090Y-108831832D01*
X144629974Y-108850552D01*
X144641956Y-108870543D01*
X144651921Y-108891613D01*
X144659773Y-108913557D01*
X144665437Y-108936166D01*
X144668856Y-108959221D01*
X144670000Y-108982500D01*
X144670000Y-109457500D01*
X144668856Y-109480779D01*
X144665437Y-109503834D01*
X144659773Y-109526443D01*
X144651921Y-109548387D01*
X144641956Y-109569457D01*
X144629974Y-109589448D01*
X144616090Y-109608168D01*
X144600438Y-109625438D01*
X144583168Y-109641090D01*
X144564448Y-109654974D01*
X144544457Y-109666956D01*
X144523387Y-109676921D01*
X144501443Y-109684773D01*
X144478834Y-109690437D01*
X144455779Y-109693856D01*
X144432500Y-109695000D01*
X143857500Y-109695000D01*
X143834221Y-109693856D01*
X143811166Y-109690437D01*
X143788557Y-109684773D01*
X143766613Y-109676921D01*
X143745543Y-109666956D01*
X143725552Y-109654974D01*
X143706832Y-109641090D01*
X143689562Y-109625438D01*
X143673910Y-109608168D01*
X143660026Y-109589448D01*
X143648044Y-109569457D01*
X143638079Y-109548387D01*
X143630227Y-109526443D01*
X143624563Y-109503834D01*
X143621144Y-109480779D01*
X143620000Y-109457500D01*
X143620000Y-108982500D01*
X143621144Y-108959221D01*
X143624563Y-108936166D01*
X143630227Y-108913557D01*
X143638079Y-108891613D01*
X143648044Y-108870543D01*
X143660026Y-108850552D01*
X143673910Y-108831832D01*
X143689562Y-108814562D01*
X143706832Y-108798910D01*
X143725552Y-108785026D01*
X143745543Y-108773044D01*
X143766613Y-108763079D01*
X143788557Y-108755227D01*
X143811166Y-108749563D01*
X143834221Y-108746144D01*
X143857500Y-108745000D01*
X144432500Y-108745000D01*
X144455779Y-108746144D01*
X144455779Y-108746144D01*
G37*
D16*
G04 #@! TD*
G04 #@! TO.P,R10,2*
G04 #@! TO.N,Net-(R10-Pad2)*
X144145000Y-109220000D03*
D14*
G04 #@! TO.N,Net-(C3-Pad1)*
G04 #@! TO.C,R11*
G36*
X142705779Y-117636144D02*
X142728834Y-117639563D01*
X142751443Y-117645227D01*
X142773387Y-117653079D01*
X142794457Y-117663044D01*
X142814448Y-117675026D01*
X142833168Y-117688910D01*
X142850438Y-117704562D01*
X142866090Y-117721832D01*
X142879974Y-117740552D01*
X142891956Y-117760543D01*
X142901921Y-117781613D01*
X142909773Y-117803557D01*
X142915437Y-117826166D01*
X142918856Y-117849221D01*
X142920000Y-117872500D01*
X142920000Y-118347500D01*
X142918856Y-118370779D01*
X142915437Y-118393834D01*
X142909773Y-118416443D01*
X142901921Y-118438387D01*
X142891956Y-118459457D01*
X142879974Y-118479448D01*
X142866090Y-118498168D01*
X142850438Y-118515438D01*
X142833168Y-118531090D01*
X142814448Y-118544974D01*
X142794457Y-118556956D01*
X142773387Y-118566921D01*
X142751443Y-118574773D01*
X142728834Y-118580437D01*
X142705779Y-118583856D01*
X142682500Y-118585000D01*
X142107500Y-118585000D01*
X142084221Y-118583856D01*
X142061166Y-118580437D01*
X142038557Y-118574773D01*
X142016613Y-118566921D01*
X141995543Y-118556956D01*
X141975552Y-118544974D01*
X141956832Y-118531090D01*
X141939562Y-118515438D01*
X141923910Y-118498168D01*
X141910026Y-118479448D01*
X141898044Y-118459457D01*
X141888079Y-118438387D01*
X141880227Y-118416443D01*
X141874563Y-118393834D01*
X141871144Y-118370779D01*
X141870000Y-118347500D01*
X141870000Y-117872500D01*
X141871144Y-117849221D01*
X141874563Y-117826166D01*
X141880227Y-117803557D01*
X141888079Y-117781613D01*
X141898044Y-117760543D01*
X141910026Y-117740552D01*
X141923910Y-117721832D01*
X141939562Y-117704562D01*
X141956832Y-117688910D01*
X141975552Y-117675026D01*
X141995543Y-117663044D01*
X142016613Y-117653079D01*
X142038557Y-117645227D01*
X142061166Y-117639563D01*
X142084221Y-117636144D01*
X142107500Y-117635000D01*
X142682500Y-117635000D01*
X142705779Y-117636144D01*
X142705779Y-117636144D01*
G37*
D16*
G04 #@! TD*
G04 #@! TO.P,R11,1*
G04 #@! TO.N,Net-(C3-Pad1)*
X142395000Y-118110000D03*
D14*
G04 #@! TO.N,Net-(R11-Pad2)*
G04 #@! TO.C,R11*
G36*
X144455779Y-117636144D02*
X144478834Y-117639563D01*
X144501443Y-117645227D01*
X144523387Y-117653079D01*
X144544457Y-117663044D01*
X144564448Y-117675026D01*
X144583168Y-117688910D01*
X144600438Y-117704562D01*
X144616090Y-117721832D01*
X144629974Y-117740552D01*
X144641956Y-117760543D01*
X144651921Y-117781613D01*
X144659773Y-117803557D01*
X144665437Y-117826166D01*
X144668856Y-117849221D01*
X144670000Y-117872500D01*
X144670000Y-118347500D01*
X144668856Y-118370779D01*
X144665437Y-118393834D01*
X144659773Y-118416443D01*
X144651921Y-118438387D01*
X144641956Y-118459457D01*
X144629974Y-118479448D01*
X144616090Y-118498168D01*
X144600438Y-118515438D01*
X144583168Y-118531090D01*
X144564448Y-118544974D01*
X144544457Y-118556956D01*
X144523387Y-118566921D01*
X144501443Y-118574773D01*
X144478834Y-118580437D01*
X144455779Y-118583856D01*
X144432500Y-118585000D01*
X143857500Y-118585000D01*
X143834221Y-118583856D01*
X143811166Y-118580437D01*
X143788557Y-118574773D01*
X143766613Y-118566921D01*
X143745543Y-118556956D01*
X143725552Y-118544974D01*
X143706832Y-118531090D01*
X143689562Y-118515438D01*
X143673910Y-118498168D01*
X143660026Y-118479448D01*
X143648044Y-118459457D01*
X143638079Y-118438387D01*
X143630227Y-118416443D01*
X143624563Y-118393834D01*
X143621144Y-118370779D01*
X143620000Y-118347500D01*
X143620000Y-117872500D01*
X143621144Y-117849221D01*
X143624563Y-117826166D01*
X143630227Y-117803557D01*
X143638079Y-117781613D01*
X143648044Y-117760543D01*
X143660026Y-117740552D01*
X143673910Y-117721832D01*
X143689562Y-117704562D01*
X143706832Y-117688910D01*
X143725552Y-117675026D01*
X143745543Y-117663044D01*
X143766613Y-117653079D01*
X143788557Y-117645227D01*
X143811166Y-117639563D01*
X143834221Y-117636144D01*
X143857500Y-117635000D01*
X144432500Y-117635000D01*
X144455779Y-117636144D01*
X144455779Y-117636144D01*
G37*
D16*
G04 #@! TD*
G04 #@! TO.P,R11,2*
G04 #@! TO.N,Net-(R11-Pad2)*
X144145000Y-118110000D03*
D14*
G04 #@! TO.N,Net-(R12-Pad2)*
G04 #@! TO.C,R12*
G36*
X144455779Y-126526144D02*
X144478834Y-126529563D01*
X144501443Y-126535227D01*
X144523387Y-126543079D01*
X144544457Y-126553044D01*
X144564448Y-126565026D01*
X144583168Y-126578910D01*
X144600438Y-126594562D01*
X144616090Y-126611832D01*
X144629974Y-126630552D01*
X144641956Y-126650543D01*
X144651921Y-126671613D01*
X144659773Y-126693557D01*
X144665437Y-126716166D01*
X144668856Y-126739221D01*
X144670000Y-126762500D01*
X144670000Y-127237500D01*
X144668856Y-127260779D01*
X144665437Y-127283834D01*
X144659773Y-127306443D01*
X144651921Y-127328387D01*
X144641956Y-127349457D01*
X144629974Y-127369448D01*
X144616090Y-127388168D01*
X144600438Y-127405438D01*
X144583168Y-127421090D01*
X144564448Y-127434974D01*
X144544457Y-127446956D01*
X144523387Y-127456921D01*
X144501443Y-127464773D01*
X144478834Y-127470437D01*
X144455779Y-127473856D01*
X144432500Y-127475000D01*
X143857500Y-127475000D01*
X143834221Y-127473856D01*
X143811166Y-127470437D01*
X143788557Y-127464773D01*
X143766613Y-127456921D01*
X143745543Y-127446956D01*
X143725552Y-127434974D01*
X143706832Y-127421090D01*
X143689562Y-127405438D01*
X143673910Y-127388168D01*
X143660026Y-127369448D01*
X143648044Y-127349457D01*
X143638079Y-127328387D01*
X143630227Y-127306443D01*
X143624563Y-127283834D01*
X143621144Y-127260779D01*
X143620000Y-127237500D01*
X143620000Y-126762500D01*
X143621144Y-126739221D01*
X143624563Y-126716166D01*
X143630227Y-126693557D01*
X143638079Y-126671613D01*
X143648044Y-126650543D01*
X143660026Y-126630552D01*
X143673910Y-126611832D01*
X143689562Y-126594562D01*
X143706832Y-126578910D01*
X143725552Y-126565026D01*
X143745543Y-126553044D01*
X143766613Y-126543079D01*
X143788557Y-126535227D01*
X143811166Y-126529563D01*
X143834221Y-126526144D01*
X143857500Y-126525000D01*
X144432500Y-126525000D01*
X144455779Y-126526144D01*
X144455779Y-126526144D01*
G37*
D16*
G04 #@! TD*
G04 #@! TO.P,R12,2*
G04 #@! TO.N,Net-(R12-Pad2)*
X144145000Y-127000000D03*
D14*
G04 #@! TO.N,Net-(C3-Pad1)*
G04 #@! TO.C,R12*
G36*
X142705779Y-126526144D02*
X142728834Y-126529563D01*
X142751443Y-126535227D01*
X142773387Y-126543079D01*
X142794457Y-126553044D01*
X142814448Y-126565026D01*
X142833168Y-126578910D01*
X142850438Y-126594562D01*
X142866090Y-126611832D01*
X142879974Y-126630552D01*
X142891956Y-126650543D01*
X142901921Y-126671613D01*
X142909773Y-126693557D01*
X142915437Y-126716166D01*
X142918856Y-126739221D01*
X142920000Y-126762500D01*
X142920000Y-127237500D01*
X142918856Y-127260779D01*
X142915437Y-127283834D01*
X142909773Y-127306443D01*
X142901921Y-127328387D01*
X142891956Y-127349457D01*
X142879974Y-127369448D01*
X142866090Y-127388168D01*
X142850438Y-127405438D01*
X142833168Y-127421090D01*
X142814448Y-127434974D01*
X142794457Y-127446956D01*
X142773387Y-127456921D01*
X142751443Y-127464773D01*
X142728834Y-127470437D01*
X142705779Y-127473856D01*
X142682500Y-127475000D01*
X142107500Y-127475000D01*
X142084221Y-127473856D01*
X142061166Y-127470437D01*
X142038557Y-127464773D01*
X142016613Y-127456921D01*
X141995543Y-127446956D01*
X141975552Y-127434974D01*
X141956832Y-127421090D01*
X141939562Y-127405438D01*
X141923910Y-127388168D01*
X141910026Y-127369448D01*
X141898044Y-127349457D01*
X141888079Y-127328387D01*
X141880227Y-127306443D01*
X141874563Y-127283834D01*
X141871144Y-127260779D01*
X141870000Y-127237500D01*
X141870000Y-126762500D01*
X141871144Y-126739221D01*
X141874563Y-126716166D01*
X141880227Y-126693557D01*
X141888079Y-126671613D01*
X141898044Y-126650543D01*
X141910026Y-126630552D01*
X141923910Y-126611832D01*
X141939562Y-126594562D01*
X141956832Y-126578910D01*
X141975552Y-126565026D01*
X141995543Y-126553044D01*
X142016613Y-126543079D01*
X142038557Y-126535227D01*
X142061166Y-126529563D01*
X142084221Y-126526144D01*
X142107500Y-126525000D01*
X142682500Y-126525000D01*
X142705779Y-126526144D01*
X142705779Y-126526144D01*
G37*
D16*
G04 #@! TD*
G04 #@! TO.P,R12,1*
G04 #@! TO.N,Net-(C3-Pad1)*
X142395000Y-127000000D03*
D14*
G04 #@! TO.N,Net-(Q1-Pad1)*
G04 #@! TO.C,R13*
G36*
X157395779Y-82647644D02*
X157418834Y-82651063D01*
X157441443Y-82656727D01*
X157463387Y-82664579D01*
X157484457Y-82674544D01*
X157504448Y-82686526D01*
X157523168Y-82700410D01*
X157540438Y-82716062D01*
X157556090Y-82733332D01*
X157569974Y-82752052D01*
X157581956Y-82772043D01*
X157591921Y-82793113D01*
X157599773Y-82815057D01*
X157605437Y-82837666D01*
X157608856Y-82860721D01*
X157610000Y-82884000D01*
X157610000Y-83359000D01*
X157608856Y-83382279D01*
X157605437Y-83405334D01*
X157599773Y-83427943D01*
X157591921Y-83449887D01*
X157581956Y-83470957D01*
X157569974Y-83490948D01*
X157556090Y-83509668D01*
X157540438Y-83526938D01*
X157523168Y-83542590D01*
X157504448Y-83556474D01*
X157484457Y-83568456D01*
X157463387Y-83578421D01*
X157441443Y-83586273D01*
X157418834Y-83591937D01*
X157395779Y-83595356D01*
X157372500Y-83596500D01*
X156797500Y-83596500D01*
X156774221Y-83595356D01*
X156751166Y-83591937D01*
X156728557Y-83586273D01*
X156706613Y-83578421D01*
X156685543Y-83568456D01*
X156665552Y-83556474D01*
X156646832Y-83542590D01*
X156629562Y-83526938D01*
X156613910Y-83509668D01*
X156600026Y-83490948D01*
X156588044Y-83470957D01*
X156578079Y-83449887D01*
X156570227Y-83427943D01*
X156564563Y-83405334D01*
X156561144Y-83382279D01*
X156560000Y-83359000D01*
X156560000Y-82884000D01*
X156561144Y-82860721D01*
X156564563Y-82837666D01*
X156570227Y-82815057D01*
X156578079Y-82793113D01*
X156588044Y-82772043D01*
X156600026Y-82752052D01*
X156613910Y-82733332D01*
X156629562Y-82716062D01*
X156646832Y-82700410D01*
X156665552Y-82686526D01*
X156685543Y-82674544D01*
X156706613Y-82664579D01*
X156728557Y-82656727D01*
X156751166Y-82651063D01*
X156774221Y-82647644D01*
X156797500Y-82646500D01*
X157372500Y-82646500D01*
X157395779Y-82647644D01*
X157395779Y-82647644D01*
G37*
D16*
G04 #@! TD*
G04 #@! TO.P,R13,1*
G04 #@! TO.N,Net-(Q1-Pad1)*
X157085000Y-83121500D03*
D14*
G04 #@! TO.N,Net-(R13-Pad2)*
G04 #@! TO.C,R13*
G36*
X155645779Y-82647644D02*
X155668834Y-82651063D01*
X155691443Y-82656727D01*
X155713387Y-82664579D01*
X155734457Y-82674544D01*
X155754448Y-82686526D01*
X155773168Y-82700410D01*
X155790438Y-82716062D01*
X155806090Y-82733332D01*
X155819974Y-82752052D01*
X155831956Y-82772043D01*
X155841921Y-82793113D01*
X155849773Y-82815057D01*
X155855437Y-82837666D01*
X155858856Y-82860721D01*
X155860000Y-82884000D01*
X155860000Y-83359000D01*
X155858856Y-83382279D01*
X155855437Y-83405334D01*
X155849773Y-83427943D01*
X155841921Y-83449887D01*
X155831956Y-83470957D01*
X155819974Y-83490948D01*
X155806090Y-83509668D01*
X155790438Y-83526938D01*
X155773168Y-83542590D01*
X155754448Y-83556474D01*
X155734457Y-83568456D01*
X155713387Y-83578421D01*
X155691443Y-83586273D01*
X155668834Y-83591937D01*
X155645779Y-83595356D01*
X155622500Y-83596500D01*
X155047500Y-83596500D01*
X155024221Y-83595356D01*
X155001166Y-83591937D01*
X154978557Y-83586273D01*
X154956613Y-83578421D01*
X154935543Y-83568456D01*
X154915552Y-83556474D01*
X154896832Y-83542590D01*
X154879562Y-83526938D01*
X154863910Y-83509668D01*
X154850026Y-83490948D01*
X154838044Y-83470957D01*
X154828079Y-83449887D01*
X154820227Y-83427943D01*
X154814563Y-83405334D01*
X154811144Y-83382279D01*
X154810000Y-83359000D01*
X154810000Y-82884000D01*
X154811144Y-82860721D01*
X154814563Y-82837666D01*
X154820227Y-82815057D01*
X154828079Y-82793113D01*
X154838044Y-82772043D01*
X154850026Y-82752052D01*
X154863910Y-82733332D01*
X154879562Y-82716062D01*
X154896832Y-82700410D01*
X154915552Y-82686526D01*
X154935543Y-82674544D01*
X154956613Y-82664579D01*
X154978557Y-82656727D01*
X155001166Y-82651063D01*
X155024221Y-82647644D01*
X155047500Y-82646500D01*
X155622500Y-82646500D01*
X155645779Y-82647644D01*
X155645779Y-82647644D01*
G37*
D16*
G04 #@! TD*
G04 #@! TO.P,R13,2*
G04 #@! TO.N,Net-(R13-Pad2)*
X155335000Y-83121500D03*
D14*
G04 #@! TO.N,Net-(R14-Pad2)*
G04 #@! TO.C,R14*
G36*
X155645779Y-88045144D02*
X155668834Y-88048563D01*
X155691443Y-88054227D01*
X155713387Y-88062079D01*
X155734457Y-88072044D01*
X155754448Y-88084026D01*
X155773168Y-88097910D01*
X155790438Y-88113562D01*
X155806090Y-88130832D01*
X155819974Y-88149552D01*
X155831956Y-88169543D01*
X155841921Y-88190613D01*
X155849773Y-88212557D01*
X155855437Y-88235166D01*
X155858856Y-88258221D01*
X155860000Y-88281500D01*
X155860000Y-88756500D01*
X155858856Y-88779779D01*
X155855437Y-88802834D01*
X155849773Y-88825443D01*
X155841921Y-88847387D01*
X155831956Y-88868457D01*
X155819974Y-88888448D01*
X155806090Y-88907168D01*
X155790438Y-88924438D01*
X155773168Y-88940090D01*
X155754448Y-88953974D01*
X155734457Y-88965956D01*
X155713387Y-88975921D01*
X155691443Y-88983773D01*
X155668834Y-88989437D01*
X155645779Y-88992856D01*
X155622500Y-88994000D01*
X155047500Y-88994000D01*
X155024221Y-88992856D01*
X155001166Y-88989437D01*
X154978557Y-88983773D01*
X154956613Y-88975921D01*
X154935543Y-88965956D01*
X154915552Y-88953974D01*
X154896832Y-88940090D01*
X154879562Y-88924438D01*
X154863910Y-88907168D01*
X154850026Y-88888448D01*
X154838044Y-88868457D01*
X154828079Y-88847387D01*
X154820227Y-88825443D01*
X154814563Y-88802834D01*
X154811144Y-88779779D01*
X154810000Y-88756500D01*
X154810000Y-88281500D01*
X154811144Y-88258221D01*
X154814563Y-88235166D01*
X154820227Y-88212557D01*
X154828079Y-88190613D01*
X154838044Y-88169543D01*
X154850026Y-88149552D01*
X154863910Y-88130832D01*
X154879562Y-88113562D01*
X154896832Y-88097910D01*
X154915552Y-88084026D01*
X154935543Y-88072044D01*
X154956613Y-88062079D01*
X154978557Y-88054227D01*
X155001166Y-88048563D01*
X155024221Y-88045144D01*
X155047500Y-88044000D01*
X155622500Y-88044000D01*
X155645779Y-88045144D01*
X155645779Y-88045144D01*
G37*
D16*
G04 #@! TD*
G04 #@! TO.P,R14,2*
G04 #@! TO.N,Net-(R14-Pad2)*
X155335000Y-88519000D03*
D14*
G04 #@! TO.N,Net-(Q2-Pad1)*
G04 #@! TO.C,R14*
G36*
X157395779Y-88045144D02*
X157418834Y-88048563D01*
X157441443Y-88054227D01*
X157463387Y-88062079D01*
X157484457Y-88072044D01*
X157504448Y-88084026D01*
X157523168Y-88097910D01*
X157540438Y-88113562D01*
X157556090Y-88130832D01*
X157569974Y-88149552D01*
X157581956Y-88169543D01*
X157591921Y-88190613D01*
X157599773Y-88212557D01*
X157605437Y-88235166D01*
X157608856Y-88258221D01*
X157610000Y-88281500D01*
X157610000Y-88756500D01*
X157608856Y-88779779D01*
X157605437Y-88802834D01*
X157599773Y-88825443D01*
X157591921Y-88847387D01*
X157581956Y-88868457D01*
X157569974Y-88888448D01*
X157556090Y-88907168D01*
X157540438Y-88924438D01*
X157523168Y-88940090D01*
X157504448Y-88953974D01*
X157484457Y-88965956D01*
X157463387Y-88975921D01*
X157441443Y-88983773D01*
X157418834Y-88989437D01*
X157395779Y-88992856D01*
X157372500Y-88994000D01*
X156797500Y-88994000D01*
X156774221Y-88992856D01*
X156751166Y-88989437D01*
X156728557Y-88983773D01*
X156706613Y-88975921D01*
X156685543Y-88965956D01*
X156665552Y-88953974D01*
X156646832Y-88940090D01*
X156629562Y-88924438D01*
X156613910Y-88907168D01*
X156600026Y-88888448D01*
X156588044Y-88868457D01*
X156578079Y-88847387D01*
X156570227Y-88825443D01*
X156564563Y-88802834D01*
X156561144Y-88779779D01*
X156560000Y-88756500D01*
X156560000Y-88281500D01*
X156561144Y-88258221D01*
X156564563Y-88235166D01*
X156570227Y-88212557D01*
X156578079Y-88190613D01*
X156588044Y-88169543D01*
X156600026Y-88149552D01*
X156613910Y-88130832D01*
X156629562Y-88113562D01*
X156646832Y-88097910D01*
X156665552Y-88084026D01*
X156685543Y-88072044D01*
X156706613Y-88062079D01*
X156728557Y-88054227D01*
X156751166Y-88048563D01*
X156774221Y-88045144D01*
X156797500Y-88044000D01*
X157372500Y-88044000D01*
X157395779Y-88045144D01*
X157395779Y-88045144D01*
G37*
D16*
G04 #@! TD*
G04 #@! TO.P,R14,1*
G04 #@! TO.N,Net-(Q2-Pad1)*
X157085000Y-88519000D03*
D14*
G04 #@! TO.N,Net-(Q1-Pad1)*
G04 #@! TO.C,R15*
G36*
X156470779Y-77341144D02*
X156493834Y-77344563D01*
X156516443Y-77350227D01*
X156538387Y-77358079D01*
X156559457Y-77368044D01*
X156579448Y-77380026D01*
X156598168Y-77393910D01*
X156615438Y-77409562D01*
X156631090Y-77426832D01*
X156644974Y-77445552D01*
X156656956Y-77465543D01*
X156666921Y-77486613D01*
X156674773Y-77508557D01*
X156680437Y-77531166D01*
X156683856Y-77554221D01*
X156685000Y-77577500D01*
X156685000Y-78152500D01*
X156683856Y-78175779D01*
X156680437Y-78198834D01*
X156674773Y-78221443D01*
X156666921Y-78243387D01*
X156656956Y-78264457D01*
X156644974Y-78284448D01*
X156631090Y-78303168D01*
X156615438Y-78320438D01*
X156598168Y-78336090D01*
X156579448Y-78349974D01*
X156559457Y-78361956D01*
X156538387Y-78371921D01*
X156516443Y-78379773D01*
X156493834Y-78385437D01*
X156470779Y-78388856D01*
X156447500Y-78390000D01*
X155972500Y-78390000D01*
X155949221Y-78388856D01*
X155926166Y-78385437D01*
X155903557Y-78379773D01*
X155881613Y-78371921D01*
X155860543Y-78361956D01*
X155840552Y-78349974D01*
X155821832Y-78336090D01*
X155804562Y-78320438D01*
X155788910Y-78303168D01*
X155775026Y-78284448D01*
X155763044Y-78264457D01*
X155753079Y-78243387D01*
X155745227Y-78221443D01*
X155739563Y-78198834D01*
X155736144Y-78175779D01*
X155735000Y-78152500D01*
X155735000Y-77577500D01*
X155736144Y-77554221D01*
X155739563Y-77531166D01*
X155745227Y-77508557D01*
X155753079Y-77486613D01*
X155763044Y-77465543D01*
X155775026Y-77445552D01*
X155788910Y-77426832D01*
X155804562Y-77409562D01*
X155821832Y-77393910D01*
X155840552Y-77380026D01*
X155860543Y-77368044D01*
X155881613Y-77358079D01*
X155903557Y-77350227D01*
X155926166Y-77344563D01*
X155949221Y-77341144D01*
X155972500Y-77340000D01*
X156447500Y-77340000D01*
X156470779Y-77341144D01*
X156470779Y-77341144D01*
G37*
D16*
G04 #@! TD*
G04 #@! TO.P,R15,2*
G04 #@! TO.N,Net-(Q1-Pad1)*
X156210000Y-77865000D03*
D14*
G04 #@! TO.N,Motor1*
G04 #@! TO.C,R15*
G36*
X156470779Y-79091144D02*
X156493834Y-79094563D01*
X156516443Y-79100227D01*
X156538387Y-79108079D01*
X156559457Y-79118044D01*
X156579448Y-79130026D01*
X156598168Y-79143910D01*
X156615438Y-79159562D01*
X156631090Y-79176832D01*
X156644974Y-79195552D01*
X156656956Y-79215543D01*
X156666921Y-79236613D01*
X156674773Y-79258557D01*
X156680437Y-79281166D01*
X156683856Y-79304221D01*
X156685000Y-79327500D01*
X156685000Y-79902500D01*
X156683856Y-79925779D01*
X156680437Y-79948834D01*
X156674773Y-79971443D01*
X156666921Y-79993387D01*
X156656956Y-80014457D01*
X156644974Y-80034448D01*
X156631090Y-80053168D01*
X156615438Y-80070438D01*
X156598168Y-80086090D01*
X156579448Y-80099974D01*
X156559457Y-80111956D01*
X156538387Y-80121921D01*
X156516443Y-80129773D01*
X156493834Y-80135437D01*
X156470779Y-80138856D01*
X156447500Y-80140000D01*
X155972500Y-80140000D01*
X155949221Y-80138856D01*
X155926166Y-80135437D01*
X155903557Y-80129773D01*
X155881613Y-80121921D01*
X155860543Y-80111956D01*
X155840552Y-80099974D01*
X155821832Y-80086090D01*
X155804562Y-80070438D01*
X155788910Y-80053168D01*
X155775026Y-80034448D01*
X155763044Y-80014457D01*
X155753079Y-79993387D01*
X155745227Y-79971443D01*
X155739563Y-79948834D01*
X155736144Y-79925779D01*
X155735000Y-79902500D01*
X155735000Y-79327500D01*
X155736144Y-79304221D01*
X155739563Y-79281166D01*
X155745227Y-79258557D01*
X155753079Y-79236613D01*
X155763044Y-79215543D01*
X155775026Y-79195552D01*
X155788910Y-79176832D01*
X155804562Y-79159562D01*
X155821832Y-79143910D01*
X155840552Y-79130026D01*
X155860543Y-79118044D01*
X155881613Y-79108079D01*
X155903557Y-79100227D01*
X155926166Y-79094563D01*
X155949221Y-79091144D01*
X155972500Y-79090000D01*
X156447500Y-79090000D01*
X156470779Y-79091144D01*
X156470779Y-79091144D01*
G37*
D16*
G04 #@! TD*
G04 #@! TO.P,R15,1*
G04 #@! TO.N,Motor1*
X156210000Y-79615000D03*
D14*
G04 #@! TO.N,GND*
G04 #@! TO.C,R16*
G36*
X156470779Y-93061144D02*
X156493834Y-93064563D01*
X156516443Y-93070227D01*
X156538387Y-93078079D01*
X156559457Y-93088044D01*
X156579448Y-93100026D01*
X156598168Y-93113910D01*
X156615438Y-93129562D01*
X156631090Y-93146832D01*
X156644974Y-93165552D01*
X156656956Y-93185543D01*
X156666921Y-93206613D01*
X156674773Y-93228557D01*
X156680437Y-93251166D01*
X156683856Y-93274221D01*
X156685000Y-93297500D01*
X156685000Y-93872500D01*
X156683856Y-93895779D01*
X156680437Y-93918834D01*
X156674773Y-93941443D01*
X156666921Y-93963387D01*
X156656956Y-93984457D01*
X156644974Y-94004448D01*
X156631090Y-94023168D01*
X156615438Y-94040438D01*
X156598168Y-94056090D01*
X156579448Y-94069974D01*
X156559457Y-94081956D01*
X156538387Y-94091921D01*
X156516443Y-94099773D01*
X156493834Y-94105437D01*
X156470779Y-94108856D01*
X156447500Y-94110000D01*
X155972500Y-94110000D01*
X155949221Y-94108856D01*
X155926166Y-94105437D01*
X155903557Y-94099773D01*
X155881613Y-94091921D01*
X155860543Y-94081956D01*
X155840552Y-94069974D01*
X155821832Y-94056090D01*
X155804562Y-94040438D01*
X155788910Y-94023168D01*
X155775026Y-94004448D01*
X155763044Y-93984457D01*
X155753079Y-93963387D01*
X155745227Y-93941443D01*
X155739563Y-93918834D01*
X155736144Y-93895779D01*
X155735000Y-93872500D01*
X155735000Y-93297500D01*
X155736144Y-93274221D01*
X155739563Y-93251166D01*
X155745227Y-93228557D01*
X155753079Y-93206613D01*
X155763044Y-93185543D01*
X155775026Y-93165552D01*
X155788910Y-93146832D01*
X155804562Y-93129562D01*
X155821832Y-93113910D01*
X155840552Y-93100026D01*
X155860543Y-93088044D01*
X155881613Y-93078079D01*
X155903557Y-93070227D01*
X155926166Y-93064563D01*
X155949221Y-93061144D01*
X155972500Y-93060000D01*
X156447500Y-93060000D01*
X156470779Y-93061144D01*
X156470779Y-93061144D01*
G37*
D16*
G04 #@! TD*
G04 #@! TO.P,R16,1*
G04 #@! TO.N,GND*
X156210000Y-93585000D03*
D14*
G04 #@! TO.N,Net-(Q2-Pad1)*
G04 #@! TO.C,R16*
G36*
X156470779Y-91311144D02*
X156493834Y-91314563D01*
X156516443Y-91320227D01*
X156538387Y-91328079D01*
X156559457Y-91338044D01*
X156579448Y-91350026D01*
X156598168Y-91363910D01*
X156615438Y-91379562D01*
X156631090Y-91396832D01*
X156644974Y-91415552D01*
X156656956Y-91435543D01*
X156666921Y-91456613D01*
X156674773Y-91478557D01*
X156680437Y-91501166D01*
X156683856Y-91524221D01*
X156685000Y-91547500D01*
X156685000Y-92122500D01*
X156683856Y-92145779D01*
X156680437Y-92168834D01*
X156674773Y-92191443D01*
X156666921Y-92213387D01*
X156656956Y-92234457D01*
X156644974Y-92254448D01*
X156631090Y-92273168D01*
X156615438Y-92290438D01*
X156598168Y-92306090D01*
X156579448Y-92319974D01*
X156559457Y-92331956D01*
X156538387Y-92341921D01*
X156516443Y-92349773D01*
X156493834Y-92355437D01*
X156470779Y-92358856D01*
X156447500Y-92360000D01*
X155972500Y-92360000D01*
X155949221Y-92358856D01*
X155926166Y-92355437D01*
X155903557Y-92349773D01*
X155881613Y-92341921D01*
X155860543Y-92331956D01*
X155840552Y-92319974D01*
X155821832Y-92306090D01*
X155804562Y-92290438D01*
X155788910Y-92273168D01*
X155775026Y-92254448D01*
X155763044Y-92234457D01*
X155753079Y-92213387D01*
X155745227Y-92191443D01*
X155739563Y-92168834D01*
X155736144Y-92145779D01*
X155735000Y-92122500D01*
X155735000Y-91547500D01*
X155736144Y-91524221D01*
X155739563Y-91501166D01*
X155745227Y-91478557D01*
X155753079Y-91456613D01*
X155763044Y-91435543D01*
X155775026Y-91415552D01*
X155788910Y-91396832D01*
X155804562Y-91379562D01*
X155821832Y-91363910D01*
X155840552Y-91350026D01*
X155860543Y-91338044D01*
X155881613Y-91328079D01*
X155903557Y-91320227D01*
X155926166Y-91314563D01*
X155949221Y-91311144D01*
X155972500Y-91310000D01*
X156447500Y-91310000D01*
X156470779Y-91311144D01*
X156470779Y-91311144D01*
G37*
D16*
G04 #@! TD*
G04 #@! TO.P,R16,2*
G04 #@! TO.N,Net-(Q2-Pad1)*
X156210000Y-91835000D03*
D14*
G04 #@! TO.N,Net-(Q3-Pad1)*
G04 #@! TO.C,R17*
G36*
X156470779Y-105041144D02*
X156493834Y-105044563D01*
X156516443Y-105050227D01*
X156538387Y-105058079D01*
X156559457Y-105068044D01*
X156579448Y-105080026D01*
X156598168Y-105093910D01*
X156615438Y-105109562D01*
X156631090Y-105126832D01*
X156644974Y-105145552D01*
X156656956Y-105165543D01*
X156666921Y-105186613D01*
X156674773Y-105208557D01*
X156680437Y-105231166D01*
X156683856Y-105254221D01*
X156685000Y-105277500D01*
X156685000Y-105852500D01*
X156683856Y-105875779D01*
X156680437Y-105898834D01*
X156674773Y-105921443D01*
X156666921Y-105943387D01*
X156656956Y-105964457D01*
X156644974Y-105984448D01*
X156631090Y-106003168D01*
X156615438Y-106020438D01*
X156598168Y-106036090D01*
X156579448Y-106049974D01*
X156559457Y-106061956D01*
X156538387Y-106071921D01*
X156516443Y-106079773D01*
X156493834Y-106085437D01*
X156470779Y-106088856D01*
X156447500Y-106090000D01*
X155972500Y-106090000D01*
X155949221Y-106088856D01*
X155926166Y-106085437D01*
X155903557Y-106079773D01*
X155881613Y-106071921D01*
X155860543Y-106061956D01*
X155840552Y-106049974D01*
X155821832Y-106036090D01*
X155804562Y-106020438D01*
X155788910Y-106003168D01*
X155775026Y-105984448D01*
X155763044Y-105964457D01*
X155753079Y-105943387D01*
X155745227Y-105921443D01*
X155739563Y-105898834D01*
X155736144Y-105875779D01*
X155735000Y-105852500D01*
X155735000Y-105277500D01*
X155736144Y-105254221D01*
X155739563Y-105231166D01*
X155745227Y-105208557D01*
X155753079Y-105186613D01*
X155763044Y-105165543D01*
X155775026Y-105145552D01*
X155788910Y-105126832D01*
X155804562Y-105109562D01*
X155821832Y-105093910D01*
X155840552Y-105080026D01*
X155860543Y-105068044D01*
X155881613Y-105058079D01*
X155903557Y-105050227D01*
X155926166Y-105044563D01*
X155949221Y-105041144D01*
X155972500Y-105040000D01*
X156447500Y-105040000D01*
X156470779Y-105041144D01*
X156470779Y-105041144D01*
G37*
D16*
G04 #@! TD*
G04 #@! TO.P,R17,2*
G04 #@! TO.N,Net-(Q3-Pad1)*
X156210000Y-105565000D03*
D14*
G04 #@! TO.N,Motor2*
G04 #@! TO.C,R17*
G36*
X156470779Y-106791144D02*
X156493834Y-106794563D01*
X156516443Y-106800227D01*
X156538387Y-106808079D01*
X156559457Y-106818044D01*
X156579448Y-106830026D01*
X156598168Y-106843910D01*
X156615438Y-106859562D01*
X156631090Y-106876832D01*
X156644974Y-106895552D01*
X156656956Y-106915543D01*
X156666921Y-106936613D01*
X156674773Y-106958557D01*
X156680437Y-106981166D01*
X156683856Y-107004221D01*
X156685000Y-107027500D01*
X156685000Y-107602500D01*
X156683856Y-107625779D01*
X156680437Y-107648834D01*
X156674773Y-107671443D01*
X156666921Y-107693387D01*
X156656956Y-107714457D01*
X156644974Y-107734448D01*
X156631090Y-107753168D01*
X156615438Y-107770438D01*
X156598168Y-107786090D01*
X156579448Y-107799974D01*
X156559457Y-107811956D01*
X156538387Y-107821921D01*
X156516443Y-107829773D01*
X156493834Y-107835437D01*
X156470779Y-107838856D01*
X156447500Y-107840000D01*
X155972500Y-107840000D01*
X155949221Y-107838856D01*
X155926166Y-107835437D01*
X155903557Y-107829773D01*
X155881613Y-107821921D01*
X155860543Y-107811956D01*
X155840552Y-107799974D01*
X155821832Y-107786090D01*
X155804562Y-107770438D01*
X155788910Y-107753168D01*
X155775026Y-107734448D01*
X155763044Y-107714457D01*
X155753079Y-107693387D01*
X155745227Y-107671443D01*
X155739563Y-107648834D01*
X155736144Y-107625779D01*
X155735000Y-107602500D01*
X155735000Y-107027500D01*
X155736144Y-107004221D01*
X155739563Y-106981166D01*
X155745227Y-106958557D01*
X155753079Y-106936613D01*
X155763044Y-106915543D01*
X155775026Y-106895552D01*
X155788910Y-106876832D01*
X155804562Y-106859562D01*
X155821832Y-106843910D01*
X155840552Y-106830026D01*
X155860543Y-106818044D01*
X155881613Y-106808079D01*
X155903557Y-106800227D01*
X155926166Y-106794563D01*
X155949221Y-106791144D01*
X155972500Y-106790000D01*
X156447500Y-106790000D01*
X156470779Y-106791144D01*
X156470779Y-106791144D01*
G37*
D16*
G04 #@! TD*
G04 #@! TO.P,R17,1*
G04 #@! TO.N,Motor2*
X156210000Y-107315000D03*
D14*
G04 #@! TO.N,GND*
G04 #@! TO.C,R18*
G36*
X156470779Y-121001144D02*
X156493834Y-121004563D01*
X156516443Y-121010227D01*
X156538387Y-121018079D01*
X156559457Y-121028044D01*
X156579448Y-121040026D01*
X156598168Y-121053910D01*
X156615438Y-121069562D01*
X156631090Y-121086832D01*
X156644974Y-121105552D01*
X156656956Y-121125543D01*
X156666921Y-121146613D01*
X156674773Y-121168557D01*
X156680437Y-121191166D01*
X156683856Y-121214221D01*
X156685000Y-121237500D01*
X156685000Y-121812500D01*
X156683856Y-121835779D01*
X156680437Y-121858834D01*
X156674773Y-121881443D01*
X156666921Y-121903387D01*
X156656956Y-121924457D01*
X156644974Y-121944448D01*
X156631090Y-121963168D01*
X156615438Y-121980438D01*
X156598168Y-121996090D01*
X156579448Y-122009974D01*
X156559457Y-122021956D01*
X156538387Y-122031921D01*
X156516443Y-122039773D01*
X156493834Y-122045437D01*
X156470779Y-122048856D01*
X156447500Y-122050000D01*
X155972500Y-122050000D01*
X155949221Y-122048856D01*
X155926166Y-122045437D01*
X155903557Y-122039773D01*
X155881613Y-122031921D01*
X155860543Y-122021956D01*
X155840552Y-122009974D01*
X155821832Y-121996090D01*
X155804562Y-121980438D01*
X155788910Y-121963168D01*
X155775026Y-121944448D01*
X155763044Y-121924457D01*
X155753079Y-121903387D01*
X155745227Y-121881443D01*
X155739563Y-121858834D01*
X155736144Y-121835779D01*
X155735000Y-121812500D01*
X155735000Y-121237500D01*
X155736144Y-121214221D01*
X155739563Y-121191166D01*
X155745227Y-121168557D01*
X155753079Y-121146613D01*
X155763044Y-121125543D01*
X155775026Y-121105552D01*
X155788910Y-121086832D01*
X155804562Y-121069562D01*
X155821832Y-121053910D01*
X155840552Y-121040026D01*
X155860543Y-121028044D01*
X155881613Y-121018079D01*
X155903557Y-121010227D01*
X155926166Y-121004563D01*
X155949221Y-121001144D01*
X155972500Y-121000000D01*
X156447500Y-121000000D01*
X156470779Y-121001144D01*
X156470779Y-121001144D01*
G37*
D16*
G04 #@! TD*
G04 #@! TO.P,R18,1*
G04 #@! TO.N,GND*
X156210000Y-121525000D03*
D14*
G04 #@! TO.N,Net-(Q4-Pad1)*
G04 #@! TO.C,R18*
G36*
X156470779Y-119251144D02*
X156493834Y-119254563D01*
X156516443Y-119260227D01*
X156538387Y-119268079D01*
X156559457Y-119278044D01*
X156579448Y-119290026D01*
X156598168Y-119303910D01*
X156615438Y-119319562D01*
X156631090Y-119336832D01*
X156644974Y-119355552D01*
X156656956Y-119375543D01*
X156666921Y-119396613D01*
X156674773Y-119418557D01*
X156680437Y-119441166D01*
X156683856Y-119464221D01*
X156685000Y-119487500D01*
X156685000Y-120062500D01*
X156683856Y-120085779D01*
X156680437Y-120108834D01*
X156674773Y-120131443D01*
X156666921Y-120153387D01*
X156656956Y-120174457D01*
X156644974Y-120194448D01*
X156631090Y-120213168D01*
X156615438Y-120230438D01*
X156598168Y-120246090D01*
X156579448Y-120259974D01*
X156559457Y-120271956D01*
X156538387Y-120281921D01*
X156516443Y-120289773D01*
X156493834Y-120295437D01*
X156470779Y-120298856D01*
X156447500Y-120300000D01*
X155972500Y-120300000D01*
X155949221Y-120298856D01*
X155926166Y-120295437D01*
X155903557Y-120289773D01*
X155881613Y-120281921D01*
X155860543Y-120271956D01*
X155840552Y-120259974D01*
X155821832Y-120246090D01*
X155804562Y-120230438D01*
X155788910Y-120213168D01*
X155775026Y-120194448D01*
X155763044Y-120174457D01*
X155753079Y-120153387D01*
X155745227Y-120131443D01*
X155739563Y-120108834D01*
X155736144Y-120085779D01*
X155735000Y-120062500D01*
X155735000Y-119487500D01*
X155736144Y-119464221D01*
X155739563Y-119441166D01*
X155745227Y-119418557D01*
X155753079Y-119396613D01*
X155763044Y-119375543D01*
X155775026Y-119355552D01*
X155788910Y-119336832D01*
X155804562Y-119319562D01*
X155821832Y-119303910D01*
X155840552Y-119290026D01*
X155860543Y-119278044D01*
X155881613Y-119268079D01*
X155903557Y-119260227D01*
X155926166Y-119254563D01*
X155949221Y-119251144D01*
X155972500Y-119250000D01*
X156447500Y-119250000D01*
X156470779Y-119251144D01*
X156470779Y-119251144D01*
G37*
D16*
G04 #@! TD*
G04 #@! TO.P,R18,2*
G04 #@! TO.N,Net-(Q4-Pad1)*
X156210000Y-119775000D03*
D14*
G04 #@! TO.N,Net-(R19-Pad2)*
G04 #@! TO.C,R19*
G36*
X155645779Y-110588144D02*
X155668834Y-110591563D01*
X155691443Y-110597227D01*
X155713387Y-110605079D01*
X155734457Y-110615044D01*
X155754448Y-110627026D01*
X155773168Y-110640910D01*
X155790438Y-110656562D01*
X155806090Y-110673832D01*
X155819974Y-110692552D01*
X155831956Y-110712543D01*
X155841921Y-110733613D01*
X155849773Y-110755557D01*
X155855437Y-110778166D01*
X155858856Y-110801221D01*
X155860000Y-110824500D01*
X155860000Y-111299500D01*
X155858856Y-111322779D01*
X155855437Y-111345834D01*
X155849773Y-111368443D01*
X155841921Y-111390387D01*
X155831956Y-111411457D01*
X155819974Y-111431448D01*
X155806090Y-111450168D01*
X155790438Y-111467438D01*
X155773168Y-111483090D01*
X155754448Y-111496974D01*
X155734457Y-111508956D01*
X155713387Y-111518921D01*
X155691443Y-111526773D01*
X155668834Y-111532437D01*
X155645779Y-111535856D01*
X155622500Y-111537000D01*
X155047500Y-111537000D01*
X155024221Y-111535856D01*
X155001166Y-111532437D01*
X154978557Y-111526773D01*
X154956613Y-111518921D01*
X154935543Y-111508956D01*
X154915552Y-111496974D01*
X154896832Y-111483090D01*
X154879562Y-111467438D01*
X154863910Y-111450168D01*
X154850026Y-111431448D01*
X154838044Y-111411457D01*
X154828079Y-111390387D01*
X154820227Y-111368443D01*
X154814563Y-111345834D01*
X154811144Y-111322779D01*
X154810000Y-111299500D01*
X154810000Y-110824500D01*
X154811144Y-110801221D01*
X154814563Y-110778166D01*
X154820227Y-110755557D01*
X154828079Y-110733613D01*
X154838044Y-110712543D01*
X154850026Y-110692552D01*
X154863910Y-110673832D01*
X154879562Y-110656562D01*
X154896832Y-110640910D01*
X154915552Y-110627026D01*
X154935543Y-110615044D01*
X154956613Y-110605079D01*
X154978557Y-110597227D01*
X155001166Y-110591563D01*
X155024221Y-110588144D01*
X155047500Y-110587000D01*
X155622500Y-110587000D01*
X155645779Y-110588144D01*
X155645779Y-110588144D01*
G37*
D16*
G04 #@! TD*
G04 #@! TO.P,R19,2*
G04 #@! TO.N,Net-(R19-Pad2)*
X155335000Y-111062000D03*
D14*
G04 #@! TO.N,Net-(Q3-Pad1)*
G04 #@! TO.C,R19*
G36*
X157395779Y-110588144D02*
X157418834Y-110591563D01*
X157441443Y-110597227D01*
X157463387Y-110605079D01*
X157484457Y-110615044D01*
X157504448Y-110627026D01*
X157523168Y-110640910D01*
X157540438Y-110656562D01*
X157556090Y-110673832D01*
X157569974Y-110692552D01*
X157581956Y-110712543D01*
X157591921Y-110733613D01*
X157599773Y-110755557D01*
X157605437Y-110778166D01*
X157608856Y-110801221D01*
X157610000Y-110824500D01*
X157610000Y-111299500D01*
X157608856Y-111322779D01*
X157605437Y-111345834D01*
X157599773Y-111368443D01*
X157591921Y-111390387D01*
X157581956Y-111411457D01*
X157569974Y-111431448D01*
X157556090Y-111450168D01*
X157540438Y-111467438D01*
X157523168Y-111483090D01*
X157504448Y-111496974D01*
X157484457Y-111508956D01*
X157463387Y-111518921D01*
X157441443Y-111526773D01*
X157418834Y-111532437D01*
X157395779Y-111535856D01*
X157372500Y-111537000D01*
X156797500Y-111537000D01*
X156774221Y-111535856D01*
X156751166Y-111532437D01*
X156728557Y-111526773D01*
X156706613Y-111518921D01*
X156685543Y-111508956D01*
X156665552Y-111496974D01*
X156646832Y-111483090D01*
X156629562Y-111467438D01*
X156613910Y-111450168D01*
X156600026Y-111431448D01*
X156588044Y-111411457D01*
X156578079Y-111390387D01*
X156570227Y-111368443D01*
X156564563Y-111345834D01*
X156561144Y-111322779D01*
X156560000Y-111299500D01*
X156560000Y-110824500D01*
X156561144Y-110801221D01*
X156564563Y-110778166D01*
X156570227Y-110755557D01*
X156578079Y-110733613D01*
X156588044Y-110712543D01*
X156600026Y-110692552D01*
X156613910Y-110673832D01*
X156629562Y-110656562D01*
X156646832Y-110640910D01*
X156665552Y-110627026D01*
X156685543Y-110615044D01*
X156706613Y-110605079D01*
X156728557Y-110597227D01*
X156751166Y-110591563D01*
X156774221Y-110588144D01*
X156797500Y-110587000D01*
X157372500Y-110587000D01*
X157395779Y-110588144D01*
X157395779Y-110588144D01*
G37*
D16*
G04 #@! TD*
G04 #@! TO.P,R19,1*
G04 #@! TO.N,Net-(Q3-Pad1)*
X157085000Y-111062000D03*
D14*
G04 #@! TO.N,Net-(R20-Pad2)*
G04 #@! TO.C,R20*
G36*
X155645779Y-115985144D02*
X155668834Y-115988563D01*
X155691443Y-115994227D01*
X155713387Y-116002079D01*
X155734457Y-116012044D01*
X155754448Y-116024026D01*
X155773168Y-116037910D01*
X155790438Y-116053562D01*
X155806090Y-116070832D01*
X155819974Y-116089552D01*
X155831956Y-116109543D01*
X155841921Y-116130613D01*
X155849773Y-116152557D01*
X155855437Y-116175166D01*
X155858856Y-116198221D01*
X155860000Y-116221500D01*
X155860000Y-116696500D01*
X155858856Y-116719779D01*
X155855437Y-116742834D01*
X155849773Y-116765443D01*
X155841921Y-116787387D01*
X155831956Y-116808457D01*
X155819974Y-116828448D01*
X155806090Y-116847168D01*
X155790438Y-116864438D01*
X155773168Y-116880090D01*
X155754448Y-116893974D01*
X155734457Y-116905956D01*
X155713387Y-116915921D01*
X155691443Y-116923773D01*
X155668834Y-116929437D01*
X155645779Y-116932856D01*
X155622500Y-116934000D01*
X155047500Y-116934000D01*
X155024221Y-116932856D01*
X155001166Y-116929437D01*
X154978557Y-116923773D01*
X154956613Y-116915921D01*
X154935543Y-116905956D01*
X154915552Y-116893974D01*
X154896832Y-116880090D01*
X154879562Y-116864438D01*
X154863910Y-116847168D01*
X154850026Y-116828448D01*
X154838044Y-116808457D01*
X154828079Y-116787387D01*
X154820227Y-116765443D01*
X154814563Y-116742834D01*
X154811144Y-116719779D01*
X154810000Y-116696500D01*
X154810000Y-116221500D01*
X154811144Y-116198221D01*
X154814563Y-116175166D01*
X154820227Y-116152557D01*
X154828079Y-116130613D01*
X154838044Y-116109543D01*
X154850026Y-116089552D01*
X154863910Y-116070832D01*
X154879562Y-116053562D01*
X154896832Y-116037910D01*
X154915552Y-116024026D01*
X154935543Y-116012044D01*
X154956613Y-116002079D01*
X154978557Y-115994227D01*
X155001166Y-115988563D01*
X155024221Y-115985144D01*
X155047500Y-115984000D01*
X155622500Y-115984000D01*
X155645779Y-115985144D01*
X155645779Y-115985144D01*
G37*
D16*
G04 #@! TD*
G04 #@! TO.P,R20,2*
G04 #@! TO.N,Net-(R20-Pad2)*
X155335000Y-116459000D03*
D14*
G04 #@! TO.N,Net-(Q4-Pad1)*
G04 #@! TO.C,R20*
G36*
X157395779Y-115985144D02*
X157418834Y-115988563D01*
X157441443Y-115994227D01*
X157463387Y-116002079D01*
X157484457Y-116012044D01*
X157504448Y-116024026D01*
X157523168Y-116037910D01*
X157540438Y-116053562D01*
X157556090Y-116070832D01*
X157569974Y-116089552D01*
X157581956Y-116109543D01*
X157591921Y-116130613D01*
X157599773Y-116152557D01*
X157605437Y-116175166D01*
X157608856Y-116198221D01*
X157610000Y-116221500D01*
X157610000Y-116696500D01*
X157608856Y-116719779D01*
X157605437Y-116742834D01*
X157599773Y-116765443D01*
X157591921Y-116787387D01*
X157581956Y-116808457D01*
X157569974Y-116828448D01*
X157556090Y-116847168D01*
X157540438Y-116864438D01*
X157523168Y-116880090D01*
X157504448Y-116893974D01*
X157484457Y-116905956D01*
X157463387Y-116915921D01*
X157441443Y-116923773D01*
X157418834Y-116929437D01*
X157395779Y-116932856D01*
X157372500Y-116934000D01*
X156797500Y-116934000D01*
X156774221Y-116932856D01*
X156751166Y-116929437D01*
X156728557Y-116923773D01*
X156706613Y-116915921D01*
X156685543Y-116905956D01*
X156665552Y-116893974D01*
X156646832Y-116880090D01*
X156629562Y-116864438D01*
X156613910Y-116847168D01*
X156600026Y-116828448D01*
X156588044Y-116808457D01*
X156578079Y-116787387D01*
X156570227Y-116765443D01*
X156564563Y-116742834D01*
X156561144Y-116719779D01*
X156560000Y-116696500D01*
X156560000Y-116221500D01*
X156561144Y-116198221D01*
X156564563Y-116175166D01*
X156570227Y-116152557D01*
X156578079Y-116130613D01*
X156588044Y-116109543D01*
X156600026Y-116089552D01*
X156613910Y-116070832D01*
X156629562Y-116053562D01*
X156646832Y-116037910D01*
X156665552Y-116024026D01*
X156685543Y-116012044D01*
X156706613Y-116002079D01*
X156728557Y-115994227D01*
X156751166Y-115988563D01*
X156774221Y-115985144D01*
X156797500Y-115984000D01*
X157372500Y-115984000D01*
X157395779Y-115985144D01*
X157395779Y-115985144D01*
G37*
D16*
G04 #@! TD*
G04 #@! TO.P,R20,1*
G04 #@! TO.N,Net-(Q4-Pad1)*
X157085000Y-116459000D03*
D23*
G04 #@! TO.P,U1,1*
G04 #@! TO.N,24V*
X135500000Y-91065000D03*
G04 #@! TO.P,U1,3*
G04 #@! TO.N,Net-(C3-Pad1)*
X135500000Y-95625000D03*
D24*
G04 #@! TO.P,U1,2*
G04 #@! TO.N,GND*
X141800000Y-93345000D03*
G04 #@! TD*
D25*
G04 #@! TO.P,U2,1*
G04 #@! TO.N,Net-(D3-Pad1)*
X136525000Y-112395000D03*
G04 #@! TO.P,U2,3*
G04 #@! TO.N,GND*
X144145000Y-114935000D03*
G04 #@! TO.P,U2,2*
G04 #@! TO.N,IN1*
X136525000Y-114935000D03*
G04 #@! TO.P,U2,4*
G04 #@! TO.N,Net-(R10-Pad2)*
X144145000Y-112395000D03*
G04 #@! TD*
G04 #@! TO.P,U3,4*
G04 #@! TO.N,Net-(R11-Pad2)*
X144145000Y-121285000D03*
G04 #@! TO.P,U3,2*
G04 #@! TO.N,IN2*
X136525000Y-123825000D03*
G04 #@! TO.P,U3,3*
G04 #@! TO.N,GND*
X144145000Y-123825000D03*
G04 #@! TO.P,U3,1*
G04 #@! TO.N,Net-(D4-Pad1)*
X136525000Y-121285000D03*
G04 #@! TD*
G04 #@! TO.P,U4,1*
G04 #@! TO.N,Net-(D5-Pad1)*
X136525000Y-130175000D03*
G04 #@! TO.P,U4,3*
G04 #@! TO.N,GND*
X144145000Y-132715000D03*
G04 #@! TO.P,U4,2*
G04 #@! TO.N,PINGND*
X136525000Y-132715000D03*
G04 #@! TO.P,U4,4*
G04 #@! TO.N,Net-(R12-Pad2)*
X144145000Y-130175000D03*
G04 #@! TD*
D26*
G04 #@! TO.P,U5,1*
G04 #@! TO.N,Net-(C3-Pad1)*
X147160000Y-83185000D03*
G04 #@! TO.P,U5,2*
G04 #@! TO.N,Net-(R10-Pad2)*
X147160000Y-84455000D03*
G04 #@! TO.P,U5,3*
G04 #@! TO.N,Net-(R12-Pad2)*
X147160000Y-85725000D03*
G04 #@! TO.P,U5,4*
G04 #@! TO.N,GND*
X147160000Y-86995000D03*
G04 #@! TO.P,U5,5*
G04 #@! TO.N,Net-(R14-Pad2)*
X152560000Y-86995000D03*
G04 #@! TO.P,U5,6*
G04 #@! TO.N,Motor1*
X152560000Y-85725000D03*
G04 #@! TO.P,U5,7*
G04 #@! TO.N,Net-(R13-Pad2)*
X152560000Y-84455000D03*
G04 #@! TO.P,U5,8*
G04 #@! TO.N,Net-(C6-Pad1)*
X152560000Y-83185000D03*
G04 #@! TD*
G04 #@! TO.P,U6,8*
G04 #@! TO.N,Net-(C8-Pad1)*
X152560000Y-111125000D03*
G04 #@! TO.P,U6,7*
G04 #@! TO.N,Net-(R19-Pad2)*
X152560000Y-112395000D03*
G04 #@! TO.P,U6,6*
G04 #@! TO.N,Motor2*
X152560000Y-113665000D03*
G04 #@! TO.P,U6,5*
G04 #@! TO.N,Net-(R20-Pad2)*
X152560000Y-114935000D03*
G04 #@! TO.P,U6,4*
G04 #@! TO.N,GND*
X147160000Y-114935000D03*
G04 #@! TO.P,U6,3*
G04 #@! TO.N,Net-(R12-Pad2)*
X147160000Y-113665000D03*
G04 #@! TO.P,U6,2*
G04 #@! TO.N,Net-(R11-Pad2)*
X147160000Y-112395000D03*
G04 #@! TO.P,U6,1*
G04 #@! TO.N,Net-(C3-Pad1)*
X147160000Y-111125000D03*
G04 #@! TD*
D27*
G04 #@! TO.N,Net-(C3-Pad1)*
X142705000Y-116814900D03*
X143253500Y-110078500D03*
D28*
G04 #@! TO.N,Motor1*
X158485400Y-83537000D03*
X169745000Y-86509700D03*
G04 #@! TD*
D29*
G04 #@! TO.N,GND*
X140295000Y-103505000D02*
X140295000Y-112885300D01*
X140295000Y-112885300D02*
X142344700Y-114935000D01*
X141525000Y-94204600D02*
X129950400Y-94204600D01*
X129950400Y-94204600D02*
X128905000Y-95250000D01*
X141800000Y-93345000D02*
X141800000Y-93929600D01*
X141800000Y-93929600D02*
X141525000Y-94204600D01*
X141525000Y-98425000D02*
X141525000Y-94204600D01*
X140295000Y-103505000D02*
X140295000Y-99655000D01*
X140295000Y-99655000D02*
X141525000Y-98425000D01*
X148735300Y-88834700D02*
X147400000Y-90170000D01*
X148735300Y-86995000D02*
X148735300Y-88834700D01*
X148735300Y-88834700D02*
X153485600Y-93585000D01*
X153485600Y-93585000D02*
X156210000Y-93585000D01*
X150815000Y-121525000D02*
X147400000Y-118110000D01*
X156210000Y-121525000D02*
X150815000Y-121525000D01*
X150815000Y-121525000D02*
X150815000Y-127845300D01*
X150815000Y-127845300D02*
X145945300Y-132715000D01*
X147160000Y-114935000D02*
X148735300Y-114935000D01*
X148735300Y-114935000D02*
X148735300Y-116774700D01*
X148735300Y-116774700D02*
X147400000Y-118110000D01*
X144145000Y-132715000D02*
X145945300Y-132715000D01*
X142344700Y-114935000D02*
X141020100Y-116259600D01*
X141020100Y-116259600D02*
X141020100Y-123825000D01*
X140295000Y-84785400D02*
X140295000Y-83185000D01*
X141525000Y-88265000D02*
X140295000Y-87035000D01*
X140295000Y-87035000D02*
X140295000Y-84785400D01*
X141525000Y-72390000D02*
X136194600Y-77720400D01*
X136194600Y-77720400D02*
X136194600Y-84324000D01*
X136194600Y-84324000D02*
X136656000Y-84785400D01*
X136656000Y-84785400D02*
X140295000Y-84785400D01*
X141800000Y-89644700D02*
X141525000Y-89369700D01*
X141525000Y-89369700D02*
X141525000Y-88265000D01*
X156210000Y-93585000D02*
X157494700Y-94869700D01*
X157494700Y-94869700D02*
X157494700Y-95250000D01*
X157494700Y-123190000D02*
X157494700Y-122809700D01*
X157494700Y-122809700D02*
X156210000Y-121525000D01*
X160595000Y-95250000D02*
X157494700Y-95250000D01*
X160595000Y-123190000D02*
X157494700Y-123190000D01*
X141800000Y-93345000D02*
X141800000Y-89644700D01*
X144145000Y-132715000D02*
X142344700Y-132715000D01*
X142344700Y-132715000D02*
X141020100Y-131390400D01*
X141020100Y-131390400D02*
X141020100Y-123825000D01*
X142344700Y-123825000D02*
X141020100Y-123825000D01*
X144145000Y-114935000D02*
X142344700Y-114935000D01*
X144145000Y-123825000D02*
X142344700Y-123825000D01*
X147160000Y-86995000D02*
X148735300Y-86995000D01*
G04 #@! TO.N,24V*
X146185500Y-74794500D02*
X163258400Y-74794500D01*
X163258400Y-74794500D02*
X164244700Y-75780800D01*
X164244700Y-75780800D02*
X164244700Y-78740000D01*
X137795000Y-83185000D02*
X146185500Y-74794500D01*
X146185500Y-74794500D02*
X146185500Y-74160200D01*
X146185500Y-74160200D02*
X142415000Y-70389700D01*
X142415000Y-70389700D02*
X140525600Y-70389700D01*
X140525600Y-70389700D02*
X138525300Y-72390000D01*
X136525000Y-72390000D02*
X138525300Y-72390000D01*
X128905000Y-90170000D02*
X131205300Y-90170000D01*
X135500000Y-90364800D02*
X131400100Y-90364800D01*
X131400100Y-90364800D02*
X131205300Y-90170000D01*
X135500000Y-90364800D02*
X135500000Y-89664700D01*
X135500000Y-91065000D02*
X135500000Y-90364800D01*
X169745000Y-106680000D02*
X164244700Y-101179700D01*
X164244700Y-101179700D02*
X164244700Y-78740000D01*
X169745000Y-78740000D02*
X164244700Y-78740000D01*
X135500000Y-89664700D02*
X136525000Y-88639700D01*
X136525000Y-88639700D02*
X136525000Y-88265000D01*
D30*
G04 #@! TO.N,Net-(C3-Pad1)*
X152400000Y-118110000D02*
X149828700Y-115538700D01*
X149828700Y-115538700D02*
X149828700Y-112693400D01*
X149828700Y-112693400D02*
X148260300Y-111125000D01*
X147160000Y-111125000D02*
X148260300Y-111125000D01*
X148260300Y-111125000D02*
X148260300Y-108784700D01*
X148260300Y-108784700D02*
X148460000Y-108585000D01*
X148260300Y-83185000D02*
X149850400Y-84775100D01*
X149850400Y-84775100D02*
X149850400Y-87620400D01*
X149850400Y-87620400D02*
X152400000Y-90170000D01*
X148460000Y-80645000D02*
X148460000Y-82985300D01*
X148460000Y-82985300D02*
X148260300Y-83185000D01*
X147160000Y-83185000D02*
X148260300Y-83185000D01*
X142705000Y-116814900D02*
X142395000Y-117124900D01*
X142395000Y-117124900D02*
X142395000Y-118110000D01*
X142395000Y-127000000D02*
X144196700Y-125198300D01*
X144196700Y-125198300D02*
X145170700Y-125198300D01*
X145170700Y-125198300D02*
X145470400Y-124898600D01*
X145470400Y-124898600D02*
X145470400Y-122752700D01*
X145470400Y-122752700D02*
X145327300Y-122609600D01*
X145327300Y-122609600D02*
X143108900Y-122609600D01*
X143108900Y-122609600D02*
X142395000Y-121895700D01*
X142395000Y-121895700D02*
X142395000Y-118110000D01*
X142395000Y-109220000D02*
X143253500Y-110078500D01*
X137795000Y-103505000D02*
X137795000Y-102379700D01*
X137795000Y-102379700D02*
X136525000Y-101109700D01*
X136525000Y-101109700D02*
X136525000Y-98425000D01*
X135500000Y-95625000D02*
X135500000Y-97400000D01*
X135500000Y-97400000D02*
X136525000Y-98425000D01*
D29*
G04 #@! TO.N,Motor1*
X152320000Y-77470000D02*
X154465000Y-79615000D01*
X154465000Y-79615000D02*
X156210000Y-79615000D01*
X152560000Y-85725000D02*
X156566800Y-85725000D01*
X156566800Y-85725000D02*
X158485400Y-83806400D01*
X158485400Y-83806400D02*
X158485400Y-83537000D01*
X158485400Y-83537000D02*
X160595000Y-81427400D01*
X160595000Y-81427400D02*
X160595000Y-81280000D01*
X169745000Y-92710000D02*
X169745000Y-86509700D01*
D30*
G04 #@! TO.N,Net-(C6-Pad1)*
X147320000Y-77470000D02*
X148085000Y-77470000D01*
X148085000Y-77470000D02*
X151260000Y-80645000D01*
X151459700Y-83185000D02*
X151459700Y-80844700D01*
X151459700Y-80844700D02*
X151260000Y-80645000D01*
X152560000Y-83185000D02*
X151459700Y-83185000D01*
G04 #@! TO.N,Net-(C8-Pad1)*
X152560000Y-111125000D02*
X151459700Y-111125000D01*
X151459700Y-111125000D02*
X151459700Y-108784700D01*
X151459700Y-108784700D02*
X151260000Y-108585000D01*
X147320000Y-105410000D02*
X148085000Y-105410000D01*
X148085000Y-105410000D02*
X151260000Y-108585000D01*
D29*
G04 #@! TO.N,Motor2*
X154111500Y-105469500D02*
X155956900Y-107315000D01*
X155956900Y-107315000D02*
X156210000Y-107315000D01*
X152320000Y-105410000D02*
X154051900Y-105410000D01*
X154051900Y-105410000D02*
X154111500Y-105469500D01*
X154111500Y-105469500D02*
X156841400Y-102739600D01*
X156841400Y-102739600D02*
X163244900Y-102739600D01*
X163244900Y-102739600D02*
X163695400Y-103190100D01*
X163695400Y-103190100D02*
X163695400Y-107669800D01*
X163695400Y-107669800D02*
X162145200Y-109220000D01*
X162145200Y-109220000D02*
X162145200Y-113665000D01*
X162145200Y-113665000D02*
X164244700Y-115764500D01*
X164244700Y-115764500D02*
X164244700Y-120650000D01*
X152560000Y-113665000D02*
X162145200Y-113665000D01*
X169745000Y-120650000D02*
X164244700Y-120650000D01*
X160595000Y-109220000D02*
X162145200Y-109220000D01*
D30*
G04 #@! TO.N,Net-(D3-Pad1)*
X136525000Y-112395000D02*
X133590000Y-112395000D01*
G04 #@! TO.N,Net-(D3-Pad2)*
X133590000Y-114935000D02*
X131840000Y-113185000D01*
X131840000Y-113185000D02*
X131840000Y-112395000D01*
G04 #@! TO.N,Net-(D4-Pad2)*
X133590000Y-123825000D02*
X131840000Y-122075000D01*
X131840000Y-122075000D02*
X131840000Y-121285000D01*
G04 #@! TO.N,Net-(D4-Pad1)*
X136525000Y-121285000D02*
X133590000Y-121285000D01*
G04 #@! TO.N,Net-(D5-Pad1)*
X136525000Y-130175000D02*
X133590000Y-130175000D01*
G04 #@! TO.N,Net-(D5-Pad2)*
X133590000Y-132715000D02*
X131840000Y-130965000D01*
X131840000Y-130965000D02*
X131840000Y-130175000D01*
G04 #@! TO.N,5V*
X131840000Y-114935000D02*
X130327700Y-113422700D01*
X130327700Y-113422700D02*
X130327700Y-111879100D01*
X130327700Y-111879100D02*
X128838600Y-110390000D01*
X128838600Y-110390000D02*
X127719600Y-110390000D01*
X127719600Y-110390000D02*
X126945400Y-109615800D01*
X126945400Y-109615800D02*
X126945400Y-105464600D01*
X126945400Y-105464600D02*
X128270000Y-104140000D01*
X131840000Y-123825000D02*
X130972700Y-122957700D01*
X130972700Y-122957700D02*
X130972700Y-115802300D01*
X130972700Y-115802300D02*
X131840000Y-114935000D01*
G04 #@! TO.N,PINGND*
X136525000Y-132715000D02*
X136525000Y-131499700D01*
X136525000Y-131499700D02*
X137588400Y-131499700D01*
X137588400Y-131499700D02*
X137850400Y-131237700D01*
X137850400Y-131237700D02*
X137850400Y-111369900D01*
X137850400Y-111369900D02*
X133120500Y-106640000D01*
X133120500Y-106640000D02*
X128270000Y-106640000D01*
G04 #@! TO.N,IN1*
X136525000Y-114935000D02*
X136525000Y-113719700D01*
X136525000Y-113719700D02*
X133587300Y-113719700D01*
X133587300Y-113719700D02*
X132715000Y-112847400D01*
X132715000Y-112847400D02*
X132715000Y-111897100D01*
X132715000Y-111897100D02*
X129957900Y-109140000D01*
X129957900Y-109140000D02*
X128270000Y-109140000D01*
G04 #@! TO.N,IN2*
X128270000Y-111640000D02*
X128270000Y-112815300D01*
X136525000Y-123825000D02*
X135199700Y-123825000D01*
X135199700Y-123825000D02*
X134383500Y-124641200D01*
X134383500Y-124641200D02*
X131325600Y-124641200D01*
X131325600Y-124641200D02*
X129594600Y-122910200D01*
X129594600Y-122910200D02*
X129594600Y-113625700D01*
X129594600Y-113625700D02*
X128784200Y-112815300D01*
X128784200Y-112815300D02*
X128270000Y-112815300D01*
G04 #@! TO.N,ShutDown*
X128270000Y-114140000D02*
X128270000Y-115315300D01*
X131840000Y-132715000D02*
X131627100Y-132927900D01*
X131627100Y-132927900D02*
X128217100Y-132927900D01*
X128217100Y-132927900D02*
X127074700Y-131785500D01*
X127074700Y-131785500D02*
X127074700Y-116510600D01*
X127074700Y-116510600D02*
X128270000Y-115315300D01*
D29*
G04 #@! TO.N,Net-(Q1-Pad1)*
X157085000Y-83121500D02*
X157085000Y-81594100D01*
X157085000Y-81594100D02*
X157494600Y-81184500D01*
X157494600Y-81184500D02*
X157494600Y-80310700D01*
X157494600Y-80310700D02*
X157610300Y-80195000D01*
X157610300Y-80195000D02*
X157610300Y-79035000D01*
X157610300Y-79035000D02*
X157494600Y-78919300D01*
X157494600Y-78919300D02*
X157494600Y-78887900D01*
X157494600Y-78887900D02*
X156340900Y-77734100D01*
X156340900Y-77734100D02*
X157494700Y-76580300D01*
X157494700Y-76580300D02*
X157494700Y-76200000D01*
X156210000Y-77865000D02*
X156340900Y-77734100D01*
X160595000Y-76200000D02*
X157494700Y-76200000D01*
G04 #@! TO.N,Net-(Q2-Pad1)*
X156210000Y-91835000D02*
X157494700Y-90550300D01*
X157494700Y-90550300D02*
X157494700Y-90170000D01*
X160595000Y-90170000D02*
X157494700Y-90170000D01*
X157085000Y-88519000D02*
X157494700Y-88928700D01*
X157494700Y-88928700D02*
X157494700Y-90170000D01*
G04 #@! TO.N,Net-(Q3-Pad1)*
X157085000Y-111062000D02*
X157486200Y-110660800D01*
X157486200Y-110660800D02*
X157486200Y-108019100D01*
X157486200Y-108019100D02*
X157610300Y-107895000D01*
X157610300Y-107895000D02*
X157610300Y-106735000D01*
X157610300Y-106735000D02*
X157486200Y-106610900D01*
X157486200Y-106610900D02*
X157486200Y-106598600D01*
X157486200Y-106598600D02*
X156452600Y-105565000D01*
X156452600Y-105565000D02*
X156210000Y-105565000D01*
X156452600Y-105565000D02*
X157494700Y-104522900D01*
X157494700Y-104522900D02*
X157494700Y-104140000D01*
X160595000Y-104140000D02*
X157494700Y-104140000D01*
G04 #@! TO.N,Net-(Q4-Pad1)*
X156210000Y-119775000D02*
X157494700Y-118490300D01*
X157494700Y-118490300D02*
X157494700Y-118110000D01*
X160595000Y-118110000D02*
X157494700Y-118110000D01*
X157085000Y-116459000D02*
X157494700Y-116868700D01*
X157494700Y-116868700D02*
X157494700Y-118110000D01*
D30*
G04 #@! TO.N,Net-(R10-Pad2)*
X144145000Y-109220000D02*
X144145000Y-111179700D01*
X146059700Y-84455000D02*
X145609400Y-84905300D01*
X145609400Y-84905300D02*
X145609400Y-107755600D01*
X145609400Y-107755600D02*
X144145000Y-109220000D01*
X144145000Y-112395000D02*
X144145000Y-111179700D01*
X147160000Y-84455000D02*
X146059700Y-84455000D01*
G04 #@! TO.N,Net-(R11-Pad2)*
X147160000Y-112395000D02*
X146059700Y-112395000D01*
X146059700Y-112395000D02*
X145496900Y-112957800D01*
X145496900Y-112957800D02*
X145496900Y-116758100D01*
X145496900Y-116758100D02*
X144145000Y-118110000D01*
X144145000Y-118110000D02*
X144145000Y-120069700D01*
X144145000Y-121285000D02*
X144145000Y-120069700D01*
G04 #@! TO.N,Net-(R12-Pad2)*
X147160000Y-113665000D02*
X146059700Y-113665000D01*
X146059700Y-113665000D02*
X146059700Y-125085300D01*
X146059700Y-125085300D02*
X144145000Y-127000000D01*
X147300000Y-113665000D02*
X147160000Y-113665000D01*
X147300000Y-113665000D02*
X148260300Y-113665000D01*
X147160000Y-85725000D02*
X146059700Y-85725000D01*
X148260300Y-113665000D02*
X148260300Y-111960200D01*
X148260300Y-111960200D02*
X148060100Y-111760000D01*
X148060100Y-111760000D02*
X146237000Y-111760000D01*
X146237000Y-111760000D02*
X146059700Y-111582700D01*
X146059700Y-111582700D02*
X146059700Y-85725000D01*
X144145000Y-127000000D02*
X144145000Y-128959700D01*
X144145000Y-130175000D02*
X144145000Y-128959700D01*
G04 #@! TO.N,Net-(R13-Pad2)*
X152560000Y-84455000D02*
X154001500Y-84455000D01*
X154001500Y-84455000D02*
X155335000Y-83121500D01*
G04 #@! TO.N,Net-(R14-Pad2)*
X152560000Y-86995000D02*
X153660300Y-86995000D01*
X153660300Y-86995000D02*
X155184300Y-88519000D01*
X155184300Y-88519000D02*
X155335000Y-88519000D01*
G04 #@! TO.N,Net-(R19-Pad2)*
X152560000Y-112395000D02*
X154002000Y-112395000D01*
X154002000Y-112395000D02*
X155335000Y-111062000D01*
G04 #@! TO.N,Net-(R20-Pad2)*
X152560000Y-114935000D02*
X153811000Y-114935000D01*
X153811000Y-114935000D02*
X155335000Y-116459000D01*
G04 #@! TD*
D31*
G04 #@! TO.N,GND*
G36*
X173360027Y-65768803D02*
X173691110Y-65919338D01*
X173966639Y-66156749D01*
X174164456Y-66461944D01*
X174275700Y-66833917D01*
X174290000Y-67026348D01*
X174290000Y-72692560D01*
X165045000Y-72692560D01*
X164797235Y-72741843D01*
X164587191Y-72882191D01*
X164446843Y-73092235D01*
X164397560Y-73340000D01*
X164397560Y-74187107D01*
X164217686Y-74007233D01*
X164148785Y-73904115D01*
X163740273Y-73631156D01*
X163380036Y-73559500D01*
X163380032Y-73559500D01*
X163258400Y-73535306D01*
X163136768Y-73559500D01*
X147269446Y-73559500D01*
X147144786Y-73372932D01*
X147144783Y-73372929D01*
X147075885Y-73269816D01*
X146972772Y-73200918D01*
X143374287Y-69602434D01*
X143305385Y-69499315D01*
X142896873Y-69226356D01*
X142536636Y-69154700D01*
X142536632Y-69154700D01*
X142415000Y-69130506D01*
X142293368Y-69154700D01*
X140647230Y-69154700D01*
X140525599Y-69130506D01*
X140403968Y-69154700D01*
X140403964Y-69154700D01*
X140043727Y-69226356D01*
X140043725Y-69226357D01*
X140043726Y-69226357D01*
X139738332Y-69430414D01*
X139738331Y-69430415D01*
X139635215Y-69499315D01*
X139566315Y-69602431D01*
X138284446Y-70884301D01*
X138182809Y-70732191D01*
X137972765Y-70591843D01*
X137725000Y-70542560D01*
X135325000Y-70542560D01*
X135077235Y-70591843D01*
X134867191Y-70732191D01*
X134726843Y-70942235D01*
X134677560Y-71190000D01*
X134677560Y-73590000D01*
X134726843Y-73837765D01*
X134867191Y-74047809D01*
X135077235Y-74188157D01*
X135325000Y-74237440D01*
X137725000Y-74237440D01*
X137972765Y-74188157D01*
X138182809Y-74047809D01*
X138323157Y-73837765D01*
X138353110Y-73687175D01*
X140407430Y-73687175D01*
X140530565Y-73974788D01*
X141212734Y-74234707D01*
X141942443Y-74213786D01*
X142519435Y-73974788D01*
X142642570Y-73687175D01*
X141525000Y-72569605D01*
X140407430Y-73687175D01*
X138353110Y-73687175D01*
X138365478Y-73625000D01*
X138403668Y-73625000D01*
X138525300Y-73649194D01*
X138646932Y-73625000D01*
X138646936Y-73625000D01*
X139007173Y-73553344D01*
X139415685Y-73280385D01*
X139484587Y-73177266D01*
X139746084Y-72915769D01*
X139940212Y-73384435D01*
X140227825Y-73507570D01*
X141345395Y-72390000D01*
X141331253Y-72375858D01*
X141510858Y-72196253D01*
X141525000Y-72210395D01*
X141539143Y-72196253D01*
X141718748Y-72375858D01*
X141704605Y-72390000D01*
X142822175Y-73507570D01*
X143109788Y-73384435D01*
X143262467Y-72983721D01*
X144756096Y-74477350D01*
X137495887Y-81737560D01*
X136995000Y-81737560D01*
X136747235Y-81786843D01*
X136537191Y-81927191D01*
X136396843Y-82137235D01*
X136347560Y-82385000D01*
X136347560Y-83985000D01*
X136396843Y-84232765D01*
X136537191Y-84442809D01*
X136747235Y-84583157D01*
X136995000Y-84632440D01*
X138595000Y-84632440D01*
X138842765Y-84583157D01*
X139052809Y-84442809D01*
X139193157Y-84232765D01*
X139201117Y-84192745D01*
X139466861Y-84192745D01*
X139540995Y-84438864D01*
X140078223Y-84631965D01*
X140648454Y-84604778D01*
X141049005Y-84438864D01*
X141123139Y-84192745D01*
X140295000Y-83364605D01*
X139466861Y-84192745D01*
X139201117Y-84192745D01*
X139239693Y-83998813D01*
X139287255Y-84013139D01*
X140115395Y-83185000D01*
X140474605Y-83185000D01*
X141302745Y-84013139D01*
X141548864Y-83939005D01*
X141741965Y-83401777D01*
X141714778Y-82831546D01*
X141548864Y-82430995D01*
X141302745Y-82356861D01*
X140474605Y-83185000D01*
X140115395Y-83185000D01*
X140101253Y-83170858D01*
X140280858Y-82991253D01*
X140295000Y-83005395D01*
X141123139Y-82177255D01*
X141049005Y-81931136D01*
X140862467Y-81864087D01*
X146697054Y-76029500D01*
X156269420Y-76029500D01*
X156262088Y-76066359D01*
X155553650Y-76774797D01*
X155450554Y-76843677D01*
X155403809Y-76913629D01*
X155346753Y-76951753D01*
X155286461Y-77041986D01*
X155250714Y-77077733D01*
X155046656Y-77383128D01*
X154950806Y-77865000D01*
X155046656Y-78346872D01*
X155068791Y-78380000D01*
X154976554Y-78380000D01*
X153736534Y-77139981D01*
X153536534Y-76657138D01*
X153132862Y-76253466D01*
X152605439Y-76035000D01*
X152034561Y-76035000D01*
X151507138Y-76253466D01*
X151103466Y-76657138D01*
X150885000Y-77184561D01*
X150885000Y-77755439D01*
X151103466Y-78282862D01*
X151507138Y-78686534D01*
X151989981Y-78886534D01*
X153505715Y-80402269D01*
X153574615Y-80505385D01*
X153677731Y-80574285D01*
X153677732Y-80574286D01*
X153831263Y-80676872D01*
X153983127Y-80778344D01*
X154343364Y-80850000D01*
X154343367Y-80850000D01*
X154464999Y-80874194D01*
X154586631Y-80850000D01*
X156096871Y-80850000D01*
X155921656Y-81112228D01*
X155825806Y-81594100D01*
X155850001Y-81715736D01*
X155850001Y-82044313D01*
X155622500Y-81999060D01*
X155047500Y-81999060D01*
X154708848Y-82066422D01*
X154421753Y-82258253D01*
X154229922Y-82545348D01*
X154162560Y-82884000D01*
X154162560Y-83219138D01*
X153982440Y-83399259D01*
X153982440Y-82885000D01*
X153933157Y-82637235D01*
X153792809Y-82427191D01*
X153582765Y-82286843D01*
X153335000Y-82237560D01*
X152219699Y-82237560D01*
X152219700Y-81937919D01*
X152269586Y-81904586D01*
X152464126Y-81613435D01*
X152532440Y-81270000D01*
X152532440Y-80020000D01*
X152464126Y-79676565D01*
X152269586Y-79385414D01*
X151978435Y-79190874D01*
X151635000Y-79122560D01*
X150885000Y-79122560D01*
X150824413Y-79134612D01*
X148675331Y-76985530D01*
X148668037Y-76974613D01*
X148536534Y-76657138D01*
X148132862Y-76253466D01*
X147605439Y-76035000D01*
X147034561Y-76035000D01*
X146507138Y-76253466D01*
X146103466Y-76657138D01*
X145885000Y-77184561D01*
X145885000Y-77755439D01*
X146103466Y-78282862D01*
X146507138Y-78686534D01*
X147034561Y-78905000D01*
X147605439Y-78905000D01*
X148132862Y-78686534D01*
X148179797Y-78639599D01*
X148662759Y-79122560D01*
X148085000Y-79122560D01*
X147741565Y-79190874D01*
X147450414Y-79385414D01*
X147255874Y-79676565D01*
X147187560Y-80020000D01*
X147187560Y-81270000D01*
X147255874Y-81613435D01*
X147450414Y-81904586D01*
X147700001Y-82071354D01*
X147700001Y-82237560D01*
X146385000Y-82237560D01*
X146137235Y-82286843D01*
X145927191Y-82427191D01*
X145786843Y-82637235D01*
X145737560Y-82885000D01*
X145737560Y-83485000D01*
X145786843Y-83732765D01*
X145787799Y-83734196D01*
X145763163Y-83739096D01*
X145511771Y-83907071D01*
X145469371Y-83970528D01*
X145124926Y-84314972D01*
X145061471Y-84357372D01*
X144893496Y-84608764D01*
X144849400Y-84830449D01*
X144849400Y-84830453D01*
X144834512Y-84905300D01*
X144849400Y-84980147D01*
X144849400Y-89810000D01*
X142085750Y-89810000D01*
X141927000Y-89968750D01*
X141927000Y-93218000D01*
X141947000Y-93218000D01*
X141947000Y-93472000D01*
X141927000Y-93472000D01*
X141927000Y-96721250D01*
X142085750Y-96880000D01*
X144849401Y-96880000D01*
X144849401Y-107440796D01*
X144192638Y-108097560D01*
X143857500Y-108097560D01*
X143518848Y-108164922D01*
X143270000Y-108331197D01*
X143021152Y-108164922D01*
X142682500Y-108097560D01*
X142107500Y-108097560D01*
X141768848Y-108164922D01*
X141481753Y-108356753D01*
X141289922Y-108643848D01*
X141222560Y-108982500D01*
X141222560Y-109457500D01*
X141289922Y-109796152D01*
X141481753Y-110083247D01*
X141768848Y-110275078D01*
X142107500Y-110342440D01*
X142242552Y-110342440D01*
X142376069Y-110664780D01*
X142667220Y-110955931D01*
X142763861Y-110995961D01*
X142687191Y-111047191D01*
X142546843Y-111257235D01*
X142497560Y-111505000D01*
X142497560Y-113285000D01*
X142546843Y-113532765D01*
X142631905Y-113660069D01*
X142606673Y-113685301D01*
X142510000Y-113918690D01*
X142510000Y-114649250D01*
X142668750Y-114808000D01*
X144018000Y-114808000D01*
X144018000Y-114788000D01*
X144272000Y-114788000D01*
X144272000Y-114808000D01*
X144292000Y-114808000D01*
X144292000Y-115062000D01*
X144272000Y-115062000D01*
X144272000Y-116301250D01*
X144430750Y-116460000D01*
X144720197Y-116460000D01*
X144192638Y-116987560D01*
X143857500Y-116987560D01*
X143740000Y-117010932D01*
X143740000Y-116609026D01*
X143678272Y-116460000D01*
X143859250Y-116460000D01*
X144018000Y-116301250D01*
X144018000Y-115062000D01*
X142668750Y-115062000D01*
X142510000Y-115220750D01*
X142510000Y-115779900D01*
X142499126Y-115779900D01*
X142118720Y-115937469D01*
X141827569Y-116228620D01*
X141670000Y-116609026D01*
X141670000Y-116874093D01*
X141635000Y-117050049D01*
X141635000Y-117050053D01*
X141620112Y-117124900D01*
X141625275Y-117150855D01*
X141481753Y-117246753D01*
X141289922Y-117533848D01*
X141222560Y-117872500D01*
X141222560Y-118347500D01*
X141289922Y-118686152D01*
X141481753Y-118973247D01*
X141635001Y-119075644D01*
X141635000Y-121820853D01*
X141620112Y-121895700D01*
X141635000Y-121970547D01*
X141635000Y-121970551D01*
X141679096Y-122192236D01*
X141847071Y-122443628D01*
X141910527Y-122486028D01*
X142510000Y-123085502D01*
X142510000Y-123539250D01*
X142668750Y-123698000D01*
X144018000Y-123698000D01*
X144018000Y-123678000D01*
X144272000Y-123678000D01*
X144272000Y-123698000D01*
X144292000Y-123698000D01*
X144292000Y-123952000D01*
X144272000Y-123952000D01*
X144272000Y-123972000D01*
X144018000Y-123972000D01*
X144018000Y-123952000D01*
X142668750Y-123952000D01*
X142510000Y-124110750D01*
X142510000Y-124841310D01*
X142606673Y-125074699D01*
X142785302Y-125253327D01*
X142984402Y-125335797D01*
X142442639Y-125877560D01*
X142107500Y-125877560D01*
X141768848Y-125944922D01*
X141481753Y-126136753D01*
X141289922Y-126423848D01*
X141222560Y-126762500D01*
X141222560Y-127237500D01*
X141289922Y-127576152D01*
X141481753Y-127863247D01*
X141768848Y-128055078D01*
X142107500Y-128122440D01*
X142682500Y-128122440D01*
X143021152Y-128055078D01*
X143270000Y-127888803D01*
X143385000Y-127965644D01*
X143385001Y-128637560D01*
X143145000Y-128637560D01*
X142897235Y-128686843D01*
X142687191Y-128827191D01*
X142546843Y-129037235D01*
X142497560Y-129285000D01*
X142497560Y-131065000D01*
X142546843Y-131312765D01*
X142631905Y-131440069D01*
X142606673Y-131465301D01*
X142510000Y-131698690D01*
X142510000Y-132429250D01*
X142668750Y-132588000D01*
X144018000Y-132588000D01*
X144018000Y-132568000D01*
X144272000Y-132568000D01*
X144272000Y-132588000D01*
X145621250Y-132588000D01*
X145780000Y-132429250D01*
X145780000Y-131698690D01*
X145683327Y-131465301D01*
X145658095Y-131440069D01*
X145743157Y-131312765D01*
X145792440Y-131065000D01*
X145792440Y-131000000D01*
X168670000Y-131000000D01*
X168784038Y-131720010D01*
X169114990Y-132369540D01*
X169630460Y-132885010D01*
X170279990Y-133215962D01*
X171000000Y-133330000D01*
X171720010Y-133215962D01*
X172369540Y-132885010D01*
X172885010Y-132369540D01*
X173215962Y-131720010D01*
X173330000Y-131000000D01*
X173215962Y-130279990D01*
X172885010Y-129630460D01*
X172369540Y-129114990D01*
X171720010Y-128784038D01*
X171000000Y-128670000D01*
X170279990Y-128784038D01*
X169630460Y-129114990D01*
X169114990Y-129630460D01*
X168784038Y-130279990D01*
X168670000Y-131000000D01*
X145792440Y-131000000D01*
X145792440Y-129285000D01*
X145743157Y-129037235D01*
X145602809Y-128827191D01*
X145392765Y-128686843D01*
X145145000Y-128637560D01*
X144905000Y-128637560D01*
X144904999Y-127965644D01*
X145058247Y-127863247D01*
X145250078Y-127576152D01*
X145317440Y-127237500D01*
X145317440Y-126902361D01*
X146544176Y-125675626D01*
X146607629Y-125633228D01*
X146650027Y-125569775D01*
X146650029Y-125569773D01*
X146775604Y-125381838D01*
X146805502Y-125231529D01*
X146819700Y-125160151D01*
X146819700Y-125160148D01*
X146834588Y-125085300D01*
X146819700Y-125010452D01*
X146819700Y-123475750D01*
X157660000Y-123475750D01*
X157660000Y-123866310D01*
X157756673Y-124099699D01*
X157935302Y-124278327D01*
X158168691Y-124375000D01*
X160309250Y-124375000D01*
X160468000Y-124216250D01*
X160468000Y-123317000D01*
X160722000Y-123317000D01*
X160722000Y-124216250D01*
X160880750Y-124375000D01*
X163021309Y-124375000D01*
X163254698Y-124278327D01*
X163433327Y-124099699D01*
X163530000Y-123866310D01*
X163530000Y-123475750D01*
X163371250Y-123317000D01*
X160722000Y-123317000D01*
X160468000Y-123317000D01*
X157818750Y-123317000D01*
X157660000Y-123475750D01*
X146819700Y-123475750D01*
X146819700Y-121810750D01*
X155100000Y-121810750D01*
X155100000Y-122176309D01*
X155196673Y-122409698D01*
X155375301Y-122588327D01*
X155608690Y-122685000D01*
X155924250Y-122685000D01*
X156083000Y-122526250D01*
X156083000Y-121652000D01*
X156337000Y-121652000D01*
X156337000Y-122526250D01*
X156495750Y-122685000D01*
X156811310Y-122685000D01*
X157044699Y-122588327D01*
X157119335Y-122513690D01*
X157660000Y-122513690D01*
X157660000Y-122904250D01*
X157818750Y-123063000D01*
X160468000Y-123063000D01*
X160468000Y-122163750D01*
X160722000Y-122163750D01*
X160722000Y-123063000D01*
X163371250Y-123063000D01*
X163530000Y-122904250D01*
X163530000Y-122513690D01*
X163433327Y-122280301D01*
X163254698Y-122101673D01*
X163021309Y-122005000D01*
X160880750Y-122005000D01*
X160722000Y-122163750D01*
X160468000Y-122163750D01*
X160309250Y-122005000D01*
X158168691Y-122005000D01*
X157935302Y-122101673D01*
X157756673Y-122280301D01*
X157660000Y-122513690D01*
X157119335Y-122513690D01*
X157223327Y-122409698D01*
X157320000Y-122176309D01*
X157320000Y-121810750D01*
X157161250Y-121652000D01*
X156337000Y-121652000D01*
X156083000Y-121652000D01*
X155258750Y-121652000D01*
X155100000Y-121810750D01*
X146819700Y-121810750D01*
X146819700Y-119426300D01*
X147183223Y-119556965D01*
X147753454Y-119529778D01*
X148154005Y-119363864D01*
X148228139Y-119117745D01*
X147400000Y-118289605D01*
X147385858Y-118303748D01*
X147206252Y-118124142D01*
X147220395Y-118110000D01*
X147579605Y-118110000D01*
X148407745Y-118938139D01*
X148653864Y-118864005D01*
X148846965Y-118326777D01*
X148819778Y-117756546D01*
X148653864Y-117355995D01*
X148407745Y-117281861D01*
X147579605Y-118110000D01*
X147220395Y-118110000D01*
X147206252Y-118095858D01*
X147385858Y-117916253D01*
X147400000Y-117930395D01*
X148228139Y-117102255D01*
X148154005Y-116856136D01*
X147616777Y-116663035D01*
X147046546Y-116690222D01*
X146819699Y-116784185D01*
X146819699Y-115870000D01*
X146874250Y-115870000D01*
X147033000Y-115711250D01*
X147033000Y-115062000D01*
X147287000Y-115062000D01*
X147287000Y-115711250D01*
X147445750Y-115870000D01*
X148061309Y-115870000D01*
X148294698Y-115773327D01*
X148473327Y-115594699D01*
X148570000Y-115361310D01*
X148570000Y-115220750D01*
X148411250Y-115062000D01*
X147287000Y-115062000D01*
X147033000Y-115062000D01*
X147013000Y-115062000D01*
X147013000Y-114808000D01*
X147033000Y-114808000D01*
X147033000Y-114788000D01*
X147287000Y-114788000D01*
X147287000Y-114808000D01*
X148411250Y-114808000D01*
X148570000Y-114649250D01*
X148570000Y-114508690D01*
X148520096Y-114388212D01*
X148556837Y-114380904D01*
X148808229Y-114212929D01*
X148976204Y-113961537D01*
X149035189Y-113665000D01*
X149020299Y-113590143D01*
X149020299Y-112959801D01*
X149068701Y-113008203D01*
X149068700Y-115463853D01*
X149053812Y-115538700D01*
X149068700Y-115613547D01*
X149068700Y-115613551D01*
X149112796Y-115835236D01*
X149280771Y-116086628D01*
X149344227Y-116129028D01*
X150986896Y-117771699D01*
X150965000Y-117824561D01*
X150965000Y-118395439D01*
X151183466Y-118922862D01*
X151587138Y-119326534D01*
X152114561Y-119545000D01*
X152685439Y-119545000D01*
X153212862Y-119326534D01*
X153616534Y-118922862D01*
X153835000Y-118395439D01*
X153835000Y-117824561D01*
X153616534Y-117297138D01*
X153212862Y-116893466D01*
X152685439Y-116675000D01*
X152114561Y-116675000D01*
X152061699Y-116696896D01*
X150588699Y-115223898D01*
X150588700Y-112768248D01*
X150603588Y-112693400D01*
X150588700Y-112618552D01*
X150588700Y-112618549D01*
X150547239Y-112410112D01*
X150544604Y-112396863D01*
X150419029Y-112208927D01*
X150419027Y-112208925D01*
X150376629Y-112145472D01*
X150313176Y-112103074D01*
X149020299Y-110810198D01*
X149020299Y-110070581D01*
X149178435Y-110039126D01*
X149469586Y-109844586D01*
X149664126Y-109553435D01*
X149732440Y-109210000D01*
X149732440Y-108132242D01*
X149987560Y-108387362D01*
X149987560Y-109210000D01*
X150055874Y-109553435D01*
X150250414Y-109844586D01*
X150541565Y-110039126D01*
X150699700Y-110070581D01*
X150699700Y-111050148D01*
X150684811Y-111125000D01*
X150743796Y-111421537D01*
X150911771Y-111672929D01*
X151163163Y-111840904D01*
X151187799Y-111845804D01*
X151186843Y-111847235D01*
X151137560Y-112095000D01*
X151137560Y-112695000D01*
X151186843Y-112942765D01*
X151245132Y-113030000D01*
X151186843Y-113117235D01*
X151137560Y-113365000D01*
X151137560Y-113965000D01*
X151186843Y-114212765D01*
X151245132Y-114300000D01*
X151186843Y-114387235D01*
X151137560Y-114635000D01*
X151137560Y-115235000D01*
X151186843Y-115482765D01*
X151327191Y-115692809D01*
X151537235Y-115833157D01*
X151785000Y-115882440D01*
X153335000Y-115882440D01*
X153582765Y-115833157D01*
X153613691Y-115812493D01*
X154162560Y-116361362D01*
X154162560Y-116696500D01*
X154229922Y-117035152D01*
X154421753Y-117322247D01*
X154708848Y-117514078D01*
X155047500Y-117581440D01*
X155622500Y-117581440D01*
X155961152Y-117514078D01*
X156210000Y-117347803D01*
X156259700Y-117381012D01*
X156259701Y-117978745D01*
X155436985Y-118801462D01*
X155346753Y-118861753D01*
X155286462Y-118951985D01*
X155250714Y-118987733D01*
X155046656Y-119293128D01*
X154950806Y-119775000D01*
X155046656Y-120256872D01*
X155260324Y-120576650D01*
X155196673Y-120640302D01*
X155100000Y-120873691D01*
X155100000Y-121239250D01*
X155258750Y-121398000D01*
X156083000Y-121398000D01*
X156083000Y-121378000D01*
X156337000Y-121378000D01*
X156337000Y-121398000D01*
X157161250Y-121398000D01*
X157320000Y-121239250D01*
X157320000Y-120873691D01*
X157223327Y-120640302D01*
X157157289Y-120574264D01*
X158281971Y-119449583D01*
X158385084Y-119380685D01*
X158408928Y-119345000D01*
X160716636Y-119345000D01*
X160905462Y-119307440D01*
X162895000Y-119307440D01*
X163009701Y-119284625D01*
X163009701Y-120528359D01*
X162985505Y-120650000D01*
X163081356Y-121131873D01*
X163354315Y-121540385D01*
X163762827Y-121813344D01*
X164123064Y-121885000D01*
X164244700Y-121909195D01*
X164366335Y-121885000D01*
X164397560Y-121885000D01*
X164397560Y-126050000D01*
X164446843Y-126297765D01*
X164587191Y-126507809D01*
X164797235Y-126648157D01*
X165045000Y-126697440D01*
X174290001Y-126697440D01*
X174290001Y-132949413D01*
X174231197Y-133360027D01*
X174080661Y-133691112D01*
X173843251Y-133966639D01*
X173538056Y-134164456D01*
X173166083Y-134275700D01*
X172973652Y-134290000D01*
X127050580Y-134290000D01*
X126639973Y-134231197D01*
X126308888Y-134080661D01*
X126033361Y-133843251D01*
X125835544Y-133538056D01*
X125724300Y-133166083D01*
X125709999Y-132973638D01*
X125709999Y-105464600D01*
X126170512Y-105464600D01*
X126185401Y-105539452D01*
X126185400Y-109540953D01*
X126170512Y-109615800D01*
X126185400Y-109690647D01*
X126185400Y-109690651D01*
X126229496Y-109912336D01*
X126397471Y-110163728D01*
X126460927Y-110206128D01*
X126974158Y-110719360D01*
X126746161Y-111060582D01*
X126630908Y-111640000D01*
X126746161Y-112219418D01*
X127074375Y-112710625D01*
X127342829Y-112890000D01*
X127074375Y-113069375D01*
X126746161Y-113560582D01*
X126630908Y-114140000D01*
X126746161Y-114719418D01*
X127074375Y-115210625D01*
X127209551Y-115300947D01*
X126590228Y-115920271D01*
X126526772Y-115962671D01*
X126484372Y-116026127D01*
X126484371Y-116026128D01*
X126358797Y-116214063D01*
X126299812Y-116510600D01*
X126314701Y-116585452D01*
X126314700Y-131710653D01*
X126299812Y-131785500D01*
X126314700Y-131860347D01*
X126314700Y-131860351D01*
X126358796Y-132082036D01*
X126526771Y-132333428D01*
X126590227Y-132375828D01*
X127626771Y-133412373D01*
X127669171Y-133475829D01*
X127920563Y-133643804D01*
X128142248Y-133687900D01*
X128142252Y-133687900D01*
X128217100Y-133702788D01*
X128291948Y-133687900D01*
X131090860Y-133687900D01*
X131213848Y-133770078D01*
X131552500Y-133837440D01*
X132127500Y-133837440D01*
X132466152Y-133770078D01*
X132715000Y-133603803D01*
X132963848Y-133770078D01*
X133302500Y-133837440D01*
X133877500Y-133837440D01*
X134216152Y-133770078D01*
X134503247Y-133578247D01*
X134695078Y-133291152D01*
X134762440Y-132952500D01*
X134762440Y-132477500D01*
X134695078Y-132138848D01*
X134503247Y-131851753D01*
X134216152Y-131659922D01*
X133877500Y-131592560D01*
X133542362Y-131592560D01*
X133233521Y-131283719D01*
X133302500Y-131297440D01*
X133877500Y-131297440D01*
X134216152Y-131230078D01*
X134503247Y-131038247D01*
X134572235Y-130935000D01*
X134877560Y-130935000D01*
X134877560Y-131065000D01*
X134926843Y-131312765D01*
X135015200Y-131445000D01*
X134926843Y-131577235D01*
X134877560Y-131825000D01*
X134877560Y-133605000D01*
X134926843Y-133852765D01*
X135067191Y-134062809D01*
X135277235Y-134203157D01*
X135525000Y-134252440D01*
X137525000Y-134252440D01*
X137772765Y-134203157D01*
X137982809Y-134062809D01*
X138123157Y-133852765D01*
X138172440Y-133605000D01*
X138172440Y-133000750D01*
X142510000Y-133000750D01*
X142510000Y-133731310D01*
X142606673Y-133964699D01*
X142785302Y-134143327D01*
X143018691Y-134240000D01*
X143859250Y-134240000D01*
X144018000Y-134081250D01*
X144018000Y-132842000D01*
X144272000Y-132842000D01*
X144272000Y-134081250D01*
X144430750Y-134240000D01*
X145271309Y-134240000D01*
X145504698Y-134143327D01*
X145683327Y-133964699D01*
X145780000Y-133731310D01*
X145780000Y-133000750D01*
X145621250Y-132842000D01*
X144272000Y-132842000D01*
X144018000Y-132842000D01*
X142668750Y-132842000D01*
X142510000Y-133000750D01*
X138172440Y-133000750D01*
X138172440Y-131993585D01*
X138178731Y-131984170D01*
X138334872Y-131828029D01*
X138398328Y-131785629D01*
X138442164Y-131720025D01*
X138566303Y-131534237D01*
X138625288Y-131237700D01*
X138610399Y-131162848D01*
X138610400Y-111444748D01*
X138625288Y-111369900D01*
X138610400Y-111295052D01*
X138610400Y-111295049D01*
X138581548Y-111150000D01*
X138566304Y-111073362D01*
X138440729Y-110885427D01*
X138440727Y-110885425D01*
X138398329Y-110821972D01*
X138334876Y-110779574D01*
X133710831Y-106155530D01*
X133668429Y-106092071D01*
X133417037Y-105924096D01*
X133195352Y-105880000D01*
X133195347Y-105880000D01*
X133120500Y-105865112D01*
X133045653Y-105880000D01*
X129673178Y-105880000D01*
X129465625Y-105569375D01*
X129401844Y-105526758D01*
X129629586Y-105374586D01*
X129824126Y-105083435D01*
X129892440Y-104740000D01*
X129892440Y-103540000D01*
X129824126Y-103196565D01*
X129629586Y-102905414D01*
X129338435Y-102710874D01*
X128995000Y-102642560D01*
X127545000Y-102642560D01*
X127201565Y-102710874D01*
X126910414Y-102905414D01*
X126715874Y-103196565D01*
X126647560Y-103540000D01*
X126647560Y-104687639D01*
X126460928Y-104874271D01*
X126397472Y-104916671D01*
X126355072Y-104980127D01*
X126355071Y-104980128D01*
X126229497Y-105168063D01*
X126170512Y-105464600D01*
X125709999Y-105464600D01*
X125709999Y-96763970D01*
X127570635Y-96763970D01*
X127730418Y-97082739D01*
X128521187Y-97392723D01*
X129370387Y-97376497D01*
X130079582Y-97082739D01*
X130239365Y-96763970D01*
X128905000Y-95429605D01*
X127570635Y-96763970D01*
X125709999Y-96763970D01*
X125709999Y-94866187D01*
X126762277Y-94866187D01*
X126778503Y-95715387D01*
X127072261Y-96424582D01*
X127391030Y-96584365D01*
X128725395Y-95250000D01*
X129084605Y-95250000D01*
X130418970Y-96584365D01*
X130737739Y-96424582D01*
X131047723Y-95633813D01*
X131036091Y-95025000D01*
X133752560Y-95025000D01*
X133752560Y-96225000D01*
X133801843Y-96472765D01*
X133942191Y-96682809D01*
X134152235Y-96823157D01*
X134400000Y-96872440D01*
X134740001Y-96872440D01*
X134740001Y-97325148D01*
X134725112Y-97400000D01*
X134784097Y-97696537D01*
X134904727Y-97877072D01*
X134952072Y-97947929D01*
X135015528Y-97990329D01*
X135111897Y-98086698D01*
X135090000Y-98139561D01*
X135090000Y-98710439D01*
X135308466Y-99237862D01*
X135712138Y-99641534D01*
X135765001Y-99663430D01*
X135765000Y-101034853D01*
X135750112Y-101109700D01*
X135765000Y-101184547D01*
X135765000Y-101184551D01*
X135809096Y-101406236D01*
X135977071Y-101657628D01*
X136040527Y-101700028D01*
X136567463Y-102226964D01*
X136537191Y-102247191D01*
X136396843Y-102457235D01*
X136347560Y-102705000D01*
X136347560Y-104305000D01*
X136396843Y-104552765D01*
X136537191Y-104762809D01*
X136747235Y-104903157D01*
X136995000Y-104952440D01*
X138595000Y-104952440D01*
X138842765Y-104903157D01*
X139052809Y-104762809D01*
X139193157Y-104552765D01*
X139201117Y-104512745D01*
X139466861Y-104512745D01*
X139540995Y-104758864D01*
X140078223Y-104951965D01*
X140648454Y-104924778D01*
X141049005Y-104758864D01*
X141123139Y-104512745D01*
X140295000Y-103684605D01*
X139466861Y-104512745D01*
X139201117Y-104512745D01*
X139239693Y-104318813D01*
X139287255Y-104333139D01*
X140115395Y-103505000D01*
X140474605Y-103505000D01*
X141302745Y-104333139D01*
X141548864Y-104259005D01*
X141741965Y-103721777D01*
X141714778Y-103151546D01*
X141548864Y-102750995D01*
X141302745Y-102676861D01*
X140474605Y-103505000D01*
X140115395Y-103505000D01*
X139287255Y-102676861D01*
X139239693Y-102691187D01*
X139201118Y-102497255D01*
X139466861Y-102497255D01*
X140295000Y-103325395D01*
X141123139Y-102497255D01*
X141049005Y-102251136D01*
X140511777Y-102058035D01*
X139941546Y-102085222D01*
X139540995Y-102251136D01*
X139466861Y-102497255D01*
X139201118Y-102497255D01*
X139193157Y-102457235D01*
X139052809Y-102247191D01*
X138842765Y-102106843D01*
X138595000Y-102057560D01*
X138493796Y-102057560D01*
X138385329Y-101895227D01*
X138385327Y-101895225D01*
X138342929Y-101831772D01*
X138279476Y-101789374D01*
X137284999Y-100794898D01*
X137285000Y-99663430D01*
X137337862Y-99641534D01*
X137546651Y-99432745D01*
X140696861Y-99432745D01*
X140770995Y-99678864D01*
X141308223Y-99871965D01*
X141878454Y-99844778D01*
X142279005Y-99678864D01*
X142353139Y-99432745D01*
X141525000Y-98604605D01*
X140696861Y-99432745D01*
X137546651Y-99432745D01*
X137741534Y-99237862D01*
X137960000Y-98710439D01*
X137960000Y-98208223D01*
X140078035Y-98208223D01*
X140105222Y-98778454D01*
X140271136Y-99179005D01*
X140517255Y-99253139D01*
X141345395Y-98425000D01*
X141704605Y-98425000D01*
X142532745Y-99253139D01*
X142778864Y-99179005D01*
X142971965Y-98641777D01*
X142944778Y-98071546D01*
X142778864Y-97670995D01*
X142532745Y-97596861D01*
X141704605Y-98425000D01*
X141345395Y-98425000D01*
X140517255Y-97596861D01*
X140271136Y-97670995D01*
X140078035Y-98208223D01*
X137960000Y-98208223D01*
X137960000Y-98139561D01*
X137741534Y-97612138D01*
X137546651Y-97417255D01*
X140696861Y-97417255D01*
X141525000Y-98245395D01*
X142353139Y-97417255D01*
X142279005Y-97171136D01*
X141741777Y-96978035D01*
X141171546Y-97005222D01*
X140770995Y-97171136D01*
X140696861Y-97417255D01*
X137546651Y-97417255D01*
X137337862Y-97208466D01*
X136810439Y-96990000D01*
X136260000Y-96990000D01*
X136260000Y-96872440D01*
X136600000Y-96872440D01*
X136847765Y-96823157D01*
X137057809Y-96682809D01*
X137198157Y-96472765D01*
X137247440Y-96225000D01*
X137247440Y-95025000D01*
X137198157Y-94777235D01*
X137057809Y-94567191D01*
X136847765Y-94426843D01*
X136600000Y-94377560D01*
X134400000Y-94377560D01*
X134152235Y-94426843D01*
X133942191Y-94567191D01*
X133801843Y-94777235D01*
X133752560Y-95025000D01*
X131036091Y-95025000D01*
X131031497Y-94784613D01*
X130737739Y-94075418D01*
X130418970Y-93915635D01*
X129084605Y-95250000D01*
X128725395Y-95250000D01*
X127391030Y-93915635D01*
X127072261Y-94075418D01*
X126762277Y-94866187D01*
X125709999Y-94866187D01*
X125709999Y-93736030D01*
X127570635Y-93736030D01*
X128905000Y-95070395D01*
X130239365Y-93736030D01*
X130186594Y-93630750D01*
X137965000Y-93630750D01*
X137965000Y-96371310D01*
X138061673Y-96604699D01*
X138240302Y-96783327D01*
X138473691Y-96880000D01*
X141514250Y-96880000D01*
X141673000Y-96721250D01*
X141673000Y-93472000D01*
X138123750Y-93472000D01*
X137965000Y-93630750D01*
X130186594Y-93630750D01*
X130079582Y-93417261D01*
X129288813Y-93107277D01*
X128439613Y-93123503D01*
X127730418Y-93417261D01*
X127570635Y-93736030D01*
X125709999Y-93736030D01*
X125709999Y-88670000D01*
X126757560Y-88670000D01*
X126757560Y-91670000D01*
X126806843Y-91917765D01*
X126947191Y-92127809D01*
X127157235Y-92268157D01*
X127405000Y-92317440D01*
X130405000Y-92317440D01*
X130652765Y-92268157D01*
X130862809Y-92127809D01*
X131003157Y-91917765D01*
X131052440Y-91670000D01*
X131052440Y-91554841D01*
X131278464Y-91599800D01*
X131278468Y-91599800D01*
X131400100Y-91623994D01*
X131521732Y-91599800D01*
X133752560Y-91599800D01*
X133752560Y-91665000D01*
X133801843Y-91912765D01*
X133942191Y-92122809D01*
X134152235Y-92263157D01*
X134400000Y-92312440D01*
X135440905Y-92312440D01*
X135500000Y-92324195D01*
X135559096Y-92312440D01*
X136600000Y-92312440D01*
X136847765Y-92263157D01*
X137057809Y-92122809D01*
X137198157Y-91912765D01*
X137247440Y-91665000D01*
X137247440Y-90465000D01*
X137218338Y-90318690D01*
X137965000Y-90318690D01*
X137965000Y-93059250D01*
X138123750Y-93218000D01*
X141673000Y-93218000D01*
X141673000Y-89968750D01*
X141514250Y-89810000D01*
X138473691Y-89810000D01*
X138240302Y-89906673D01*
X138061673Y-90085301D01*
X137965000Y-90318690D01*
X137218338Y-90318690D01*
X137198157Y-90217235D01*
X137057809Y-90007191D01*
X136965645Y-89945609D01*
X137312271Y-89598983D01*
X137415384Y-89530085D01*
X137484282Y-89426972D01*
X137484286Y-89426968D01*
X137587334Y-89272745D01*
X140696861Y-89272745D01*
X140770995Y-89518864D01*
X141308223Y-89711965D01*
X141878454Y-89684778D01*
X142279005Y-89518864D01*
X142353139Y-89272745D01*
X141525000Y-88444605D01*
X140696861Y-89272745D01*
X137587334Y-89272745D01*
X137669257Y-89150139D01*
X137741534Y-89077862D01*
X137960000Y-88550439D01*
X137960000Y-88048223D01*
X140078035Y-88048223D01*
X140105222Y-88618454D01*
X140271136Y-89019005D01*
X140517255Y-89093139D01*
X141345395Y-88265000D01*
X141704605Y-88265000D01*
X142532745Y-89093139D01*
X142778864Y-89019005D01*
X142971965Y-88481777D01*
X142944778Y-87911546D01*
X142778864Y-87510995D01*
X142532745Y-87436861D01*
X141704605Y-88265000D01*
X141345395Y-88265000D01*
X140517255Y-87436861D01*
X140271136Y-87510995D01*
X140078035Y-88048223D01*
X137960000Y-88048223D01*
X137960000Y-87979561D01*
X137741534Y-87452138D01*
X137546651Y-87257255D01*
X140696861Y-87257255D01*
X141525000Y-88085395D01*
X142353139Y-87257255D01*
X142279005Y-87011136D01*
X141741777Y-86818035D01*
X141171546Y-86845222D01*
X140770995Y-87011136D01*
X140696861Y-87257255D01*
X137546651Y-87257255D01*
X137337862Y-87048466D01*
X136810439Y-86830000D01*
X136239561Y-86830000D01*
X135712138Y-87048466D01*
X135308466Y-87452138D01*
X135090000Y-87979561D01*
X135090000Y-88328147D01*
X134712731Y-88705416D01*
X134609616Y-88774315D01*
X134540716Y-88877431D01*
X134540714Y-88877433D01*
X134372088Y-89129800D01*
X131871471Y-89129800D01*
X131687173Y-89006656D01*
X131326936Y-88935000D01*
X131326932Y-88935000D01*
X131205300Y-88910806D01*
X131083668Y-88935000D01*
X131052440Y-88935000D01*
X131052440Y-88670000D01*
X131003157Y-88422235D01*
X130862809Y-88212191D01*
X130652765Y-88071843D01*
X130405000Y-88022560D01*
X127405000Y-88022560D01*
X127157235Y-88071843D01*
X126947191Y-88212191D01*
X126806843Y-88422235D01*
X126757560Y-88670000D01*
X125709999Y-88670000D01*
X125709999Y-84665322D01*
X126770000Y-84665322D01*
X126770000Y-85514678D01*
X127095034Y-86299380D01*
X127695620Y-86899966D01*
X128480322Y-87225000D01*
X129329678Y-87225000D01*
X130114380Y-86899966D01*
X130714966Y-86299380D01*
X131040000Y-85514678D01*
X131040000Y-84665322D01*
X130714966Y-83880620D01*
X130114380Y-83280034D01*
X129329678Y-82955000D01*
X128480322Y-82955000D01*
X127695620Y-83280034D01*
X127095034Y-83880620D01*
X126770000Y-84665322D01*
X125709999Y-84665322D01*
X125709999Y-78510000D01*
X126757560Y-78510000D01*
X126757560Y-81510000D01*
X126806843Y-81757765D01*
X126947191Y-81967809D01*
X127157235Y-82108157D01*
X127405000Y-82157440D01*
X130405000Y-82157440D01*
X130652765Y-82108157D01*
X130862809Y-81967809D01*
X131003157Y-81757765D01*
X131052440Y-81510000D01*
X131052440Y-78510000D01*
X131003157Y-78262235D01*
X130862809Y-78052191D01*
X130652765Y-77911843D01*
X130405000Y-77862560D01*
X127405000Y-77862560D01*
X127157235Y-77911843D01*
X126947191Y-78052191D01*
X126806843Y-78262235D01*
X126757560Y-78510000D01*
X125709999Y-78510000D01*
X125709999Y-69000000D01*
X126670000Y-69000000D01*
X126784038Y-69720010D01*
X127114990Y-70369540D01*
X127630460Y-70885010D01*
X128279990Y-71215962D01*
X129000000Y-71330000D01*
X129720010Y-71215962D01*
X130369540Y-70885010D01*
X130885010Y-70369540D01*
X131215962Y-69720010D01*
X131330000Y-69000000D01*
X168670000Y-69000000D01*
X168784038Y-69720010D01*
X169114990Y-70369540D01*
X169630460Y-70885010D01*
X170279990Y-71215962D01*
X171000000Y-71330000D01*
X171720010Y-71215962D01*
X172369540Y-70885010D01*
X172885010Y-70369540D01*
X173215962Y-69720010D01*
X173330000Y-69000000D01*
X173215962Y-68279990D01*
X172885010Y-67630460D01*
X172369540Y-67114990D01*
X171720010Y-66784038D01*
X171000000Y-66670000D01*
X170279990Y-66784038D01*
X169630460Y-67114990D01*
X169114990Y-67630460D01*
X168784038Y-68279990D01*
X168670000Y-69000000D01*
X131330000Y-69000000D01*
X131215962Y-68279990D01*
X130885010Y-67630460D01*
X130369540Y-67114990D01*
X129720010Y-66784038D01*
X129000000Y-66670000D01*
X128279990Y-66784038D01*
X127630460Y-67114990D01*
X127114990Y-67630460D01*
X126784038Y-68279990D01*
X126670000Y-69000000D01*
X125709999Y-69000000D01*
X125710000Y-67050580D01*
X125768803Y-66639973D01*
X125919338Y-66308890D01*
X126156749Y-66033361D01*
X126461944Y-65835544D01*
X126833917Y-65724300D01*
X127026348Y-65710000D01*
X172949420Y-65710000D01*
X173360027Y-65768803D01*
X173360027Y-65768803D01*
G37*
X173360027Y-65768803D02*
X173691110Y-65919338D01*
X173966639Y-66156749D01*
X174164456Y-66461944D01*
X174275700Y-66833917D01*
X174290000Y-67026348D01*
X174290000Y-72692560D01*
X165045000Y-72692560D01*
X164797235Y-72741843D01*
X164587191Y-72882191D01*
X164446843Y-73092235D01*
X164397560Y-73340000D01*
X164397560Y-74187107D01*
X164217686Y-74007233D01*
X164148785Y-73904115D01*
X163740273Y-73631156D01*
X163380036Y-73559500D01*
X163380032Y-73559500D01*
X163258400Y-73535306D01*
X163136768Y-73559500D01*
X147269446Y-73559500D01*
X147144786Y-73372932D01*
X147144783Y-73372929D01*
X147075885Y-73269816D01*
X146972772Y-73200918D01*
X143374287Y-69602434D01*
X143305385Y-69499315D01*
X142896873Y-69226356D01*
X142536636Y-69154700D01*
X142536632Y-69154700D01*
X142415000Y-69130506D01*
X142293368Y-69154700D01*
X140647230Y-69154700D01*
X140525599Y-69130506D01*
X140403968Y-69154700D01*
X140403964Y-69154700D01*
X140043727Y-69226356D01*
X140043725Y-69226357D01*
X140043726Y-69226357D01*
X139738332Y-69430414D01*
X139738331Y-69430415D01*
X139635215Y-69499315D01*
X139566315Y-69602431D01*
X138284446Y-70884301D01*
X138182809Y-70732191D01*
X137972765Y-70591843D01*
X137725000Y-70542560D01*
X135325000Y-70542560D01*
X135077235Y-70591843D01*
X134867191Y-70732191D01*
X134726843Y-70942235D01*
X134677560Y-71190000D01*
X134677560Y-73590000D01*
X134726843Y-73837765D01*
X134867191Y-74047809D01*
X135077235Y-74188157D01*
X135325000Y-74237440D01*
X137725000Y-74237440D01*
X137972765Y-74188157D01*
X138182809Y-74047809D01*
X138323157Y-73837765D01*
X138353110Y-73687175D01*
X140407430Y-73687175D01*
X140530565Y-73974788D01*
X141212734Y-74234707D01*
X141942443Y-74213786D01*
X142519435Y-73974788D01*
X142642570Y-73687175D01*
X141525000Y-72569605D01*
X140407430Y-73687175D01*
X138353110Y-73687175D01*
X138365478Y-73625000D01*
X138403668Y-73625000D01*
X138525300Y-73649194D01*
X138646932Y-73625000D01*
X138646936Y-73625000D01*
X139007173Y-73553344D01*
X139415685Y-73280385D01*
X139484587Y-73177266D01*
X139746084Y-72915769D01*
X139940212Y-73384435D01*
X140227825Y-73507570D01*
X141345395Y-72390000D01*
X141331253Y-72375858D01*
X141510858Y-72196253D01*
X141525000Y-72210395D01*
X141539143Y-72196253D01*
X141718748Y-72375858D01*
X141704605Y-72390000D01*
X142822175Y-73507570D01*
X143109788Y-73384435D01*
X143262467Y-72983721D01*
X144756096Y-74477350D01*
X137495887Y-81737560D01*
X136995000Y-81737560D01*
X136747235Y-81786843D01*
X136537191Y-81927191D01*
X136396843Y-82137235D01*
X136347560Y-82385000D01*
X136347560Y-83985000D01*
X136396843Y-84232765D01*
X136537191Y-84442809D01*
X136747235Y-84583157D01*
X136995000Y-84632440D01*
X138595000Y-84632440D01*
X138842765Y-84583157D01*
X139052809Y-84442809D01*
X139193157Y-84232765D01*
X139201117Y-84192745D01*
X139466861Y-84192745D01*
X139540995Y-84438864D01*
X140078223Y-84631965D01*
X140648454Y-84604778D01*
X141049005Y-84438864D01*
X141123139Y-84192745D01*
X140295000Y-83364605D01*
X139466861Y-84192745D01*
X139201117Y-84192745D01*
X139239693Y-83998813D01*
X139287255Y-84013139D01*
X140115395Y-83185000D01*
X140474605Y-83185000D01*
X141302745Y-84013139D01*
X141548864Y-83939005D01*
X141741965Y-83401777D01*
X141714778Y-82831546D01*
X141548864Y-82430995D01*
X141302745Y-82356861D01*
X140474605Y-83185000D01*
X140115395Y-83185000D01*
X140101253Y-83170858D01*
X140280858Y-82991253D01*
X140295000Y-83005395D01*
X141123139Y-82177255D01*
X141049005Y-81931136D01*
X140862467Y-81864087D01*
X146697054Y-76029500D01*
X156269420Y-76029500D01*
X156262088Y-76066359D01*
X155553650Y-76774797D01*
X155450554Y-76843677D01*
X155403809Y-76913629D01*
X155346753Y-76951753D01*
X155286461Y-77041986D01*
X155250714Y-77077733D01*
X155046656Y-77383128D01*
X154950806Y-77865000D01*
X155046656Y-78346872D01*
X155068791Y-78380000D01*
X154976554Y-78380000D01*
X153736534Y-77139981D01*
X153536534Y-76657138D01*
X153132862Y-76253466D01*
X152605439Y-76035000D01*
X152034561Y-76035000D01*
X151507138Y-76253466D01*
X151103466Y-76657138D01*
X150885000Y-77184561D01*
X150885000Y-77755439D01*
X151103466Y-78282862D01*
X151507138Y-78686534D01*
X151989981Y-78886534D01*
X153505715Y-80402269D01*
X153574615Y-80505385D01*
X153677731Y-80574285D01*
X153677732Y-80574286D01*
X153831263Y-80676872D01*
X153983127Y-80778344D01*
X154343364Y-80850000D01*
X154343367Y-80850000D01*
X154464999Y-80874194D01*
X154586631Y-80850000D01*
X156096871Y-80850000D01*
X155921656Y-81112228D01*
X155825806Y-81594100D01*
X155850001Y-81715736D01*
X155850001Y-82044313D01*
X155622500Y-81999060D01*
X155047500Y-81999060D01*
X154708848Y-82066422D01*
X154421753Y-82258253D01*
X154229922Y-82545348D01*
X154162560Y-82884000D01*
X154162560Y-83219138D01*
X153982440Y-83399259D01*
X153982440Y-82885000D01*
X153933157Y-82637235D01*
X153792809Y-82427191D01*
X153582765Y-82286843D01*
X153335000Y-82237560D01*
X152219699Y-82237560D01*
X152219700Y-81937919D01*
X152269586Y-81904586D01*
X152464126Y-81613435D01*
X152532440Y-81270000D01*
X152532440Y-80020000D01*
X152464126Y-79676565D01*
X152269586Y-79385414D01*
X151978435Y-79190874D01*
X151635000Y-79122560D01*
X150885000Y-79122560D01*
X150824413Y-79134612D01*
X148675331Y-76985530D01*
X148668037Y-76974613D01*
X148536534Y-76657138D01*
X148132862Y-76253466D01*
X147605439Y-76035000D01*
X147034561Y-76035000D01*
X146507138Y-76253466D01*
X146103466Y-76657138D01*
X145885000Y-77184561D01*
X145885000Y-77755439D01*
X146103466Y-78282862D01*
X146507138Y-78686534D01*
X147034561Y-78905000D01*
X147605439Y-78905000D01*
X148132862Y-78686534D01*
X148179797Y-78639599D01*
X148662759Y-79122560D01*
X148085000Y-79122560D01*
X147741565Y-79190874D01*
X147450414Y-79385414D01*
X147255874Y-79676565D01*
X147187560Y-80020000D01*
X147187560Y-81270000D01*
X147255874Y-81613435D01*
X147450414Y-81904586D01*
X147700001Y-82071354D01*
X147700001Y-82237560D01*
X146385000Y-82237560D01*
X146137235Y-82286843D01*
X145927191Y-82427191D01*
X145786843Y-82637235D01*
X145737560Y-82885000D01*
X145737560Y-83485000D01*
X145786843Y-83732765D01*
X145787799Y-83734196D01*
X145763163Y-83739096D01*
X145511771Y-83907071D01*
X145469371Y-83970528D01*
X145124926Y-84314972D01*
X145061471Y-84357372D01*
X144893496Y-84608764D01*
X144849400Y-84830449D01*
X144849400Y-84830453D01*
X144834512Y-84905300D01*
X144849400Y-84980147D01*
X144849400Y-89810000D01*
X142085750Y-89810000D01*
X141927000Y-89968750D01*
X141927000Y-93218000D01*
X141947000Y-93218000D01*
X141947000Y-93472000D01*
X141927000Y-93472000D01*
X141927000Y-96721250D01*
X142085750Y-96880000D01*
X144849401Y-96880000D01*
X144849401Y-107440796D01*
X144192638Y-108097560D01*
X143857500Y-108097560D01*
X143518848Y-108164922D01*
X143270000Y-108331197D01*
X143021152Y-108164922D01*
X142682500Y-108097560D01*
X142107500Y-108097560D01*
X141768848Y-108164922D01*
X141481753Y-108356753D01*
X141289922Y-108643848D01*
X141222560Y-108982500D01*
X141222560Y-109457500D01*
X141289922Y-109796152D01*
X141481753Y-110083247D01*
X141768848Y-110275078D01*
X142107500Y-110342440D01*
X142242552Y-110342440D01*
X142376069Y-110664780D01*
X142667220Y-110955931D01*
X142763861Y-110995961D01*
X142687191Y-111047191D01*
X142546843Y-111257235D01*
X142497560Y-111505000D01*
X142497560Y-113285000D01*
X142546843Y-113532765D01*
X142631905Y-113660069D01*
X142606673Y-113685301D01*
X142510000Y-113918690D01*
X142510000Y-114649250D01*
X142668750Y-114808000D01*
X144018000Y-114808000D01*
X144018000Y-114788000D01*
X144272000Y-114788000D01*
X144272000Y-114808000D01*
X144292000Y-114808000D01*
X144292000Y-115062000D01*
X144272000Y-115062000D01*
X144272000Y-116301250D01*
X144430750Y-116460000D01*
X144720197Y-116460000D01*
X144192638Y-116987560D01*
X143857500Y-116987560D01*
X143740000Y-117010932D01*
X143740000Y-116609026D01*
X143678272Y-116460000D01*
X143859250Y-116460000D01*
X144018000Y-116301250D01*
X144018000Y-115062000D01*
X142668750Y-115062000D01*
X142510000Y-115220750D01*
X142510000Y-115779900D01*
X142499126Y-115779900D01*
X142118720Y-115937469D01*
X141827569Y-116228620D01*
X141670000Y-116609026D01*
X141670000Y-116874093D01*
X141635000Y-117050049D01*
X141635000Y-117050053D01*
X141620112Y-117124900D01*
X141625275Y-117150855D01*
X141481753Y-117246753D01*
X141289922Y-117533848D01*
X141222560Y-117872500D01*
X141222560Y-118347500D01*
X141289922Y-118686152D01*
X141481753Y-118973247D01*
X141635001Y-119075644D01*
X141635000Y-121820853D01*
X141620112Y-121895700D01*
X141635000Y-121970547D01*
X141635000Y-121970551D01*
X141679096Y-122192236D01*
X141847071Y-122443628D01*
X141910527Y-122486028D01*
X142510000Y-123085502D01*
X142510000Y-123539250D01*
X142668750Y-123698000D01*
X144018000Y-123698000D01*
X144018000Y-123678000D01*
X144272000Y-123678000D01*
X144272000Y-123698000D01*
X144292000Y-123698000D01*
X144292000Y-123952000D01*
X144272000Y-123952000D01*
X144272000Y-123972000D01*
X144018000Y-123972000D01*
X144018000Y-123952000D01*
X142668750Y-123952000D01*
X142510000Y-124110750D01*
X142510000Y-124841310D01*
X142606673Y-125074699D01*
X142785302Y-125253327D01*
X142984402Y-125335797D01*
X142442639Y-125877560D01*
X142107500Y-125877560D01*
X141768848Y-125944922D01*
X141481753Y-126136753D01*
X141289922Y-126423848D01*
X141222560Y-126762500D01*
X141222560Y-127237500D01*
X141289922Y-127576152D01*
X141481753Y-127863247D01*
X141768848Y-128055078D01*
X142107500Y-128122440D01*
X142682500Y-128122440D01*
X143021152Y-128055078D01*
X143270000Y-127888803D01*
X143385000Y-127965644D01*
X143385001Y-128637560D01*
X143145000Y-128637560D01*
X142897235Y-128686843D01*
X142687191Y-128827191D01*
X142546843Y-129037235D01*
X142497560Y-129285000D01*
X142497560Y-131065000D01*
X142546843Y-131312765D01*
X142631905Y-131440069D01*
X142606673Y-131465301D01*
X142510000Y-131698690D01*
X142510000Y-132429250D01*
X142668750Y-132588000D01*
X144018000Y-132588000D01*
X144018000Y-132568000D01*
X144272000Y-132568000D01*
X144272000Y-132588000D01*
X145621250Y-132588000D01*
X145780000Y-132429250D01*
X145780000Y-131698690D01*
X145683327Y-131465301D01*
X145658095Y-131440069D01*
X145743157Y-131312765D01*
X145792440Y-131065000D01*
X145792440Y-131000000D01*
X168670000Y-131000000D01*
X168784038Y-131720010D01*
X169114990Y-132369540D01*
X169630460Y-132885010D01*
X170279990Y-133215962D01*
X171000000Y-133330000D01*
X171720010Y-133215962D01*
X172369540Y-132885010D01*
X172885010Y-132369540D01*
X173215962Y-131720010D01*
X173330000Y-131000000D01*
X173215962Y-130279990D01*
X172885010Y-129630460D01*
X172369540Y-129114990D01*
X171720010Y-128784038D01*
X171000000Y-128670000D01*
X170279990Y-128784038D01*
X169630460Y-129114990D01*
X169114990Y-129630460D01*
X168784038Y-130279990D01*
X168670000Y-131000000D01*
X145792440Y-131000000D01*
X145792440Y-129285000D01*
X145743157Y-129037235D01*
X145602809Y-128827191D01*
X145392765Y-128686843D01*
X145145000Y-128637560D01*
X144905000Y-128637560D01*
X144904999Y-127965644D01*
X145058247Y-127863247D01*
X145250078Y-127576152D01*
X145317440Y-127237500D01*
X145317440Y-126902361D01*
X146544176Y-125675626D01*
X146607629Y-125633228D01*
X146650027Y-125569775D01*
X146650029Y-125569773D01*
X146775604Y-125381838D01*
X146805502Y-125231529D01*
X146819700Y-125160151D01*
X146819700Y-125160148D01*
X146834588Y-125085300D01*
X146819700Y-125010452D01*
X146819700Y-123475750D01*
X157660000Y-123475750D01*
X157660000Y-123866310D01*
X157756673Y-124099699D01*
X157935302Y-124278327D01*
X158168691Y-124375000D01*
X160309250Y-124375000D01*
X160468000Y-124216250D01*
X160468000Y-123317000D01*
X160722000Y-123317000D01*
X160722000Y-124216250D01*
X160880750Y-124375000D01*
X163021309Y-124375000D01*
X163254698Y-124278327D01*
X163433327Y-124099699D01*
X163530000Y-123866310D01*
X163530000Y-123475750D01*
X163371250Y-123317000D01*
X160722000Y-123317000D01*
X160468000Y-123317000D01*
X157818750Y-123317000D01*
X157660000Y-123475750D01*
X146819700Y-123475750D01*
X146819700Y-121810750D01*
X155100000Y-121810750D01*
X155100000Y-122176309D01*
X155196673Y-122409698D01*
X155375301Y-122588327D01*
X155608690Y-122685000D01*
X155924250Y-122685000D01*
X156083000Y-122526250D01*
X156083000Y-121652000D01*
X156337000Y-121652000D01*
X156337000Y-122526250D01*
X156495750Y-122685000D01*
X156811310Y-122685000D01*
X157044699Y-122588327D01*
X157119335Y-122513690D01*
X157660000Y-122513690D01*
X157660000Y-122904250D01*
X157818750Y-123063000D01*
X160468000Y-123063000D01*
X160468000Y-122163750D01*
X160722000Y-122163750D01*
X160722000Y-123063000D01*
X163371250Y-123063000D01*
X163530000Y-122904250D01*
X163530000Y-122513690D01*
X163433327Y-122280301D01*
X163254698Y-122101673D01*
X163021309Y-122005000D01*
X160880750Y-122005000D01*
X160722000Y-122163750D01*
X160468000Y-122163750D01*
X160309250Y-122005000D01*
X158168691Y-122005000D01*
X157935302Y-122101673D01*
X157756673Y-122280301D01*
X157660000Y-122513690D01*
X157119335Y-122513690D01*
X157223327Y-122409698D01*
X157320000Y-122176309D01*
X157320000Y-121810750D01*
X157161250Y-121652000D01*
X156337000Y-121652000D01*
X156083000Y-121652000D01*
X155258750Y-121652000D01*
X155100000Y-121810750D01*
X146819700Y-121810750D01*
X146819700Y-119426300D01*
X147183223Y-119556965D01*
X147753454Y-119529778D01*
X148154005Y-119363864D01*
X148228139Y-119117745D01*
X147400000Y-118289605D01*
X147385858Y-118303748D01*
X147206252Y-118124142D01*
X147220395Y-118110000D01*
X147579605Y-118110000D01*
X148407745Y-118938139D01*
X148653864Y-118864005D01*
X148846965Y-118326777D01*
X148819778Y-117756546D01*
X148653864Y-117355995D01*
X148407745Y-117281861D01*
X147579605Y-118110000D01*
X147220395Y-118110000D01*
X147206252Y-118095858D01*
X147385858Y-117916253D01*
X147400000Y-117930395D01*
X148228139Y-117102255D01*
X148154005Y-116856136D01*
X147616777Y-116663035D01*
X147046546Y-116690222D01*
X146819699Y-116784185D01*
X146819699Y-115870000D01*
X146874250Y-115870000D01*
X147033000Y-115711250D01*
X147033000Y-115062000D01*
X147287000Y-115062000D01*
X147287000Y-115711250D01*
X147445750Y-115870000D01*
X148061309Y-115870000D01*
X148294698Y-115773327D01*
X148473327Y-115594699D01*
X148570000Y-115361310D01*
X148570000Y-115220750D01*
X148411250Y-115062000D01*
X147287000Y-115062000D01*
X147033000Y-115062000D01*
X147013000Y-115062000D01*
X147013000Y-114808000D01*
X147033000Y-114808000D01*
X147033000Y-114788000D01*
X147287000Y-114788000D01*
X147287000Y-114808000D01*
X148411250Y-114808000D01*
X148570000Y-114649250D01*
X148570000Y-114508690D01*
X148520096Y-114388212D01*
X148556837Y-114380904D01*
X148808229Y-114212929D01*
X148976204Y-113961537D01*
X149035189Y-113665000D01*
X149020299Y-113590143D01*
X149020299Y-112959801D01*
X149068701Y-113008203D01*
X149068700Y-115463853D01*
X149053812Y-115538700D01*
X149068700Y-115613547D01*
X149068700Y-115613551D01*
X149112796Y-115835236D01*
X149280771Y-116086628D01*
X149344227Y-116129028D01*
X150986896Y-117771699D01*
X150965000Y-117824561D01*
X150965000Y-118395439D01*
X151183466Y-118922862D01*
X151587138Y-119326534D01*
X152114561Y-119545000D01*
X152685439Y-119545000D01*
X153212862Y-119326534D01*
X153616534Y-118922862D01*
X153835000Y-118395439D01*
X153835000Y-117824561D01*
X153616534Y-117297138D01*
X153212862Y-116893466D01*
X152685439Y-116675000D01*
X152114561Y-116675000D01*
X152061699Y-116696896D01*
X150588699Y-115223898D01*
X150588700Y-112768248D01*
X150603588Y-112693400D01*
X150588700Y-112618552D01*
X150588700Y-112618549D01*
X150547239Y-112410112D01*
X150544604Y-112396863D01*
X150419029Y-112208927D01*
X150419027Y-112208925D01*
X150376629Y-112145472D01*
X150313176Y-112103074D01*
X149020299Y-110810198D01*
X149020299Y-110070581D01*
X149178435Y-110039126D01*
X149469586Y-109844586D01*
X149664126Y-109553435D01*
X149732440Y-109210000D01*
X149732440Y-108132242D01*
X149987560Y-108387362D01*
X149987560Y-109210000D01*
X150055874Y-109553435D01*
X150250414Y-109844586D01*
X150541565Y-110039126D01*
X150699700Y-110070581D01*
X150699700Y-111050148D01*
X150684811Y-111125000D01*
X150743796Y-111421537D01*
X150911771Y-111672929D01*
X151163163Y-111840904D01*
X151187799Y-111845804D01*
X151186843Y-111847235D01*
X151137560Y-112095000D01*
X151137560Y-112695000D01*
X151186843Y-112942765D01*
X151245132Y-113030000D01*
X151186843Y-113117235D01*
X151137560Y-113365000D01*
X151137560Y-113965000D01*
X151186843Y-114212765D01*
X151245132Y-114300000D01*
X151186843Y-114387235D01*
X151137560Y-114635000D01*
X151137560Y-115235000D01*
X151186843Y-115482765D01*
X151327191Y-115692809D01*
X151537235Y-115833157D01*
X151785000Y-115882440D01*
X153335000Y-115882440D01*
X153582765Y-115833157D01*
X153613691Y-115812493D01*
X154162560Y-116361362D01*
X154162560Y-116696500D01*
X154229922Y-117035152D01*
X154421753Y-117322247D01*
X154708848Y-117514078D01*
X155047500Y-117581440D01*
X155622500Y-117581440D01*
X155961152Y-117514078D01*
X156210000Y-117347803D01*
X156259700Y-117381012D01*
X156259701Y-117978745D01*
X155436985Y-118801462D01*
X155346753Y-118861753D01*
X155286462Y-118951985D01*
X155250714Y-118987733D01*
X155046656Y-119293128D01*
X154950806Y-119775000D01*
X155046656Y-120256872D01*
X155260324Y-120576650D01*
X155196673Y-120640302D01*
X155100000Y-120873691D01*
X155100000Y-121239250D01*
X155258750Y-121398000D01*
X156083000Y-121398000D01*
X156083000Y-121378000D01*
X156337000Y-121378000D01*
X156337000Y-121398000D01*
X157161250Y-121398000D01*
X157320000Y-121239250D01*
X157320000Y-120873691D01*
X157223327Y-120640302D01*
X157157289Y-120574264D01*
X158281971Y-119449583D01*
X158385084Y-119380685D01*
X158408928Y-119345000D01*
X160716636Y-119345000D01*
X160905462Y-119307440D01*
X162895000Y-119307440D01*
X163009701Y-119284625D01*
X163009701Y-120528359D01*
X162985505Y-120650000D01*
X163081356Y-121131873D01*
X163354315Y-121540385D01*
X163762827Y-121813344D01*
X164123064Y-121885000D01*
X164244700Y-121909195D01*
X164366335Y-121885000D01*
X164397560Y-121885000D01*
X164397560Y-126050000D01*
X164446843Y-126297765D01*
X164587191Y-126507809D01*
X164797235Y-126648157D01*
X165045000Y-126697440D01*
X174290001Y-126697440D01*
X174290001Y-132949413D01*
X174231197Y-133360027D01*
X174080661Y-133691112D01*
X173843251Y-133966639D01*
X173538056Y-134164456D01*
X173166083Y-134275700D01*
X172973652Y-134290000D01*
X127050580Y-134290000D01*
X126639973Y-134231197D01*
X126308888Y-134080661D01*
X126033361Y-133843251D01*
X125835544Y-133538056D01*
X125724300Y-133166083D01*
X125709999Y-132973638D01*
X125709999Y-105464600D01*
X126170512Y-105464600D01*
X126185401Y-105539452D01*
X126185400Y-109540953D01*
X126170512Y-109615800D01*
X126185400Y-109690647D01*
X126185400Y-109690651D01*
X126229496Y-109912336D01*
X126397471Y-110163728D01*
X126460927Y-110206128D01*
X126974158Y-110719360D01*
X126746161Y-111060582D01*
X126630908Y-111640000D01*
X126746161Y-112219418D01*
X127074375Y-112710625D01*
X127342829Y-112890000D01*
X127074375Y-113069375D01*
X126746161Y-113560582D01*
X126630908Y-114140000D01*
X126746161Y-114719418D01*
X127074375Y-115210625D01*
X127209551Y-115300947D01*
X126590228Y-115920271D01*
X126526772Y-115962671D01*
X126484372Y-116026127D01*
X126484371Y-116026128D01*
X126358797Y-116214063D01*
X126299812Y-116510600D01*
X126314701Y-116585452D01*
X126314700Y-131710653D01*
X126299812Y-131785500D01*
X126314700Y-131860347D01*
X126314700Y-131860351D01*
X126358796Y-132082036D01*
X126526771Y-132333428D01*
X126590227Y-132375828D01*
X127626771Y-133412373D01*
X127669171Y-133475829D01*
X127920563Y-133643804D01*
X128142248Y-133687900D01*
X128142252Y-133687900D01*
X128217100Y-133702788D01*
X128291948Y-133687900D01*
X131090860Y-133687900D01*
X131213848Y-133770078D01*
X131552500Y-133837440D01*
X132127500Y-133837440D01*
X132466152Y-133770078D01*
X132715000Y-133603803D01*
X132963848Y-133770078D01*
X133302500Y-133837440D01*
X133877500Y-133837440D01*
X134216152Y-133770078D01*
X134503247Y-133578247D01*
X134695078Y-133291152D01*
X134762440Y-132952500D01*
X134762440Y-132477500D01*
X134695078Y-132138848D01*
X134503247Y-131851753D01*
X134216152Y-131659922D01*
X133877500Y-131592560D01*
X133542362Y-131592560D01*
X133233521Y-131283719D01*
X133302500Y-131297440D01*
X133877500Y-131297440D01*
X134216152Y-131230078D01*
X134503247Y-131038247D01*
X134572235Y-130935000D01*
X134877560Y-130935000D01*
X134877560Y-131065000D01*
X134926843Y-131312765D01*
X135015200Y-131445000D01*
X134926843Y-131577235D01*
X134877560Y-131825000D01*
X134877560Y-133605000D01*
X134926843Y-133852765D01*
X135067191Y-134062809D01*
X135277235Y-134203157D01*
X135525000Y-134252440D01*
X137525000Y-134252440D01*
X137772765Y-134203157D01*
X137982809Y-134062809D01*
X138123157Y-133852765D01*
X138172440Y-133605000D01*
X138172440Y-133000750D01*
X142510000Y-133000750D01*
X142510000Y-133731310D01*
X142606673Y-133964699D01*
X142785302Y-134143327D01*
X143018691Y-134240000D01*
X143859250Y-134240000D01*
X144018000Y-134081250D01*
X144018000Y-132842000D01*
X144272000Y-132842000D01*
X144272000Y-134081250D01*
X144430750Y-134240000D01*
X145271309Y-134240000D01*
X145504698Y-134143327D01*
X145683327Y-133964699D01*
X145780000Y-133731310D01*
X145780000Y-133000750D01*
X145621250Y-132842000D01*
X144272000Y-132842000D01*
X144018000Y-132842000D01*
X142668750Y-132842000D01*
X142510000Y-133000750D01*
X138172440Y-133000750D01*
X138172440Y-131993585D01*
X138178731Y-131984170D01*
X138334872Y-131828029D01*
X138398328Y-131785629D01*
X138442164Y-131720025D01*
X138566303Y-131534237D01*
X138625288Y-131237700D01*
X138610399Y-131162848D01*
X138610400Y-111444748D01*
X138625288Y-111369900D01*
X138610400Y-111295052D01*
X138610400Y-111295049D01*
X138581548Y-111150000D01*
X138566304Y-111073362D01*
X138440729Y-110885427D01*
X138440727Y-110885425D01*
X138398329Y-110821972D01*
X138334876Y-110779574D01*
X133710831Y-106155530D01*
X133668429Y-106092071D01*
X133417037Y-105924096D01*
X133195352Y-105880000D01*
X133195347Y-105880000D01*
X133120500Y-105865112D01*
X133045653Y-105880000D01*
X129673178Y-105880000D01*
X129465625Y-105569375D01*
X129401844Y-105526758D01*
X129629586Y-105374586D01*
X129824126Y-105083435D01*
X129892440Y-104740000D01*
X129892440Y-103540000D01*
X129824126Y-103196565D01*
X129629586Y-102905414D01*
X129338435Y-102710874D01*
X128995000Y-102642560D01*
X127545000Y-102642560D01*
X127201565Y-102710874D01*
X126910414Y-102905414D01*
X126715874Y-103196565D01*
X126647560Y-103540000D01*
X126647560Y-104687639D01*
X126460928Y-104874271D01*
X126397472Y-104916671D01*
X126355072Y-104980127D01*
X126355071Y-104980128D01*
X126229497Y-105168063D01*
X126170512Y-105464600D01*
X125709999Y-105464600D01*
X125709999Y-96763970D01*
X127570635Y-96763970D01*
X127730418Y-97082739D01*
X128521187Y-97392723D01*
X129370387Y-97376497D01*
X130079582Y-97082739D01*
X130239365Y-96763970D01*
X128905000Y-95429605D01*
X127570635Y-96763970D01*
X125709999Y-96763970D01*
X125709999Y-94866187D01*
X126762277Y-94866187D01*
X126778503Y-95715387D01*
X127072261Y-96424582D01*
X127391030Y-96584365D01*
X128725395Y-95250000D01*
X129084605Y-95250000D01*
X130418970Y-96584365D01*
X130737739Y-96424582D01*
X131047723Y-95633813D01*
X131036091Y-95025000D01*
X133752560Y-95025000D01*
X133752560Y-96225000D01*
X133801843Y-96472765D01*
X133942191Y-96682809D01*
X134152235Y-96823157D01*
X134400000Y-96872440D01*
X134740001Y-96872440D01*
X134740001Y-97325148D01*
X134725112Y-97400000D01*
X134784097Y-97696537D01*
X134904727Y-97877072D01*
X134952072Y-97947929D01*
X135015528Y-97990329D01*
X135111897Y-98086698D01*
X135090000Y-98139561D01*
X135090000Y-98710439D01*
X135308466Y-99237862D01*
X135712138Y-99641534D01*
X135765001Y-99663430D01*
X135765000Y-101034853D01*
X135750112Y-101109700D01*
X135765000Y-101184547D01*
X135765000Y-101184551D01*
X135809096Y-101406236D01*
X135977071Y-101657628D01*
X136040527Y-101700028D01*
X136567463Y-102226964D01*
X136537191Y-102247191D01*
X136396843Y-102457235D01*
X136347560Y-102705000D01*
X136347560Y-104305000D01*
X136396843Y-104552765D01*
X136537191Y-104762809D01*
X136747235Y-104903157D01*
X136995000Y-104952440D01*
X138595000Y-104952440D01*
X138842765Y-104903157D01*
X139052809Y-104762809D01*
X139193157Y-104552765D01*
X139201117Y-104512745D01*
X139466861Y-104512745D01*
X139540995Y-104758864D01*
X140078223Y-104951965D01*
X140648454Y-104924778D01*
X141049005Y-104758864D01*
X141123139Y-104512745D01*
X140295000Y-103684605D01*
X139466861Y-104512745D01*
X139201117Y-104512745D01*
X139239693Y-104318813D01*
X139287255Y-104333139D01*
X140115395Y-103505000D01*
X140474605Y-103505000D01*
X141302745Y-104333139D01*
X141548864Y-104259005D01*
X141741965Y-103721777D01*
X141714778Y-103151546D01*
X141548864Y-102750995D01*
X141302745Y-102676861D01*
X140474605Y-103505000D01*
X140115395Y-103505000D01*
X139287255Y-102676861D01*
X139239693Y-102691187D01*
X139201118Y-102497255D01*
X139466861Y-102497255D01*
X140295000Y-103325395D01*
X141123139Y-102497255D01*
X141049005Y-102251136D01*
X140511777Y-102058035D01*
X139941546Y-102085222D01*
X139540995Y-102251136D01*
X139466861Y-102497255D01*
X139201118Y-102497255D01*
X139193157Y-102457235D01*
X139052809Y-102247191D01*
X138842765Y-102106843D01*
X138595000Y-102057560D01*
X138493796Y-102057560D01*
X138385329Y-101895227D01*
X138385327Y-101895225D01*
X138342929Y-101831772D01*
X138279476Y-101789374D01*
X137284999Y-100794898D01*
X137285000Y-99663430D01*
X137337862Y-99641534D01*
X137546651Y-99432745D01*
X140696861Y-99432745D01*
X140770995Y-99678864D01*
X141308223Y-99871965D01*
X141878454Y-99844778D01*
X142279005Y-99678864D01*
X142353139Y-99432745D01*
X141525000Y-98604605D01*
X140696861Y-99432745D01*
X137546651Y-99432745D01*
X137741534Y-99237862D01*
X137960000Y-98710439D01*
X137960000Y-98208223D01*
X140078035Y-98208223D01*
X140105222Y-98778454D01*
X140271136Y-99179005D01*
X140517255Y-99253139D01*
X141345395Y-98425000D01*
X141704605Y-98425000D01*
X142532745Y-99253139D01*
X142778864Y-99179005D01*
X142971965Y-98641777D01*
X142944778Y-98071546D01*
X142778864Y-97670995D01*
X142532745Y-97596861D01*
X141704605Y-98425000D01*
X141345395Y-98425000D01*
X140517255Y-97596861D01*
X140271136Y-97670995D01*
X140078035Y-98208223D01*
X137960000Y-98208223D01*
X137960000Y-98139561D01*
X137741534Y-97612138D01*
X137546651Y-97417255D01*
X140696861Y-97417255D01*
X141525000Y-98245395D01*
X142353139Y-97417255D01*
X142279005Y-97171136D01*
X141741777Y-96978035D01*
X141171546Y-97005222D01*
X140770995Y-97171136D01*
X140696861Y-97417255D01*
X137546651Y-97417255D01*
X137337862Y-97208466D01*
X136810439Y-96990000D01*
X136260000Y-96990000D01*
X136260000Y-96872440D01*
X136600000Y-96872440D01*
X136847765Y-96823157D01*
X137057809Y-96682809D01*
X137198157Y-96472765D01*
X137247440Y-96225000D01*
X137247440Y-95025000D01*
X137198157Y-94777235D01*
X137057809Y-94567191D01*
X136847765Y-94426843D01*
X136600000Y-94377560D01*
X134400000Y-94377560D01*
X134152235Y-94426843D01*
X133942191Y-94567191D01*
X133801843Y-94777235D01*
X133752560Y-95025000D01*
X131036091Y-95025000D01*
X131031497Y-94784613D01*
X130737739Y-94075418D01*
X130418970Y-93915635D01*
X129084605Y-95250000D01*
X128725395Y-95250000D01*
X127391030Y-93915635D01*
X127072261Y-94075418D01*
X126762277Y-94866187D01*
X125709999Y-94866187D01*
X125709999Y-93736030D01*
X127570635Y-93736030D01*
X128905000Y-95070395D01*
X130239365Y-93736030D01*
X130186594Y-93630750D01*
X137965000Y-93630750D01*
X137965000Y-96371310D01*
X138061673Y-96604699D01*
X138240302Y-96783327D01*
X138473691Y-96880000D01*
X141514250Y-96880000D01*
X141673000Y-96721250D01*
X141673000Y-93472000D01*
X138123750Y-93472000D01*
X137965000Y-93630750D01*
X130186594Y-93630750D01*
X130079582Y-93417261D01*
X129288813Y-93107277D01*
X128439613Y-93123503D01*
X127730418Y-93417261D01*
X127570635Y-93736030D01*
X125709999Y-93736030D01*
X125709999Y-88670000D01*
X126757560Y-88670000D01*
X126757560Y-91670000D01*
X126806843Y-91917765D01*
X126947191Y-92127809D01*
X127157235Y-92268157D01*
X127405000Y-92317440D01*
X130405000Y-92317440D01*
X130652765Y-92268157D01*
X130862809Y-92127809D01*
X131003157Y-91917765D01*
X131052440Y-91670000D01*
X131052440Y-91554841D01*
X131278464Y-91599800D01*
X131278468Y-91599800D01*
X131400100Y-91623994D01*
X131521732Y-91599800D01*
X133752560Y-91599800D01*
X133752560Y-91665000D01*
X133801843Y-91912765D01*
X133942191Y-92122809D01*
X134152235Y-92263157D01*
X134400000Y-92312440D01*
X135440905Y-92312440D01*
X135500000Y-92324195D01*
X135559096Y-92312440D01*
X136600000Y-92312440D01*
X136847765Y-92263157D01*
X137057809Y-92122809D01*
X137198157Y-91912765D01*
X137247440Y-91665000D01*
X137247440Y-90465000D01*
X137218338Y-90318690D01*
X137965000Y-90318690D01*
X137965000Y-93059250D01*
X138123750Y-93218000D01*
X141673000Y-93218000D01*
X141673000Y-89968750D01*
X141514250Y-89810000D01*
X138473691Y-89810000D01*
X138240302Y-89906673D01*
X138061673Y-90085301D01*
X137965000Y-90318690D01*
X137218338Y-90318690D01*
X137198157Y-90217235D01*
X137057809Y-90007191D01*
X136965645Y-89945609D01*
X137312271Y-89598983D01*
X137415384Y-89530085D01*
X137484282Y-89426972D01*
X137484286Y-89426968D01*
X137587334Y-89272745D01*
X140696861Y-89272745D01*
X140770995Y-89518864D01*
X141308223Y-89711965D01*
X141878454Y-89684778D01*
X142279005Y-89518864D01*
X142353139Y-89272745D01*
X141525000Y-88444605D01*
X140696861Y-89272745D01*
X137587334Y-89272745D01*
X137669257Y-89150139D01*
X137741534Y-89077862D01*
X137960000Y-88550439D01*
X137960000Y-88048223D01*
X140078035Y-88048223D01*
X140105222Y-88618454D01*
X140271136Y-89019005D01*
X140517255Y-89093139D01*
X141345395Y-88265000D01*
X141704605Y-88265000D01*
X142532745Y-89093139D01*
X142778864Y-89019005D01*
X142971965Y-88481777D01*
X142944778Y-87911546D01*
X142778864Y-87510995D01*
X142532745Y-87436861D01*
X141704605Y-88265000D01*
X141345395Y-88265000D01*
X140517255Y-87436861D01*
X140271136Y-87510995D01*
X140078035Y-88048223D01*
X137960000Y-88048223D01*
X137960000Y-87979561D01*
X137741534Y-87452138D01*
X137546651Y-87257255D01*
X140696861Y-87257255D01*
X141525000Y-88085395D01*
X142353139Y-87257255D01*
X142279005Y-87011136D01*
X141741777Y-86818035D01*
X141171546Y-86845222D01*
X140770995Y-87011136D01*
X140696861Y-87257255D01*
X137546651Y-87257255D01*
X137337862Y-87048466D01*
X136810439Y-86830000D01*
X136239561Y-86830000D01*
X135712138Y-87048466D01*
X135308466Y-87452138D01*
X135090000Y-87979561D01*
X135090000Y-88328147D01*
X134712731Y-88705416D01*
X134609616Y-88774315D01*
X134540716Y-88877431D01*
X134540714Y-88877433D01*
X134372088Y-89129800D01*
X131871471Y-89129800D01*
X131687173Y-89006656D01*
X131326936Y-88935000D01*
X131326932Y-88935000D01*
X131205300Y-88910806D01*
X131083668Y-88935000D01*
X131052440Y-88935000D01*
X131052440Y-88670000D01*
X131003157Y-88422235D01*
X130862809Y-88212191D01*
X130652765Y-88071843D01*
X130405000Y-88022560D01*
X127405000Y-88022560D01*
X127157235Y-88071843D01*
X126947191Y-88212191D01*
X126806843Y-88422235D01*
X126757560Y-88670000D01*
X125709999Y-88670000D01*
X125709999Y-84665322D01*
X126770000Y-84665322D01*
X126770000Y-85514678D01*
X127095034Y-86299380D01*
X127695620Y-86899966D01*
X128480322Y-87225000D01*
X129329678Y-87225000D01*
X130114380Y-86899966D01*
X130714966Y-86299380D01*
X131040000Y-85514678D01*
X131040000Y-84665322D01*
X130714966Y-83880620D01*
X130114380Y-83280034D01*
X129329678Y-82955000D01*
X128480322Y-82955000D01*
X127695620Y-83280034D01*
X127095034Y-83880620D01*
X126770000Y-84665322D01*
X125709999Y-84665322D01*
X125709999Y-78510000D01*
X126757560Y-78510000D01*
X126757560Y-81510000D01*
X126806843Y-81757765D01*
X126947191Y-81967809D01*
X127157235Y-82108157D01*
X127405000Y-82157440D01*
X130405000Y-82157440D01*
X130652765Y-82108157D01*
X130862809Y-81967809D01*
X131003157Y-81757765D01*
X131052440Y-81510000D01*
X131052440Y-78510000D01*
X131003157Y-78262235D01*
X130862809Y-78052191D01*
X130652765Y-77911843D01*
X130405000Y-77862560D01*
X127405000Y-77862560D01*
X127157235Y-77911843D01*
X126947191Y-78052191D01*
X126806843Y-78262235D01*
X126757560Y-78510000D01*
X125709999Y-78510000D01*
X125709999Y-69000000D01*
X126670000Y-69000000D01*
X126784038Y-69720010D01*
X127114990Y-70369540D01*
X127630460Y-70885010D01*
X128279990Y-71215962D01*
X129000000Y-71330000D01*
X129720010Y-71215962D01*
X130369540Y-70885010D01*
X130885010Y-70369540D01*
X131215962Y-69720010D01*
X131330000Y-69000000D01*
X168670000Y-69000000D01*
X168784038Y-69720010D01*
X169114990Y-70369540D01*
X169630460Y-70885010D01*
X170279990Y-71215962D01*
X171000000Y-71330000D01*
X171720010Y-71215962D01*
X172369540Y-70885010D01*
X172885010Y-70369540D01*
X173215962Y-69720010D01*
X173330000Y-69000000D01*
X173215962Y-68279990D01*
X172885010Y-67630460D01*
X172369540Y-67114990D01*
X171720010Y-66784038D01*
X171000000Y-66670000D01*
X170279990Y-66784038D01*
X169630460Y-67114990D01*
X169114990Y-67630460D01*
X168784038Y-68279990D01*
X168670000Y-69000000D01*
X131330000Y-69000000D01*
X131215962Y-68279990D01*
X130885010Y-67630460D01*
X130369540Y-67114990D01*
X129720010Y-66784038D01*
X129000000Y-66670000D01*
X128279990Y-66784038D01*
X127630460Y-67114990D01*
X127114990Y-67630460D01*
X126784038Y-68279990D01*
X126670000Y-69000000D01*
X125709999Y-69000000D01*
X125710000Y-67050580D01*
X125768803Y-66639973D01*
X125919338Y-66308890D01*
X126156749Y-66033361D01*
X126461944Y-65835544D01*
X126833917Y-65724300D01*
X127026348Y-65710000D01*
X172949420Y-65710000D01*
X173360027Y-65768803D01*
G36*
X149987560Y-80447362D02*
X149987560Y-81270000D01*
X150055874Y-81613435D01*
X150250414Y-81904586D01*
X150541565Y-82099126D01*
X150699700Y-82130581D01*
X150699700Y-83110148D01*
X150684811Y-83185000D01*
X150743796Y-83481537D01*
X150911771Y-83732929D01*
X151163163Y-83900904D01*
X151187799Y-83905804D01*
X151186843Y-83907235D01*
X151137560Y-84155000D01*
X151137560Y-84755000D01*
X151186843Y-85002765D01*
X151245132Y-85090000D01*
X151186843Y-85177235D01*
X151137560Y-85425000D01*
X151137560Y-86025000D01*
X151186843Y-86272765D01*
X151245132Y-86360000D01*
X151186843Y-86447235D01*
X151137560Y-86695000D01*
X151137560Y-87295000D01*
X151186843Y-87542765D01*
X151327191Y-87752809D01*
X151537235Y-87893157D01*
X151785000Y-87942440D01*
X153335000Y-87942440D01*
X153500099Y-87909600D01*
X154162560Y-88572062D01*
X154162560Y-88756500D01*
X154229922Y-89095152D01*
X154421753Y-89382247D01*
X154708848Y-89574078D01*
X155047500Y-89641440D01*
X155622500Y-89641440D01*
X155961152Y-89574078D01*
X156210000Y-89407803D01*
X156259700Y-89441012D01*
X156259701Y-90038745D01*
X155436985Y-90861462D01*
X155346753Y-90921753D01*
X155286462Y-91011985D01*
X155250714Y-91047733D01*
X155046656Y-91353128D01*
X154950806Y-91835000D01*
X155046656Y-92316872D01*
X155260324Y-92636650D01*
X155196673Y-92700302D01*
X155100000Y-92933691D01*
X155100000Y-93299250D01*
X155258750Y-93458000D01*
X156083000Y-93458000D01*
X156083000Y-93438000D01*
X156337000Y-93438000D01*
X156337000Y-93458000D01*
X157161250Y-93458000D01*
X157320000Y-93299250D01*
X157320000Y-92933691D01*
X157223327Y-92700302D01*
X157157289Y-92634264D01*
X158281971Y-91509583D01*
X158385084Y-91440685D01*
X158408928Y-91405000D01*
X160716636Y-91405000D01*
X160905462Y-91367440D01*
X162895000Y-91367440D01*
X163009700Y-91344625D01*
X163009700Y-94065000D01*
X160880750Y-94065000D01*
X160722000Y-94223750D01*
X160722000Y-95123000D01*
X160742000Y-95123000D01*
X160742000Y-95377000D01*
X160722000Y-95377000D01*
X160722000Y-96276250D01*
X160880750Y-96435000D01*
X163009700Y-96435000D01*
X163009700Y-101058068D01*
X162985506Y-101179700D01*
X163009700Y-101301332D01*
X163009700Y-101301335D01*
X163050132Y-101504600D01*
X156963032Y-101504600D01*
X156841400Y-101480406D01*
X156719768Y-101504600D01*
X156719764Y-101504600D01*
X156359527Y-101576256D01*
X155951015Y-101849215D01*
X155882113Y-101952334D01*
X153659447Y-104175000D01*
X153088281Y-104175000D01*
X152605439Y-103975000D01*
X152034561Y-103975000D01*
X151507138Y-104193466D01*
X151103466Y-104597138D01*
X150885000Y-105124561D01*
X150885000Y-105695439D01*
X151103466Y-106222862D01*
X151507138Y-106626534D01*
X152034561Y-106845000D01*
X152605439Y-106845000D01*
X153088281Y-106645000D01*
X153540431Y-106645000D01*
X154997604Y-108102253D01*
X155066515Y-108205385D01*
X155280454Y-108348334D01*
X155474995Y-108478330D01*
X155475011Y-108478333D01*
X155475027Y-108478344D01*
X155746403Y-108532324D01*
X155956865Y-108574194D01*
X156078513Y-108550000D01*
X156251201Y-108550000D01*
X156251200Y-110145668D01*
X156210000Y-110173197D01*
X155961152Y-110006922D01*
X155622500Y-109939560D01*
X155047500Y-109939560D01*
X154708848Y-110006922D01*
X154421753Y-110198753D01*
X154229922Y-110485848D01*
X154162560Y-110824500D01*
X154162560Y-111159638D01*
X153982440Y-111339759D01*
X153982440Y-110825000D01*
X153933157Y-110577235D01*
X153792809Y-110367191D01*
X153582765Y-110226843D01*
X153335000Y-110177560D01*
X152219699Y-110177560D01*
X152219700Y-109877919D01*
X152269586Y-109844586D01*
X152464126Y-109553435D01*
X152532440Y-109210000D01*
X152532440Y-107960000D01*
X152464126Y-107616565D01*
X152269586Y-107325414D01*
X151978435Y-107130874D01*
X151635000Y-107062560D01*
X150885000Y-107062560D01*
X150824413Y-107074612D01*
X148675331Y-104925530D01*
X148668037Y-104914613D01*
X148536534Y-104597138D01*
X148132862Y-104193466D01*
X147605439Y-103975000D01*
X147034561Y-103975000D01*
X146819699Y-104063999D01*
X146819699Y-95535750D01*
X157660000Y-95535750D01*
X157660000Y-95926310D01*
X157756673Y-96159699D01*
X157935302Y-96338327D01*
X158168691Y-96435000D01*
X160309250Y-96435000D01*
X160468000Y-96276250D01*
X160468000Y-95377000D01*
X157818750Y-95377000D01*
X157660000Y-95535750D01*
X146819699Y-95535750D01*
X146819699Y-93870750D01*
X155100000Y-93870750D01*
X155100000Y-94236309D01*
X155196673Y-94469698D01*
X155375301Y-94648327D01*
X155608690Y-94745000D01*
X155924250Y-94745000D01*
X156083000Y-94586250D01*
X156083000Y-93712000D01*
X156337000Y-93712000D01*
X156337000Y-94586250D01*
X156495750Y-94745000D01*
X156811310Y-94745000D01*
X157044699Y-94648327D01*
X157119335Y-94573690D01*
X157660000Y-94573690D01*
X157660000Y-94964250D01*
X157818750Y-95123000D01*
X160468000Y-95123000D01*
X160468000Y-94223750D01*
X160309250Y-94065000D01*
X158168691Y-94065000D01*
X157935302Y-94161673D01*
X157756673Y-94340301D01*
X157660000Y-94573690D01*
X157119335Y-94573690D01*
X157223327Y-94469698D01*
X157320000Y-94236309D01*
X157320000Y-93870750D01*
X157161250Y-93712000D01*
X156337000Y-93712000D01*
X156083000Y-93712000D01*
X155258750Y-93712000D01*
X155100000Y-93870750D01*
X146819699Y-93870750D01*
X146819700Y-91486300D01*
X147183223Y-91616965D01*
X147753454Y-91589778D01*
X148154005Y-91423864D01*
X148228139Y-91177745D01*
X147400000Y-90349605D01*
X147385858Y-90363748D01*
X147206253Y-90184143D01*
X147220395Y-90170000D01*
X147579605Y-90170000D01*
X148407745Y-90998139D01*
X148653864Y-90924005D01*
X148846965Y-90386777D01*
X148819778Y-89816546D01*
X148653864Y-89415995D01*
X148407745Y-89341861D01*
X147579605Y-90170000D01*
X147220395Y-90170000D01*
X147206253Y-90155858D01*
X147385858Y-89976252D01*
X147400000Y-89990395D01*
X148228139Y-89162255D01*
X148154005Y-88916136D01*
X147616777Y-88723035D01*
X147046546Y-88750222D01*
X146819700Y-88844185D01*
X146819700Y-87930000D01*
X146874250Y-87930000D01*
X147033000Y-87771250D01*
X147033000Y-87122000D01*
X147287000Y-87122000D01*
X147287000Y-87771250D01*
X147445750Y-87930000D01*
X148061309Y-87930000D01*
X148294698Y-87833327D01*
X148473327Y-87654699D01*
X148570000Y-87421310D01*
X148570000Y-87280750D01*
X148411250Y-87122000D01*
X147287000Y-87122000D01*
X147033000Y-87122000D01*
X147013000Y-87122000D01*
X147013000Y-86868000D01*
X147033000Y-86868000D01*
X147033000Y-86848000D01*
X147287000Y-86848000D01*
X147287000Y-86868000D01*
X148411250Y-86868000D01*
X148570000Y-86709250D01*
X148570000Y-86568690D01*
X148480232Y-86351972D01*
X148533157Y-86272765D01*
X148582440Y-86025000D01*
X148582440Y-85425000D01*
X148533157Y-85177235D01*
X148474868Y-85090000D01*
X148533157Y-85002765D01*
X148582440Y-84755000D01*
X148582440Y-84581942D01*
X149090400Y-85089902D01*
X149090401Y-87545548D01*
X149075512Y-87620400D01*
X149134497Y-87916937D01*
X149222220Y-88048223D01*
X149302472Y-88168329D01*
X149365928Y-88210729D01*
X150986897Y-89831698D01*
X150965000Y-89884561D01*
X150965000Y-90455439D01*
X151183466Y-90982862D01*
X151587138Y-91386534D01*
X152114561Y-91605000D01*
X152685439Y-91605000D01*
X153212862Y-91386534D01*
X153616534Y-90982862D01*
X153835000Y-90455439D01*
X153835000Y-89884561D01*
X153616534Y-89357138D01*
X153212862Y-88953466D01*
X152685439Y-88735000D01*
X152114561Y-88735000D01*
X152061698Y-88756897D01*
X150610400Y-87305599D01*
X150610399Y-84849952D01*
X150625288Y-84775100D01*
X150566303Y-84478562D01*
X150440729Y-84290627D01*
X150440726Y-84290624D01*
X150398328Y-84227171D01*
X150334875Y-84184773D01*
X149218383Y-83068281D01*
X149220000Y-83060151D01*
X149220000Y-83060148D01*
X149234888Y-82985301D01*
X149220000Y-82910454D01*
X149220000Y-82071354D01*
X149469586Y-81904586D01*
X149664126Y-81613435D01*
X149732440Y-81270000D01*
X149732440Y-80192242D01*
X149987560Y-80447362D01*
X149987560Y-80447362D01*
G37*
X149987560Y-80447362D02*
X149987560Y-81270000D01*
X150055874Y-81613435D01*
X150250414Y-81904586D01*
X150541565Y-82099126D01*
X150699700Y-82130581D01*
X150699700Y-83110148D01*
X150684811Y-83185000D01*
X150743796Y-83481537D01*
X150911771Y-83732929D01*
X151163163Y-83900904D01*
X151187799Y-83905804D01*
X151186843Y-83907235D01*
X151137560Y-84155000D01*
X151137560Y-84755000D01*
X151186843Y-85002765D01*
X151245132Y-85090000D01*
X151186843Y-85177235D01*
X151137560Y-85425000D01*
X151137560Y-86025000D01*
X151186843Y-86272765D01*
X151245132Y-86360000D01*
X151186843Y-86447235D01*
X151137560Y-86695000D01*
X151137560Y-87295000D01*
X151186843Y-87542765D01*
X151327191Y-87752809D01*
X151537235Y-87893157D01*
X151785000Y-87942440D01*
X153335000Y-87942440D01*
X153500099Y-87909600D01*
X154162560Y-88572062D01*
X154162560Y-88756500D01*
X154229922Y-89095152D01*
X154421753Y-89382247D01*
X154708848Y-89574078D01*
X155047500Y-89641440D01*
X155622500Y-89641440D01*
X155961152Y-89574078D01*
X156210000Y-89407803D01*
X156259700Y-89441012D01*
X156259701Y-90038745D01*
X155436985Y-90861462D01*
X155346753Y-90921753D01*
X155286462Y-91011985D01*
X155250714Y-91047733D01*
X155046656Y-91353128D01*
X154950806Y-91835000D01*
X155046656Y-92316872D01*
X155260324Y-92636650D01*
X155196673Y-92700302D01*
X155100000Y-92933691D01*
X155100000Y-93299250D01*
X155258750Y-93458000D01*
X156083000Y-93458000D01*
X156083000Y-93438000D01*
X156337000Y-93438000D01*
X156337000Y-93458000D01*
X157161250Y-93458000D01*
X157320000Y-93299250D01*
X157320000Y-92933691D01*
X157223327Y-92700302D01*
X157157289Y-92634264D01*
X158281971Y-91509583D01*
X158385084Y-91440685D01*
X158408928Y-91405000D01*
X160716636Y-91405000D01*
X160905462Y-91367440D01*
X162895000Y-91367440D01*
X163009700Y-91344625D01*
X163009700Y-94065000D01*
X160880750Y-94065000D01*
X160722000Y-94223750D01*
X160722000Y-95123000D01*
X160742000Y-95123000D01*
X160742000Y-95377000D01*
X160722000Y-95377000D01*
X160722000Y-96276250D01*
X160880750Y-96435000D01*
X163009700Y-96435000D01*
X163009700Y-101058068D01*
X162985506Y-101179700D01*
X163009700Y-101301332D01*
X163009700Y-101301335D01*
X163050132Y-101504600D01*
X156963032Y-101504600D01*
X156841400Y-101480406D01*
X156719768Y-101504600D01*
X156719764Y-101504600D01*
X156359527Y-101576256D01*
X155951015Y-101849215D01*
X155882113Y-101952334D01*
X153659447Y-104175000D01*
X153088281Y-104175000D01*
X152605439Y-103975000D01*
X152034561Y-103975000D01*
X151507138Y-104193466D01*
X151103466Y-104597138D01*
X150885000Y-105124561D01*
X150885000Y-105695439D01*
X151103466Y-106222862D01*
X151507138Y-106626534D01*
X152034561Y-106845000D01*
X152605439Y-106845000D01*
X153088281Y-106645000D01*
X153540431Y-106645000D01*
X154997604Y-108102253D01*
X155066515Y-108205385D01*
X155280454Y-108348334D01*
X155474995Y-108478330D01*
X155475011Y-108478333D01*
X155475027Y-108478344D01*
X155746403Y-108532324D01*
X155956865Y-108574194D01*
X156078513Y-108550000D01*
X156251201Y-108550000D01*
X156251200Y-110145668D01*
X156210000Y-110173197D01*
X155961152Y-110006922D01*
X155622500Y-109939560D01*
X155047500Y-109939560D01*
X154708848Y-110006922D01*
X154421753Y-110198753D01*
X154229922Y-110485848D01*
X154162560Y-110824500D01*
X154162560Y-111159638D01*
X153982440Y-111339759D01*
X153982440Y-110825000D01*
X153933157Y-110577235D01*
X153792809Y-110367191D01*
X153582765Y-110226843D01*
X153335000Y-110177560D01*
X152219699Y-110177560D01*
X152219700Y-109877919D01*
X152269586Y-109844586D01*
X152464126Y-109553435D01*
X152532440Y-109210000D01*
X152532440Y-107960000D01*
X152464126Y-107616565D01*
X152269586Y-107325414D01*
X151978435Y-107130874D01*
X151635000Y-107062560D01*
X150885000Y-107062560D01*
X150824413Y-107074612D01*
X148675331Y-104925530D01*
X148668037Y-104914613D01*
X148536534Y-104597138D01*
X148132862Y-104193466D01*
X147605439Y-103975000D01*
X147034561Y-103975000D01*
X146819699Y-104063999D01*
X146819699Y-95535750D01*
X157660000Y-95535750D01*
X157660000Y-95926310D01*
X157756673Y-96159699D01*
X157935302Y-96338327D01*
X158168691Y-96435000D01*
X160309250Y-96435000D01*
X160468000Y-96276250D01*
X160468000Y-95377000D01*
X157818750Y-95377000D01*
X157660000Y-95535750D01*
X146819699Y-95535750D01*
X146819699Y-93870750D01*
X155100000Y-93870750D01*
X155100000Y-94236309D01*
X155196673Y-94469698D01*
X155375301Y-94648327D01*
X155608690Y-94745000D01*
X155924250Y-94745000D01*
X156083000Y-94586250D01*
X156083000Y-93712000D01*
X156337000Y-93712000D01*
X156337000Y-94586250D01*
X156495750Y-94745000D01*
X156811310Y-94745000D01*
X157044699Y-94648327D01*
X157119335Y-94573690D01*
X157660000Y-94573690D01*
X157660000Y-94964250D01*
X157818750Y-95123000D01*
X160468000Y-95123000D01*
X160468000Y-94223750D01*
X160309250Y-94065000D01*
X158168691Y-94065000D01*
X157935302Y-94161673D01*
X157756673Y-94340301D01*
X157660000Y-94573690D01*
X157119335Y-94573690D01*
X157223327Y-94469698D01*
X157320000Y-94236309D01*
X157320000Y-93870750D01*
X157161250Y-93712000D01*
X156337000Y-93712000D01*
X156083000Y-93712000D01*
X155258750Y-93712000D01*
X155100000Y-93870750D01*
X146819699Y-93870750D01*
X146819700Y-91486300D01*
X147183223Y-91616965D01*
X147753454Y-91589778D01*
X148154005Y-91423864D01*
X148228139Y-91177745D01*
X147400000Y-90349605D01*
X147385858Y-90363748D01*
X147206253Y-90184143D01*
X147220395Y-90170000D01*
X147579605Y-90170000D01*
X148407745Y-90998139D01*
X148653864Y-90924005D01*
X148846965Y-90386777D01*
X148819778Y-89816546D01*
X148653864Y-89415995D01*
X148407745Y-89341861D01*
X147579605Y-90170000D01*
X147220395Y-90170000D01*
X147206253Y-90155858D01*
X147385858Y-89976252D01*
X147400000Y-89990395D01*
X148228139Y-89162255D01*
X148154005Y-88916136D01*
X147616777Y-88723035D01*
X147046546Y-88750222D01*
X146819700Y-88844185D01*
X146819700Y-87930000D01*
X146874250Y-87930000D01*
X147033000Y-87771250D01*
X147033000Y-87122000D01*
X147287000Y-87122000D01*
X147287000Y-87771250D01*
X147445750Y-87930000D01*
X148061309Y-87930000D01*
X148294698Y-87833327D01*
X148473327Y-87654699D01*
X148570000Y-87421310D01*
X148570000Y-87280750D01*
X148411250Y-87122000D01*
X147287000Y-87122000D01*
X147033000Y-87122000D01*
X147013000Y-87122000D01*
X147013000Y-86868000D01*
X147033000Y-86868000D01*
X147033000Y-86848000D01*
X147287000Y-86848000D01*
X147287000Y-86868000D01*
X148411250Y-86868000D01*
X148570000Y-86709250D01*
X148570000Y-86568690D01*
X148480232Y-86351972D01*
X148533157Y-86272765D01*
X148582440Y-86025000D01*
X148582440Y-85425000D01*
X148533157Y-85177235D01*
X148474868Y-85090000D01*
X148533157Y-85002765D01*
X148582440Y-84755000D01*
X148582440Y-84581942D01*
X149090400Y-85089902D01*
X149090401Y-87545548D01*
X149075512Y-87620400D01*
X149134497Y-87916937D01*
X149222220Y-88048223D01*
X149302472Y-88168329D01*
X149365928Y-88210729D01*
X150986897Y-89831698D01*
X150965000Y-89884561D01*
X150965000Y-90455439D01*
X151183466Y-90982862D01*
X151587138Y-91386534D01*
X152114561Y-91605000D01*
X152685439Y-91605000D01*
X153212862Y-91386534D01*
X153616534Y-90982862D01*
X153835000Y-90455439D01*
X153835000Y-89884561D01*
X153616534Y-89357138D01*
X153212862Y-88953466D01*
X152685439Y-88735000D01*
X152114561Y-88735000D01*
X152061698Y-88756897D01*
X150610400Y-87305599D01*
X150610399Y-84849952D01*
X150625288Y-84775100D01*
X150566303Y-84478562D01*
X150440729Y-84290627D01*
X150440726Y-84290624D01*
X150398328Y-84227171D01*
X150334875Y-84184773D01*
X149218383Y-83068281D01*
X149220000Y-83060151D01*
X149220000Y-83060148D01*
X149234888Y-82985301D01*
X149220000Y-82910454D01*
X149220000Y-82071354D01*
X149469586Y-81904586D01*
X149664126Y-81613435D01*
X149732440Y-81270000D01*
X149732440Y-80192242D01*
X149987560Y-80447362D01*
G04 #@! TD*
M02*
