M48
;DRILL file {KiCad 5.0.1-33cea8e~68~ubuntu16.04.1} date 2018年11月24日 10時37分24秒
;FORMAT={3:3/ absolute / metric / suppress leading zeros}
FMAT,2
METRIC,TZ
T1C0.400
T2C0.600
T3C0.800
T4C0.950
T5C1.200
T6C1.520
%
G90
G05
M71
T1
X142705Y-116815
X143254Y-110078
T2
X158485Y-83537
X169745Y-86510
T3
X147320Y-105410
X152320Y-105410
X147400Y-118110
X152400Y-118110
X147320Y-77470
X147400Y-90170
X137795Y-103505
X140295Y-103505
X152320Y-77470
X136525Y-98425
X141525Y-98425
X137795Y-83185
X140295Y-83185
X152400Y-90170
X136525Y-88265
X141525Y-88265
T4
X128270Y-104140
X128270Y-106640
X128270Y-109140
X128270Y-111640
X128270Y-114140
T5
X136525Y-72390
X141525Y-72390
T6
X128905Y-90170
X128905Y-95250
X128905Y-80010
X128905Y-85090
T0
M30
