G04 #@! TF.GenerationSoftware,KiCad,Pcbnew,5.0.1-33cea8e~68~ubuntu16.04.1*
G04 #@! TF.CreationDate,2018-11-23T16:55:50+09:00*
G04 #@! TF.ProjectId,BS2103F_photo,425332313033465F70686F746F2E6B69,rev?*
G04 #@! TF.SameCoordinates,Original*
G04 #@! TF.FileFunction,Copper,L2,Bot,Signal*
G04 #@! TF.FilePolarity,Positive*
%FSLAX46Y46*%
G04 Gerber Fmt 4.6, Leading zero omitted, Abs format (unit mm)*
G04 Created by KiCad (PCBNEW 5.0.1-33cea8e~68~ubuntu16.04.1) date 2018年11月23日 16時55分50秒*
%MOMM*%
%LPD*%
G01*
G04 APERTURE LIST*
G04 #@! TA.AperFunction,ComponentPad*
%ADD10C,1.600000*%
G04 #@! TD*
G04 #@! TA.AperFunction,ComponentPad*
%ADD11R,1.600000X1.600000*%
G04 #@! TD*
G04 #@! TA.AperFunction,ComponentPad*
%ADD12R,2.400000X2.400000*%
G04 #@! TD*
G04 #@! TA.AperFunction,ComponentPad*
%ADD13C,2.400000*%
G04 #@! TD*
G04 #@! TA.AperFunction,ComponentPad*
%ADD14R,3.000000X3.000000*%
G04 #@! TD*
G04 #@! TA.AperFunction,ComponentPad*
%ADD15C,3.000000*%
G04 #@! TD*
G04 #@! TA.AperFunction,Conductor*
%ADD16C,0.100000*%
G04 #@! TD*
G04 #@! TA.AperFunction,ComponentPad*
%ADD17C,1.700000*%
G04 #@! TD*
G04 #@! TA.AperFunction,ComponentPad*
%ADD18O,1.950000X1.700000*%
G04 #@! TD*
G04 #@! TA.AperFunction,ViaPad*
%ADD19C,0.800000*%
G04 #@! TD*
G04 #@! TA.AperFunction,ViaPad*
%ADD20C,1.000000*%
G04 #@! TD*
G04 #@! TA.AperFunction,Conductor*
%ADD21C,1.200000*%
G04 #@! TD*
G04 #@! TA.AperFunction,Conductor*
%ADD22C,0.250000*%
G04 #@! TD*
G04 #@! TA.AperFunction,Conductor*
%ADD23C,0.254000*%
G04 #@! TD*
G04 APERTURE END LIST*
D10*
G04 #@! TO.P,C1,2*
G04 #@! TO.N,GND*
X140295000Y-83185000D03*
D11*
G04 #@! TO.P,C1,1*
G04 #@! TO.N,24V*
X137795000Y-83185000D03*
G04 #@! TD*
D10*
G04 #@! TO.P,C2,2*
G04 #@! TO.N,GND*
X141525000Y-88265000D03*
G04 #@! TO.P,C2,1*
G04 #@! TO.N,24V*
X136525000Y-88265000D03*
G04 #@! TD*
G04 #@! TO.P,C3,1*
G04 #@! TO.N,Net-(C3-Pad1)*
X136525000Y-98425000D03*
G04 #@! TO.P,C3,2*
G04 #@! TO.N,GND*
X141525000Y-98425000D03*
G04 #@! TD*
D11*
G04 #@! TO.P,C4,1*
G04 #@! TO.N,Net-(C3-Pad1)*
X137795000Y-103505000D03*
D10*
G04 #@! TO.P,C4,2*
G04 #@! TO.N,GND*
X140295000Y-103505000D03*
G04 #@! TD*
G04 #@! TO.P,C5,1*
G04 #@! TO.N,Net-(C3-Pad1)*
X152400000Y-90170000D03*
G04 #@! TO.P,C5,2*
G04 #@! TO.N,GND*
X147400000Y-90170000D03*
G04 #@! TD*
G04 #@! TO.P,C6,2*
G04 #@! TO.N,Motor1*
X152320000Y-77470000D03*
G04 #@! TO.P,C6,1*
G04 #@! TO.N,Net-(C6-Pad1)*
X147320000Y-77470000D03*
G04 #@! TD*
D12*
G04 #@! TO.P,C7,1*
G04 #@! TO.N,24V*
X136525000Y-72390000D03*
D13*
G04 #@! TO.P,C7,2*
G04 #@! TO.N,GND*
X141525000Y-72390000D03*
G04 #@! TD*
D10*
G04 #@! TO.P,C8,1*
G04 #@! TO.N,Net-(C8-Pad1)*
X147320000Y-105410000D03*
G04 #@! TO.P,C8,2*
G04 #@! TO.N,Motor2*
X152320000Y-105410000D03*
G04 #@! TD*
G04 #@! TO.P,C9,2*
G04 #@! TO.N,GND*
X147400000Y-118110000D03*
G04 #@! TO.P,C9,1*
G04 #@! TO.N,Net-(C3-Pad1)*
X152400000Y-118110000D03*
G04 #@! TD*
D14*
G04 #@! TO.P,J1,1*
G04 #@! TO.N,24V*
X128905000Y-90170000D03*
D15*
G04 #@! TO.P,J1,2*
G04 #@! TO.N,GND*
X128905000Y-95250000D03*
G04 #@! TD*
G04 #@! TO.P,J2,2*
G04 #@! TO.N,Motor2*
X128905000Y-85090000D03*
D14*
G04 #@! TO.P,J2,1*
G04 #@! TO.N,Motor1*
X128905000Y-80010000D03*
G04 #@! TD*
D16*
G04 #@! TO.N,5V*
G04 #@! TO.C,J3*
G36*
X129019504Y-103291204D02*
X129043773Y-103294804D01*
X129067571Y-103300765D01*
X129090671Y-103309030D01*
X129112849Y-103319520D01*
X129133893Y-103332133D01*
X129153598Y-103346747D01*
X129171777Y-103363223D01*
X129188253Y-103381402D01*
X129202867Y-103401107D01*
X129215480Y-103422151D01*
X129225970Y-103444329D01*
X129234235Y-103467429D01*
X129240196Y-103491227D01*
X129243796Y-103515496D01*
X129245000Y-103540000D01*
X129245000Y-104740000D01*
X129243796Y-104764504D01*
X129240196Y-104788773D01*
X129234235Y-104812571D01*
X129225970Y-104835671D01*
X129215480Y-104857849D01*
X129202867Y-104878893D01*
X129188253Y-104898598D01*
X129171777Y-104916777D01*
X129153598Y-104933253D01*
X129133893Y-104947867D01*
X129112849Y-104960480D01*
X129090671Y-104970970D01*
X129067571Y-104979235D01*
X129043773Y-104985196D01*
X129019504Y-104988796D01*
X128995000Y-104990000D01*
X127545000Y-104990000D01*
X127520496Y-104988796D01*
X127496227Y-104985196D01*
X127472429Y-104979235D01*
X127449329Y-104970970D01*
X127427151Y-104960480D01*
X127406107Y-104947867D01*
X127386402Y-104933253D01*
X127368223Y-104916777D01*
X127351747Y-104898598D01*
X127337133Y-104878893D01*
X127324520Y-104857849D01*
X127314030Y-104835671D01*
X127305765Y-104812571D01*
X127299804Y-104788773D01*
X127296204Y-104764504D01*
X127295000Y-104740000D01*
X127295000Y-103540000D01*
X127296204Y-103515496D01*
X127299804Y-103491227D01*
X127305765Y-103467429D01*
X127314030Y-103444329D01*
X127324520Y-103422151D01*
X127337133Y-103401107D01*
X127351747Y-103381402D01*
X127368223Y-103363223D01*
X127386402Y-103346747D01*
X127406107Y-103332133D01*
X127427151Y-103319520D01*
X127449329Y-103309030D01*
X127472429Y-103300765D01*
X127496227Y-103294804D01*
X127520496Y-103291204D01*
X127545000Y-103290000D01*
X128995000Y-103290000D01*
X129019504Y-103291204D01*
X129019504Y-103291204D01*
G37*
D17*
G04 #@! TD*
G04 #@! TO.P,J3,1*
G04 #@! TO.N,5V*
X128270000Y-104140000D03*
D18*
G04 #@! TO.P,J3,2*
G04 #@! TO.N,PINGND*
X128270000Y-106640000D03*
G04 #@! TO.P,J3,3*
G04 #@! TO.N,IN1*
X128270000Y-109140000D03*
G04 #@! TO.P,J3,4*
G04 #@! TO.N,IN2*
X128270000Y-111640000D03*
G04 #@! TO.P,J3,5*
G04 #@! TO.N,ShutDown*
X128270000Y-114140000D03*
G04 #@! TD*
D19*
G04 #@! TO.N,Net-(C3-Pad1)*
X142705000Y-116814900D03*
X143253500Y-110078500D03*
D20*
G04 #@! TO.N,Motor1*
X158485400Y-83537000D03*
X169745000Y-86509700D03*
G04 #@! TD*
D21*
G04 #@! TO.N,GND*
X147400000Y-90170000D02*
X143430000Y-90170000D01*
X143430000Y-90170000D02*
X141525000Y-88265000D01*
G04 #@! TO.N,24V*
X136525000Y-88265000D02*
X137795000Y-86995000D01*
X137795000Y-86995000D02*
X137795000Y-83185000D01*
D22*
G04 #@! TO.N,Net-(C3-Pad1)*
X143253500Y-110078500D02*
X143253500Y-116266400D01*
X143253500Y-116266400D02*
X142705000Y-116814900D01*
X149255900Y-110078500D02*
X143253500Y-110078500D01*
X152400000Y-90170000D02*
X153447000Y-91217000D01*
X153447000Y-91217000D02*
X153447000Y-105887400D01*
X153447000Y-105887400D02*
X149255900Y-110078500D01*
X149255900Y-110078500D02*
X152400000Y-113222600D01*
X152400000Y-113222600D02*
X152400000Y-118110000D01*
X137795000Y-103505000D02*
X137795000Y-104630300D01*
X137795000Y-104630300D02*
X137805300Y-104630300D01*
X137805300Y-104630300D02*
X143253500Y-110078500D01*
D21*
G04 #@! TO.N,Motor1*
X152320000Y-77470000D02*
X149780000Y-80010000D01*
X149780000Y-80010000D02*
X131205300Y-80010000D01*
X152320000Y-77470000D02*
X158387000Y-83537000D01*
X158387000Y-83537000D02*
X158485400Y-83537000D01*
X128905000Y-80010000D02*
X131205300Y-80010000D01*
X158485400Y-83537000D02*
X161458100Y-86509700D01*
X161458100Y-86509700D02*
X169745000Y-86509700D01*
G04 #@! TO.N,Motor2*
X128905000Y-85090000D02*
X138462700Y-94647700D01*
X138462700Y-94647700D02*
X141557700Y-94647700D01*
X141557700Y-94647700D02*
X152320000Y-105410000D01*
G04 #@! TD*
D23*
G04 #@! TO.N,GND*
G36*
X173360027Y-65768803D02*
X173691110Y-65919338D01*
X173966639Y-66156749D01*
X174164456Y-66461944D01*
X174275700Y-66833917D01*
X174290000Y-67026348D01*
X174290001Y-132949413D01*
X174231197Y-133360027D01*
X174080661Y-133691112D01*
X173843251Y-133966639D01*
X173538056Y-134164456D01*
X173166083Y-134275700D01*
X172973652Y-134290000D01*
X127050580Y-134290000D01*
X126639973Y-134231197D01*
X126308888Y-134080661D01*
X126033361Y-133843251D01*
X125835544Y-133538056D01*
X125724300Y-133166083D01*
X125709999Y-132973638D01*
X125709999Y-131000000D01*
X126670000Y-131000000D01*
X126784038Y-131720010D01*
X127114990Y-132369540D01*
X127630460Y-132885010D01*
X128279990Y-133215962D01*
X129000000Y-133330000D01*
X129720010Y-133215962D01*
X130369540Y-132885010D01*
X130885010Y-132369540D01*
X131215962Y-131720010D01*
X131330000Y-131000000D01*
X168670000Y-131000000D01*
X168784038Y-131720010D01*
X169114990Y-132369540D01*
X169630460Y-132885010D01*
X170279990Y-133215962D01*
X171000000Y-133330000D01*
X171720010Y-133215962D01*
X172369540Y-132885010D01*
X172885010Y-132369540D01*
X173215962Y-131720010D01*
X173330000Y-131000000D01*
X173215962Y-130279990D01*
X172885010Y-129630460D01*
X172369540Y-129114990D01*
X171720010Y-128784038D01*
X171000000Y-128670000D01*
X170279990Y-128784038D01*
X169630460Y-129114990D01*
X169114990Y-129630460D01*
X168784038Y-130279990D01*
X168670000Y-131000000D01*
X131330000Y-131000000D01*
X131215962Y-130279990D01*
X130885010Y-129630460D01*
X130369540Y-129114990D01*
X129720010Y-128784038D01*
X129000000Y-128670000D01*
X128279990Y-128784038D01*
X127630460Y-129114990D01*
X127114990Y-129630460D01*
X126784038Y-130279990D01*
X126670000Y-131000000D01*
X125709999Y-131000000D01*
X125709999Y-119117745D01*
X146571861Y-119117745D01*
X146645995Y-119363864D01*
X147183223Y-119556965D01*
X147753454Y-119529778D01*
X148154005Y-119363864D01*
X148228139Y-119117745D01*
X147400000Y-118289605D01*
X146571861Y-119117745D01*
X125709999Y-119117745D01*
X125709999Y-117893223D01*
X145953035Y-117893223D01*
X145980222Y-118463454D01*
X146146136Y-118864005D01*
X146392255Y-118938139D01*
X147220395Y-118110000D01*
X147579605Y-118110000D01*
X148407745Y-118938139D01*
X148653864Y-118864005D01*
X148846965Y-118326777D01*
X148819778Y-117756546D01*
X148653864Y-117355995D01*
X148407745Y-117281861D01*
X147579605Y-118110000D01*
X147220395Y-118110000D01*
X146392255Y-117281861D01*
X146146136Y-117355995D01*
X145953035Y-117893223D01*
X125709999Y-117893223D01*
X125709999Y-106640000D01*
X126630908Y-106640000D01*
X126746161Y-107219418D01*
X127074375Y-107710625D01*
X127342829Y-107890000D01*
X127074375Y-108069375D01*
X126746161Y-108560582D01*
X126630908Y-109140000D01*
X126746161Y-109719418D01*
X127074375Y-110210625D01*
X127342829Y-110390000D01*
X127074375Y-110569375D01*
X126746161Y-111060582D01*
X126630908Y-111640000D01*
X126746161Y-112219418D01*
X127074375Y-112710625D01*
X127342829Y-112890000D01*
X127074375Y-113069375D01*
X126746161Y-113560582D01*
X126630908Y-114140000D01*
X126746161Y-114719418D01*
X127074375Y-115210625D01*
X127565582Y-115538839D01*
X127998744Y-115625000D01*
X128541256Y-115625000D01*
X128974418Y-115538839D01*
X129465625Y-115210625D01*
X129793839Y-114719418D01*
X129909092Y-114140000D01*
X129793839Y-113560582D01*
X129465625Y-113069375D01*
X129197171Y-112890000D01*
X129465625Y-112710625D01*
X129793839Y-112219418D01*
X129909092Y-111640000D01*
X129793839Y-111060582D01*
X129465625Y-110569375D01*
X129197171Y-110390000D01*
X129465625Y-110210625D01*
X129793839Y-109719418D01*
X129909092Y-109140000D01*
X129793839Y-108560582D01*
X129465625Y-108069375D01*
X129197171Y-107890000D01*
X129465625Y-107710625D01*
X129793839Y-107219418D01*
X129909092Y-106640000D01*
X129793839Y-106060582D01*
X129465625Y-105569375D01*
X129401844Y-105526758D01*
X129629586Y-105374586D01*
X129824126Y-105083435D01*
X129892440Y-104740000D01*
X129892440Y-103540000D01*
X129824126Y-103196565D01*
X129629586Y-102905414D01*
X129338435Y-102710874D01*
X128995000Y-102642560D01*
X127545000Y-102642560D01*
X127201565Y-102710874D01*
X126910414Y-102905414D01*
X126715874Y-103196565D01*
X126647560Y-103540000D01*
X126647560Y-104740000D01*
X126715874Y-105083435D01*
X126910414Y-105374586D01*
X127138156Y-105526758D01*
X127074375Y-105569375D01*
X126746161Y-106060582D01*
X126630908Y-106640000D01*
X125709999Y-106640000D01*
X125709999Y-98139561D01*
X135090000Y-98139561D01*
X135090000Y-98710439D01*
X135308466Y-99237862D01*
X135712138Y-99641534D01*
X136239561Y-99860000D01*
X136810439Y-99860000D01*
X137337862Y-99641534D01*
X137546651Y-99432745D01*
X140696861Y-99432745D01*
X140770995Y-99678864D01*
X141308223Y-99871965D01*
X141878454Y-99844778D01*
X142279005Y-99678864D01*
X142353139Y-99432745D01*
X141525000Y-98604605D01*
X140696861Y-99432745D01*
X137546651Y-99432745D01*
X137741534Y-99237862D01*
X137960000Y-98710439D01*
X137960000Y-98208223D01*
X140078035Y-98208223D01*
X140105222Y-98778454D01*
X140271136Y-99179005D01*
X140517255Y-99253139D01*
X141345395Y-98425000D01*
X140517255Y-97596861D01*
X140271136Y-97670995D01*
X140078035Y-98208223D01*
X137960000Y-98208223D01*
X137960000Y-98139561D01*
X137741534Y-97612138D01*
X137337862Y-97208466D01*
X136810439Y-96990000D01*
X136239561Y-96990000D01*
X135712138Y-97208466D01*
X135308466Y-97612138D01*
X135090000Y-98139561D01*
X125709999Y-98139561D01*
X125709999Y-96763970D01*
X127570635Y-96763970D01*
X127730418Y-97082739D01*
X128521187Y-97392723D01*
X129370387Y-97376497D01*
X130079582Y-97082739D01*
X130239365Y-96763970D01*
X128905000Y-95429605D01*
X127570635Y-96763970D01*
X125709999Y-96763970D01*
X125709999Y-94866187D01*
X126762277Y-94866187D01*
X126778503Y-95715387D01*
X127072261Y-96424582D01*
X127391030Y-96584365D01*
X128725395Y-95250000D01*
X129084605Y-95250000D01*
X130418970Y-96584365D01*
X130737739Y-96424582D01*
X131047723Y-95633813D01*
X131031497Y-94784613D01*
X130737739Y-94075418D01*
X130418970Y-93915635D01*
X129084605Y-95250000D01*
X128725395Y-95250000D01*
X127391030Y-93915635D01*
X127072261Y-94075418D01*
X126762277Y-94866187D01*
X125709999Y-94866187D01*
X125709999Y-93736030D01*
X127570635Y-93736030D01*
X128905000Y-95070395D01*
X130239365Y-93736030D01*
X130079582Y-93417261D01*
X129288813Y-93107277D01*
X128439613Y-93123503D01*
X127730418Y-93417261D01*
X127570635Y-93736030D01*
X125709999Y-93736030D01*
X125709999Y-88670000D01*
X126757560Y-88670000D01*
X126757560Y-91670000D01*
X126806843Y-91917765D01*
X126947191Y-92127809D01*
X127157235Y-92268157D01*
X127405000Y-92317440D01*
X130405000Y-92317440D01*
X130652765Y-92268157D01*
X130862809Y-92127809D01*
X131003157Y-91917765D01*
X131052440Y-91670000D01*
X131052440Y-88983993D01*
X137503415Y-95434969D01*
X137572315Y-95538085D01*
X137675431Y-95606985D01*
X137675432Y-95606986D01*
X137715582Y-95633813D01*
X137980827Y-95811044D01*
X138341064Y-95882700D01*
X138341068Y-95882700D01*
X138462700Y-95906894D01*
X138584332Y-95882700D01*
X141046147Y-95882700D01*
X142466920Y-97303473D01*
X142353139Y-97417253D01*
X142279005Y-97171136D01*
X141741777Y-96978035D01*
X141171546Y-97005222D01*
X140770995Y-97171136D01*
X140696861Y-97417255D01*
X141525000Y-98245395D01*
X141539142Y-98231252D01*
X141718748Y-98410858D01*
X141704605Y-98425000D01*
X142532745Y-99253139D01*
X142778864Y-99179005D01*
X142971965Y-98641777D01*
X142944778Y-98071546D01*
X142778864Y-97670995D01*
X142532747Y-97596861D01*
X142646528Y-97483081D01*
X150903465Y-105740018D01*
X151103466Y-106222862D01*
X151507138Y-106626534D01*
X151596181Y-106663417D01*
X148941099Y-109318500D01*
X143957211Y-109318500D01*
X143839780Y-109201069D01*
X143459374Y-109043500D01*
X143293303Y-109043500D01*
X139374364Y-105124561D01*
X145885000Y-105124561D01*
X145885000Y-105695439D01*
X146103466Y-106222862D01*
X146507138Y-106626534D01*
X147034561Y-106845000D01*
X147605439Y-106845000D01*
X148132862Y-106626534D01*
X148536534Y-106222862D01*
X148755000Y-105695439D01*
X148755000Y-105124561D01*
X148536534Y-104597138D01*
X148132862Y-104193466D01*
X147605439Y-103975000D01*
X147034561Y-103975000D01*
X146507138Y-104193466D01*
X146103466Y-104597138D01*
X145885000Y-105124561D01*
X139374364Y-105124561D01*
X139028712Y-104778910D01*
X139052809Y-104762809D01*
X139193157Y-104552765D01*
X139201117Y-104512745D01*
X139466861Y-104512745D01*
X139540995Y-104758864D01*
X140078223Y-104951965D01*
X140648454Y-104924778D01*
X141049005Y-104758864D01*
X141123139Y-104512745D01*
X140295000Y-103684605D01*
X139466861Y-104512745D01*
X139201117Y-104512745D01*
X139239693Y-104318813D01*
X139287255Y-104333139D01*
X140115395Y-103505000D01*
X140474605Y-103505000D01*
X141302745Y-104333139D01*
X141548864Y-104259005D01*
X141741965Y-103721777D01*
X141714778Y-103151546D01*
X141548864Y-102750995D01*
X141302745Y-102676861D01*
X140474605Y-103505000D01*
X140115395Y-103505000D01*
X139287255Y-102676861D01*
X139239693Y-102691187D01*
X139201118Y-102497255D01*
X139466861Y-102497255D01*
X140295000Y-103325395D01*
X141123139Y-102497255D01*
X141049005Y-102251136D01*
X140511777Y-102058035D01*
X139941546Y-102085222D01*
X139540995Y-102251136D01*
X139466861Y-102497255D01*
X139201118Y-102497255D01*
X139193157Y-102457235D01*
X139052809Y-102247191D01*
X138842765Y-102106843D01*
X138595000Y-102057560D01*
X136995000Y-102057560D01*
X136747235Y-102106843D01*
X136537191Y-102247191D01*
X136396843Y-102457235D01*
X136347560Y-102705000D01*
X136347560Y-104305000D01*
X136396843Y-104552765D01*
X136537191Y-104762809D01*
X136747235Y-104903157D01*
X136995000Y-104952440D01*
X137096203Y-104952440D01*
X137247071Y-105178229D01*
X137341571Y-105241372D01*
X142218500Y-110118303D01*
X142218500Y-110284374D01*
X142376069Y-110664780D01*
X142493500Y-110782211D01*
X142493501Y-115782230D01*
X142118720Y-115937469D01*
X141827569Y-116228620D01*
X141670000Y-116609026D01*
X141670000Y-117020774D01*
X141827569Y-117401180D01*
X142118720Y-117692331D01*
X142499126Y-117849900D01*
X142910874Y-117849900D01*
X143291280Y-117692331D01*
X143582431Y-117401180D01*
X143706249Y-117102255D01*
X146571861Y-117102255D01*
X147400000Y-117930395D01*
X148228139Y-117102255D01*
X148154005Y-116856136D01*
X147616777Y-116663035D01*
X147046546Y-116690222D01*
X146645995Y-116856136D01*
X146571861Y-117102255D01*
X143706249Y-117102255D01*
X143740000Y-117020774D01*
X143740000Y-116855374D01*
X143801429Y-116814328D01*
X143843827Y-116750875D01*
X143843829Y-116750873D01*
X143969403Y-116562938D01*
X143969403Y-116562937D01*
X143969404Y-116562936D01*
X144013500Y-116341251D01*
X144013500Y-116341248D01*
X144028388Y-116266401D01*
X144013500Y-116191554D01*
X144013499Y-110838500D01*
X148941099Y-110838500D01*
X151640000Y-113537402D01*
X151640001Y-116871570D01*
X151587138Y-116893466D01*
X151183466Y-117297138D01*
X150965000Y-117824561D01*
X150965000Y-118395439D01*
X151183466Y-118922862D01*
X151587138Y-119326534D01*
X152114561Y-119545000D01*
X152685439Y-119545000D01*
X153212862Y-119326534D01*
X153616534Y-118922862D01*
X153835000Y-118395439D01*
X153835000Y-117824561D01*
X153616534Y-117297138D01*
X153212862Y-116893466D01*
X153160000Y-116871570D01*
X153159999Y-113297452D01*
X153174888Y-113222600D01*
X153115903Y-112926062D01*
X152990329Y-112738127D01*
X152990326Y-112738124D01*
X152947928Y-112674671D01*
X152884475Y-112632273D01*
X150330701Y-110078500D01*
X153931479Y-106477724D01*
X153994929Y-106435328D01*
X154037325Y-106371878D01*
X154037329Y-106371874D01*
X154162903Y-106183938D01*
X154162903Y-106183937D01*
X154162904Y-106183936D01*
X154207000Y-105962251D01*
X154207000Y-105962248D01*
X154221888Y-105887401D01*
X154207000Y-105812554D01*
X154206999Y-91291853D01*
X154221888Y-91217000D01*
X154162904Y-90920463D01*
X154037329Y-90732527D01*
X154037326Y-90732524D01*
X153994928Y-90669071D01*
X153931475Y-90626673D01*
X153813104Y-90508302D01*
X153835000Y-90455439D01*
X153835000Y-89884561D01*
X153616534Y-89357138D01*
X153212862Y-88953466D01*
X152685439Y-88735000D01*
X152114561Y-88735000D01*
X151587138Y-88953466D01*
X151183466Y-89357138D01*
X150965000Y-89884561D01*
X150965000Y-90455439D01*
X151183466Y-90982862D01*
X151587138Y-91386534D01*
X152114561Y-91605000D01*
X152685439Y-91605000D01*
X152687000Y-91604353D01*
X152687001Y-104008784D01*
X152650018Y-103993465D01*
X142516987Y-93860434D01*
X142448085Y-93757315D01*
X142039573Y-93484356D01*
X141679336Y-93412700D01*
X141679332Y-93412700D01*
X141557700Y-93388506D01*
X141436068Y-93412700D01*
X138974254Y-93412700D01*
X136739299Y-91177745D01*
X146571861Y-91177745D01*
X146645995Y-91423864D01*
X147183223Y-91616965D01*
X147753454Y-91589778D01*
X148154005Y-91423864D01*
X148228139Y-91177745D01*
X147400000Y-90349605D01*
X146571861Y-91177745D01*
X136739299Y-91177745D01*
X135514777Y-89953223D01*
X145953035Y-89953223D01*
X145980222Y-90523454D01*
X146146136Y-90924005D01*
X146392255Y-90998139D01*
X147220395Y-90170000D01*
X147579605Y-90170000D01*
X148407745Y-90998139D01*
X148653864Y-90924005D01*
X148846965Y-90386777D01*
X148819778Y-89816546D01*
X148653864Y-89415995D01*
X148407745Y-89341861D01*
X147579605Y-90170000D01*
X147220395Y-90170000D01*
X146392255Y-89341861D01*
X146146136Y-89415995D01*
X145953035Y-89953223D01*
X135514777Y-89953223D01*
X133541115Y-87979561D01*
X135090000Y-87979561D01*
X135090000Y-88550439D01*
X135308466Y-89077862D01*
X135712138Y-89481534D01*
X136239561Y-89700000D01*
X136810439Y-89700000D01*
X137337862Y-89481534D01*
X137546651Y-89272745D01*
X140696861Y-89272745D01*
X140770995Y-89518864D01*
X141308223Y-89711965D01*
X141878454Y-89684778D01*
X142279005Y-89518864D01*
X142353139Y-89272745D01*
X142242650Y-89162255D01*
X146571861Y-89162255D01*
X147400000Y-89990395D01*
X148228139Y-89162255D01*
X148154005Y-88916136D01*
X147616777Y-88723035D01*
X147046546Y-88750222D01*
X146645995Y-88916136D01*
X146571861Y-89162255D01*
X142242650Y-89162255D01*
X141525000Y-88444605D01*
X140696861Y-89272745D01*
X137546651Y-89272745D01*
X137741534Y-89077862D01*
X137941534Y-88595019D01*
X138488330Y-88048223D01*
X140078035Y-88048223D01*
X140105222Y-88618454D01*
X140271136Y-89019005D01*
X140517255Y-89093139D01*
X141345395Y-88265000D01*
X141704605Y-88265000D01*
X142532745Y-89093139D01*
X142778864Y-89019005D01*
X142971965Y-88481777D01*
X142944778Y-87911546D01*
X142778864Y-87510995D01*
X142532745Y-87436861D01*
X141704605Y-88265000D01*
X141345395Y-88265000D01*
X140517255Y-87436861D01*
X140271136Y-87510995D01*
X140078035Y-88048223D01*
X138488330Y-88048223D01*
X138582271Y-87954283D01*
X138685384Y-87885385D01*
X138754282Y-87782272D01*
X138754286Y-87782268D01*
X138958343Y-87476873D01*
X139002028Y-87257255D01*
X140696861Y-87257255D01*
X141525000Y-88085395D01*
X142353139Y-87257255D01*
X142279005Y-87011136D01*
X141741777Y-86818035D01*
X141171546Y-86845222D01*
X140770995Y-87011136D01*
X140696861Y-87257255D01*
X139002028Y-87257255D01*
X139054194Y-86995001D01*
X139029999Y-86873365D01*
X139030000Y-84458050D01*
X139052809Y-84442809D01*
X139193157Y-84232765D01*
X139201117Y-84192745D01*
X139466861Y-84192745D01*
X139540995Y-84438864D01*
X140078223Y-84631965D01*
X140648454Y-84604778D01*
X141049005Y-84438864D01*
X141123139Y-84192745D01*
X140295000Y-83364605D01*
X139466861Y-84192745D01*
X139201117Y-84192745D01*
X139239693Y-83998813D01*
X139287255Y-84013139D01*
X140115395Y-83185000D01*
X140474605Y-83185000D01*
X141302745Y-84013139D01*
X141548864Y-83939005D01*
X141741965Y-83401777D01*
X141714778Y-82831546D01*
X141548864Y-82430995D01*
X141302745Y-82356861D01*
X140474605Y-83185000D01*
X140115395Y-83185000D01*
X139287255Y-82356861D01*
X139239693Y-82371187D01*
X139201118Y-82177255D01*
X139466861Y-82177255D01*
X140295000Y-83005395D01*
X141123139Y-82177255D01*
X141049005Y-81931136D01*
X140511777Y-81738035D01*
X139941546Y-81765222D01*
X139540995Y-81931136D01*
X139466861Y-82177255D01*
X139201118Y-82177255D01*
X139193157Y-82137235D01*
X139052809Y-81927191D01*
X138842765Y-81786843D01*
X138595000Y-81737560D01*
X136995000Y-81737560D01*
X136747235Y-81786843D01*
X136537191Y-81927191D01*
X136396843Y-82137235D01*
X136347560Y-82385000D01*
X136347560Y-83985000D01*
X136396843Y-84232765D01*
X136537191Y-84442809D01*
X136560001Y-84458050D01*
X136560000Y-86483446D01*
X136194981Y-86848466D01*
X135712138Y-87048466D01*
X135308466Y-87452138D01*
X135090000Y-87979561D01*
X133541115Y-87979561D01*
X131040000Y-85478447D01*
X131040000Y-84665322D01*
X130714966Y-83880620D01*
X130114380Y-83280034D01*
X129329678Y-82955000D01*
X128480322Y-82955000D01*
X127695620Y-83280034D01*
X127095034Y-83880620D01*
X126770000Y-84665322D01*
X126770000Y-85514678D01*
X127095034Y-86299380D01*
X127695620Y-86899966D01*
X128480322Y-87225000D01*
X129293447Y-87225000D01*
X130091007Y-88022560D01*
X127405000Y-88022560D01*
X127157235Y-88071843D01*
X126947191Y-88212191D01*
X126806843Y-88422235D01*
X126757560Y-88670000D01*
X125709999Y-88670000D01*
X125709999Y-78510000D01*
X126757560Y-78510000D01*
X126757560Y-81510000D01*
X126806843Y-81757765D01*
X126947191Y-81967809D01*
X127157235Y-82108157D01*
X127405000Y-82157440D01*
X130405000Y-82157440D01*
X130652765Y-82108157D01*
X130862809Y-81967809D01*
X131003157Y-81757765D01*
X131052440Y-81510000D01*
X131052440Y-81245000D01*
X149658368Y-81245000D01*
X149780000Y-81269194D01*
X149901632Y-81245000D01*
X149901636Y-81245000D01*
X150261873Y-81173344D01*
X150670385Y-80900385D01*
X150739287Y-80797266D01*
X152320000Y-79216553D01*
X157427715Y-84324269D01*
X157496615Y-84427385D01*
X157599731Y-84496285D01*
X157599732Y-84496286D01*
X157803501Y-84632440D01*
X157896279Y-84694432D01*
X160498813Y-87296966D01*
X160567715Y-87400085D01*
X160976227Y-87673044D01*
X161336464Y-87744700D01*
X161336468Y-87744700D01*
X161458100Y-87768894D01*
X161579732Y-87744700D01*
X169866636Y-87744700D01*
X170226873Y-87673044D01*
X170635385Y-87400085D01*
X170908344Y-86991573D01*
X171004195Y-86509700D01*
X170908344Y-86027827D01*
X170635385Y-85619315D01*
X170226873Y-85346356D01*
X169866636Y-85274700D01*
X161969653Y-85274700D01*
X159444687Y-82749734D01*
X159375785Y-82646615D01*
X158976124Y-82379570D01*
X153736535Y-77139981D01*
X153536534Y-76657138D01*
X153132862Y-76253466D01*
X152605439Y-76035000D01*
X152034561Y-76035000D01*
X151507138Y-76253466D01*
X151103466Y-76657138D01*
X150903466Y-77139980D01*
X149268447Y-78775000D01*
X147919286Y-78775000D01*
X148132862Y-78686534D01*
X148536534Y-78282862D01*
X148755000Y-77755439D01*
X148755000Y-77184561D01*
X148536534Y-76657138D01*
X148132862Y-76253466D01*
X147605439Y-76035000D01*
X147034561Y-76035000D01*
X146507138Y-76253466D01*
X146103466Y-76657138D01*
X145885000Y-77184561D01*
X145885000Y-77755439D01*
X146103466Y-78282862D01*
X146507138Y-78686534D01*
X146720714Y-78775000D01*
X131052440Y-78775000D01*
X131052440Y-78510000D01*
X131003157Y-78262235D01*
X130862809Y-78052191D01*
X130652765Y-77911843D01*
X130405000Y-77862560D01*
X127405000Y-77862560D01*
X127157235Y-77911843D01*
X126947191Y-78052191D01*
X126806843Y-78262235D01*
X126757560Y-78510000D01*
X125709999Y-78510000D01*
X125709999Y-69000000D01*
X126670000Y-69000000D01*
X126784038Y-69720010D01*
X127114990Y-70369540D01*
X127630460Y-70885010D01*
X128279990Y-71215962D01*
X129000000Y-71330000D01*
X129720010Y-71215962D01*
X129770963Y-71190000D01*
X134677560Y-71190000D01*
X134677560Y-73590000D01*
X134726843Y-73837765D01*
X134867191Y-74047809D01*
X135077235Y-74188157D01*
X135325000Y-74237440D01*
X137725000Y-74237440D01*
X137972765Y-74188157D01*
X138182809Y-74047809D01*
X138323157Y-73837765D01*
X138353110Y-73687175D01*
X140407430Y-73687175D01*
X140530565Y-73974788D01*
X141212734Y-74234707D01*
X141942443Y-74213786D01*
X142519435Y-73974788D01*
X142642570Y-73687175D01*
X141525000Y-72569605D01*
X140407430Y-73687175D01*
X138353110Y-73687175D01*
X138372440Y-73590000D01*
X138372440Y-72077734D01*
X139680293Y-72077734D01*
X139701214Y-72807443D01*
X139940212Y-73384435D01*
X140227825Y-73507570D01*
X141345395Y-72390000D01*
X141704605Y-72390000D01*
X142822175Y-73507570D01*
X143109788Y-73384435D01*
X143369707Y-72702266D01*
X143348786Y-71972557D01*
X143109788Y-71395565D01*
X142822175Y-71272430D01*
X141704605Y-72390000D01*
X141345395Y-72390000D01*
X140227825Y-71272430D01*
X139940212Y-71395565D01*
X139680293Y-72077734D01*
X138372440Y-72077734D01*
X138372440Y-71190000D01*
X138353111Y-71092825D01*
X140407430Y-71092825D01*
X141525000Y-72210395D01*
X142642570Y-71092825D01*
X142519435Y-70805212D01*
X141837266Y-70545293D01*
X141107557Y-70566214D01*
X140530565Y-70805212D01*
X140407430Y-71092825D01*
X138353111Y-71092825D01*
X138323157Y-70942235D01*
X138182809Y-70732191D01*
X137972765Y-70591843D01*
X137725000Y-70542560D01*
X135325000Y-70542560D01*
X135077235Y-70591843D01*
X134867191Y-70732191D01*
X134726843Y-70942235D01*
X134677560Y-71190000D01*
X129770963Y-71190000D01*
X130369540Y-70885010D01*
X130885010Y-70369540D01*
X131215962Y-69720010D01*
X131330000Y-69000000D01*
X168670000Y-69000000D01*
X168784038Y-69720010D01*
X169114990Y-70369540D01*
X169630460Y-70885010D01*
X170279990Y-71215962D01*
X171000000Y-71330000D01*
X171720010Y-71215962D01*
X172369540Y-70885010D01*
X172885010Y-70369540D01*
X173215962Y-69720010D01*
X173330000Y-69000000D01*
X173215962Y-68279990D01*
X172885010Y-67630460D01*
X172369540Y-67114990D01*
X171720010Y-66784038D01*
X171000000Y-66670000D01*
X170279990Y-66784038D01*
X169630460Y-67114990D01*
X169114990Y-67630460D01*
X168784038Y-68279990D01*
X168670000Y-69000000D01*
X131330000Y-69000000D01*
X131215962Y-68279990D01*
X130885010Y-67630460D01*
X130369540Y-67114990D01*
X129720010Y-66784038D01*
X129000000Y-66670000D01*
X128279990Y-66784038D01*
X127630460Y-67114990D01*
X127114990Y-67630460D01*
X126784038Y-68279990D01*
X126670000Y-69000000D01*
X125709999Y-69000000D01*
X125710000Y-67050580D01*
X125768803Y-66639973D01*
X125919338Y-66308890D01*
X126156749Y-66033361D01*
X126461944Y-65835544D01*
X126833917Y-65724300D01*
X127026348Y-65710000D01*
X172949420Y-65710000D01*
X173360027Y-65768803D01*
X173360027Y-65768803D01*
G37*
X173360027Y-65768803D02*
X173691110Y-65919338D01*
X173966639Y-66156749D01*
X174164456Y-66461944D01*
X174275700Y-66833917D01*
X174290000Y-67026348D01*
X174290001Y-132949413D01*
X174231197Y-133360027D01*
X174080661Y-133691112D01*
X173843251Y-133966639D01*
X173538056Y-134164456D01*
X173166083Y-134275700D01*
X172973652Y-134290000D01*
X127050580Y-134290000D01*
X126639973Y-134231197D01*
X126308888Y-134080661D01*
X126033361Y-133843251D01*
X125835544Y-133538056D01*
X125724300Y-133166083D01*
X125709999Y-132973638D01*
X125709999Y-131000000D01*
X126670000Y-131000000D01*
X126784038Y-131720010D01*
X127114990Y-132369540D01*
X127630460Y-132885010D01*
X128279990Y-133215962D01*
X129000000Y-133330000D01*
X129720010Y-133215962D01*
X130369540Y-132885010D01*
X130885010Y-132369540D01*
X131215962Y-131720010D01*
X131330000Y-131000000D01*
X168670000Y-131000000D01*
X168784038Y-131720010D01*
X169114990Y-132369540D01*
X169630460Y-132885010D01*
X170279990Y-133215962D01*
X171000000Y-133330000D01*
X171720010Y-133215962D01*
X172369540Y-132885010D01*
X172885010Y-132369540D01*
X173215962Y-131720010D01*
X173330000Y-131000000D01*
X173215962Y-130279990D01*
X172885010Y-129630460D01*
X172369540Y-129114990D01*
X171720010Y-128784038D01*
X171000000Y-128670000D01*
X170279990Y-128784038D01*
X169630460Y-129114990D01*
X169114990Y-129630460D01*
X168784038Y-130279990D01*
X168670000Y-131000000D01*
X131330000Y-131000000D01*
X131215962Y-130279990D01*
X130885010Y-129630460D01*
X130369540Y-129114990D01*
X129720010Y-128784038D01*
X129000000Y-128670000D01*
X128279990Y-128784038D01*
X127630460Y-129114990D01*
X127114990Y-129630460D01*
X126784038Y-130279990D01*
X126670000Y-131000000D01*
X125709999Y-131000000D01*
X125709999Y-119117745D01*
X146571861Y-119117745D01*
X146645995Y-119363864D01*
X147183223Y-119556965D01*
X147753454Y-119529778D01*
X148154005Y-119363864D01*
X148228139Y-119117745D01*
X147400000Y-118289605D01*
X146571861Y-119117745D01*
X125709999Y-119117745D01*
X125709999Y-117893223D01*
X145953035Y-117893223D01*
X145980222Y-118463454D01*
X146146136Y-118864005D01*
X146392255Y-118938139D01*
X147220395Y-118110000D01*
X147579605Y-118110000D01*
X148407745Y-118938139D01*
X148653864Y-118864005D01*
X148846965Y-118326777D01*
X148819778Y-117756546D01*
X148653864Y-117355995D01*
X148407745Y-117281861D01*
X147579605Y-118110000D01*
X147220395Y-118110000D01*
X146392255Y-117281861D01*
X146146136Y-117355995D01*
X145953035Y-117893223D01*
X125709999Y-117893223D01*
X125709999Y-106640000D01*
X126630908Y-106640000D01*
X126746161Y-107219418D01*
X127074375Y-107710625D01*
X127342829Y-107890000D01*
X127074375Y-108069375D01*
X126746161Y-108560582D01*
X126630908Y-109140000D01*
X126746161Y-109719418D01*
X127074375Y-110210625D01*
X127342829Y-110390000D01*
X127074375Y-110569375D01*
X126746161Y-111060582D01*
X126630908Y-111640000D01*
X126746161Y-112219418D01*
X127074375Y-112710625D01*
X127342829Y-112890000D01*
X127074375Y-113069375D01*
X126746161Y-113560582D01*
X126630908Y-114140000D01*
X126746161Y-114719418D01*
X127074375Y-115210625D01*
X127565582Y-115538839D01*
X127998744Y-115625000D01*
X128541256Y-115625000D01*
X128974418Y-115538839D01*
X129465625Y-115210625D01*
X129793839Y-114719418D01*
X129909092Y-114140000D01*
X129793839Y-113560582D01*
X129465625Y-113069375D01*
X129197171Y-112890000D01*
X129465625Y-112710625D01*
X129793839Y-112219418D01*
X129909092Y-111640000D01*
X129793839Y-111060582D01*
X129465625Y-110569375D01*
X129197171Y-110390000D01*
X129465625Y-110210625D01*
X129793839Y-109719418D01*
X129909092Y-109140000D01*
X129793839Y-108560582D01*
X129465625Y-108069375D01*
X129197171Y-107890000D01*
X129465625Y-107710625D01*
X129793839Y-107219418D01*
X129909092Y-106640000D01*
X129793839Y-106060582D01*
X129465625Y-105569375D01*
X129401844Y-105526758D01*
X129629586Y-105374586D01*
X129824126Y-105083435D01*
X129892440Y-104740000D01*
X129892440Y-103540000D01*
X129824126Y-103196565D01*
X129629586Y-102905414D01*
X129338435Y-102710874D01*
X128995000Y-102642560D01*
X127545000Y-102642560D01*
X127201565Y-102710874D01*
X126910414Y-102905414D01*
X126715874Y-103196565D01*
X126647560Y-103540000D01*
X126647560Y-104740000D01*
X126715874Y-105083435D01*
X126910414Y-105374586D01*
X127138156Y-105526758D01*
X127074375Y-105569375D01*
X126746161Y-106060582D01*
X126630908Y-106640000D01*
X125709999Y-106640000D01*
X125709999Y-98139561D01*
X135090000Y-98139561D01*
X135090000Y-98710439D01*
X135308466Y-99237862D01*
X135712138Y-99641534D01*
X136239561Y-99860000D01*
X136810439Y-99860000D01*
X137337862Y-99641534D01*
X137546651Y-99432745D01*
X140696861Y-99432745D01*
X140770995Y-99678864D01*
X141308223Y-99871965D01*
X141878454Y-99844778D01*
X142279005Y-99678864D01*
X142353139Y-99432745D01*
X141525000Y-98604605D01*
X140696861Y-99432745D01*
X137546651Y-99432745D01*
X137741534Y-99237862D01*
X137960000Y-98710439D01*
X137960000Y-98208223D01*
X140078035Y-98208223D01*
X140105222Y-98778454D01*
X140271136Y-99179005D01*
X140517255Y-99253139D01*
X141345395Y-98425000D01*
X140517255Y-97596861D01*
X140271136Y-97670995D01*
X140078035Y-98208223D01*
X137960000Y-98208223D01*
X137960000Y-98139561D01*
X137741534Y-97612138D01*
X137337862Y-97208466D01*
X136810439Y-96990000D01*
X136239561Y-96990000D01*
X135712138Y-97208466D01*
X135308466Y-97612138D01*
X135090000Y-98139561D01*
X125709999Y-98139561D01*
X125709999Y-96763970D01*
X127570635Y-96763970D01*
X127730418Y-97082739D01*
X128521187Y-97392723D01*
X129370387Y-97376497D01*
X130079582Y-97082739D01*
X130239365Y-96763970D01*
X128905000Y-95429605D01*
X127570635Y-96763970D01*
X125709999Y-96763970D01*
X125709999Y-94866187D01*
X126762277Y-94866187D01*
X126778503Y-95715387D01*
X127072261Y-96424582D01*
X127391030Y-96584365D01*
X128725395Y-95250000D01*
X129084605Y-95250000D01*
X130418970Y-96584365D01*
X130737739Y-96424582D01*
X131047723Y-95633813D01*
X131031497Y-94784613D01*
X130737739Y-94075418D01*
X130418970Y-93915635D01*
X129084605Y-95250000D01*
X128725395Y-95250000D01*
X127391030Y-93915635D01*
X127072261Y-94075418D01*
X126762277Y-94866187D01*
X125709999Y-94866187D01*
X125709999Y-93736030D01*
X127570635Y-93736030D01*
X128905000Y-95070395D01*
X130239365Y-93736030D01*
X130079582Y-93417261D01*
X129288813Y-93107277D01*
X128439613Y-93123503D01*
X127730418Y-93417261D01*
X127570635Y-93736030D01*
X125709999Y-93736030D01*
X125709999Y-88670000D01*
X126757560Y-88670000D01*
X126757560Y-91670000D01*
X126806843Y-91917765D01*
X126947191Y-92127809D01*
X127157235Y-92268157D01*
X127405000Y-92317440D01*
X130405000Y-92317440D01*
X130652765Y-92268157D01*
X130862809Y-92127809D01*
X131003157Y-91917765D01*
X131052440Y-91670000D01*
X131052440Y-88983993D01*
X137503415Y-95434969D01*
X137572315Y-95538085D01*
X137675431Y-95606985D01*
X137675432Y-95606986D01*
X137715582Y-95633813D01*
X137980827Y-95811044D01*
X138341064Y-95882700D01*
X138341068Y-95882700D01*
X138462700Y-95906894D01*
X138584332Y-95882700D01*
X141046147Y-95882700D01*
X142466920Y-97303473D01*
X142353139Y-97417253D01*
X142279005Y-97171136D01*
X141741777Y-96978035D01*
X141171546Y-97005222D01*
X140770995Y-97171136D01*
X140696861Y-97417255D01*
X141525000Y-98245395D01*
X141539142Y-98231252D01*
X141718748Y-98410858D01*
X141704605Y-98425000D01*
X142532745Y-99253139D01*
X142778864Y-99179005D01*
X142971965Y-98641777D01*
X142944778Y-98071546D01*
X142778864Y-97670995D01*
X142532747Y-97596861D01*
X142646528Y-97483081D01*
X150903465Y-105740018D01*
X151103466Y-106222862D01*
X151507138Y-106626534D01*
X151596181Y-106663417D01*
X148941099Y-109318500D01*
X143957211Y-109318500D01*
X143839780Y-109201069D01*
X143459374Y-109043500D01*
X143293303Y-109043500D01*
X139374364Y-105124561D01*
X145885000Y-105124561D01*
X145885000Y-105695439D01*
X146103466Y-106222862D01*
X146507138Y-106626534D01*
X147034561Y-106845000D01*
X147605439Y-106845000D01*
X148132862Y-106626534D01*
X148536534Y-106222862D01*
X148755000Y-105695439D01*
X148755000Y-105124561D01*
X148536534Y-104597138D01*
X148132862Y-104193466D01*
X147605439Y-103975000D01*
X147034561Y-103975000D01*
X146507138Y-104193466D01*
X146103466Y-104597138D01*
X145885000Y-105124561D01*
X139374364Y-105124561D01*
X139028712Y-104778910D01*
X139052809Y-104762809D01*
X139193157Y-104552765D01*
X139201117Y-104512745D01*
X139466861Y-104512745D01*
X139540995Y-104758864D01*
X140078223Y-104951965D01*
X140648454Y-104924778D01*
X141049005Y-104758864D01*
X141123139Y-104512745D01*
X140295000Y-103684605D01*
X139466861Y-104512745D01*
X139201117Y-104512745D01*
X139239693Y-104318813D01*
X139287255Y-104333139D01*
X140115395Y-103505000D01*
X140474605Y-103505000D01*
X141302745Y-104333139D01*
X141548864Y-104259005D01*
X141741965Y-103721777D01*
X141714778Y-103151546D01*
X141548864Y-102750995D01*
X141302745Y-102676861D01*
X140474605Y-103505000D01*
X140115395Y-103505000D01*
X139287255Y-102676861D01*
X139239693Y-102691187D01*
X139201118Y-102497255D01*
X139466861Y-102497255D01*
X140295000Y-103325395D01*
X141123139Y-102497255D01*
X141049005Y-102251136D01*
X140511777Y-102058035D01*
X139941546Y-102085222D01*
X139540995Y-102251136D01*
X139466861Y-102497255D01*
X139201118Y-102497255D01*
X139193157Y-102457235D01*
X139052809Y-102247191D01*
X138842765Y-102106843D01*
X138595000Y-102057560D01*
X136995000Y-102057560D01*
X136747235Y-102106843D01*
X136537191Y-102247191D01*
X136396843Y-102457235D01*
X136347560Y-102705000D01*
X136347560Y-104305000D01*
X136396843Y-104552765D01*
X136537191Y-104762809D01*
X136747235Y-104903157D01*
X136995000Y-104952440D01*
X137096203Y-104952440D01*
X137247071Y-105178229D01*
X137341571Y-105241372D01*
X142218500Y-110118303D01*
X142218500Y-110284374D01*
X142376069Y-110664780D01*
X142493500Y-110782211D01*
X142493501Y-115782230D01*
X142118720Y-115937469D01*
X141827569Y-116228620D01*
X141670000Y-116609026D01*
X141670000Y-117020774D01*
X141827569Y-117401180D01*
X142118720Y-117692331D01*
X142499126Y-117849900D01*
X142910874Y-117849900D01*
X143291280Y-117692331D01*
X143582431Y-117401180D01*
X143706249Y-117102255D01*
X146571861Y-117102255D01*
X147400000Y-117930395D01*
X148228139Y-117102255D01*
X148154005Y-116856136D01*
X147616777Y-116663035D01*
X147046546Y-116690222D01*
X146645995Y-116856136D01*
X146571861Y-117102255D01*
X143706249Y-117102255D01*
X143740000Y-117020774D01*
X143740000Y-116855374D01*
X143801429Y-116814328D01*
X143843827Y-116750875D01*
X143843829Y-116750873D01*
X143969403Y-116562938D01*
X143969403Y-116562937D01*
X143969404Y-116562936D01*
X144013500Y-116341251D01*
X144013500Y-116341248D01*
X144028388Y-116266401D01*
X144013500Y-116191554D01*
X144013499Y-110838500D01*
X148941099Y-110838500D01*
X151640000Y-113537402D01*
X151640001Y-116871570D01*
X151587138Y-116893466D01*
X151183466Y-117297138D01*
X150965000Y-117824561D01*
X150965000Y-118395439D01*
X151183466Y-118922862D01*
X151587138Y-119326534D01*
X152114561Y-119545000D01*
X152685439Y-119545000D01*
X153212862Y-119326534D01*
X153616534Y-118922862D01*
X153835000Y-118395439D01*
X153835000Y-117824561D01*
X153616534Y-117297138D01*
X153212862Y-116893466D01*
X153160000Y-116871570D01*
X153159999Y-113297452D01*
X153174888Y-113222600D01*
X153115903Y-112926062D01*
X152990329Y-112738127D01*
X152990326Y-112738124D01*
X152947928Y-112674671D01*
X152884475Y-112632273D01*
X150330701Y-110078500D01*
X153931479Y-106477724D01*
X153994929Y-106435328D01*
X154037325Y-106371878D01*
X154037329Y-106371874D01*
X154162903Y-106183938D01*
X154162903Y-106183937D01*
X154162904Y-106183936D01*
X154207000Y-105962251D01*
X154207000Y-105962248D01*
X154221888Y-105887401D01*
X154207000Y-105812554D01*
X154206999Y-91291853D01*
X154221888Y-91217000D01*
X154162904Y-90920463D01*
X154037329Y-90732527D01*
X154037326Y-90732524D01*
X153994928Y-90669071D01*
X153931475Y-90626673D01*
X153813104Y-90508302D01*
X153835000Y-90455439D01*
X153835000Y-89884561D01*
X153616534Y-89357138D01*
X153212862Y-88953466D01*
X152685439Y-88735000D01*
X152114561Y-88735000D01*
X151587138Y-88953466D01*
X151183466Y-89357138D01*
X150965000Y-89884561D01*
X150965000Y-90455439D01*
X151183466Y-90982862D01*
X151587138Y-91386534D01*
X152114561Y-91605000D01*
X152685439Y-91605000D01*
X152687000Y-91604353D01*
X152687001Y-104008784D01*
X152650018Y-103993465D01*
X142516987Y-93860434D01*
X142448085Y-93757315D01*
X142039573Y-93484356D01*
X141679336Y-93412700D01*
X141679332Y-93412700D01*
X141557700Y-93388506D01*
X141436068Y-93412700D01*
X138974254Y-93412700D01*
X136739299Y-91177745D01*
X146571861Y-91177745D01*
X146645995Y-91423864D01*
X147183223Y-91616965D01*
X147753454Y-91589778D01*
X148154005Y-91423864D01*
X148228139Y-91177745D01*
X147400000Y-90349605D01*
X146571861Y-91177745D01*
X136739299Y-91177745D01*
X135514777Y-89953223D01*
X145953035Y-89953223D01*
X145980222Y-90523454D01*
X146146136Y-90924005D01*
X146392255Y-90998139D01*
X147220395Y-90170000D01*
X147579605Y-90170000D01*
X148407745Y-90998139D01*
X148653864Y-90924005D01*
X148846965Y-90386777D01*
X148819778Y-89816546D01*
X148653864Y-89415995D01*
X148407745Y-89341861D01*
X147579605Y-90170000D01*
X147220395Y-90170000D01*
X146392255Y-89341861D01*
X146146136Y-89415995D01*
X145953035Y-89953223D01*
X135514777Y-89953223D01*
X133541115Y-87979561D01*
X135090000Y-87979561D01*
X135090000Y-88550439D01*
X135308466Y-89077862D01*
X135712138Y-89481534D01*
X136239561Y-89700000D01*
X136810439Y-89700000D01*
X137337862Y-89481534D01*
X137546651Y-89272745D01*
X140696861Y-89272745D01*
X140770995Y-89518864D01*
X141308223Y-89711965D01*
X141878454Y-89684778D01*
X142279005Y-89518864D01*
X142353139Y-89272745D01*
X142242650Y-89162255D01*
X146571861Y-89162255D01*
X147400000Y-89990395D01*
X148228139Y-89162255D01*
X148154005Y-88916136D01*
X147616777Y-88723035D01*
X147046546Y-88750222D01*
X146645995Y-88916136D01*
X146571861Y-89162255D01*
X142242650Y-89162255D01*
X141525000Y-88444605D01*
X140696861Y-89272745D01*
X137546651Y-89272745D01*
X137741534Y-89077862D01*
X137941534Y-88595019D01*
X138488330Y-88048223D01*
X140078035Y-88048223D01*
X140105222Y-88618454D01*
X140271136Y-89019005D01*
X140517255Y-89093139D01*
X141345395Y-88265000D01*
X141704605Y-88265000D01*
X142532745Y-89093139D01*
X142778864Y-89019005D01*
X142971965Y-88481777D01*
X142944778Y-87911546D01*
X142778864Y-87510995D01*
X142532745Y-87436861D01*
X141704605Y-88265000D01*
X141345395Y-88265000D01*
X140517255Y-87436861D01*
X140271136Y-87510995D01*
X140078035Y-88048223D01*
X138488330Y-88048223D01*
X138582271Y-87954283D01*
X138685384Y-87885385D01*
X138754282Y-87782272D01*
X138754286Y-87782268D01*
X138958343Y-87476873D01*
X139002028Y-87257255D01*
X140696861Y-87257255D01*
X141525000Y-88085395D01*
X142353139Y-87257255D01*
X142279005Y-87011136D01*
X141741777Y-86818035D01*
X141171546Y-86845222D01*
X140770995Y-87011136D01*
X140696861Y-87257255D01*
X139002028Y-87257255D01*
X139054194Y-86995001D01*
X139029999Y-86873365D01*
X139030000Y-84458050D01*
X139052809Y-84442809D01*
X139193157Y-84232765D01*
X139201117Y-84192745D01*
X139466861Y-84192745D01*
X139540995Y-84438864D01*
X140078223Y-84631965D01*
X140648454Y-84604778D01*
X141049005Y-84438864D01*
X141123139Y-84192745D01*
X140295000Y-83364605D01*
X139466861Y-84192745D01*
X139201117Y-84192745D01*
X139239693Y-83998813D01*
X139287255Y-84013139D01*
X140115395Y-83185000D01*
X140474605Y-83185000D01*
X141302745Y-84013139D01*
X141548864Y-83939005D01*
X141741965Y-83401777D01*
X141714778Y-82831546D01*
X141548864Y-82430995D01*
X141302745Y-82356861D01*
X140474605Y-83185000D01*
X140115395Y-83185000D01*
X139287255Y-82356861D01*
X139239693Y-82371187D01*
X139201118Y-82177255D01*
X139466861Y-82177255D01*
X140295000Y-83005395D01*
X141123139Y-82177255D01*
X141049005Y-81931136D01*
X140511777Y-81738035D01*
X139941546Y-81765222D01*
X139540995Y-81931136D01*
X139466861Y-82177255D01*
X139201118Y-82177255D01*
X139193157Y-82137235D01*
X139052809Y-81927191D01*
X138842765Y-81786843D01*
X138595000Y-81737560D01*
X136995000Y-81737560D01*
X136747235Y-81786843D01*
X136537191Y-81927191D01*
X136396843Y-82137235D01*
X136347560Y-82385000D01*
X136347560Y-83985000D01*
X136396843Y-84232765D01*
X136537191Y-84442809D01*
X136560001Y-84458050D01*
X136560000Y-86483446D01*
X136194981Y-86848466D01*
X135712138Y-87048466D01*
X135308466Y-87452138D01*
X135090000Y-87979561D01*
X133541115Y-87979561D01*
X131040000Y-85478447D01*
X131040000Y-84665322D01*
X130714966Y-83880620D01*
X130114380Y-83280034D01*
X129329678Y-82955000D01*
X128480322Y-82955000D01*
X127695620Y-83280034D01*
X127095034Y-83880620D01*
X126770000Y-84665322D01*
X126770000Y-85514678D01*
X127095034Y-86299380D01*
X127695620Y-86899966D01*
X128480322Y-87225000D01*
X129293447Y-87225000D01*
X130091007Y-88022560D01*
X127405000Y-88022560D01*
X127157235Y-88071843D01*
X126947191Y-88212191D01*
X126806843Y-88422235D01*
X126757560Y-88670000D01*
X125709999Y-88670000D01*
X125709999Y-78510000D01*
X126757560Y-78510000D01*
X126757560Y-81510000D01*
X126806843Y-81757765D01*
X126947191Y-81967809D01*
X127157235Y-82108157D01*
X127405000Y-82157440D01*
X130405000Y-82157440D01*
X130652765Y-82108157D01*
X130862809Y-81967809D01*
X131003157Y-81757765D01*
X131052440Y-81510000D01*
X131052440Y-81245000D01*
X149658368Y-81245000D01*
X149780000Y-81269194D01*
X149901632Y-81245000D01*
X149901636Y-81245000D01*
X150261873Y-81173344D01*
X150670385Y-80900385D01*
X150739287Y-80797266D01*
X152320000Y-79216553D01*
X157427715Y-84324269D01*
X157496615Y-84427385D01*
X157599731Y-84496285D01*
X157599732Y-84496286D01*
X157803501Y-84632440D01*
X157896279Y-84694432D01*
X160498813Y-87296966D01*
X160567715Y-87400085D01*
X160976227Y-87673044D01*
X161336464Y-87744700D01*
X161336468Y-87744700D01*
X161458100Y-87768894D01*
X161579732Y-87744700D01*
X169866636Y-87744700D01*
X170226873Y-87673044D01*
X170635385Y-87400085D01*
X170908344Y-86991573D01*
X171004195Y-86509700D01*
X170908344Y-86027827D01*
X170635385Y-85619315D01*
X170226873Y-85346356D01*
X169866636Y-85274700D01*
X161969653Y-85274700D01*
X159444687Y-82749734D01*
X159375785Y-82646615D01*
X158976124Y-82379570D01*
X153736535Y-77139981D01*
X153536534Y-76657138D01*
X153132862Y-76253466D01*
X152605439Y-76035000D01*
X152034561Y-76035000D01*
X151507138Y-76253466D01*
X151103466Y-76657138D01*
X150903466Y-77139980D01*
X149268447Y-78775000D01*
X147919286Y-78775000D01*
X148132862Y-78686534D01*
X148536534Y-78282862D01*
X148755000Y-77755439D01*
X148755000Y-77184561D01*
X148536534Y-76657138D01*
X148132862Y-76253466D01*
X147605439Y-76035000D01*
X147034561Y-76035000D01*
X146507138Y-76253466D01*
X146103466Y-76657138D01*
X145885000Y-77184561D01*
X145885000Y-77755439D01*
X146103466Y-78282862D01*
X146507138Y-78686534D01*
X146720714Y-78775000D01*
X131052440Y-78775000D01*
X131052440Y-78510000D01*
X131003157Y-78262235D01*
X130862809Y-78052191D01*
X130652765Y-77911843D01*
X130405000Y-77862560D01*
X127405000Y-77862560D01*
X127157235Y-77911843D01*
X126947191Y-78052191D01*
X126806843Y-78262235D01*
X126757560Y-78510000D01*
X125709999Y-78510000D01*
X125709999Y-69000000D01*
X126670000Y-69000000D01*
X126784038Y-69720010D01*
X127114990Y-70369540D01*
X127630460Y-70885010D01*
X128279990Y-71215962D01*
X129000000Y-71330000D01*
X129720010Y-71215962D01*
X129770963Y-71190000D01*
X134677560Y-71190000D01*
X134677560Y-73590000D01*
X134726843Y-73837765D01*
X134867191Y-74047809D01*
X135077235Y-74188157D01*
X135325000Y-74237440D01*
X137725000Y-74237440D01*
X137972765Y-74188157D01*
X138182809Y-74047809D01*
X138323157Y-73837765D01*
X138353110Y-73687175D01*
X140407430Y-73687175D01*
X140530565Y-73974788D01*
X141212734Y-74234707D01*
X141942443Y-74213786D01*
X142519435Y-73974788D01*
X142642570Y-73687175D01*
X141525000Y-72569605D01*
X140407430Y-73687175D01*
X138353110Y-73687175D01*
X138372440Y-73590000D01*
X138372440Y-72077734D01*
X139680293Y-72077734D01*
X139701214Y-72807443D01*
X139940212Y-73384435D01*
X140227825Y-73507570D01*
X141345395Y-72390000D01*
X141704605Y-72390000D01*
X142822175Y-73507570D01*
X143109788Y-73384435D01*
X143369707Y-72702266D01*
X143348786Y-71972557D01*
X143109788Y-71395565D01*
X142822175Y-71272430D01*
X141704605Y-72390000D01*
X141345395Y-72390000D01*
X140227825Y-71272430D01*
X139940212Y-71395565D01*
X139680293Y-72077734D01*
X138372440Y-72077734D01*
X138372440Y-71190000D01*
X138353111Y-71092825D01*
X140407430Y-71092825D01*
X141525000Y-72210395D01*
X142642570Y-71092825D01*
X142519435Y-70805212D01*
X141837266Y-70545293D01*
X141107557Y-70566214D01*
X140530565Y-70805212D01*
X140407430Y-71092825D01*
X138353111Y-71092825D01*
X138323157Y-70942235D01*
X138182809Y-70732191D01*
X137972765Y-70591843D01*
X137725000Y-70542560D01*
X135325000Y-70542560D01*
X135077235Y-70591843D01*
X134867191Y-70732191D01*
X134726843Y-70942235D01*
X134677560Y-71190000D01*
X129770963Y-71190000D01*
X130369540Y-70885010D01*
X130885010Y-70369540D01*
X131215962Y-69720010D01*
X131330000Y-69000000D01*
X168670000Y-69000000D01*
X168784038Y-69720010D01*
X169114990Y-70369540D01*
X169630460Y-70885010D01*
X170279990Y-71215962D01*
X171000000Y-71330000D01*
X171720010Y-71215962D01*
X172369540Y-70885010D01*
X172885010Y-70369540D01*
X173215962Y-69720010D01*
X173330000Y-69000000D01*
X173215962Y-68279990D01*
X172885010Y-67630460D01*
X172369540Y-67114990D01*
X171720010Y-66784038D01*
X171000000Y-66670000D01*
X170279990Y-66784038D01*
X169630460Y-67114990D01*
X169114990Y-67630460D01*
X168784038Y-68279990D01*
X168670000Y-69000000D01*
X131330000Y-69000000D01*
X131215962Y-68279990D01*
X130885010Y-67630460D01*
X130369540Y-67114990D01*
X129720010Y-66784038D01*
X129000000Y-66670000D01*
X128279990Y-66784038D01*
X127630460Y-67114990D01*
X127114990Y-67630460D01*
X126784038Y-68279990D01*
X126670000Y-69000000D01*
X125709999Y-69000000D01*
X125710000Y-67050580D01*
X125768803Y-66639973D01*
X125919338Y-66308890D01*
X126156749Y-66033361D01*
X126461944Y-65835544D01*
X126833917Y-65724300D01*
X127026348Y-65710000D01*
X172949420Y-65710000D01*
X173360027Y-65768803D01*
G04 #@! TD*
M02*
